G04 EAGLE Gerber RS-274X export*
G75*
%MOMM*%
%FSLAX34Y34*%
%LPD*%
%INBottom Copper*%
%IPPOS*%
%AMOC8*
5,1,8,0,0,1.08239X$1,22.5*%
G01*
%ADD10R,0.610000X1.270000*%
%ADD11R,0.610000X1.020000*%
%ADD12R,3.910000X3.810000*%
%ADD13R,1.000000X1.100000*%
%ADD14R,2.000000X1.500000*%
%ADD15R,1.800000X1.800000*%
%ADD16C,1.800000*%
%ADD17R,3.000000X3.000000*%
%ADD18R,1.300000X1.600000*%
%ADD19R,1.200000X1.200000*%
%ADD20R,1.000000X0.700000*%
%ADD21C,0.504000*%
%ADD22C,0.604000*%
%ADD23C,1.500000*%
%ADD24C,0.254000*%
%ADD25C,1.016000*%
%ADD26C,0.700000*%
%ADD27C,0.152400*%
%ADD28C,0.508000*%
%ADD29C,0.825000*%

G36*
X381363Y173817D02*
X381363Y173817D01*
X381350Y173892D01*
X381343Y173902D01*
X381341Y173912D01*
X381317Y173940D01*
X381269Y174012D01*
X380133Y175148D01*
X380068Y175188D01*
X380006Y175232D01*
X379994Y175234D01*
X379985Y175239D01*
X379948Y175243D01*
X379864Y175259D01*
X370617Y175259D01*
X370543Y175242D01*
X370468Y175229D01*
X370458Y175222D01*
X370448Y175220D01*
X370420Y175196D01*
X370348Y175148D01*
X368702Y173501D01*
X364088Y173501D01*
X360826Y176763D01*
X360826Y181377D01*
X364088Y184639D01*
X368702Y184639D01*
X370348Y182992D01*
X370413Y182952D01*
X370475Y182908D01*
X370487Y182906D01*
X370496Y182901D01*
X370533Y182897D01*
X370617Y182881D01*
X379191Y182881D01*
X379216Y182887D01*
X379242Y182884D01*
X379299Y182906D01*
X379360Y182920D01*
X379380Y182937D01*
X379404Y182946D01*
X379446Y182991D01*
X379493Y183030D01*
X379504Y183054D01*
X379521Y183073D01*
X379539Y183132D01*
X379564Y183189D01*
X379563Y183214D01*
X379571Y183239D01*
X379560Y183300D01*
X379558Y183362D01*
X379545Y183384D01*
X379541Y183410D01*
X379493Y183481D01*
X379475Y183514D01*
X379467Y183520D01*
X379460Y183530D01*
X379241Y183748D01*
X379241Y187347D01*
X379224Y187421D01*
X379211Y187496D01*
X379204Y187506D01*
X379202Y187516D01*
X379178Y187545D01*
X379130Y187616D01*
X378898Y187848D01*
X376554Y190192D01*
X376554Y197073D01*
X376537Y197147D01*
X376524Y197222D01*
X376517Y197232D01*
X376515Y197242D01*
X376491Y197270D01*
X376443Y197342D01*
X376412Y197373D01*
X376347Y197413D01*
X376285Y197457D01*
X376273Y197459D01*
X376264Y197464D01*
X376227Y197468D01*
X376143Y197484D01*
X370671Y197484D01*
X370597Y197467D01*
X370522Y197454D01*
X370512Y197447D01*
X370502Y197445D01*
X370473Y197421D01*
X370402Y197373D01*
X357178Y184149D01*
X349504Y184149D01*
X349454Y184138D01*
X349403Y184136D01*
X349371Y184118D01*
X349335Y184110D01*
X349296Y184077D01*
X349251Y184053D01*
X349230Y184023D01*
X349202Y184000D01*
X349181Y183953D01*
X349151Y183911D01*
X349143Y183869D01*
X349131Y183841D01*
X349132Y183811D01*
X349124Y183769D01*
X349124Y179056D01*
X349124Y179054D01*
X349124Y179053D01*
X349153Y178911D01*
X350074Y176687D01*
X350074Y173833D01*
X349153Y171609D01*
X349152Y171608D01*
X349151Y171606D01*
X349124Y171464D01*
X349124Y128651D01*
X349135Y128601D01*
X349137Y128550D01*
X349155Y128518D01*
X349163Y128482D01*
X349196Y128443D01*
X349220Y128398D01*
X349250Y128377D01*
X349273Y128349D01*
X349320Y128328D01*
X349362Y128298D01*
X349404Y128290D01*
X349432Y128278D01*
X349462Y128279D01*
X349504Y128271D01*
X352098Y128271D01*
X354554Y125816D01*
X358225Y122144D01*
X358337Y122032D01*
X360681Y119688D01*
X360681Y94392D01*
X360698Y94318D01*
X360711Y94243D01*
X360718Y94233D01*
X360720Y94223D01*
X360744Y94195D01*
X360792Y94123D01*
X360904Y94012D01*
X361591Y93324D01*
X362439Y91278D01*
X362439Y89062D01*
X361591Y87016D01*
X360024Y85449D01*
X357978Y84601D01*
X355762Y84601D01*
X353716Y85449D01*
X352149Y87016D01*
X351301Y89062D01*
X351301Y91278D01*
X352149Y93324D01*
X352836Y94012D01*
X352948Y94123D01*
X352988Y94188D01*
X353032Y94250D01*
X353034Y94262D01*
X353039Y94271D01*
X353043Y94308D01*
X353059Y94392D01*
X353059Y116374D01*
X353042Y116448D01*
X353029Y116523D01*
X353022Y116533D01*
X353020Y116543D01*
X352996Y116572D01*
X352948Y116643D01*
X349773Y119818D01*
X349751Y119832D01*
X349735Y119851D01*
X349687Y119873D01*
X349647Y119901D01*
X349635Y119903D01*
X349626Y119909D01*
X349600Y119912D01*
X349576Y119922D01*
X349544Y119921D01*
X349505Y119929D01*
X349504Y119929D01*
X349481Y119923D01*
X349453Y119926D01*
X349429Y119917D01*
X349403Y119916D01*
X349369Y119897D01*
X349335Y119889D01*
X349317Y119874D01*
X349291Y119864D01*
X349274Y119845D01*
X349251Y119833D01*
X349229Y119802D01*
X349202Y119779D01*
X349192Y119757D01*
X349174Y119737D01*
X349166Y119712D01*
X349151Y119691D01*
X349143Y119648D01*
X349131Y119621D01*
X349132Y119596D01*
X349124Y119571D01*
X349126Y119561D01*
X349124Y119549D01*
X349124Y116584D01*
X346966Y114426D01*
X342365Y114426D01*
X342291Y114409D01*
X342217Y114396D01*
X342206Y114389D01*
X342197Y114387D01*
X342168Y114363D01*
X342136Y114341D01*
X300481Y114341D01*
X300459Y114355D01*
X300397Y114399D01*
X300385Y114401D01*
X300376Y114406D01*
X300339Y114410D01*
X300255Y114426D01*
X295019Y114426D01*
X292861Y116584D01*
X292861Y176034D01*
X292855Y176059D01*
X292858Y176085D01*
X292836Y176143D01*
X292822Y176203D01*
X292805Y176223D01*
X292796Y176247D01*
X292751Y176289D01*
X292712Y176336D01*
X292688Y176347D01*
X292669Y176365D01*
X292610Y176382D01*
X292553Y176407D01*
X292528Y176406D01*
X292503Y176414D01*
X292442Y176403D01*
X292380Y176401D01*
X292358Y176388D01*
X292332Y176384D01*
X292261Y176336D01*
X292228Y176318D01*
X292222Y176310D01*
X292212Y176303D01*
X286497Y170588D01*
X286457Y170523D01*
X286413Y170461D01*
X286411Y170449D01*
X286406Y170441D01*
X286402Y170404D01*
X286386Y170319D01*
X286386Y90837D01*
X286405Y90722D01*
X286422Y90606D01*
X286424Y90600D01*
X286425Y90594D01*
X286480Y90491D01*
X286533Y90387D01*
X286538Y90382D01*
X286541Y90377D01*
X286625Y90297D01*
X286709Y90214D01*
X286715Y90211D01*
X286719Y90207D01*
X286736Y90199D01*
X286856Y90133D01*
X287634Y89811D01*
X289201Y88244D01*
X290049Y86198D01*
X290049Y83982D01*
X289201Y81936D01*
X287634Y80369D01*
X285588Y79521D01*
X283372Y79521D01*
X281326Y80369D01*
X279759Y81936D01*
X279406Y82788D01*
X279371Y82844D01*
X279346Y82904D01*
X279294Y82969D01*
X279276Y82997D01*
X279261Y83009D01*
X279241Y83035D01*
X278764Y83512D01*
X278764Y173633D01*
X281108Y175977D01*
X283911Y178780D01*
X283925Y178802D01*
X283944Y178818D01*
X283970Y178875D01*
X284002Y178927D01*
X284005Y178953D01*
X284015Y178977D01*
X284013Y179038D01*
X284019Y179100D01*
X284010Y179124D01*
X284009Y179150D01*
X283979Y179204D01*
X283957Y179262D01*
X283938Y179279D01*
X283926Y179302D01*
X283876Y179337D01*
X283830Y179379D01*
X283805Y179387D01*
X283784Y179402D01*
X283700Y179418D01*
X283664Y179429D01*
X283654Y179427D01*
X283642Y179429D01*
X277621Y179429D01*
X277621Y188709D01*
X289401Y188709D01*
X289401Y185188D01*
X289407Y185163D01*
X289404Y185137D01*
X289426Y185079D01*
X289440Y185019D01*
X289457Y184999D01*
X289466Y184975D01*
X289511Y184933D01*
X289550Y184886D01*
X289574Y184875D01*
X289593Y184857D01*
X289652Y184840D01*
X289709Y184815D01*
X289734Y184816D01*
X289759Y184808D01*
X289820Y184819D01*
X289882Y184821D01*
X289904Y184834D01*
X289930Y184838D01*
X290001Y184886D01*
X290034Y184904D01*
X290040Y184912D01*
X290050Y184919D01*
X296050Y190919D01*
X296090Y190984D01*
X296134Y191046D01*
X296136Y191058D01*
X296141Y191066D01*
X296145Y191103D01*
X296161Y191188D01*
X296161Y199353D01*
X297947Y201139D01*
X306573Y201139D01*
X308341Y199370D01*
X308384Y199344D01*
X308422Y199309D01*
X308457Y199298D01*
X308488Y199279D01*
X308539Y199274D01*
X308588Y199260D01*
X308624Y199266D01*
X308661Y199262D01*
X308709Y199281D01*
X308759Y199289D01*
X308794Y199313D01*
X308823Y199324D01*
X308844Y199347D01*
X308879Y199370D01*
X310647Y201139D01*
X319273Y201139D01*
X319766Y200645D01*
X319831Y200605D01*
X319893Y200561D01*
X319905Y200559D01*
X319914Y200554D01*
X319951Y200550D01*
X320035Y200534D01*
X322585Y200534D01*
X322659Y200551D01*
X322733Y200564D01*
X322744Y200571D01*
X322753Y200573D01*
X322782Y200597D01*
X322854Y200645D01*
X323347Y201139D01*
X331973Y201139D01*
X332466Y200645D01*
X332531Y200605D01*
X332593Y200561D01*
X332605Y200559D01*
X332614Y200554D01*
X332651Y200550D01*
X332735Y200534D01*
X335285Y200534D01*
X335359Y200551D01*
X335433Y200564D01*
X335444Y200571D01*
X335453Y200573D01*
X335482Y200597D01*
X335554Y200645D01*
X336047Y201139D01*
X344673Y201139D01*
X345166Y200645D01*
X345231Y200605D01*
X345293Y200561D01*
X345305Y200559D01*
X345314Y200554D01*
X345351Y200550D01*
X345435Y200534D01*
X346966Y200534D01*
X349124Y198376D01*
X349124Y192151D01*
X349135Y192101D01*
X349137Y192050D01*
X349155Y192018D01*
X349163Y191982D01*
X349196Y191943D01*
X349220Y191898D01*
X349250Y191877D01*
X349273Y191849D01*
X349320Y191828D01*
X349362Y191798D01*
X349404Y191790D01*
X349432Y191778D01*
X349462Y191779D01*
X349504Y191771D01*
X353864Y191771D01*
X353938Y191788D01*
X354013Y191801D01*
X354023Y191808D01*
X354033Y191810D01*
X354062Y191834D01*
X354133Y191882D01*
X364801Y202550D01*
X364815Y202572D01*
X364834Y202588D01*
X364860Y202645D01*
X364892Y202697D01*
X364895Y202723D01*
X364905Y202747D01*
X364903Y202808D01*
X364909Y202870D01*
X364900Y202894D01*
X364899Y202920D01*
X364869Y202974D01*
X364847Y203032D01*
X364828Y203049D01*
X364816Y203072D01*
X364766Y203107D01*
X364720Y203149D01*
X364695Y203157D01*
X364674Y203172D01*
X364590Y203188D01*
X364554Y203199D01*
X364544Y203197D01*
X364532Y203199D01*
X72680Y203199D01*
X72659Y203214D01*
X72647Y203216D01*
X72639Y203221D01*
X72602Y203225D01*
X72517Y203241D01*
X71897Y203241D01*
X70111Y205027D01*
X70111Y205647D01*
X70094Y205721D01*
X70081Y205796D01*
X70074Y205806D01*
X70072Y205816D01*
X70048Y205845D01*
X70000Y205916D01*
X66674Y209242D01*
X66674Y254943D01*
X78162Y266431D01*
X78176Y266453D01*
X78195Y266469D01*
X78221Y266526D01*
X78253Y266578D01*
X78256Y266604D01*
X78266Y266628D01*
X78264Y266689D01*
X78270Y266751D01*
X78261Y266775D01*
X78260Y266801D01*
X78230Y266855D01*
X78208Y266913D01*
X78189Y266930D01*
X78177Y266953D01*
X78127Y266988D01*
X78081Y267030D01*
X78056Y267038D01*
X78035Y267053D01*
X77951Y267069D01*
X77915Y267080D01*
X77905Y267078D01*
X77893Y267080D01*
X61341Y267080D01*
X61291Y267069D01*
X61240Y267067D01*
X61208Y267049D01*
X61172Y267041D01*
X61133Y267008D01*
X61088Y266984D01*
X61067Y266954D01*
X61039Y266931D01*
X61018Y266884D01*
X60988Y266842D01*
X60980Y266800D01*
X60968Y266772D01*
X60969Y266742D01*
X60961Y266700D01*
X60961Y206702D01*
X50531Y196272D01*
X50491Y196207D01*
X50447Y196145D01*
X50445Y196133D01*
X50440Y196125D01*
X50436Y196088D01*
X50431Y196061D01*
X50427Y196051D01*
X50427Y196041D01*
X50420Y196003D01*
X50420Y180721D01*
X50431Y180671D01*
X50433Y180620D01*
X50451Y180588D01*
X50459Y180552D01*
X50492Y180513D01*
X50516Y180468D01*
X50546Y180447D01*
X50569Y180419D01*
X50616Y180398D01*
X50658Y180368D01*
X50700Y180360D01*
X50728Y180348D01*
X50758Y180349D01*
X50800Y180341D01*
X67056Y180341D01*
X67106Y180352D01*
X67157Y180354D01*
X67189Y180372D01*
X67225Y180380D01*
X67264Y180413D01*
X67309Y180437D01*
X67330Y180467D01*
X67358Y180490D01*
X67379Y180537D01*
X67409Y180579D01*
X67417Y180621D01*
X67429Y180649D01*
X67428Y180679D01*
X67436Y180721D01*
X67436Y181866D01*
X68361Y182790D01*
X68372Y182809D01*
X68385Y182820D01*
X68395Y182842D01*
X68422Y182871D01*
X68433Y182906D01*
X68452Y182937D01*
X68456Y182977D01*
X68456Y182978D01*
X68456Y182981D01*
X68457Y182988D01*
X68471Y183037D01*
X68465Y183073D01*
X68469Y183110D01*
X68450Y183157D01*
X68442Y183208D01*
X68418Y183243D01*
X68407Y183272D01*
X68384Y183293D01*
X68361Y183328D01*
X67561Y184127D01*
X67561Y199353D01*
X69347Y201139D01*
X77973Y201139D01*
X79532Y199579D01*
X79575Y199553D01*
X79613Y199518D01*
X79648Y199507D01*
X79679Y199488D01*
X79730Y199483D01*
X79779Y199469D01*
X79815Y199475D01*
X79852Y199471D01*
X79899Y199490D01*
X79950Y199498D01*
X79985Y199522D01*
X80014Y199533D01*
X80035Y199556D01*
X80070Y199579D01*
X82294Y201804D01*
X119636Y201804D01*
X121869Y199571D01*
X121902Y199550D01*
X121929Y199522D01*
X121975Y199505D01*
X122016Y199479D01*
X122055Y199475D01*
X122092Y199462D01*
X122151Y199466D01*
X122189Y199463D01*
X122209Y199470D01*
X122236Y199472D01*
X122380Y199511D01*
X131954Y199511D01*
X131954Y189851D01*
X131965Y189801D01*
X131967Y189750D01*
X131985Y189718D01*
X131993Y189682D01*
X132026Y189643D01*
X132050Y189598D01*
X132080Y189577D01*
X132103Y189549D01*
X132150Y189528D01*
X132192Y189498D01*
X132234Y189490D01*
X132262Y189478D01*
X132292Y189479D01*
X132334Y189471D01*
X132716Y189471D01*
X132716Y189469D01*
X131953Y189469D01*
X131933Y189466D01*
X131914Y189468D01*
X131812Y189446D01*
X131710Y189429D01*
X131693Y189420D01*
X131673Y189416D01*
X131584Y189363D01*
X131493Y189314D01*
X131479Y189300D01*
X131462Y189290D01*
X131395Y189211D01*
X131324Y189136D01*
X131315Y189118D01*
X131302Y189103D01*
X131263Y189007D01*
X131220Y188913D01*
X131218Y188893D01*
X131210Y188875D01*
X131192Y188708D01*
X131192Y179429D01*
X122381Y179429D01*
X122272Y179458D01*
X122259Y179459D01*
X122246Y179464D01*
X122173Y179461D01*
X122099Y179464D01*
X122087Y179458D01*
X122073Y179458D01*
X122009Y179423D01*
X121942Y179392D01*
X121933Y179381D01*
X121921Y179375D01*
X121879Y179315D01*
X121832Y179258D01*
X121829Y179244D01*
X121821Y179233D01*
X121794Y179091D01*
X121794Y177123D01*
X121811Y177049D01*
X121824Y176974D01*
X121831Y176964D01*
X121833Y176954D01*
X121857Y176926D01*
X121905Y176854D01*
X121921Y176838D01*
X121921Y119072D01*
X121905Y119056D01*
X121892Y119034D01*
X121873Y119019D01*
X121852Y118973D01*
X121821Y118929D01*
X121819Y118917D01*
X121814Y118909D01*
X121811Y118882D01*
X121802Y118860D01*
X121803Y118833D01*
X121794Y118787D01*
X121794Y116584D01*
X119636Y114426D01*
X113765Y114426D01*
X113691Y114409D01*
X113616Y114396D01*
X113606Y114389D01*
X113597Y114387D01*
X113568Y114363D01*
X113536Y114341D01*
X76539Y114341D01*
X76514Y114335D01*
X76488Y114338D01*
X76430Y114316D01*
X76370Y114302D01*
X76350Y114285D01*
X76326Y114276D01*
X76284Y114231D01*
X76237Y114192D01*
X76226Y114168D01*
X76209Y114149D01*
X76191Y114090D01*
X76166Y114033D01*
X76167Y114008D01*
X76159Y113983D01*
X76170Y113922D01*
X76172Y113860D01*
X76185Y113838D01*
X76189Y113812D01*
X76237Y113741D01*
X76255Y113708D01*
X76263Y113702D01*
X76270Y113692D01*
X77612Y112350D01*
X77677Y112310D01*
X77739Y112266D01*
X77751Y112264D01*
X77759Y112259D01*
X77796Y112255D01*
X77881Y112239D01*
X77973Y112239D01*
X79759Y110453D01*
X79759Y110361D01*
X79776Y110287D01*
X79789Y110212D01*
X79796Y110202D01*
X79798Y110192D01*
X79822Y110163D01*
X79870Y110092D01*
X80234Y109729D01*
X80287Y109696D01*
X80336Y109656D01*
X80360Y109650D01*
X80381Y109637D01*
X80443Y109631D01*
X80505Y109617D01*
X80529Y109623D01*
X80553Y109621D01*
X80612Y109643D01*
X80673Y109658D01*
X80692Y109674D01*
X80715Y109682D01*
X80758Y109729D01*
X80806Y109769D01*
X80818Y109794D01*
X80833Y109810D01*
X80843Y109845D01*
X80870Y109899D01*
X80942Y110171D01*
X81277Y110750D01*
X81750Y111223D01*
X82329Y111558D01*
X82975Y111731D01*
X85599Y111731D01*
X85599Y109981D01*
X83820Y109981D01*
X83800Y109978D01*
X83781Y109980D01*
X83679Y109958D01*
X83577Y109942D01*
X83560Y109932D01*
X83540Y109928D01*
X83451Y109875D01*
X83360Y109826D01*
X83346Y109812D01*
X83329Y109802D01*
X83262Y109723D01*
X83191Y109648D01*
X83182Y109630D01*
X83169Y109615D01*
X83130Y109519D01*
X83087Y109425D01*
X83085Y109405D01*
X83077Y109387D01*
X83059Y109220D01*
X83059Y93471D01*
X78318Y93471D01*
X78228Y93456D01*
X78137Y93449D01*
X78118Y93441D01*
X74422Y93441D01*
X74402Y93438D01*
X74383Y93440D01*
X74281Y93418D01*
X74179Y93402D01*
X74162Y93392D01*
X74142Y93388D01*
X74053Y93335D01*
X73962Y93286D01*
X73948Y93272D01*
X73931Y93262D01*
X73864Y93183D01*
X73792Y93108D01*
X73784Y93090D01*
X73771Y93075D01*
X73732Y92979D01*
X73689Y92885D01*
X73687Y92865D01*
X73679Y92847D01*
X73661Y92680D01*
X73661Y75500D01*
X73675Y75410D01*
X73683Y75319D01*
X73695Y75289D01*
X73700Y75257D01*
X73743Y75177D01*
X73779Y75093D01*
X73805Y75061D01*
X73816Y75040D01*
X73839Y75018D01*
X73884Y74962D01*
X74571Y74274D01*
X75419Y72228D01*
X75419Y70012D01*
X74571Y67966D01*
X73004Y66399D01*
X70829Y65498D01*
X70729Y65436D01*
X70629Y65376D01*
X70625Y65372D01*
X70620Y65368D01*
X70545Y65278D01*
X70469Y65189D01*
X70467Y65184D01*
X70463Y65179D01*
X70421Y65070D01*
X70377Y64961D01*
X70376Y64954D01*
X70375Y64949D01*
X70374Y64931D01*
X70359Y64795D01*
X70359Y3810D01*
X70362Y3790D01*
X70360Y3771D01*
X70382Y3669D01*
X70399Y3567D01*
X70408Y3550D01*
X70412Y3530D01*
X70465Y3441D01*
X70514Y3350D01*
X70528Y3336D01*
X70538Y3319D01*
X70617Y3252D01*
X70692Y3180D01*
X70710Y3172D01*
X70725Y3159D01*
X70821Y3120D01*
X70915Y3077D01*
X70935Y3075D01*
X70953Y3067D01*
X71120Y3049D01*
X399714Y3049D01*
X399785Y3060D01*
X399856Y3062D01*
X399905Y3080D01*
X399957Y3088D01*
X400020Y3122D01*
X400087Y3147D01*
X400128Y3179D01*
X400174Y3204D01*
X400223Y3256D01*
X400279Y3300D01*
X400308Y3344D01*
X400343Y3382D01*
X400374Y3447D01*
X400412Y3507D01*
X400425Y3558D01*
X400447Y3605D01*
X400455Y3676D01*
X400473Y3746D01*
X400468Y3798D01*
X400474Y3849D01*
X400459Y3920D01*
X400453Y3991D01*
X400433Y4039D01*
X400422Y4090D01*
X400385Y4151D01*
X400357Y4217D01*
X400312Y4273D01*
X400296Y4301D01*
X400278Y4316D01*
X400252Y4348D01*
X397456Y7145D01*
X395621Y11573D01*
X395621Y16367D01*
X397456Y20795D01*
X400845Y24184D01*
X405273Y26019D01*
X410067Y26019D01*
X414495Y24184D01*
X417884Y20795D01*
X419719Y16367D01*
X419719Y11573D01*
X417884Y7145D01*
X415088Y4348D01*
X415046Y4290D01*
X414997Y4238D01*
X414975Y4191D01*
X414944Y4149D01*
X414923Y4080D01*
X414893Y4015D01*
X414887Y3963D01*
X414872Y3913D01*
X414874Y3842D01*
X414866Y3771D01*
X414877Y3720D01*
X414878Y3668D01*
X414903Y3600D01*
X414918Y3530D01*
X414945Y3485D01*
X414963Y3437D01*
X415008Y3381D01*
X415044Y3319D01*
X415084Y3285D01*
X415116Y3245D01*
X415177Y3206D01*
X415231Y3159D01*
X415279Y3140D01*
X415323Y3112D01*
X415393Y3094D01*
X415459Y3067D01*
X415531Y3059D01*
X415562Y3051D01*
X415585Y3053D01*
X415626Y3049D01*
X450514Y3049D01*
X450585Y3060D01*
X450656Y3062D01*
X450705Y3080D01*
X450757Y3088D01*
X450820Y3122D01*
X450887Y3147D01*
X450928Y3179D01*
X450974Y3204D01*
X451023Y3256D01*
X451079Y3300D01*
X451108Y3344D01*
X451143Y3382D01*
X451174Y3447D01*
X451212Y3507D01*
X451225Y3558D01*
X451247Y3605D01*
X451255Y3676D01*
X451273Y3746D01*
X451268Y3798D01*
X451274Y3849D01*
X451259Y3920D01*
X451253Y3991D01*
X451233Y4039D01*
X451222Y4090D01*
X451185Y4151D01*
X451157Y4217D01*
X451112Y4273D01*
X451096Y4301D01*
X451078Y4316D01*
X451052Y4348D01*
X448256Y7145D01*
X446421Y11573D01*
X446421Y13970D01*
X446418Y13990D01*
X446420Y14009D01*
X446398Y14111D01*
X446382Y14213D01*
X446372Y14230D01*
X446368Y14250D01*
X446315Y14339D01*
X446266Y14430D01*
X446252Y14444D01*
X446242Y14461D01*
X446163Y14528D01*
X446088Y14600D01*
X446070Y14608D01*
X446055Y14621D01*
X445959Y14660D01*
X445865Y14703D01*
X445845Y14705D01*
X445827Y14713D01*
X445660Y14731D01*
X444658Y14731D01*
X442604Y15582D01*
X441032Y17154D01*
X440181Y19208D01*
X440181Y21170D01*
X440178Y21190D01*
X440180Y21209D01*
X440158Y21311D01*
X440142Y21413D01*
X440132Y21430D01*
X440128Y21450D01*
X440075Y21539D01*
X440026Y21630D01*
X440012Y21644D01*
X440002Y21661D01*
X439923Y21728D01*
X439848Y21800D01*
X439830Y21808D01*
X439815Y21821D01*
X439719Y21860D01*
X439625Y21903D01*
X439605Y21905D01*
X439587Y21913D01*
X439420Y21931D01*
X437992Y21931D01*
X436206Y23717D01*
X436206Y37243D01*
X437992Y39029D01*
X450518Y39029D01*
X452217Y37330D01*
X452233Y37318D01*
X452245Y37303D01*
X452333Y37247D01*
X452416Y37186D01*
X452435Y37180D01*
X452452Y37170D01*
X452553Y37144D01*
X452652Y37114D01*
X452671Y37114D01*
X452691Y37110D01*
X452794Y37118D01*
X452897Y37120D01*
X452916Y37127D01*
X452936Y37129D01*
X453031Y37169D01*
X453128Y37205D01*
X453144Y37217D01*
X453162Y37225D01*
X453293Y37330D01*
X454992Y39029D01*
X467518Y39029D01*
X469304Y37243D01*
X469304Y23717D01*
X468071Y22485D01*
X468060Y22469D01*
X468044Y22456D01*
X467988Y22369D01*
X467928Y22285D01*
X467922Y22266D01*
X467911Y22249D01*
X467886Y22149D01*
X467855Y22050D01*
X467856Y22030D01*
X467851Y22011D01*
X467859Y21908D01*
X467862Y21804D01*
X467869Y21785D01*
X467870Y21765D01*
X467911Y21671D01*
X467946Y21573D01*
X467959Y21557D01*
X467966Y21539D01*
X468071Y21408D01*
X468684Y20795D01*
X470357Y16758D01*
X470408Y16675D01*
X470454Y16589D01*
X470473Y16571D01*
X470486Y16549D01*
X470561Y16487D01*
X470632Y16420D01*
X470656Y16409D01*
X470676Y16392D01*
X470767Y16357D01*
X470855Y16316D01*
X470881Y16313D01*
X470905Y16304D01*
X471003Y16300D01*
X471099Y16289D01*
X471125Y16294D01*
X471151Y16293D01*
X471245Y16320D01*
X471340Y16341D01*
X471362Y16355D01*
X471387Y16362D01*
X471467Y16417D01*
X471551Y16467D01*
X471568Y16487D01*
X471589Y16502D01*
X471648Y16580D01*
X471711Y16654D01*
X471721Y16678D01*
X471736Y16699D01*
X471766Y16792D01*
X471803Y16882D01*
X471806Y16915D01*
X471812Y16933D01*
X471812Y16966D01*
X471821Y17049D01*
X471821Y24233D01*
X473607Y26019D01*
X494133Y26019D01*
X495919Y24233D01*
X495919Y3810D01*
X495922Y3790D01*
X495920Y3771D01*
X495942Y3669D01*
X495958Y3567D01*
X495968Y3550D01*
X495972Y3530D01*
X496025Y3441D01*
X496074Y3350D01*
X496088Y3336D01*
X496098Y3319D01*
X496177Y3252D01*
X496252Y3180D01*
X496270Y3172D01*
X496285Y3159D01*
X496381Y3120D01*
X496475Y3077D01*
X496495Y3075D01*
X496513Y3067D01*
X496680Y3049D01*
X565660Y3049D01*
X565680Y3052D01*
X565699Y3050D01*
X565801Y3072D01*
X565903Y3088D01*
X565920Y3098D01*
X565940Y3102D01*
X566029Y3155D01*
X566120Y3204D01*
X566134Y3218D01*
X566151Y3228D01*
X566218Y3307D01*
X566290Y3382D01*
X566298Y3400D01*
X566311Y3415D01*
X566350Y3511D01*
X566393Y3605D01*
X566395Y3625D01*
X566403Y3643D01*
X566421Y3810D01*
X566421Y72630D01*
X566418Y72650D01*
X566420Y72669D01*
X566398Y72771D01*
X566382Y72873D01*
X566372Y72890D01*
X566368Y72910D01*
X566315Y72999D01*
X566266Y73090D01*
X566252Y73104D01*
X566242Y73121D01*
X566163Y73188D01*
X566088Y73260D01*
X566070Y73268D01*
X566055Y73281D01*
X565959Y73320D01*
X565865Y73363D01*
X565845Y73365D01*
X565827Y73373D01*
X565660Y73391D01*
X533647Y73391D01*
X531861Y75177D01*
X531861Y86868D01*
X531858Y86888D01*
X531860Y86907D01*
X531838Y87009D01*
X531822Y87111D01*
X531812Y87128D01*
X531808Y87148D01*
X531755Y87237D01*
X531706Y87328D01*
X531692Y87342D01*
X531682Y87359D01*
X531603Y87426D01*
X531528Y87498D01*
X531510Y87506D01*
X531495Y87519D01*
X531399Y87558D01*
X531305Y87601D01*
X531285Y87603D01*
X531267Y87611D01*
X531100Y87629D01*
X515947Y87629D01*
X513629Y89946D01*
X513556Y89999D01*
X513486Y90059D01*
X513456Y90071D01*
X513430Y90090D01*
X513343Y90117D01*
X513258Y90151D01*
X513217Y90155D01*
X513195Y90162D01*
X513162Y90161D01*
X513091Y90169D01*
X509205Y90169D01*
X509115Y90155D01*
X509024Y90147D01*
X508994Y90135D01*
X508962Y90130D01*
X508882Y90087D01*
X508798Y90051D01*
X508766Y90025D01*
X508745Y90014D01*
X508723Y89991D01*
X508667Y89946D01*
X507979Y89259D01*
X505933Y88411D01*
X503717Y88411D01*
X501671Y89259D01*
X500104Y90826D01*
X499974Y91141D01*
X499949Y91180D01*
X499934Y91223D01*
X499885Y91284D01*
X499844Y91350D01*
X499808Y91379D01*
X499780Y91415D01*
X499714Y91457D01*
X499654Y91507D01*
X499612Y91523D01*
X499573Y91548D01*
X499497Y91567D01*
X499425Y91595D01*
X499379Y91597D01*
X499334Y91608D01*
X499257Y91602D01*
X499179Y91605D01*
X499135Y91592D01*
X499089Y91589D01*
X499018Y91558D01*
X498943Y91537D01*
X498905Y91511D01*
X498863Y91493D01*
X498756Y91407D01*
X498741Y91396D01*
X498738Y91392D01*
X498732Y91388D01*
X497917Y90572D01*
X497864Y90498D01*
X497804Y90429D01*
X497792Y90399D01*
X497773Y90373D01*
X497746Y90286D01*
X497712Y90201D01*
X497708Y90160D01*
X497701Y90138D01*
X497702Y90105D01*
X497694Y90034D01*
X497694Y89697D01*
X496846Y87651D01*
X495279Y86084D01*
X493233Y85236D01*
X491017Y85236D01*
X488971Y86084D01*
X487404Y87651D01*
X486556Y89697D01*
X486556Y91913D01*
X487404Y93959D01*
X488971Y95526D01*
X491017Y96374D01*
X492624Y96374D01*
X492714Y96388D01*
X492805Y96396D01*
X492835Y96408D01*
X492867Y96413D01*
X492948Y96456D01*
X493032Y96492D01*
X493064Y96518D01*
X493084Y96529D01*
X493107Y96552D01*
X493162Y96597D01*
X513054Y116488D01*
X531100Y116488D01*
X531120Y116491D01*
X531139Y116489D01*
X531241Y116511D01*
X531343Y116527D01*
X531360Y116537D01*
X531380Y116541D01*
X531469Y116594D01*
X531560Y116643D01*
X531574Y116657D01*
X531591Y116667D01*
X531658Y116746D01*
X531730Y116821D01*
X531738Y116839D01*
X531751Y116854D01*
X531790Y116950D01*
X531833Y117044D01*
X531835Y117064D01*
X531843Y117082D01*
X531861Y117249D01*
X531861Y143263D01*
X533647Y145049D01*
X565660Y145049D01*
X565680Y145052D01*
X565699Y145050D01*
X565801Y145072D01*
X565903Y145088D01*
X565920Y145098D01*
X565940Y145102D01*
X566029Y145155D01*
X566120Y145204D01*
X566134Y145218D01*
X566151Y145228D01*
X566218Y145307D01*
X566290Y145382D01*
X566298Y145400D01*
X566311Y145415D01*
X566350Y145511D01*
X566393Y145605D01*
X566395Y145625D01*
X566403Y145643D01*
X566421Y145810D01*
X566421Y171450D01*
X566418Y171470D01*
X566420Y171489D01*
X566398Y171591D01*
X566382Y171693D01*
X566372Y171710D01*
X566368Y171730D01*
X566315Y171819D01*
X566266Y171910D01*
X566252Y171924D01*
X566242Y171941D01*
X566163Y172008D01*
X566088Y172080D01*
X566070Y172088D01*
X566055Y172101D01*
X565959Y172140D01*
X565865Y172183D01*
X565845Y172185D01*
X565827Y172193D01*
X565660Y172211D01*
X552068Y172211D01*
X552068Y177165D01*
X552065Y177185D01*
X552067Y177204D01*
X552045Y177306D01*
X552028Y177408D01*
X552019Y177425D01*
X552015Y177445D01*
X551962Y177534D01*
X551913Y177625D01*
X551899Y177639D01*
X551889Y177656D01*
X551810Y177723D01*
X551735Y177795D01*
X551717Y177803D01*
X551702Y177816D01*
X551606Y177855D01*
X551512Y177898D01*
X551492Y177900D01*
X551474Y177908D01*
X551307Y177926D01*
X549783Y177926D01*
X549763Y177923D01*
X549744Y177925D01*
X549642Y177903D01*
X549540Y177887D01*
X549523Y177877D01*
X549503Y177873D01*
X549414Y177820D01*
X549323Y177771D01*
X549309Y177757D01*
X549292Y177747D01*
X549225Y177668D01*
X549154Y177593D01*
X549145Y177575D01*
X549132Y177560D01*
X549093Y177464D01*
X549050Y177370D01*
X549048Y177350D01*
X549040Y177332D01*
X549022Y177165D01*
X549022Y172211D01*
X381380Y172211D01*
X381380Y173743D01*
X381363Y173817D01*
G37*
G36*
X558890Y206264D02*
X558890Y206264D01*
X558981Y206271D01*
X559011Y206283D01*
X559043Y206289D01*
X559123Y206331D01*
X559207Y206367D01*
X559239Y206393D01*
X559260Y206404D01*
X559282Y206427D01*
X559338Y206472D01*
X567976Y215110D01*
X568029Y215184D01*
X568089Y215253D01*
X568101Y215283D01*
X568120Y215309D01*
X568147Y215396D01*
X568181Y215481D01*
X568185Y215522D01*
X568192Y215545D01*
X568191Y215577D01*
X568199Y215648D01*
X568199Y268378D01*
X568196Y268398D01*
X568198Y268417D01*
X568176Y268519D01*
X568160Y268621D01*
X568150Y268638D01*
X568146Y268658D01*
X568093Y268747D01*
X568044Y268838D01*
X568030Y268852D01*
X568020Y268869D01*
X567941Y268936D01*
X567866Y269008D01*
X567848Y269016D01*
X567833Y269029D01*
X567737Y269068D01*
X567643Y269111D01*
X567623Y269113D01*
X567605Y269121D01*
X567438Y269139D01*
X85498Y269139D01*
X85408Y269125D01*
X85317Y269117D01*
X85287Y269105D01*
X85255Y269100D01*
X85175Y269057D01*
X85091Y269021D01*
X85059Y268995D01*
X85038Y268984D01*
X85016Y268961D01*
X84960Y268916D01*
X69947Y253903D01*
X69894Y253829D01*
X69834Y253760D01*
X69822Y253730D01*
X69803Y253704D01*
X69776Y253617D01*
X69742Y253532D01*
X69738Y253491D01*
X69731Y253468D01*
X69732Y253436D01*
X69724Y253365D01*
X69724Y210820D01*
X69729Y210785D01*
X69729Y210777D01*
X69738Y210734D01*
X69739Y210730D01*
X69746Y210639D01*
X69758Y210609D01*
X69764Y210577D01*
X69778Y210550D01*
X69781Y210536D01*
X69810Y210487D01*
X69842Y210413D01*
X69868Y210381D01*
X69879Y210360D01*
X69897Y210343D01*
X69907Y210325D01*
X69922Y210312D01*
X69947Y210282D01*
X73757Y206472D01*
X73831Y206419D01*
X73900Y206359D01*
X73930Y206347D01*
X73956Y206328D01*
X74043Y206301D01*
X74128Y206267D01*
X74169Y206263D01*
X74192Y206256D01*
X74224Y206257D01*
X74295Y206249D01*
X558800Y206249D01*
X558890Y206264D01*
G37*
G36*
X55970Y3064D02*
X55970Y3064D01*
X56061Y3071D01*
X56091Y3083D01*
X56123Y3089D01*
X56203Y3131D01*
X56287Y3167D01*
X56319Y3193D01*
X56340Y3204D01*
X56362Y3227D01*
X56418Y3272D01*
X62768Y9622D01*
X62821Y9696D01*
X62881Y9765D01*
X62893Y9795D01*
X62912Y9821D01*
X62939Y9908D01*
X62973Y9993D01*
X62977Y10034D01*
X62984Y10057D01*
X62983Y10089D01*
X62991Y10160D01*
X62991Y111445D01*
X70165Y118619D01*
X70486Y118619D01*
X70486Y118110D01*
X70497Y118045D01*
X70499Y117979D01*
X70517Y117936D01*
X70525Y117889D01*
X70559Y117832D01*
X70584Y117772D01*
X70615Y117737D01*
X70640Y117696D01*
X70691Y117655D01*
X70735Y117606D01*
X70777Y117584D01*
X70814Y117555D01*
X70876Y117534D01*
X70935Y117503D01*
X70989Y117495D01*
X71026Y117483D01*
X71066Y117484D01*
X71120Y117476D01*
X118110Y117476D01*
X118175Y117487D01*
X118241Y117489D01*
X118284Y117507D01*
X118331Y117515D01*
X118388Y117549D01*
X118448Y117574D01*
X118483Y117605D01*
X118524Y117630D01*
X118566Y117681D01*
X118614Y117725D01*
X118636Y117767D01*
X118665Y117804D01*
X118686Y117866D01*
X118717Y117925D01*
X118725Y117979D01*
X118737Y118016D01*
X118736Y118056D01*
X118744Y118110D01*
X118744Y120236D01*
X118761Y120255D01*
X118773Y120285D01*
X118792Y120311D01*
X118819Y120398D01*
X118853Y120483D01*
X118857Y120524D01*
X118864Y120547D01*
X118863Y120579D01*
X118871Y120650D01*
X118871Y175260D01*
X118857Y175350D01*
X118849Y175441D01*
X118837Y175471D01*
X118832Y175503D01*
X118789Y175583D01*
X118753Y175667D01*
X118744Y175678D01*
X118744Y198120D01*
X118733Y198185D01*
X118731Y198251D01*
X118713Y198294D01*
X118705Y198341D01*
X118671Y198398D01*
X118646Y198458D01*
X118615Y198493D01*
X118590Y198534D01*
X118539Y198576D01*
X118495Y198624D01*
X118453Y198646D01*
X118416Y198675D01*
X118354Y198696D01*
X118295Y198727D01*
X118241Y198735D01*
X118204Y198747D01*
X118164Y198746D01*
X118110Y198754D01*
X83820Y198754D01*
X83755Y198743D01*
X83689Y198741D01*
X83646Y198723D01*
X83599Y198715D01*
X83542Y198681D01*
X83482Y198656D01*
X83447Y198625D01*
X83406Y198600D01*
X83365Y198549D01*
X83316Y198505D01*
X83294Y198463D01*
X83265Y198426D01*
X83244Y198364D01*
X83213Y198305D01*
X83205Y198251D01*
X83193Y198214D01*
X83194Y198174D01*
X83186Y198120D01*
X83186Y180974D01*
X71120Y180974D01*
X71055Y180963D01*
X70989Y180961D01*
X70946Y180943D01*
X70899Y180935D01*
X70842Y180901D01*
X70782Y180876D01*
X70747Y180845D01*
X70706Y180820D01*
X70665Y180769D01*
X70616Y180725D01*
X70594Y180683D01*
X70565Y180646D01*
X70544Y180584D01*
X70513Y180525D01*
X70505Y180471D01*
X70493Y180434D01*
X70494Y180394D01*
X70486Y180340D01*
X70486Y177291D01*
X33655Y177291D01*
X33565Y177277D01*
X33474Y177269D01*
X33444Y177257D01*
X33412Y177252D01*
X33332Y177209D01*
X33248Y177173D01*
X33216Y177147D01*
X33195Y177136D01*
X33173Y177113D01*
X33117Y177068D01*
X3272Y147223D01*
X3216Y147146D01*
X3155Y147074D01*
X3145Y147047D01*
X3128Y147024D01*
X3100Y146933D01*
X3066Y146845D01*
X3062Y146809D01*
X3056Y146788D01*
X3057Y146756D01*
X3049Y146678D01*
X4337Y13944D01*
X4352Y13858D01*
X4359Y13770D01*
X4373Y13737D01*
X4380Y13702D01*
X4421Y13624D01*
X4456Y13544D01*
X4484Y13508D01*
X4497Y13485D01*
X4520Y13464D01*
X4560Y13413D01*
X14702Y3272D01*
X14776Y3219D01*
X14845Y3159D01*
X14875Y3147D01*
X14901Y3128D01*
X14988Y3101D01*
X15073Y3067D01*
X15114Y3063D01*
X15137Y3056D01*
X15169Y3057D01*
X15240Y3049D01*
X55880Y3049D01*
X55970Y3064D01*
G37*
%LPC*%
G36*
X181696Y79597D02*
X181696Y79597D01*
X179649Y80445D01*
X178083Y82012D01*
X177235Y84059D01*
X177235Y85188D01*
X177218Y85262D01*
X177205Y85337D01*
X177198Y85347D01*
X177196Y85357D01*
X177172Y85386D01*
X177124Y85457D01*
X176529Y86052D01*
X176529Y100509D01*
X176523Y100534D01*
X176526Y100560D01*
X176504Y100617D01*
X176490Y100678D01*
X176473Y100697D01*
X176464Y100722D01*
X176419Y100763D01*
X176380Y100811D01*
X176356Y100822D01*
X176337Y100839D01*
X176278Y100857D01*
X176221Y100882D01*
X176196Y100881D01*
X176171Y100888D01*
X176110Y100878D01*
X176048Y100875D01*
X176026Y100863D01*
X176000Y100859D01*
X175929Y100810D01*
X175896Y100793D01*
X175890Y100785D01*
X175880Y100778D01*
X175570Y100468D01*
X175530Y100403D01*
X175486Y100341D01*
X175484Y100329D01*
X175479Y100320D01*
X175475Y100283D01*
X175459Y100199D01*
X175459Y89849D01*
X175230Y89620D01*
X174278Y88667D01*
X174166Y88556D01*
X174126Y88491D01*
X174082Y88429D01*
X174080Y88417D01*
X174075Y88409D01*
X174071Y88372D01*
X174055Y88287D01*
X174055Y87157D01*
X173207Y85111D01*
X171640Y83544D01*
X169594Y82696D01*
X167378Y82696D01*
X165332Y83544D01*
X163765Y85111D01*
X162917Y87157D01*
X162917Y89373D01*
X163765Y91419D01*
X165332Y92986D01*
X167367Y93829D01*
X167375Y93834D01*
X167457Y93834D01*
X167507Y93845D01*
X167558Y93847D01*
X167590Y93865D01*
X167626Y93873D01*
X167665Y93906D01*
X167710Y93930D01*
X167731Y93960D01*
X167759Y93983D01*
X167780Y94030D01*
X167810Y94072D01*
X167818Y94114D01*
X167830Y94142D01*
X167829Y94172D01*
X167837Y94214D01*
X167837Y98084D01*
X167831Y98109D01*
X167834Y98135D01*
X167812Y98192D01*
X167798Y98253D01*
X167781Y98273D01*
X167772Y98297D01*
X167727Y98339D01*
X167688Y98386D01*
X167664Y98397D01*
X167645Y98414D01*
X167586Y98432D01*
X167529Y98457D01*
X167504Y98456D01*
X167479Y98464D01*
X167418Y98453D01*
X167356Y98451D01*
X167334Y98438D01*
X167308Y98434D01*
X167237Y98386D01*
X167204Y98368D01*
X167198Y98360D01*
X167188Y98353D01*
X166538Y97703D01*
X166538Y97702D01*
X165714Y96879D01*
X163668Y96031D01*
X161452Y96031D01*
X159406Y96879D01*
X157839Y98446D01*
X156991Y100492D01*
X156991Y102708D01*
X157839Y104754D01*
X158526Y105442D01*
X158638Y105553D01*
X158678Y105618D01*
X158722Y105680D01*
X158724Y105692D01*
X158729Y105701D01*
X158733Y105738D01*
X158749Y105822D01*
X158749Y120323D01*
X166893Y128467D01*
X166933Y128532D01*
X166977Y128594D01*
X166979Y128606D01*
X166984Y128614D01*
X166988Y128651D01*
X167004Y128736D01*
X167004Y179057D01*
X167001Y179070D01*
X167003Y179084D01*
X166982Y179154D01*
X166965Y179226D01*
X166956Y179236D01*
X166952Y179249D01*
X166901Y179302D01*
X166855Y179359D01*
X166842Y179365D01*
X166833Y179375D01*
X166764Y179400D01*
X166696Y179430D01*
X166683Y179430D01*
X166670Y179434D01*
X166595Y179429D01*
X157733Y179429D01*
X157733Y188708D01*
X157730Y188728D01*
X157732Y188747D01*
X157710Y188849D01*
X157693Y188951D01*
X157684Y188968D01*
X157680Y188988D01*
X157627Y189077D01*
X157578Y189168D01*
X157564Y189182D01*
X157554Y189199D01*
X157475Y189266D01*
X157400Y189337D01*
X157382Y189346D01*
X157367Y189359D01*
X157271Y189398D01*
X157177Y189441D01*
X157157Y189443D01*
X157139Y189451D01*
X156972Y189469D01*
X156209Y189469D01*
X156209Y189471D01*
X156591Y189471D01*
X156641Y189482D01*
X156692Y189484D01*
X156724Y189502D01*
X156760Y189510D01*
X156799Y189543D01*
X156844Y189567D01*
X156865Y189597D01*
X156893Y189621D01*
X156914Y189667D01*
X156944Y189709D01*
X156952Y189751D01*
X156964Y189779D01*
X156963Y189809D01*
X156971Y189851D01*
X156971Y199511D01*
X166545Y199511D01*
X167191Y199338D01*
X167770Y199003D01*
X168068Y198706D01*
X168111Y198679D01*
X168148Y198644D01*
X168184Y198634D01*
X168215Y198614D01*
X168265Y198609D01*
X168314Y198595D01*
X168351Y198601D01*
X168387Y198598D01*
X168435Y198616D01*
X168485Y198625D01*
X168520Y198648D01*
X168549Y198659D01*
X168570Y198682D01*
X168605Y198706D01*
X170413Y200514D01*
X175027Y200514D01*
X178289Y197252D01*
X178289Y192638D01*
X175027Y189376D01*
X175006Y189376D01*
X174956Y189365D01*
X174905Y189363D01*
X174873Y189345D01*
X174837Y189337D01*
X174798Y189304D01*
X174753Y189280D01*
X174732Y189250D01*
X174704Y189227D01*
X174683Y189180D01*
X174653Y189138D01*
X174645Y189096D01*
X174633Y189068D01*
X174634Y189038D01*
X174626Y188996D01*
X174626Y125422D01*
X166482Y117278D01*
X166442Y117213D01*
X166398Y117151D01*
X166396Y117139D01*
X166391Y117131D01*
X166387Y117094D01*
X166371Y117009D01*
X166371Y109351D01*
X166377Y109326D01*
X166374Y109300D01*
X166396Y109243D01*
X166410Y109182D01*
X166427Y109163D01*
X166436Y109138D01*
X166481Y109097D01*
X166520Y109049D01*
X166544Y109038D01*
X166563Y109021D01*
X166622Y109003D01*
X166679Y108978D01*
X166704Y108979D01*
X166729Y108972D01*
X166790Y108982D01*
X166852Y108985D01*
X166874Y108997D01*
X166900Y109001D01*
X166971Y109050D01*
X167004Y109067D01*
X167010Y109075D01*
X167020Y109082D01*
X168210Y110273D01*
X170441Y111197D01*
X172855Y111197D01*
X175086Y110273D01*
X175880Y109478D01*
X175902Y109465D01*
X175918Y109445D01*
X175975Y109420D01*
X176027Y109387D01*
X176053Y109384D01*
X176077Y109374D01*
X176138Y109376D01*
X176200Y109370D01*
X176224Y109380D01*
X176250Y109381D01*
X176304Y109410D01*
X176362Y109432D01*
X176379Y109451D01*
X176402Y109463D01*
X176437Y109514D01*
X176479Y109559D01*
X176487Y109584D01*
X176502Y109605D01*
X176518Y109690D01*
X176529Y109725D01*
X176527Y109735D01*
X176529Y109747D01*
X176529Y185698D01*
X181750Y190919D01*
X181790Y190984D01*
X181834Y191046D01*
X181836Y191058D01*
X181841Y191066D01*
X181845Y191103D01*
X181861Y191188D01*
X181861Y199353D01*
X183647Y201139D01*
X192273Y201139D01*
X194041Y199370D01*
X194084Y199344D01*
X194122Y199309D01*
X194157Y199298D01*
X194188Y199279D01*
X194239Y199274D01*
X194288Y199260D01*
X194324Y199266D01*
X194361Y199262D01*
X194408Y199281D01*
X194459Y199289D01*
X194494Y199313D01*
X194523Y199324D01*
X194544Y199347D01*
X194579Y199370D01*
X196347Y201139D01*
X204973Y201139D01*
X205466Y200645D01*
X205531Y200605D01*
X205593Y200561D01*
X205605Y200559D01*
X205614Y200554D01*
X205651Y200550D01*
X205735Y200534D01*
X208285Y200534D01*
X208359Y200551D01*
X208433Y200564D01*
X208444Y200571D01*
X208453Y200573D01*
X208482Y200597D01*
X208554Y200645D01*
X209047Y201139D01*
X217673Y201139D01*
X218166Y200645D01*
X218231Y200605D01*
X218293Y200561D01*
X218305Y200559D01*
X218314Y200554D01*
X218351Y200550D01*
X218435Y200534D01*
X220985Y200534D01*
X221059Y200551D01*
X221133Y200564D01*
X221144Y200571D01*
X221153Y200573D01*
X221182Y200597D01*
X221254Y200645D01*
X221747Y201139D01*
X230373Y201139D01*
X230866Y200645D01*
X230931Y200605D01*
X230993Y200561D01*
X231005Y200559D01*
X231014Y200554D01*
X231051Y200550D01*
X231135Y200534D01*
X240286Y200534D01*
X241606Y199214D01*
X241607Y199213D01*
X241608Y199212D01*
X241679Y199168D01*
X241753Y199122D01*
X241754Y199122D01*
X241755Y199121D01*
X241841Y199114D01*
X241926Y199106D01*
X241927Y199106D01*
X241928Y199106D01*
X242065Y199153D01*
X242384Y199338D01*
X243030Y199511D01*
X252604Y199511D01*
X252604Y190231D01*
X242824Y190231D01*
X242774Y190220D01*
X242723Y190218D01*
X242691Y190200D01*
X242655Y190192D01*
X242616Y190159D01*
X242571Y190135D01*
X242550Y190105D01*
X242522Y190081D01*
X242501Y190035D01*
X242471Y189993D01*
X242463Y189951D01*
X242451Y189923D01*
X242452Y189893D01*
X242444Y189851D01*
X242444Y189089D01*
X242455Y189039D01*
X242457Y188988D01*
X242475Y188956D01*
X242483Y188920D01*
X242516Y188881D01*
X242540Y188836D01*
X242570Y188815D01*
X242593Y188787D01*
X242640Y188766D01*
X242682Y188736D01*
X242724Y188728D01*
X242752Y188716D01*
X242782Y188717D01*
X242824Y188709D01*
X252604Y188709D01*
X252604Y179429D01*
X243031Y179429D01*
X242922Y179458D01*
X242909Y179459D01*
X242896Y179464D01*
X242823Y179461D01*
X242749Y179464D01*
X242737Y179458D01*
X242723Y179458D01*
X242659Y179423D01*
X242592Y179392D01*
X242583Y179381D01*
X242571Y179375D01*
X242529Y179315D01*
X242482Y179258D01*
X242479Y179244D01*
X242471Y179233D01*
X242444Y179091D01*
X242444Y125771D01*
X242461Y125697D01*
X242474Y125623D01*
X242481Y125612D01*
X242483Y125603D01*
X242507Y125574D01*
X242555Y125503D01*
X253239Y114819D01*
X253239Y96424D01*
X253256Y96350D01*
X253269Y96275D01*
X253276Y96265D01*
X253278Y96255D01*
X253302Y96227D01*
X253350Y96155D01*
X253462Y96044D01*
X253641Y95864D01*
X254489Y93818D01*
X254489Y91602D01*
X253641Y89556D01*
X252074Y87989D01*
X250028Y87141D01*
X247812Y87141D01*
X245766Y87989D01*
X244199Y89556D01*
X243351Y91602D01*
X243351Y93818D01*
X244199Y95864D01*
X244378Y96044D01*
X244490Y96155D01*
X244530Y96220D01*
X244574Y96282D01*
X244576Y96294D01*
X244581Y96303D01*
X244585Y96340D01*
X244601Y96424D01*
X244601Y111084D01*
X244584Y111158D01*
X244571Y111232D01*
X244564Y111243D01*
X244562Y111252D01*
X244538Y111281D01*
X244490Y111352D01*
X241120Y114723D01*
X241076Y114749D01*
X241039Y114784D01*
X241004Y114795D01*
X240973Y114814D01*
X240922Y114819D01*
X240873Y114833D01*
X240837Y114827D01*
X240800Y114831D01*
X240753Y114812D01*
X240702Y114804D01*
X240667Y114780D01*
X240638Y114769D01*
X240617Y114746D01*
X240582Y114723D01*
X240286Y114426D01*
X228065Y114426D01*
X227991Y114409D01*
X227917Y114396D01*
X227906Y114389D01*
X227897Y114387D01*
X227868Y114363D01*
X227836Y114341D01*
X186181Y114341D01*
X186159Y114355D01*
X186097Y114399D01*
X186085Y114401D01*
X186076Y114406D01*
X186039Y114410D01*
X185955Y114426D01*
X184531Y114426D01*
X184481Y114415D01*
X184430Y114413D01*
X184398Y114395D01*
X184362Y114387D01*
X184323Y114354D01*
X184278Y114330D01*
X184257Y114300D01*
X184229Y114277D01*
X184208Y114230D01*
X184178Y114188D01*
X184170Y114146D01*
X184158Y114118D01*
X184159Y114088D01*
X184151Y114046D01*
X184151Y112619D01*
X184162Y112569D01*
X184164Y112518D01*
X184182Y112486D01*
X184190Y112450D01*
X184223Y112411D01*
X184247Y112366D01*
X184277Y112345D01*
X184300Y112317D01*
X184347Y112296D01*
X184389Y112266D01*
X184431Y112258D01*
X184459Y112246D01*
X184489Y112247D01*
X184531Y112239D01*
X192273Y112239D01*
X194059Y110453D01*
X194059Y95227D01*
X193640Y94809D01*
X193600Y94744D01*
X193556Y94682D01*
X193554Y94670D01*
X193549Y94661D01*
X193545Y94624D01*
X193529Y94540D01*
X193529Y92308D01*
X193407Y92187D01*
X193382Y92182D01*
X193265Y92165D01*
X193260Y92163D01*
X193254Y92162D01*
X193151Y92107D01*
X193046Y92054D01*
X193042Y92049D01*
X193036Y92046D01*
X192956Y91962D01*
X192874Y91878D01*
X192870Y91872D01*
X192867Y91868D01*
X192859Y91851D01*
X192793Y91731D01*
X192681Y91461D01*
X191114Y89894D01*
X189068Y89046D01*
X187717Y89046D01*
X187692Y89040D01*
X187666Y89043D01*
X187609Y89021D01*
X187548Y89007D01*
X187528Y88990D01*
X187504Y88981D01*
X187462Y88936D01*
X187415Y88897D01*
X187404Y88873D01*
X187387Y88854D01*
X187369Y88795D01*
X187344Y88738D01*
X187345Y88713D01*
X187337Y88688D01*
X187348Y88627D01*
X187350Y88565D01*
X187363Y88543D01*
X187367Y88517D01*
X187415Y88446D01*
X187433Y88413D01*
X187441Y88407D01*
X187448Y88397D01*
X187604Y88241D01*
X187613Y88201D01*
X187613Y88155D01*
X187652Y88023D01*
X187655Y88005D01*
X187658Y88001D01*
X187660Y87994D01*
X188373Y86274D01*
X188373Y84059D01*
X187525Y82012D01*
X185958Y80445D01*
X183911Y79597D01*
X181696Y79597D01*
G37*
%LPD*%
G36*
X238825Y117487D02*
X238825Y117487D01*
X238891Y117489D01*
X238934Y117507D01*
X238981Y117515D01*
X239038Y117549D01*
X239098Y117574D01*
X239133Y117605D01*
X239174Y117630D01*
X239216Y117681D01*
X239264Y117725D01*
X239286Y117767D01*
X239315Y117804D01*
X239336Y117866D01*
X239367Y117925D01*
X239375Y117979D01*
X239387Y118016D01*
X239386Y118056D01*
X239394Y118110D01*
X239394Y196850D01*
X239383Y196915D01*
X239381Y196981D01*
X239363Y197024D01*
X239355Y197071D01*
X239321Y197128D01*
X239296Y197188D01*
X239265Y197223D01*
X239240Y197264D01*
X239189Y197306D01*
X239145Y197354D01*
X239103Y197376D01*
X239066Y197405D01*
X239004Y197426D01*
X238945Y197457D01*
X238891Y197465D01*
X238854Y197477D01*
X238814Y197476D01*
X238760Y197484D01*
X198120Y197484D01*
X198055Y197473D01*
X197989Y197471D01*
X197946Y197453D01*
X197899Y197445D01*
X197842Y197411D01*
X197782Y197386D01*
X197747Y197355D01*
X197706Y197330D01*
X197665Y197279D01*
X197616Y197235D01*
X197594Y197193D01*
X197565Y197156D01*
X197544Y197094D01*
X197513Y197035D01*
X197505Y196981D01*
X197493Y196944D01*
X197494Y196904D01*
X197486Y196850D01*
X197486Y179704D01*
X185420Y179704D01*
X185355Y179693D01*
X185289Y179691D01*
X185246Y179673D01*
X185199Y179665D01*
X185142Y179631D01*
X185082Y179606D01*
X185047Y179575D01*
X185006Y179550D01*
X184965Y179499D01*
X184916Y179455D01*
X184894Y179413D01*
X184865Y179376D01*
X184844Y179314D01*
X184813Y179255D01*
X184805Y179201D01*
X184793Y179164D01*
X184794Y179124D01*
X184786Y179070D01*
X184786Y118110D01*
X184797Y118045D01*
X184799Y117979D01*
X184817Y117936D01*
X184825Y117889D01*
X184859Y117832D01*
X184884Y117772D01*
X184915Y117737D01*
X184940Y117696D01*
X184991Y117655D01*
X185035Y117606D01*
X185077Y117584D01*
X185114Y117555D01*
X185176Y117534D01*
X185235Y117503D01*
X185289Y117495D01*
X185326Y117483D01*
X185366Y117484D01*
X185420Y117476D01*
X238760Y117476D01*
X238825Y117487D01*
G37*
G36*
X42635Y192929D02*
X42635Y192929D01*
X42726Y192936D01*
X42756Y192948D01*
X42788Y192954D01*
X42868Y192996D01*
X42952Y193032D01*
X42984Y193058D01*
X43005Y193069D01*
X43027Y193092D01*
X43083Y193137D01*
X57688Y207742D01*
X57741Y207816D01*
X57801Y207885D01*
X57813Y207915D01*
X57832Y207941D01*
X57859Y208028D01*
X57893Y208113D01*
X57897Y208154D01*
X57904Y208177D01*
X57903Y208209D01*
X57911Y208280D01*
X57911Y268378D01*
X57908Y268398D01*
X57910Y268417D01*
X57888Y268519D01*
X57872Y268621D01*
X57862Y268638D01*
X57858Y268658D01*
X57805Y268747D01*
X57756Y268838D01*
X57742Y268852D01*
X57732Y268869D01*
X57653Y268936D01*
X57578Y269008D01*
X57560Y269016D01*
X57545Y269029D01*
X57449Y269068D01*
X57355Y269111D01*
X57335Y269113D01*
X57317Y269121D01*
X57150Y269139D01*
X5488Y269139D01*
X5398Y269125D01*
X5307Y269117D01*
X5277Y269105D01*
X5245Y269100D01*
X5165Y269057D01*
X5081Y269021D01*
X5049Y268995D01*
X5028Y268984D01*
X5006Y268961D01*
X4950Y268916D01*
X3907Y267873D01*
X3854Y267799D01*
X3794Y267730D01*
X3782Y267700D01*
X3763Y267674D01*
X3736Y267587D01*
X3702Y267502D01*
X3698Y267461D01*
X3691Y267438D01*
X3692Y267406D01*
X3684Y267335D01*
X3684Y196215D01*
X3699Y196125D01*
X3706Y196034D01*
X3718Y196004D01*
X3724Y195972D01*
X3766Y195892D01*
X3802Y195808D01*
X3828Y195776D01*
X3839Y195755D01*
X3862Y195733D01*
X3907Y195677D01*
X6447Y193137D01*
X6521Y193084D01*
X6590Y193024D01*
X6620Y193012D01*
X6646Y192993D01*
X6733Y192966D01*
X6818Y192932D01*
X6859Y192928D01*
X6882Y192921D01*
X6914Y192922D01*
X6985Y192914D01*
X42545Y192914D01*
X42635Y192929D01*
G37*
G36*
X345505Y117487D02*
X345505Y117487D01*
X345571Y117489D01*
X345614Y117507D01*
X345661Y117515D01*
X345718Y117549D01*
X345778Y117574D01*
X345813Y117605D01*
X345854Y117630D01*
X345896Y117681D01*
X345944Y117725D01*
X345966Y117767D01*
X345995Y117804D01*
X346016Y117866D01*
X346047Y117925D01*
X346055Y117979D01*
X346067Y118016D01*
X346066Y118056D01*
X346074Y118110D01*
X346074Y196850D01*
X346063Y196915D01*
X346061Y196981D01*
X346043Y197024D01*
X346035Y197071D01*
X346001Y197128D01*
X345976Y197188D01*
X345945Y197223D01*
X345920Y197264D01*
X345869Y197306D01*
X345825Y197354D01*
X345783Y197376D01*
X345746Y197405D01*
X345684Y197426D01*
X345625Y197457D01*
X345571Y197465D01*
X345534Y197477D01*
X345494Y197476D01*
X345440Y197484D01*
X312420Y197484D01*
X312355Y197473D01*
X312289Y197471D01*
X312246Y197453D01*
X312199Y197445D01*
X312142Y197411D01*
X312082Y197386D01*
X312047Y197355D01*
X312006Y197330D01*
X311965Y197279D01*
X311916Y197235D01*
X311894Y197193D01*
X311865Y197156D01*
X311844Y197094D01*
X311813Y197035D01*
X311805Y196981D01*
X311793Y196944D01*
X311794Y196904D01*
X311786Y196850D01*
X311786Y178434D01*
X296545Y178434D01*
X296480Y178423D01*
X296414Y178421D01*
X296371Y178403D01*
X296324Y178395D01*
X296267Y178361D01*
X296207Y178336D01*
X296172Y178305D01*
X296131Y178280D01*
X296090Y178229D01*
X296041Y178185D01*
X296019Y178143D01*
X295990Y178106D01*
X295969Y178044D01*
X295938Y177985D01*
X295930Y177931D01*
X295918Y177894D01*
X295919Y177854D01*
X295911Y177800D01*
X295911Y118110D01*
X295922Y118045D01*
X295924Y117979D01*
X295942Y117936D01*
X295950Y117889D01*
X295984Y117832D01*
X296009Y117772D01*
X296040Y117737D01*
X296065Y117696D01*
X296116Y117655D01*
X296160Y117606D01*
X296202Y117584D01*
X296239Y117555D01*
X296301Y117534D01*
X296360Y117503D01*
X296414Y117495D01*
X296451Y117483D01*
X296491Y117484D01*
X296545Y117476D01*
X345440Y117476D01*
X345505Y117487D01*
G37*
%LPC*%
G36*
X431817Y73406D02*
X431817Y73406D01*
X430031Y75192D01*
X430031Y93718D01*
X431078Y94765D01*
X431131Y94839D01*
X431191Y94908D01*
X431203Y94938D01*
X431222Y94965D01*
X431249Y95052D01*
X431283Y95136D01*
X431287Y95177D01*
X431294Y95200D01*
X431293Y95232D01*
X431301Y95303D01*
X431301Y109498D01*
X433087Y111284D01*
X447613Y111284D01*
X449399Y109498D01*
X449399Y94923D01*
X449410Y94852D01*
X449412Y94781D01*
X449430Y94732D01*
X449438Y94680D01*
X449472Y94617D01*
X449497Y94550D01*
X449529Y94509D01*
X449554Y94463D01*
X449606Y94414D01*
X449650Y94358D01*
X449694Y94329D01*
X449732Y94294D01*
X449797Y94263D01*
X449857Y94225D01*
X449908Y94212D01*
X449955Y94190D01*
X450026Y94182D01*
X450096Y94165D01*
X450148Y94169D01*
X450199Y94163D01*
X450270Y94178D01*
X450341Y94184D01*
X450389Y94204D01*
X450440Y94215D01*
X450501Y94252D01*
X450567Y94280D01*
X450623Y94325D01*
X450651Y94341D01*
X450666Y94359D01*
X450698Y94385D01*
X451817Y95504D01*
X467343Y95504D01*
X469129Y93718D01*
X469129Y75192D01*
X467343Y73406D01*
X451817Y73406D01*
X450118Y75105D01*
X450102Y75117D01*
X450090Y75132D01*
X450002Y75188D01*
X449919Y75249D01*
X449900Y75255D01*
X449883Y75265D01*
X449782Y75291D01*
X449683Y75321D01*
X449664Y75321D01*
X449644Y75325D01*
X449541Y75317D01*
X449438Y75315D01*
X449419Y75308D01*
X449399Y75306D01*
X449304Y75266D01*
X449207Y75230D01*
X449191Y75218D01*
X449173Y75210D01*
X449042Y75105D01*
X447343Y73406D01*
X431817Y73406D01*
G37*
%LPD*%
%LPC*%
G36*
X399478Y132996D02*
X399478Y132996D01*
X397247Y133920D01*
X395540Y135627D01*
X394616Y137858D01*
X394616Y140272D01*
X395540Y142503D01*
X397247Y144210D01*
X399478Y145134D01*
X401892Y145134D01*
X404123Y144210D01*
X405234Y143099D01*
X405308Y143046D01*
X405377Y142986D01*
X405407Y142974D01*
X405434Y142955D01*
X405520Y142928D01*
X405605Y142894D01*
X405646Y142890D01*
X405669Y142883D01*
X405701Y142884D01*
X405772Y142876D01*
X449116Y142876D01*
X449231Y142895D01*
X449347Y142912D01*
X449352Y142914D01*
X449359Y142915D01*
X449461Y142970D01*
X449566Y143023D01*
X449571Y143028D01*
X449576Y143031D01*
X449656Y143115D01*
X449738Y143199D01*
X449742Y143205D01*
X449745Y143209D01*
X449753Y143226D01*
X449819Y143346D01*
X450785Y145678D01*
X452492Y147385D01*
X454723Y148309D01*
X457137Y148309D01*
X459368Y147385D01*
X461075Y145678D01*
X461999Y143447D01*
X461999Y141033D01*
X461075Y138802D01*
X459368Y137095D01*
X457137Y136171D01*
X455566Y136171D01*
X455476Y136157D01*
X455385Y136149D01*
X455355Y136137D01*
X455323Y136132D01*
X455242Y136089D01*
X455158Y136053D01*
X455126Y136027D01*
X455106Y136016D01*
X455083Y135993D01*
X455028Y135948D01*
X454333Y135254D01*
X405772Y135254D01*
X405682Y135240D01*
X405591Y135232D01*
X405561Y135220D01*
X405529Y135215D01*
X405449Y135172D01*
X405365Y135136D01*
X405333Y135110D01*
X405312Y135099D01*
X405290Y135076D01*
X405234Y135031D01*
X404123Y133920D01*
X401892Y132996D01*
X399478Y132996D01*
G37*
%LPD*%
%LPC*%
G36*
X368950Y103278D02*
X368950Y103278D01*
X368990Y103342D01*
X369034Y103404D01*
X369036Y103416D01*
X369041Y103425D01*
X369045Y103462D01*
X369053Y103502D01*
X369054Y103506D01*
X369054Y103510D01*
X369061Y103546D01*
X369061Y110514D01*
X369044Y110588D01*
X369031Y110663D01*
X369024Y110673D01*
X369022Y110682D01*
X368998Y110711D01*
X368950Y110783D01*
X368575Y111158D01*
X368235Y111497D01*
X367311Y113728D01*
X367311Y116142D01*
X368235Y118373D01*
X369942Y120080D01*
X372173Y121004D01*
X374587Y121004D01*
X376818Y120080D01*
X378525Y118373D01*
X379449Y116142D01*
X379449Y115169D01*
X379460Y115119D01*
X379462Y115068D01*
X379480Y115036D01*
X379488Y115000D01*
X379521Y114961D01*
X379545Y114916D01*
X379575Y114895D01*
X379598Y114867D01*
X379645Y114846D01*
X379687Y114816D01*
X379729Y114808D01*
X379757Y114796D01*
X379787Y114797D01*
X379829Y114789D01*
X380203Y114789D01*
X382249Y113941D01*
X383816Y112374D01*
X384664Y110328D01*
X384664Y108112D01*
X383816Y106066D01*
X383129Y105378D01*
X383076Y105304D01*
X383016Y105235D01*
X383004Y105205D01*
X382985Y105179D01*
X382958Y105092D01*
X382924Y105007D01*
X382920Y104966D01*
X382913Y104944D01*
X382914Y104911D01*
X382906Y104840D01*
X382906Y96143D01*
X382907Y96135D01*
X382906Y96124D01*
X382943Y94547D01*
X382200Y93804D01*
X382162Y93751D01*
X382116Y93704D01*
X382076Y93631D01*
X382057Y93604D01*
X382051Y93586D01*
X382035Y93557D01*
X381757Y92885D01*
X380190Y91318D01*
X378431Y90589D01*
X378392Y90565D01*
X378348Y90549D01*
X378288Y90501D01*
X378222Y90460D01*
X378192Y90424D01*
X378156Y90396D01*
X378114Y90330D01*
X378065Y90270D01*
X378048Y90227D01*
X378023Y90189D01*
X378004Y90113D01*
X377977Y90041D01*
X377975Y89995D01*
X377963Y89950D01*
X377969Y89873D01*
X377966Y89795D01*
X377979Y89751D01*
X377982Y89705D01*
X378013Y89634D01*
X378035Y89559D01*
X378061Y89521D01*
X378079Y89479D01*
X378164Y89372D01*
X378175Y89357D01*
X378179Y89354D01*
X378184Y89348D01*
X378369Y89163D01*
X379293Y86932D01*
X379293Y84518D01*
X378369Y82287D01*
X376662Y80580D01*
X374431Y79656D01*
X372017Y79656D01*
X369786Y80580D01*
X368079Y82287D01*
X367188Y84440D01*
X367153Y84496D01*
X367127Y84556D01*
X367076Y84621D01*
X367058Y84649D01*
X367043Y84661D01*
X367023Y84687D01*
X366323Y85387D01*
X366323Y100650D01*
X368950Y103278D01*
G37*
%LPD*%
%LPC*%
G36*
X269207Y81081D02*
X269207Y81081D01*
X266800Y82078D01*
X264958Y83920D01*
X263961Y86327D01*
X263961Y88933D01*
X264958Y91340D01*
X266588Y92969D01*
X266628Y93034D01*
X266672Y93096D01*
X266674Y93108D01*
X266679Y93116D01*
X266683Y93153D01*
X266699Y93238D01*
X266699Y105464D01*
X266685Y105525D01*
X266678Y105589D01*
X266665Y105609D01*
X266660Y105632D01*
X266619Y105681D01*
X266585Y105735D01*
X266563Y105750D01*
X266550Y105766D01*
X266515Y105781D01*
X266465Y105815D01*
X264532Y106615D01*
X262825Y108322D01*
X261901Y110553D01*
X261901Y112967D01*
X262825Y115198D01*
X264532Y116905D01*
X266763Y117829D01*
X269177Y117829D01*
X271408Y116905D01*
X273115Y115198D01*
X274039Y112967D01*
X274039Y111238D01*
X274056Y111164D01*
X274069Y111089D01*
X274076Y111079D01*
X274078Y111069D01*
X274102Y111040D01*
X274150Y110969D01*
X274321Y110798D01*
X274321Y93238D01*
X274338Y93164D01*
X274351Y93089D01*
X274358Y93079D01*
X274360Y93069D01*
X274384Y93041D01*
X274432Y92969D01*
X276062Y91340D01*
X277059Y88933D01*
X277059Y86327D01*
X276062Y83920D01*
X274220Y82078D01*
X271813Y81081D01*
X269207Y81081D01*
G37*
%LPD*%
%LPC*%
G36*
X415857Y109571D02*
X415857Y109571D01*
X414071Y111357D01*
X414071Y120883D01*
X415803Y122615D01*
X415815Y122631D01*
X415830Y122643D01*
X415886Y122731D01*
X415947Y122815D01*
X415953Y122834D01*
X415963Y122850D01*
X415989Y122951D01*
X416019Y123050D01*
X416019Y123070D01*
X416024Y123089D01*
X416015Y123192D01*
X416013Y123296D01*
X416006Y123314D01*
X416004Y123334D01*
X415964Y123429D01*
X415928Y123527D01*
X415916Y123542D01*
X415908Y123560D01*
X415803Y123691D01*
X415649Y123846D01*
X414801Y125892D01*
X414801Y128108D01*
X415649Y130154D01*
X417216Y131721D01*
X419262Y132569D01*
X421478Y132569D01*
X423524Y131721D01*
X425091Y130154D01*
X425939Y128108D01*
X425939Y125892D01*
X425039Y123721D01*
X425029Y123677D01*
X425010Y123635D01*
X425001Y123558D01*
X424983Y123482D01*
X424988Y123436D01*
X424983Y123391D01*
X424999Y123314D01*
X425006Y123237D01*
X425025Y123195D01*
X425035Y123150D01*
X425075Y123083D01*
X425106Y123012D01*
X425137Y122978D01*
X425161Y122939D01*
X425220Y122888D01*
X425273Y122831D01*
X425313Y122809D01*
X425348Y122779D01*
X425420Y122750D01*
X425488Y122713D01*
X425533Y122704D01*
X425576Y122687D01*
X425712Y122672D01*
X425730Y122669D01*
X425735Y122670D01*
X425743Y122669D01*
X428383Y122669D01*
X430169Y120883D01*
X430169Y111357D01*
X428383Y109571D01*
X415857Y109571D01*
G37*
%LPD*%
G36*
X531120Y95254D02*
X531120Y95254D01*
X531139Y95252D01*
X531241Y95274D01*
X531343Y95290D01*
X531360Y95300D01*
X531380Y95304D01*
X531469Y95357D01*
X531560Y95406D01*
X531574Y95420D01*
X531591Y95430D01*
X531658Y95509D01*
X531730Y95584D01*
X531738Y95602D01*
X531751Y95617D01*
X531790Y95713D01*
X531833Y95807D01*
X531835Y95827D01*
X531843Y95845D01*
X531861Y96012D01*
X531861Y107756D01*
X531869Y107766D01*
X531890Y107835D01*
X531920Y107900D01*
X531926Y107952D01*
X531941Y108001D01*
X531939Y108073D01*
X531947Y108144D01*
X531936Y108195D01*
X531935Y108247D01*
X531910Y108315D01*
X531895Y108385D01*
X531868Y108429D01*
X531850Y108478D01*
X531805Y108534D01*
X531769Y108596D01*
X531729Y108630D01*
X531697Y108670D01*
X531636Y108709D01*
X531582Y108756D01*
X531533Y108775D01*
X531490Y108803D01*
X531420Y108821D01*
X531354Y108848D01*
X531282Y108856D01*
X531251Y108864D01*
X531228Y108862D01*
X531187Y108866D01*
X516526Y108866D01*
X516436Y108852D01*
X516345Y108844D01*
X516315Y108832D01*
X516283Y108827D01*
X516202Y108784D01*
X516118Y108748D01*
X516086Y108722D01*
X516066Y108711D01*
X516062Y108708D01*
X516043Y108687D01*
X515988Y108643D01*
X507417Y100073D01*
X507390Y100036D01*
X507357Y100005D01*
X507319Y99937D01*
X507274Y99873D01*
X507260Y99830D01*
X507238Y99789D01*
X507224Y99713D01*
X507201Y99638D01*
X507203Y99592D01*
X507194Y99547D01*
X507206Y99470D01*
X507208Y99392D01*
X507223Y99349D01*
X507230Y99304D01*
X507265Y99235D01*
X507292Y99161D01*
X507321Y99126D01*
X507342Y99085D01*
X507397Y99030D01*
X507446Y98969D01*
X507484Y98945D01*
X507517Y98912D01*
X507637Y98846D01*
X507653Y98836D01*
X507658Y98835D01*
X507664Y98831D01*
X507979Y98701D01*
X508667Y98014D01*
X508741Y97961D01*
X508810Y97901D01*
X508840Y97889D01*
X508866Y97870D01*
X508953Y97843D01*
X509038Y97809D01*
X509079Y97805D01*
X509101Y97798D01*
X509134Y97799D01*
X509205Y97791D01*
X516563Y97791D01*
X518881Y95474D01*
X518954Y95421D01*
X519024Y95361D01*
X519054Y95349D01*
X519080Y95330D01*
X519167Y95303D01*
X519252Y95269D01*
X519293Y95265D01*
X519315Y95258D01*
X519348Y95259D01*
X519419Y95251D01*
X531100Y95251D01*
X531120Y95254D01*
G37*
%LPC*%
G36*
X301152Y89681D02*
X301152Y89681D01*
X299106Y90529D01*
X297656Y91978D01*
X296691Y92943D01*
X296691Y94540D01*
X296674Y94614D01*
X296661Y94688D01*
X296654Y94699D01*
X296652Y94708D01*
X296628Y94737D01*
X296580Y94809D01*
X296161Y95227D01*
X296161Y110453D01*
X297947Y112239D01*
X306573Y112239D01*
X308359Y110453D01*
X308359Y95227D01*
X307940Y94809D01*
X307900Y94744D01*
X307856Y94682D01*
X307854Y94670D01*
X307849Y94661D01*
X307845Y94624D01*
X307829Y94540D01*
X307829Y92943D01*
X306864Y91979D01*
X306864Y91978D01*
X305414Y90529D01*
X303368Y89681D01*
X301152Y89681D01*
G37*
%LPD*%
%LPC*%
G36*
X400523Y101111D02*
X400523Y101111D01*
X398477Y101959D01*
X396910Y103526D01*
X396062Y105572D01*
X396062Y107788D01*
X396249Y108238D01*
X396275Y108351D01*
X396304Y108465D01*
X396303Y108471D01*
X396305Y108477D01*
X396294Y108594D01*
X396285Y108710D01*
X396282Y108716D01*
X396282Y108722D01*
X396234Y108829D01*
X396188Y108936D01*
X396184Y108942D01*
X396182Y108947D01*
X396169Y108960D01*
X396084Y109067D01*
X394102Y111048D01*
X394028Y111101D01*
X393959Y111161D01*
X393929Y111173D01*
X393903Y111192D01*
X393816Y111219D01*
X393731Y111253D01*
X393690Y111257D01*
X393668Y111264D01*
X393635Y111263D01*
X393564Y111271D01*
X392592Y111271D01*
X390546Y112119D01*
X388979Y113686D01*
X388131Y115732D01*
X388131Y117948D01*
X388979Y119994D01*
X390546Y121561D01*
X392592Y122409D01*
X394808Y122409D01*
X396854Y121561D01*
X398421Y119994D01*
X399269Y117948D01*
X399269Y116976D01*
X399283Y116886D01*
X399291Y116795D01*
X399303Y116765D01*
X399308Y116733D01*
X399351Y116652D01*
X399387Y116568D01*
X399413Y116536D01*
X399424Y116516D01*
X399447Y116493D01*
X399492Y116438D01*
X404239Y111690D01*
X404292Y111652D01*
X404339Y111606D01*
X404412Y111565D01*
X404439Y111546D01*
X404458Y111541D01*
X404486Y111525D01*
X404785Y111401D01*
X406352Y109834D01*
X407200Y107788D01*
X407200Y105572D01*
X406352Y103526D01*
X404785Y101959D01*
X402739Y101111D01*
X400523Y101111D01*
G37*
%LPD*%
%LPC*%
G36*
X415857Y146571D02*
X415857Y146571D01*
X414071Y148357D01*
X414071Y157883D01*
X415857Y159669D01*
X428383Y159669D01*
X430169Y157883D01*
X430169Y148357D01*
X428383Y146571D01*
X415857Y146571D01*
G37*
%LPD*%
%LPC*%
G36*
X475857Y109571D02*
X475857Y109571D01*
X474071Y111357D01*
X474071Y120883D01*
X475857Y122669D01*
X488383Y122669D01*
X490169Y120883D01*
X490169Y111357D01*
X488383Y109571D01*
X475857Y109571D01*
G37*
%LPD*%
%LPC*%
G36*
X254126Y190231D02*
X254126Y190231D01*
X254126Y199511D01*
X263700Y199511D01*
X264346Y199338D01*
X264922Y199005D01*
X264960Y198993D01*
X264993Y198973D01*
X265042Y198969D01*
X265088Y198954D01*
X265127Y198961D01*
X265166Y198957D01*
X265222Y198977D01*
X265259Y198983D01*
X265276Y198996D01*
X265303Y199005D01*
X265879Y199338D01*
X266525Y199511D01*
X276099Y199511D01*
X276099Y190231D01*
X254126Y190231D01*
G37*
%LPD*%
%LPC*%
G36*
X266525Y179429D02*
X266525Y179429D01*
X265879Y179602D01*
X265303Y179935D01*
X265265Y179947D01*
X265232Y179967D01*
X265183Y179971D01*
X265137Y179986D01*
X265098Y179979D01*
X265059Y179983D01*
X265003Y179963D01*
X264966Y179957D01*
X264949Y179944D01*
X264922Y179935D01*
X264346Y179602D01*
X263700Y179429D01*
X254126Y179429D01*
X254126Y188709D01*
X276099Y188709D01*
X276099Y179429D01*
X266525Y179429D01*
G37*
%LPD*%
%LPC*%
G36*
X133476Y199511D02*
X133476Y199511D01*
X143050Y199511D01*
X143696Y199338D01*
X144272Y199005D01*
X144310Y198993D01*
X144343Y198973D01*
X144392Y198969D01*
X144438Y198954D01*
X144477Y198961D01*
X144516Y198957D01*
X144572Y198977D01*
X144609Y198983D01*
X144626Y198996D01*
X144653Y199005D01*
X145229Y199338D01*
X145875Y199511D01*
X155449Y199511D01*
X155449Y190993D01*
X155448Y190993D01*
X133477Y190993D01*
X133476Y190993D01*
X133476Y199511D01*
G37*
%LPD*%
%LPC*%
G36*
X134238Y179429D02*
X134238Y179429D01*
X134238Y187947D01*
X154687Y187947D01*
X154687Y179429D01*
X145876Y179429D01*
X145333Y179575D01*
X145229Y179602D01*
X144653Y179935D01*
X144615Y179947D01*
X144582Y179967D01*
X144533Y179971D01*
X144487Y179986D01*
X144448Y179979D01*
X144409Y179983D01*
X144353Y179963D01*
X144316Y179957D01*
X144299Y179944D01*
X144272Y179935D01*
X143852Y179693D01*
X143696Y179602D01*
X143049Y179429D01*
X134238Y179429D01*
G37*
%LPD*%
%LPC*%
G36*
X277621Y190231D02*
X277621Y190231D01*
X277621Y199511D01*
X287195Y199511D01*
X287841Y199338D01*
X288420Y199003D01*
X288893Y198530D01*
X289228Y197951D01*
X289401Y197305D01*
X289401Y190231D01*
X277621Y190231D01*
G37*
%LPD*%
%LPC*%
G36*
X195069Y103601D02*
X195069Y103601D01*
X195069Y109525D01*
X195242Y110171D01*
X195577Y110750D01*
X196050Y111223D01*
X196629Y111558D01*
X197275Y111731D01*
X199899Y111731D01*
X199899Y108711D01*
X198120Y108711D01*
X198100Y108708D01*
X198081Y108710D01*
X197979Y108688D01*
X197877Y108672D01*
X197860Y108662D01*
X197840Y108658D01*
X197751Y108605D01*
X197660Y108556D01*
X197646Y108542D01*
X197629Y108532D01*
X197562Y108453D01*
X197491Y108378D01*
X197482Y108360D01*
X197469Y108345D01*
X197430Y108249D01*
X197387Y108155D01*
X197385Y108135D01*
X197377Y108117D01*
X197359Y107950D01*
X197359Y103601D01*
X195069Y103601D01*
G37*
%LPD*%
%LPC*%
G36*
X309369Y103601D02*
X309369Y103601D01*
X309369Y109525D01*
X309542Y110171D01*
X309877Y110750D01*
X310350Y111223D01*
X310929Y111558D01*
X311575Y111731D01*
X311659Y111731D01*
X311659Y103601D01*
X309369Y103601D01*
G37*
%LPD*%
%LPC*%
G36*
X311575Y93949D02*
X311575Y93949D01*
X310929Y94122D01*
X310350Y94457D01*
X309877Y94930D01*
X309542Y95509D01*
X309369Y96155D01*
X309369Y102079D01*
X311659Y102079D01*
X311659Y93949D01*
X311575Y93949D01*
G37*
%LPD*%
%LPC*%
G36*
X197275Y93949D02*
X197275Y93949D01*
X196629Y94122D01*
X196050Y94457D01*
X195577Y94930D01*
X195242Y95509D01*
X195069Y96155D01*
X195069Y102079D01*
X197359Y102079D01*
X197359Y93949D01*
X197275Y93949D01*
G37*
%LPD*%
%LPC*%
G36*
X226821Y108711D02*
X226821Y108711D01*
X226821Y111731D01*
X229445Y111731D01*
X230091Y111558D01*
X230670Y111223D01*
X231143Y110750D01*
X231478Y110171D01*
X231651Y109525D01*
X231651Y108711D01*
X226821Y108711D01*
G37*
%LPD*%
%LPC*%
G36*
X201421Y108711D02*
X201421Y108711D01*
X201421Y111731D01*
X204045Y111731D01*
X204691Y111558D01*
X205270Y111223D01*
X205743Y110750D01*
X206078Y110171D01*
X206251Y109525D01*
X206251Y108711D01*
X201421Y108711D01*
G37*
%LPD*%
%LPC*%
G36*
X214121Y108711D02*
X214121Y108711D01*
X214121Y111731D01*
X216745Y111731D01*
X217391Y111558D01*
X217970Y111223D01*
X218443Y110750D01*
X218778Y110171D01*
X218951Y109525D01*
X218951Y108711D01*
X214121Y108711D01*
G37*
%LPD*%
%LPC*%
G36*
X220469Y108711D02*
X220469Y108711D01*
X220469Y109525D01*
X220642Y110171D01*
X220977Y110750D01*
X221450Y111223D01*
X222029Y111558D01*
X222675Y111731D01*
X225299Y111731D01*
X225299Y108711D01*
X220469Y108711D01*
G37*
%LPD*%
%LPC*%
G36*
X207769Y108711D02*
X207769Y108711D01*
X207769Y109525D01*
X207942Y110171D01*
X208277Y110750D01*
X208750Y111223D01*
X209329Y111558D01*
X209975Y111731D01*
X212599Y111731D01*
X212599Y108711D01*
X207769Y108711D01*
G37*
%LPD*%
%LPC*%
G36*
X87121Y109981D02*
X87121Y109981D01*
X87121Y111731D01*
X89745Y111731D01*
X90391Y111558D01*
X90970Y111223D01*
X91443Y110750D01*
X91778Y110171D01*
X91828Y109981D01*
X87121Y109981D01*
G37*
%LPD*%
%LPC*%
G36*
X99821Y109981D02*
X99821Y109981D01*
X99821Y111731D01*
X102445Y111731D01*
X103091Y111558D01*
X103670Y111223D01*
X104143Y110750D01*
X104478Y110171D01*
X104528Y109981D01*
X99821Y109981D01*
G37*
%LPD*%
%LPC*%
G36*
X112521Y109981D02*
X112521Y109981D01*
X112521Y111731D01*
X115145Y111731D01*
X115791Y111558D01*
X116370Y111223D01*
X116843Y110750D01*
X117178Y110171D01*
X117228Y109981D01*
X112521Y109981D01*
G37*
%LPD*%
%LPC*%
G36*
X106292Y109981D02*
X106292Y109981D01*
X106342Y110171D01*
X106677Y110750D01*
X107150Y111223D01*
X107729Y111558D01*
X108375Y111731D01*
X110999Y111731D01*
X110999Y109981D01*
X106292Y109981D01*
G37*
%LPD*%
%LPC*%
G36*
X93592Y109981D02*
X93592Y109981D01*
X93642Y110171D01*
X93977Y110750D01*
X94450Y111223D01*
X95029Y111558D01*
X95675Y111731D01*
X98299Y111731D01*
X98299Y109981D01*
X93592Y109981D01*
G37*
%LPD*%
%LPC*%
G36*
X276859Y189469D02*
X276859Y189469D01*
X276859Y189471D01*
X276861Y189471D01*
X276861Y189469D01*
X276859Y189469D01*
G37*
%LPD*%
%LPC*%
G36*
X253364Y189469D02*
X253364Y189469D01*
X253364Y189471D01*
X253366Y189471D01*
X253366Y189469D01*
X253364Y189469D01*
G37*
%LPD*%
D10*
X340360Y191740D03*
X327660Y191740D03*
X314960Y191740D03*
X302260Y191740D03*
D11*
X302260Y246390D03*
X314960Y246390D03*
X327660Y246390D03*
X340360Y246390D03*
D12*
X321310Y225340D03*
D10*
X340360Y102840D03*
X327660Y102840D03*
X314960Y102840D03*
X302260Y102840D03*
D11*
X302260Y157490D03*
X314960Y157490D03*
X327660Y157490D03*
X340360Y157490D03*
D12*
X321310Y136440D03*
D10*
X226060Y191740D03*
X213360Y191740D03*
X200660Y191740D03*
X187960Y191740D03*
D11*
X187960Y246390D03*
X200660Y246390D03*
X213360Y246390D03*
X226060Y246390D03*
D12*
X207010Y225340D03*
D10*
X226060Y102840D03*
X213360Y102840D03*
X200660Y102840D03*
X187960Y102840D03*
D11*
X187960Y157490D03*
X200660Y157490D03*
X213360Y157490D03*
X226060Y157490D03*
D12*
X207010Y136440D03*
D10*
X111760Y191740D03*
X99060Y191740D03*
X86360Y191740D03*
X73660Y191740D03*
D11*
X73660Y246390D03*
X86360Y246390D03*
X99060Y246390D03*
X111760Y246390D03*
D12*
X92710Y225340D03*
D10*
X111760Y102840D03*
X99060Y102840D03*
X86360Y102840D03*
X73660Y102840D03*
D11*
X73660Y157490D03*
X86360Y157490D03*
X99060Y157490D03*
X111760Y157490D03*
D12*
X92710Y136440D03*
D13*
X461255Y30480D03*
X444255Y30480D03*
D14*
X276860Y219470D03*
X276860Y189470D03*
X253365Y219470D03*
X253365Y189470D03*
X516890Y199150D03*
X516890Y169150D03*
X488950Y199150D03*
X488950Y169150D03*
X461010Y199150D03*
X461010Y169150D03*
X433070Y199150D03*
X433070Y169150D03*
X405130Y199150D03*
X405130Y169150D03*
D15*
X483870Y13970D03*
D16*
X458470Y13970D03*
X433070Y13970D03*
X407670Y13970D03*
D17*
X549910Y91440D03*
X549910Y127000D03*
X550545Y162560D03*
D18*
X439580Y84455D03*
X459580Y84455D03*
D19*
X461350Y102235D03*
X440350Y102235D03*
D20*
X482120Y153120D03*
X422120Y153120D03*
X482120Y116120D03*
X422120Y116120D03*
D14*
X132715Y219470D03*
X132715Y189470D03*
X156210Y219470D03*
X156210Y189470D03*
D21*
X419100Y83820D03*
X427990Y52070D03*
X452755Y68580D03*
X427990Y71120D03*
X452120Y52070D03*
X473710Y52070D03*
X288290Y66040D03*
X330200Y53340D03*
X210820Y45720D03*
X123190Y44450D03*
X80645Y40640D03*
X473075Y158115D03*
X519430Y106680D03*
X159385Y68580D03*
X73660Y10160D03*
X92710Y10160D03*
X330200Y46990D03*
X129540Y66040D03*
X78105Y55245D03*
D22*
X260350Y77470D03*
D21*
X189230Y10795D03*
X227330Y45720D03*
X187960Y44450D03*
D23*
X546100Y17780D03*
X521970Y17780D03*
D21*
X469265Y173990D03*
X482600Y156210D03*
X420370Y106680D03*
X410845Y116205D03*
D22*
X363220Y144780D03*
D21*
X143510Y54610D03*
X245110Y54610D03*
X346710Y54610D03*
X520065Y99060D03*
X547370Y159385D03*
X547370Y170180D03*
X494665Y142240D03*
X488950Y137160D03*
X528320Y107315D03*
X507365Y120015D03*
X560705Y170180D03*
X288290Y45720D03*
D23*
X521970Y39370D03*
X546100Y40640D03*
D22*
X354330Y137160D03*
X367030Y135890D03*
X363220Y127000D03*
D21*
X525780Y142875D03*
X488315Y173990D03*
X464820Y164465D03*
X474980Y137160D03*
X517525Y170180D03*
X528320Y99060D03*
X445770Y5715D03*
X420370Y6350D03*
X309880Y45720D03*
X189230Y64770D03*
X104140Y55880D03*
X104140Y44450D03*
X426720Y95250D03*
X475615Y97155D03*
X393065Y98425D03*
X385445Y111760D03*
X384175Y169545D03*
X111125Y10160D03*
X133985Y19050D03*
X154940Y19050D03*
X156210Y31750D03*
X166370Y47625D03*
X336550Y20955D03*
X360045Y20955D03*
X234315Y20955D03*
X257175Y20320D03*
X257810Y33020D03*
X267970Y46990D03*
X359410Y36830D03*
X370205Y52070D03*
X378460Y31750D03*
X391795Y77470D03*
X401955Y124460D03*
X86995Y103505D03*
X154305Y107315D03*
X76200Y89535D03*
X280035Y14605D03*
X296545Y13335D03*
X212725Y13335D03*
X371475Y72390D03*
X360680Y78105D03*
X157480Y88265D03*
X333375Y92710D03*
X231140Y57150D03*
X220345Y67310D03*
X207645Y67945D03*
X323215Y67310D03*
X310515Y67310D03*
X71120Y264795D03*
X525145Y170180D03*
X520065Y173990D03*
X547370Y149860D03*
X560070Y159385D03*
X560070Y149860D03*
X527685Y120650D03*
X518160Y120650D03*
X486410Y127000D03*
X511175Y142875D03*
X498475Y133985D03*
X124460Y107315D03*
X254000Y123190D03*
X275590Y123825D03*
X275590Y174625D03*
X248285Y186690D03*
X176530Y187960D03*
X65405Y193675D03*
D24*
X63500Y257175D02*
X71120Y264795D01*
X63500Y195580D02*
X65405Y193675D01*
X63500Y195580D02*
X63500Y257175D01*
D21*
X155575Y187325D03*
X171450Y113665D03*
X288290Y165100D03*
X200660Y113030D03*
X143510Y107315D03*
X133350Y107315D03*
X97155Y106680D03*
X115570Y107315D03*
X106680Y107315D03*
X254000Y135890D03*
X254000Y148590D03*
X254000Y161290D03*
X254000Y173990D03*
X266700Y148590D03*
X266700Y161290D03*
X266700Y135890D03*
X266700Y123190D03*
X266700Y173990D03*
X287655Y123190D03*
X133350Y187325D03*
D25*
X133668Y188518D02*
X132715Y189470D01*
X133668Y188518D02*
X133668Y173673D01*
X134620Y172720D01*
X155893Y172720D01*
X156210Y173038D01*
X156210Y189470D01*
X253365Y189470D02*
X254000Y188835D01*
X254000Y173990D01*
X276860Y184150D02*
X276860Y189470D01*
X276860Y184150D02*
X266700Y173990D01*
D22*
X373380Y114935D03*
D24*
X370641Y98861D02*
X370641Y87176D01*
X372092Y85725D02*
X373224Y85725D01*
X372092Y85725D02*
X370641Y87176D01*
D22*
X373224Y85725D03*
D26*
X270510Y87630D03*
D22*
X267970Y111760D03*
D27*
X270510Y109220D02*
X270510Y87630D01*
X171648Y91427D02*
X168486Y88265D01*
X171648Y91427D02*
X171648Y105128D01*
D21*
X168486Y88265D03*
D22*
X171648Y105128D03*
D24*
X373380Y101600D02*
X373380Y114935D01*
X373380Y101600D02*
X370641Y98861D01*
D27*
X270510Y109220D02*
X267970Y111760D01*
X282575Y172055D02*
X302260Y191740D01*
X284480Y85090D02*
X282575Y85090D01*
D21*
X284480Y85090D03*
D27*
X282575Y85090D02*
X282575Y172055D01*
X327660Y246390D02*
X337815Y256545D01*
D22*
X532645Y198635D03*
D23*
X516890Y260985D03*
X546100Y261620D03*
X532765Y248920D03*
X487680Y261620D03*
X501650Y249555D03*
D22*
X360680Y218440D03*
D27*
X359410Y219710D01*
X349250Y219710D01*
X337815Y231145D01*
X337815Y256545D01*
D21*
X422275Y248285D03*
X434975Y247650D03*
X447675Y248285D03*
X451485Y254635D03*
X435610Y257175D03*
X423545Y256540D03*
X441325Y252730D03*
X428625Y252730D03*
D23*
X559435Y248920D03*
D24*
X533400Y199390D02*
X532645Y198635D01*
X422275Y216295D02*
X405130Y199150D01*
X422275Y216295D02*
X422275Y228600D01*
X422275Y248285D01*
X433070Y217805D02*
X433070Y199150D01*
X433070Y217805D02*
X422275Y228600D01*
X461010Y221615D02*
X461010Y199150D01*
X461010Y221615D02*
X434975Y247650D01*
X488950Y236855D02*
X488950Y199150D01*
X488950Y236855D02*
X501650Y249555D01*
X516890Y264795D01*
X516890Y199150D01*
X276860Y219470D02*
X276860Y228600D01*
X513080Y228600D02*
X513080Y238125D01*
X501650Y249555D01*
X513080Y228600D02*
X533400Y228600D01*
X513080Y228600D02*
X276860Y228600D01*
X253365Y219470D02*
X524270Y219470D01*
X533400Y228600D01*
X533400Y199390D01*
D22*
X400685Y139065D03*
X455930Y142240D03*
D27*
X452755Y139065D01*
X400685Y139065D01*
D28*
X445770Y20320D03*
D27*
X444255Y21835D01*
X444255Y30480D01*
X461255Y30480D02*
X461255Y16755D01*
X458470Y13970D01*
D29*
X342900Y175260D03*
X330200Y175260D03*
X317500Y175260D03*
X304800Y175260D03*
D23*
X15240Y209550D03*
X44450Y209550D03*
X44450Y234950D03*
X15240Y234950D03*
X15240Y260350D03*
X44450Y260350D03*
D21*
X356870Y90170D03*
D27*
X356870Y118110D01*
D21*
X384810Y186055D03*
X380365Y201295D03*
D29*
X330200Y124460D03*
X330200Y137160D03*
X330200Y149860D03*
X330200Y162560D03*
X341630Y124460D03*
X341630Y137160D03*
X341630Y149860D03*
X341630Y162560D03*
X304800Y124460D03*
X304800Y137160D03*
X304800Y149860D03*
X304800Y162560D03*
X316230Y124460D03*
X316230Y137160D03*
X316230Y149860D03*
X316230Y162560D03*
X342900Y187960D03*
X330200Y187960D03*
X317500Y187960D03*
D27*
X350520Y124460D02*
X356870Y118110D01*
X350520Y124460D02*
X341630Y124460D01*
X384810Y186055D02*
X384810Y187325D01*
X380365Y191770D01*
X380365Y201295D01*
X355600Y187960D02*
X342900Y187960D01*
X355600Y187960D02*
X368935Y201295D01*
X380365Y201295D01*
D21*
X69850Y71120D03*
D27*
X69850Y99030D02*
X73660Y102840D01*
X69850Y99030D02*
X69850Y71120D01*
D23*
X11430Y175895D03*
D21*
X248920Y92710D03*
X377036Y96039D03*
X379095Y109220D03*
D27*
X379095Y96088D01*
X377036Y96039D01*
D29*
X232410Y167640D03*
X219710Y167640D03*
X219710Y154940D03*
X232410Y154940D03*
X232410Y142240D03*
X219710Y142240D03*
X219710Y129540D03*
X232410Y129540D03*
X207010Y167640D03*
X194310Y167640D03*
X194310Y154940D03*
X207010Y154940D03*
X207010Y142240D03*
X194310Y142240D03*
X194310Y129540D03*
X207010Y129540D03*
D21*
X433705Y184150D03*
D27*
X432435Y182880D01*
X397510Y182880D01*
D21*
X388620Y198854D03*
D27*
X388620Y191770D02*
X397510Y182880D01*
X388620Y191770D02*
X388620Y198854D01*
D24*
X248920Y113030D02*
X248920Y92710D01*
X248920Y113030D02*
X232410Y129540D01*
D23*
X48260Y16510D03*
X19050Y16510D03*
X19050Y43180D03*
X46990Y71120D03*
X19050Y71120D03*
X48260Y43180D03*
D21*
X302260Y95250D03*
D27*
X303530Y101570D02*
X302260Y102840D01*
X303530Y101570D02*
X303530Y96520D01*
X302260Y95250D01*
X182804Y85166D02*
X180340Y87630D01*
D21*
X182804Y85166D03*
D27*
X180340Y184120D02*
X187960Y191740D01*
X180340Y184120D02*
X180340Y87630D01*
X73660Y191740D02*
X73660Y194945D01*
D21*
X73660Y194945D03*
X172720Y194945D03*
D27*
X170815Y193040D01*
X170815Y127000D01*
X162560Y118745D01*
X162560Y101600D01*
D21*
X162560Y101600D03*
X187960Y94615D03*
D27*
X187960Y102840D01*
X420370Y117870D02*
X422120Y116120D01*
X420370Y117870D02*
X420370Y127000D01*
D21*
X420370Y127000D03*
D27*
X535587Y112677D02*
X549910Y127000D01*
X535587Y112677D02*
X514632Y112677D01*
X492760Y90805D01*
X492125Y90805D01*
D21*
X492125Y90805D03*
D27*
X517525Y91440D02*
X549910Y91440D01*
X517525Y91440D02*
X514985Y93980D01*
X504825Y93980D01*
D21*
X504825Y93980D03*
D27*
X439580Y101465D02*
X439580Y84455D01*
X439580Y101465D02*
X440350Y102235D01*
D21*
X462915Y86995D03*
D27*
X462120Y86995D01*
X459580Y84455D01*
D21*
X366395Y179070D03*
D27*
X382270Y179070D01*
X383540Y177800D02*
X385356Y177800D01*
X383540Y177800D02*
X382270Y179070D01*
D21*
X385356Y177800D03*
X393700Y116840D03*
D27*
X401631Y108909D01*
X401631Y106680D01*
D21*
X401631Y106680D03*
M02*
