G04 EAGLE Gerber RS-274X export*
G75*
%MOMM*%
%FSLAX34Y34*%
%LPD*%
%INTop Copper*%
%IPPOS*%
%AMOC8*
5,1,8,0,0,1.08239X$1,22.5*%
G01*
%ADD10R,1.600000X1.300000*%
%ADD11R,1.390000X1.050000*%
%ADD12R,1.050000X1.390000*%
%ADD13R,1.070000X0.980000*%
%ADD14R,1.475000X0.450000*%
%ADD15R,0.700000X1.525000*%
%ADD16R,1.500000X1.000000*%
%ADD17R,1.800000X1.000000*%
%ADD18R,3.700000X2.200000*%
%ADD19R,0.600000X1.475000*%
%ADD20R,1.475000X0.600000*%
%ADD21R,0.600000X0.850000*%
%ADD22R,1.100000X1.000000*%
%ADD23R,1.300000X1.600000*%
%ADD24R,1.800000X1.800000*%
%ADD25C,1.800000*%
%ADD26C,0.152400*%
%ADD27C,0.254000*%
%ADD28C,0.504000*%
%ADD29C,0.604000*%
%ADD30C,1.500000*%
%ADD31C,0.700000*%
%ADD32C,0.508000*%
%ADD33C,0.825000*%

G36*
X346401Y120027D02*
X346401Y120027D01*
X346467Y120029D01*
X346511Y120047D01*
X346557Y120055D01*
X346614Y120089D01*
X346675Y120114D01*
X346710Y120145D01*
X346751Y120170D01*
X346792Y120221D01*
X346841Y120265D01*
X346862Y120307D01*
X346892Y120344D01*
X346913Y120406D01*
X346943Y120465D01*
X346951Y120519D01*
X346964Y120556D01*
X346963Y120596D01*
X346971Y120650D01*
X346971Y127001D01*
X347036Y127012D01*
X347102Y127014D01*
X347146Y127032D01*
X347192Y127040D01*
X347249Y127074D01*
X347310Y127099D01*
X347345Y127130D01*
X347386Y127155D01*
X347427Y127206D01*
X347476Y127250D01*
X347497Y127292D01*
X347527Y127329D01*
X347548Y127391D01*
X347578Y127450D01*
X347586Y127504D01*
X347599Y127541D01*
X347598Y127581D01*
X347606Y127635D01*
X347606Y219449D01*
X347598Y219490D01*
X347600Y219533D01*
X347579Y219600D01*
X347566Y219669D01*
X347544Y219706D01*
X347531Y219746D01*
X347478Y219819D01*
X347452Y219863D01*
X347436Y219876D01*
X347420Y219897D01*
X302073Y265243D01*
X302039Y265268D01*
X302010Y265299D01*
X301947Y265331D01*
X301889Y265372D01*
X301848Y265382D01*
X301810Y265402D01*
X301721Y265415D01*
X301672Y265428D01*
X301651Y265425D01*
X301625Y265429D01*
X75799Y265429D01*
X75734Y265418D01*
X75668Y265416D01*
X75625Y265398D01*
X75578Y265390D01*
X75521Y265356D01*
X75461Y265331D01*
X75426Y265300D01*
X75385Y265275D01*
X75343Y265224D01*
X75295Y265180D01*
X75273Y265138D01*
X75244Y265101D01*
X75223Y265039D01*
X75192Y264980D01*
X75184Y264926D01*
X75172Y264889D01*
X75173Y264849D01*
X75165Y264795D01*
X75165Y263120D01*
X72795Y260750D01*
X69445Y260750D01*
X67075Y263120D01*
X67075Y264795D01*
X67064Y264860D01*
X67062Y264926D01*
X67044Y264969D01*
X67036Y265016D01*
X67002Y265073D01*
X66977Y265133D01*
X66946Y265168D01*
X66921Y265209D01*
X66870Y265251D01*
X66826Y265299D01*
X66784Y265321D01*
X66747Y265350D01*
X66685Y265371D01*
X66626Y265402D01*
X66572Y265410D01*
X66535Y265422D01*
X66495Y265421D01*
X66441Y265429D01*
X56957Y265429D01*
X53470Y268916D01*
X53396Y268969D01*
X53327Y269029D01*
X53297Y269041D01*
X53271Y269060D01*
X53183Y269087D01*
X53099Y269121D01*
X53058Y269125D01*
X53035Y269132D01*
X53003Y269131D01*
X52932Y269139D01*
X6123Y269139D01*
X6033Y269125D01*
X5942Y269117D01*
X5912Y269105D01*
X5880Y269100D01*
X5800Y269057D01*
X5716Y269021D01*
X5684Y268995D01*
X5663Y268984D01*
X5641Y268961D01*
X5585Y268916D01*
X4542Y267873D01*
X4489Y267799D01*
X4429Y267730D01*
X4417Y267700D01*
X4398Y267674D01*
X4371Y267587D01*
X4337Y267502D01*
X4333Y267461D01*
X4326Y267438D01*
X4327Y267406D01*
X4319Y267335D01*
X4319Y196215D01*
X4322Y196195D01*
X4320Y196176D01*
X4342Y196074D01*
X4359Y195972D01*
X4368Y195955D01*
X4372Y195935D01*
X4425Y195846D01*
X4474Y195755D01*
X4488Y195741D01*
X4498Y195724D01*
X4577Y195657D01*
X4652Y195586D01*
X4670Y195577D01*
X4685Y195564D01*
X4781Y195525D01*
X4875Y195482D01*
X4895Y195480D01*
X4913Y195472D01*
X5080Y195454D01*
X36195Y195454D01*
X36285Y195469D01*
X36376Y195476D01*
X36406Y195488D01*
X36438Y195494D01*
X36518Y195536D01*
X36602Y195572D01*
X36634Y195598D01*
X36655Y195609D01*
X36677Y195632D01*
X36733Y195677D01*
X41082Y200026D01*
X263580Y200026D01*
X293371Y170235D01*
X293371Y127635D01*
X293382Y127570D01*
X293384Y127504D01*
X293402Y127461D01*
X293410Y127414D01*
X293444Y127357D01*
X293469Y127297D01*
X293500Y127262D01*
X293525Y127221D01*
X293576Y127180D01*
X293620Y127131D01*
X293662Y127109D01*
X293699Y127080D01*
X293761Y127059D01*
X293820Y127028D01*
X293874Y127020D01*
X293911Y127008D01*
X293951Y127009D01*
X294005Y127001D01*
X295593Y127001D01*
X295593Y120650D01*
X295605Y120585D01*
X295607Y120519D01*
X295625Y120476D01*
X295633Y120429D01*
X295666Y120372D01*
X295691Y120312D01*
X295723Y120277D01*
X295747Y120236D01*
X295798Y120195D01*
X295843Y120146D01*
X295885Y120124D01*
X295921Y120095D01*
X295984Y120074D01*
X296042Y120043D01*
X296097Y120035D01*
X296134Y120023D01*
X296173Y120024D01*
X296228Y120016D01*
X346336Y120016D01*
X346401Y120027D01*
G37*
G36*
X57240Y102124D02*
X57240Y102124D01*
X57331Y102131D01*
X57361Y102143D01*
X57393Y102149D01*
X57473Y102191D01*
X57557Y102227D01*
X57589Y102253D01*
X57610Y102264D01*
X57632Y102287D01*
X57688Y102332D01*
X73975Y118619D01*
X240030Y118619D01*
X240050Y118622D01*
X240069Y118620D01*
X240171Y118642D01*
X240273Y118659D01*
X240290Y118668D01*
X240310Y118672D01*
X240399Y118725D01*
X240490Y118774D01*
X240504Y118788D01*
X240521Y118798D01*
X240588Y118877D01*
X240660Y118952D01*
X240668Y118970D01*
X240681Y118985D01*
X240720Y119081D01*
X240763Y119175D01*
X240765Y119195D01*
X240773Y119213D01*
X240791Y119380D01*
X240791Y180975D01*
X240788Y180995D01*
X240790Y181014D01*
X240768Y181116D01*
X240752Y181218D01*
X240742Y181235D01*
X240738Y181255D01*
X240685Y181344D01*
X240636Y181435D01*
X240622Y181449D01*
X240612Y181466D01*
X240533Y181533D01*
X240458Y181605D01*
X240440Y181613D01*
X240425Y181626D01*
X240329Y181665D01*
X240235Y181708D01*
X240215Y181710D01*
X240197Y181718D01*
X240030Y181736D01*
X68260Y181736D01*
X67848Y182148D01*
X67774Y182201D01*
X67705Y182261D01*
X67675Y182273D01*
X67649Y182292D01*
X67562Y182319D01*
X67477Y182353D01*
X67436Y182357D01*
X67413Y182364D01*
X67381Y182363D01*
X67310Y182371D01*
X8255Y182371D01*
X8165Y182357D01*
X8074Y182349D01*
X8044Y182337D01*
X8012Y182332D01*
X7932Y182289D01*
X7848Y182253D01*
X7816Y182227D01*
X7795Y182216D01*
X7773Y182193D01*
X7717Y182148D01*
X3272Y177703D01*
X3219Y177629D01*
X3159Y177560D01*
X3147Y177530D01*
X3128Y177504D01*
X3101Y177417D01*
X3067Y177332D01*
X3063Y177291D01*
X3056Y177268D01*
X3057Y177236D01*
X3049Y177165D01*
X3049Y110490D01*
X3064Y110400D01*
X3071Y110309D01*
X3083Y110279D01*
X3089Y110247D01*
X3108Y110211D01*
X3110Y110203D01*
X3131Y110166D01*
X3167Y110083D01*
X3193Y110051D01*
X3204Y110030D01*
X3225Y110010D01*
X3236Y109992D01*
X3249Y109980D01*
X3272Y109952D01*
X10892Y102332D01*
X10966Y102279D01*
X11035Y102219D01*
X11065Y102207D01*
X11091Y102188D01*
X11178Y102161D01*
X11263Y102127D01*
X11304Y102123D01*
X11327Y102116D01*
X11359Y102117D01*
X11430Y102109D01*
X57150Y102109D01*
X57240Y102124D01*
G37*
G36*
X565852Y3060D02*
X565852Y3060D01*
X565918Y3062D01*
X565961Y3080D01*
X566008Y3088D01*
X566065Y3122D01*
X566125Y3147D01*
X566160Y3178D01*
X566201Y3203D01*
X566243Y3254D01*
X566291Y3298D01*
X566313Y3340D01*
X566342Y3377D01*
X566363Y3439D01*
X566394Y3498D01*
X566402Y3552D01*
X566414Y3589D01*
X566413Y3629D01*
X566421Y3683D01*
X566421Y236465D01*
X566409Y236533D01*
X566408Y236583D01*
X566401Y236601D01*
X566396Y236642D01*
X566386Y236663D01*
X566382Y236686D01*
X566336Y236763D01*
X566328Y236779D01*
X566323Y236791D01*
X566321Y236794D01*
X566297Y236843D01*
X566280Y236859D01*
X566267Y236880D01*
X566198Y236936D01*
X566134Y236997D01*
X566112Y237006D01*
X566093Y237021D01*
X566009Y237049D01*
X565927Y237084D01*
X565903Y237085D01*
X565881Y237093D01*
X565792Y237090D01*
X565703Y237094D01*
X565680Y237087D01*
X565656Y237086D01*
X565574Y237053D01*
X565562Y237049D01*
X565553Y237047D01*
X565549Y237045D01*
X565489Y237025D01*
X565468Y237010D01*
X565449Y237002D01*
X565411Y236968D01*
X565382Y236946D01*
X565360Y236933D01*
X565354Y236925D01*
X565339Y236914D01*
X564771Y236346D01*
X495044Y236346D01*
X473201Y258189D01*
X473201Y266727D01*
X473190Y266792D01*
X473188Y266858D01*
X473170Y266901D01*
X473162Y266948D01*
X473128Y267005D01*
X473103Y267065D01*
X473072Y267100D01*
X473047Y267141D01*
X472996Y267183D01*
X472952Y267231D01*
X472910Y267253D01*
X472873Y267282D01*
X472811Y267303D01*
X472752Y267334D01*
X472698Y267342D01*
X472661Y267354D01*
X472621Y267353D01*
X472567Y267361D01*
X305800Y267361D01*
X305712Y267346D01*
X305623Y267336D01*
X305602Y267326D01*
X305579Y267322D01*
X305502Y267276D01*
X305422Y267237D01*
X305406Y267220D01*
X305385Y267207D01*
X305329Y267138D01*
X305268Y267074D01*
X305259Y267052D01*
X305244Y267033D01*
X305216Y266949D01*
X305181Y266867D01*
X305180Y266843D01*
X305172Y266821D01*
X305175Y266732D01*
X305171Y266643D01*
X305178Y266620D01*
X305179Y266596D01*
X305212Y266514D01*
X305240Y266429D01*
X305255Y266408D01*
X305263Y266389D01*
X305297Y266351D01*
X305351Y266278D01*
X305495Y266135D01*
X349819Y221811D01*
X349892Y221760D01*
X349961Y221704D01*
X349983Y221697D01*
X350003Y221683D01*
X350089Y221661D01*
X350173Y221632D01*
X350197Y221633D01*
X350220Y221627D01*
X350309Y221636D01*
X350398Y221639D01*
X350420Y221648D01*
X350443Y221650D01*
X350523Y221690D01*
X350605Y221723D01*
X350623Y221739D01*
X350644Y221750D01*
X350705Y221814D01*
X350771Y221875D01*
X350782Y221896D01*
X350798Y221913D01*
X350833Y221995D01*
X350874Y222074D01*
X350877Y222100D01*
X350886Y222120D01*
X350888Y222170D01*
X350901Y222260D01*
X350901Y224773D01*
X352687Y226559D01*
X371213Y226559D01*
X372999Y224773D01*
X372999Y216808D01*
X373015Y216720D01*
X373024Y216631D01*
X373034Y216610D01*
X373038Y216587D01*
X373084Y216510D01*
X373123Y216430D01*
X373140Y216414D01*
X373153Y216394D01*
X373222Y216337D01*
X373286Y216276D01*
X373308Y216267D01*
X373327Y216252D01*
X373411Y216224D01*
X373493Y216189D01*
X373517Y216188D01*
X373539Y216180D01*
X373628Y216183D01*
X373717Y216179D01*
X373740Y216186D01*
X373764Y216187D01*
X373846Y216220D01*
X373931Y216248D01*
X373952Y216263D01*
X373971Y216271D01*
X374009Y216305D01*
X374081Y216359D01*
X374766Y217044D01*
X374767Y217044D01*
X377482Y219760D01*
X391686Y219760D01*
X391774Y219775D01*
X391862Y219785D01*
X391883Y219795D01*
X391907Y219799D01*
X391984Y219845D01*
X392063Y219884D01*
X392080Y219901D01*
X392100Y219914D01*
X392156Y219983D01*
X392217Y220047D01*
X392226Y220069D01*
X392241Y220088D01*
X392270Y220172D01*
X392305Y220254D01*
X392306Y220278D01*
X392313Y220300D01*
X392311Y220389D01*
X392315Y220478D01*
X392307Y220501D01*
X392307Y220525D01*
X392273Y220607D01*
X392246Y220692D01*
X392230Y220713D01*
X392222Y220732D01*
X392188Y220770D01*
X392134Y220842D01*
X391702Y221275D01*
X391367Y221854D01*
X391194Y222500D01*
X391194Y226816D01*
X400050Y226816D01*
X400115Y226827D01*
X400180Y226829D01*
X400224Y226847D01*
X400271Y226855D01*
X400327Y226889D01*
X400388Y226914D01*
X400423Y226946D01*
X400464Y226970D01*
X400505Y227021D01*
X400554Y227065D01*
X400576Y227107D01*
X400605Y227144D01*
X400626Y227206D01*
X400656Y227265D01*
X400665Y227319D01*
X400677Y227356D01*
X400676Y227396D01*
X400684Y227450D01*
X400684Y228720D01*
X400672Y228785D01*
X400671Y228850D01*
X400653Y228894D01*
X400644Y228941D01*
X400611Y228998D01*
X400586Y229058D01*
X400554Y229093D01*
X400530Y229134D01*
X400479Y229175D01*
X400435Y229224D01*
X400393Y229246D01*
X400356Y229275D01*
X400294Y229296D01*
X400235Y229326D01*
X400181Y229335D01*
X400144Y229347D01*
X400104Y229346D01*
X400050Y229354D01*
X391194Y229354D01*
X391194Y233670D01*
X391367Y234316D01*
X391701Y234893D01*
X391733Y234982D01*
X391770Y235070D01*
X391771Y235088D01*
X391777Y235104D01*
X391776Y235199D01*
X391780Y235294D01*
X391775Y235311D01*
X391775Y235328D01*
X391740Y235418D01*
X391711Y235508D01*
X391700Y235523D01*
X391694Y235538D01*
X391661Y235575D01*
X391600Y235659D01*
X390686Y236572D01*
X390686Y249598D01*
X392472Y251384D01*
X402613Y251384D01*
X402655Y251391D01*
X402698Y251389D01*
X402765Y251411D01*
X402834Y251423D01*
X402871Y251445D01*
X402911Y251458D01*
X402984Y251512D01*
X403027Y251538D01*
X403041Y251554D01*
X403062Y251570D01*
X404096Y252604D01*
X415036Y252604D01*
X415101Y252615D01*
X415167Y252617D01*
X415210Y252635D01*
X415257Y252643D01*
X415314Y252677D01*
X415374Y252702D01*
X415409Y252733D01*
X415450Y252758D01*
X415492Y252809D01*
X415540Y252853D01*
X415562Y252895D01*
X415591Y252932D01*
X415612Y252994D01*
X415643Y253053D01*
X415651Y253107D01*
X415663Y253144D01*
X415662Y253184D01*
X415670Y253238D01*
X415670Y260501D01*
X420854Y265685D01*
X453541Y265685D01*
X459360Y259866D01*
X459360Y253553D01*
X459371Y253488D01*
X459373Y253422D01*
X459391Y253379D01*
X459399Y253332D01*
X459433Y253275D01*
X459458Y253215D01*
X459489Y253180D01*
X459514Y253139D01*
X459565Y253097D01*
X459609Y253049D01*
X459651Y253027D01*
X459688Y252998D01*
X459750Y252977D01*
X459809Y252946D01*
X459863Y252938D01*
X459900Y252926D01*
X459940Y252927D01*
X459994Y252919D01*
X475793Y252919D01*
X477579Y251133D01*
X477579Y238607D01*
X476431Y237459D01*
X476393Y237405D01*
X476348Y237357D01*
X476330Y237314D01*
X476303Y237275D01*
X476286Y237211D01*
X476261Y237151D01*
X476259Y237103D01*
X476247Y237058D01*
X476254Y236992D01*
X476251Y236927D01*
X476265Y236882D01*
X476270Y236835D01*
X476299Y236776D01*
X476319Y236713D01*
X476352Y236669D01*
X476369Y236633D01*
X476398Y236606D01*
X476431Y236562D01*
X476563Y236430D01*
X476898Y235851D01*
X477071Y235205D01*
X477071Y231139D01*
X466165Y231139D01*
X466100Y231128D01*
X466035Y231126D01*
X465991Y231108D01*
X465944Y231099D01*
X465888Y231066D01*
X465827Y231041D01*
X465792Y231009D01*
X465751Y230985D01*
X465710Y230934D01*
X465661Y230890D01*
X465639Y230848D01*
X465610Y230811D01*
X465589Y230749D01*
X465559Y230690D01*
X465550Y230636D01*
X465538Y230599D01*
X465539Y230559D01*
X465531Y230505D01*
X465531Y229235D01*
X465543Y229170D01*
X465544Y229105D01*
X465562Y229061D01*
X465571Y229014D01*
X465604Y228957D01*
X465629Y228897D01*
X465661Y228862D01*
X465685Y228821D01*
X465736Y228780D01*
X465780Y228731D01*
X465822Y228709D01*
X465859Y228680D01*
X465921Y228659D01*
X465980Y228628D01*
X466034Y228620D01*
X466071Y228608D01*
X466111Y228609D01*
X466165Y228601D01*
X477071Y228601D01*
X477071Y227362D01*
X477077Y227326D01*
X477075Y227290D01*
X477097Y227217D01*
X477110Y227141D01*
X477129Y227110D01*
X477139Y227075D01*
X477186Y227014D01*
X477225Y226948D01*
X477253Y226925D01*
X477275Y226896D01*
X477339Y226855D01*
X477399Y226807D01*
X477433Y226795D01*
X477464Y226775D01*
X477539Y226759D01*
X477611Y226735D01*
X477648Y226736D01*
X477683Y226728D01*
X477786Y226740D01*
X477836Y226741D01*
X477846Y226746D01*
X483871Y226746D01*
X483871Y219590D01*
X483882Y219525D01*
X483884Y219460D01*
X483902Y219416D01*
X483910Y219369D01*
X483944Y219313D01*
X483969Y219252D01*
X484001Y219217D01*
X484025Y219176D01*
X484076Y219135D01*
X484120Y219086D01*
X484162Y219064D01*
X484199Y219035D01*
X484261Y219014D01*
X484320Y218984D01*
X484374Y218975D01*
X484411Y218963D01*
X484451Y218964D01*
X484505Y218956D01*
X485141Y218956D01*
X485141Y218320D01*
X485153Y218255D01*
X485154Y218190D01*
X485172Y218146D01*
X485181Y218099D01*
X485214Y218042D01*
X485239Y217982D01*
X485271Y217947D01*
X485295Y217906D01*
X485346Y217865D01*
X485390Y217816D01*
X485432Y217794D01*
X485469Y217765D01*
X485531Y217744D01*
X485590Y217713D01*
X485644Y217705D01*
X485681Y217693D01*
X485721Y217694D01*
X485775Y217686D01*
X494631Y217686D01*
X494631Y213370D01*
X494458Y212724D01*
X494124Y212147D01*
X494092Y212058D01*
X494055Y211970D01*
X494054Y211952D01*
X494048Y211936D01*
X494049Y211841D01*
X494045Y211746D01*
X494050Y211729D01*
X494050Y211712D01*
X494085Y211622D01*
X494114Y211532D01*
X494125Y211517D01*
X494131Y211502D01*
X494164Y211465D01*
X494225Y211381D01*
X495139Y210468D01*
X495139Y208853D01*
X495150Y208788D01*
X495152Y208722D01*
X495170Y208679D01*
X495178Y208632D01*
X495212Y208575D01*
X495237Y208515D01*
X495268Y208480D01*
X495293Y208439D01*
X495344Y208397D01*
X495388Y208349D01*
X495430Y208327D01*
X495467Y208298D01*
X495529Y208277D01*
X495588Y208246D01*
X495642Y208238D01*
X495679Y208226D01*
X495719Y208227D01*
X495773Y208219D01*
X496797Y208219D01*
X496862Y208230D01*
X496928Y208232D01*
X496971Y208250D01*
X497018Y208258D01*
X497075Y208292D01*
X497135Y208317D01*
X497170Y208348D01*
X497211Y208373D01*
X497253Y208424D01*
X497301Y208468D01*
X497323Y208510D01*
X497352Y208547D01*
X497373Y208609D01*
X497404Y208668D01*
X497412Y208722D01*
X497424Y208759D01*
X497423Y208799D01*
X497431Y208853D01*
X497431Y209413D01*
X499217Y211199D01*
X507743Y211199D01*
X509529Y209413D01*
X509529Y198387D01*
X507838Y196696D01*
X507787Y196623D01*
X507731Y196554D01*
X507723Y196532D01*
X507710Y196512D01*
X507688Y196426D01*
X507659Y196342D01*
X507660Y196318D01*
X507654Y196295D01*
X507663Y196206D01*
X507666Y196117D01*
X507675Y196095D01*
X507677Y196072D01*
X507717Y195992D01*
X507750Y195910D01*
X507766Y195892D01*
X507777Y195871D01*
X507841Y195810D01*
X507902Y195744D01*
X507923Y195733D01*
X507940Y195717D01*
X508022Y195682D01*
X508101Y195641D01*
X508127Y195638D01*
X508147Y195629D01*
X508197Y195627D01*
X508286Y195614D01*
X512998Y195614D01*
X514784Y193828D01*
X514784Y168293D01*
X514791Y168251D01*
X514789Y168209D01*
X514811Y168142D01*
X514823Y168072D01*
X514845Y168036D01*
X514858Y167995D01*
X514912Y167923D01*
X514938Y167879D01*
X514954Y167866D01*
X514970Y167845D01*
X515643Y167171D01*
X515697Y167134D01*
X515745Y167089D01*
X515788Y167070D01*
X515827Y167043D01*
X515891Y167027D01*
X515951Y167001D01*
X515999Y166999D01*
X516044Y166987D01*
X516110Y166994D01*
X516176Y166991D01*
X516221Y167006D01*
X516268Y167011D01*
X516327Y167040D01*
X516389Y167060D01*
X516433Y167093D01*
X516469Y167110D01*
X516496Y167139D01*
X516540Y167171D01*
X516932Y167564D01*
X527692Y167564D01*
X527757Y167575D01*
X527823Y167577D01*
X527866Y167595D01*
X527913Y167603D01*
X527970Y167637D01*
X528030Y167662D01*
X528065Y167693D01*
X528106Y167718D01*
X528148Y167769D01*
X528196Y167813D01*
X528218Y167855D01*
X528247Y167892D01*
X528268Y167954D01*
X528299Y168013D01*
X528307Y168067D01*
X528319Y168104D01*
X528318Y168144D01*
X528326Y168198D01*
X528326Y194109D01*
X528319Y194150D01*
X528321Y194193D01*
X528299Y194260D01*
X528287Y194329D01*
X528265Y194366D01*
X528252Y194406D01*
X528198Y194479D01*
X528172Y194523D01*
X528156Y194536D01*
X528140Y194557D01*
X527500Y195197D01*
X527081Y196210D01*
X527052Y196255D01*
X527031Y196305D01*
X526992Y196349D01*
X526960Y196399D01*
X526916Y196431D01*
X526880Y196471D01*
X526827Y196498D01*
X526780Y196533D01*
X526728Y196549D01*
X526680Y196574D01*
X526610Y196584D01*
X526565Y196597D01*
X526535Y196595D01*
X526495Y196601D01*
X518417Y196601D01*
X516631Y198387D01*
X516631Y209413D01*
X518417Y211199D01*
X526943Y211199D01*
X527197Y210945D01*
X527232Y210920D01*
X527261Y210889D01*
X527323Y210857D01*
X527381Y210816D01*
X527422Y210806D01*
X527460Y210786D01*
X527550Y210773D01*
X527599Y210760D01*
X527619Y210763D01*
X527646Y210759D01*
X535975Y210759D01*
X536040Y210770D01*
X536106Y210772D01*
X536149Y210790D01*
X536196Y210798D01*
X536253Y210832D01*
X536313Y210857D01*
X536348Y210888D01*
X536389Y210913D01*
X536431Y210964D01*
X536479Y211008D01*
X536501Y211050D01*
X536530Y211087D01*
X536551Y211149D01*
X536582Y211208D01*
X536590Y211262D01*
X536602Y211299D01*
X536601Y211339D01*
X536609Y211393D01*
X536609Y215146D01*
X545465Y215146D01*
X545530Y215157D01*
X545595Y215159D01*
X545639Y215177D01*
X545686Y215185D01*
X545742Y215219D01*
X545803Y215244D01*
X545838Y215276D01*
X545879Y215300D01*
X545920Y215351D01*
X545969Y215395D01*
X545991Y215437D01*
X546020Y215474D01*
X546041Y215536D01*
X546071Y215595D01*
X546080Y215649D01*
X546092Y215686D01*
X546091Y215726D01*
X546099Y215780D01*
X546099Y216416D01*
X546101Y216416D01*
X546101Y215780D01*
X546113Y215715D01*
X546114Y215650D01*
X546132Y215606D01*
X546141Y215559D01*
X546174Y215502D01*
X546199Y215442D01*
X546231Y215407D01*
X546255Y215366D01*
X546306Y215325D01*
X546350Y215276D01*
X546392Y215254D01*
X546429Y215225D01*
X546491Y215204D01*
X546550Y215173D01*
X546604Y215165D01*
X546641Y215153D01*
X546681Y215154D01*
X546735Y215146D01*
X555591Y215146D01*
X555591Y210830D01*
X555418Y210184D01*
X555084Y209607D01*
X555052Y209518D01*
X555015Y209430D01*
X555014Y209412D01*
X555008Y209396D01*
X555009Y209301D01*
X555005Y209206D01*
X555010Y209189D01*
X555010Y209172D01*
X555044Y209083D01*
X555074Y208992D01*
X555085Y208977D01*
X555091Y208962D01*
X555123Y208925D01*
X555185Y208841D01*
X556099Y207928D01*
X556099Y194902D01*
X554313Y193116D01*
X544172Y193116D01*
X544130Y193109D01*
X544087Y193111D01*
X544020Y193089D01*
X543951Y193077D01*
X543914Y193055D01*
X543874Y193042D01*
X543801Y192988D01*
X543758Y192962D01*
X543744Y192946D01*
X543723Y192930D01*
X543695Y192902D01*
X543670Y192867D01*
X543639Y192838D01*
X543607Y192776D01*
X543566Y192718D01*
X543556Y192677D01*
X543536Y192639D01*
X543523Y192549D01*
X543510Y192500D01*
X543513Y192480D01*
X543509Y192453D01*
X543509Y137351D01*
X536459Y130301D01*
X513862Y130301D01*
X513820Y130294D01*
X513777Y130296D01*
X513710Y130274D01*
X513641Y130262D01*
X513604Y130240D01*
X513564Y130227D01*
X513491Y130173D01*
X513448Y130147D01*
X513434Y130131D01*
X513413Y130115D01*
X503126Y119828D01*
X503089Y119775D01*
X503043Y119727D01*
X503025Y119683D01*
X502998Y119644D01*
X502982Y119581D01*
X502956Y119520D01*
X502954Y119473D01*
X502942Y119427D01*
X502949Y119362D01*
X502946Y119296D01*
X502960Y119251D01*
X502965Y119204D01*
X502994Y119145D01*
X503015Y119082D01*
X503047Y119038D01*
X503065Y119003D01*
X503093Y118976D01*
X503126Y118932D01*
X514859Y107199D01*
X514859Y86398D01*
X514870Y86333D01*
X514872Y86267D01*
X514890Y86224D01*
X514898Y86177D01*
X514932Y86120D01*
X514957Y86060D01*
X514988Y86025D01*
X515013Y85984D01*
X515064Y85942D01*
X515108Y85894D01*
X515150Y85872D01*
X515187Y85843D01*
X515249Y85822D01*
X515308Y85791D01*
X515362Y85783D01*
X515399Y85771D01*
X515439Y85772D01*
X515493Y85764D01*
X517303Y85764D01*
X519089Y83978D01*
X519089Y71452D01*
X517300Y69663D01*
X517263Y69609D01*
X517217Y69562D01*
X517199Y69518D01*
X517172Y69479D01*
X517156Y69416D01*
X517130Y69355D01*
X517128Y69308D01*
X517116Y69262D01*
X517123Y69197D01*
X517120Y69131D01*
X517134Y69086D01*
X517139Y69039D01*
X517168Y68980D01*
X517189Y68917D01*
X517221Y68873D01*
X517239Y68838D01*
X517267Y68811D01*
X517300Y68766D01*
X519089Y66978D01*
X519089Y54452D01*
X517303Y52666D01*
X505198Y52666D01*
X505156Y52659D01*
X505114Y52661D01*
X505047Y52639D01*
X504977Y52627D01*
X504941Y52605D01*
X504900Y52592D01*
X504828Y52538D01*
X504784Y52512D01*
X504771Y52496D01*
X504750Y52480D01*
X501300Y49030D01*
X501275Y48996D01*
X501244Y48967D01*
X501212Y48904D01*
X501171Y48846D01*
X501161Y48805D01*
X501141Y48767D01*
X501128Y48678D01*
X501115Y48629D01*
X501118Y48608D01*
X501114Y48582D01*
X501114Y46477D01*
X499328Y44691D01*
X495135Y44691D01*
X495070Y44680D01*
X495004Y44678D01*
X494961Y44660D01*
X494914Y44652D01*
X494857Y44618D01*
X494797Y44593D01*
X494762Y44562D01*
X494721Y44537D01*
X494679Y44486D01*
X494631Y44442D01*
X494609Y44400D01*
X494580Y44363D01*
X494559Y44301D01*
X494528Y44242D01*
X494520Y44188D01*
X494508Y44151D01*
X494509Y44111D01*
X494501Y44057D01*
X494501Y43342D01*
X487867Y36707D01*
X487842Y36673D01*
X487811Y36644D01*
X487779Y36581D01*
X487738Y36523D01*
X487728Y36482D01*
X487708Y36444D01*
X487695Y36355D01*
X487682Y36306D01*
X487685Y36285D01*
X487681Y36259D01*
X487681Y26653D01*
X487692Y26588D01*
X487694Y26522D01*
X487712Y26479D01*
X487720Y26432D01*
X487754Y26375D01*
X487779Y26315D01*
X487810Y26280D01*
X487835Y26239D01*
X487886Y26197D01*
X487930Y26149D01*
X487972Y26127D01*
X488009Y26098D01*
X488071Y26077D01*
X488130Y26046D01*
X488184Y26038D01*
X488221Y26026D01*
X488261Y26027D01*
X488315Y26019D01*
X494133Y26019D01*
X495919Y24233D01*
X495919Y3683D01*
X495930Y3618D01*
X495932Y3552D01*
X495950Y3509D01*
X495958Y3462D01*
X495992Y3405D01*
X496017Y3345D01*
X496048Y3310D01*
X496073Y3269D01*
X496124Y3227D01*
X496168Y3179D01*
X496210Y3157D01*
X496247Y3128D01*
X496309Y3107D01*
X496368Y3076D01*
X496422Y3068D01*
X496459Y3056D01*
X496499Y3057D01*
X496553Y3049D01*
X565787Y3049D01*
X565852Y3060D01*
G37*
G36*
X79219Y81117D02*
X79219Y81117D01*
X79308Y81120D01*
X79330Y81129D01*
X79353Y81131D01*
X79433Y81171D01*
X79515Y81204D01*
X79533Y81220D01*
X79554Y81231D01*
X79615Y81296D01*
X79681Y81356D01*
X79692Y81377D01*
X79708Y81394D01*
X79743Y81476D01*
X79784Y81555D01*
X79787Y81581D01*
X79796Y81601D01*
X79798Y81651D01*
X79811Y81741D01*
X79811Y88078D01*
X81597Y89864D01*
X86752Y89864D01*
X86794Y89871D01*
X86836Y89869D01*
X86903Y89891D01*
X86973Y89903D01*
X87009Y89925D01*
X87050Y89938D01*
X87122Y89992D01*
X87166Y90018D01*
X87179Y90034D01*
X87200Y90050D01*
X101292Y104141D01*
X157161Y104141D01*
X157214Y104150D01*
X157269Y104150D01*
X157324Y104170D01*
X157382Y104180D01*
X157429Y104208D01*
X157479Y104226D01*
X157524Y104265D01*
X157575Y104295D01*
X157609Y104337D01*
X157651Y104372D01*
X157687Y104433D01*
X157716Y104469D01*
X157726Y104498D01*
X157747Y104532D01*
X157839Y104754D01*
X159406Y106321D01*
X161452Y107169D01*
X163668Y107169D01*
X165008Y106614D01*
X165072Y106599D01*
X165134Y106576D01*
X165181Y106576D01*
X165227Y106566D01*
X165292Y106575D01*
X165358Y106574D01*
X165403Y106591D01*
X165449Y106597D01*
X165507Y106628D01*
X165569Y106651D01*
X165605Y106682D01*
X165647Y106704D01*
X165690Y106754D01*
X165740Y106796D01*
X165769Y106843D01*
X165794Y106873D01*
X165808Y106910D01*
X165837Y106957D01*
X166503Y108566D01*
X168210Y110273D01*
X170441Y111197D01*
X172855Y111197D01*
X173217Y111047D01*
X173247Y111040D01*
X173274Y111026D01*
X173391Y111009D01*
X173436Y110999D01*
X173446Y111001D01*
X173459Y110999D01*
X256746Y110999D01*
X256788Y111006D01*
X256830Y111004D01*
X256897Y111026D01*
X256967Y111038D01*
X257003Y111060D01*
X257044Y111073D01*
X257116Y111127D01*
X257160Y111153D01*
X257173Y111169D01*
X257194Y111185D01*
X261580Y115571D01*
X262936Y115571D01*
X262977Y115578D01*
X263020Y115576D01*
X263087Y115598D01*
X263156Y115610D01*
X263193Y115632D01*
X263233Y115645D01*
X263306Y115699D01*
X263350Y115725D01*
X263363Y115741D01*
X263384Y115757D01*
X264532Y116905D01*
X266763Y117829D01*
X268387Y117829D01*
X268429Y117836D01*
X268471Y117834D01*
X268538Y117856D01*
X268608Y117868D01*
X268644Y117890D01*
X268685Y117903D01*
X268757Y117957D01*
X268801Y117983D01*
X268813Y117998D01*
X268820Y118002D01*
X268823Y118005D01*
X268835Y118015D01*
X269948Y119127D01*
X291910Y119127D01*
X291974Y119138D01*
X292040Y119140D01*
X292084Y119158D01*
X292130Y119166D01*
X292187Y119200D01*
X292248Y119225D01*
X292283Y119256D01*
X292324Y119281D01*
X292365Y119332D01*
X292414Y119376D01*
X292435Y119418D01*
X292465Y119455D01*
X292486Y119517D01*
X292516Y119576D01*
X292524Y119630D01*
X292537Y119667D01*
X292536Y119707D01*
X292544Y119761D01*
X292544Y123624D01*
X292536Y123666D01*
X292538Y123708D01*
X292517Y123775D01*
X292504Y123845D01*
X292482Y123881D01*
X292469Y123922D01*
X292416Y123994D01*
X292390Y124038D01*
X292374Y124051D01*
X292358Y124072D01*
X290321Y126109D01*
X290321Y168709D01*
X290314Y168751D01*
X290316Y168793D01*
X290294Y168860D01*
X290282Y168930D01*
X290260Y168966D01*
X290247Y169007D01*
X290193Y169079D01*
X290167Y169123D01*
X290151Y169136D01*
X290135Y169157D01*
X262502Y196790D01*
X262468Y196815D01*
X262439Y196846D01*
X262376Y196878D01*
X262318Y196919D01*
X262277Y196929D01*
X262239Y196949D01*
X262150Y196962D01*
X262101Y196975D01*
X262080Y196972D01*
X262054Y196976D01*
X178855Y196976D01*
X178779Y196963D01*
X178702Y196957D01*
X178669Y196943D01*
X178635Y196937D01*
X178568Y196897D01*
X178497Y196865D01*
X178472Y196841D01*
X178441Y196822D01*
X178393Y196762D01*
X178337Y196708D01*
X178322Y196676D01*
X178300Y196648D01*
X178275Y196575D01*
X178242Y196505D01*
X178239Y196469D01*
X178228Y196436D01*
X178230Y196358D01*
X178224Y196281D01*
X178234Y196242D01*
X178235Y196211D01*
X178252Y196168D01*
X178269Y196099D01*
X178289Y196053D01*
X178289Y193837D01*
X177441Y191791D01*
X175874Y190224D01*
X173828Y189376D01*
X171612Y189376D01*
X170551Y189816D01*
X170521Y189823D01*
X170493Y189837D01*
X170376Y189854D01*
X170332Y189864D01*
X170321Y189862D01*
X170308Y189864D01*
X76072Y189864D01*
X76042Y189859D01*
X76011Y189861D01*
X75896Y189833D01*
X75851Y189825D01*
X75842Y189819D01*
X75829Y189816D01*
X74768Y189376D01*
X72552Y189376D01*
X70506Y190224D01*
X69029Y191701D01*
X68955Y191752D01*
X68886Y191808D01*
X68864Y191816D01*
X68844Y191829D01*
X68758Y191851D01*
X68674Y191880D01*
X68650Y191879D01*
X68627Y191885D01*
X68538Y191876D01*
X68449Y191873D01*
X68427Y191864D01*
X68404Y191862D01*
X68324Y191822D01*
X68242Y191789D01*
X68224Y191773D01*
X68203Y191763D01*
X68142Y191698D01*
X68076Y191638D01*
X68065Y191616D01*
X68049Y191599D01*
X68014Y191517D01*
X67973Y191438D01*
X67970Y191412D01*
X67961Y191393D01*
X67959Y191342D01*
X67946Y191253D01*
X67946Y186055D01*
X67957Y185990D01*
X67959Y185924D01*
X67977Y185881D01*
X67985Y185834D01*
X68019Y185777D01*
X68044Y185717D01*
X68075Y185682D01*
X68100Y185641D01*
X68151Y185599D01*
X68195Y185551D01*
X68237Y185529D01*
X68274Y185500D01*
X68336Y185479D01*
X68395Y185448D01*
X68449Y185440D01*
X68486Y185428D01*
X68526Y185429D01*
X68580Y185421D01*
X68888Y185421D01*
X69338Y184972D01*
X69372Y184947D01*
X69401Y184916D01*
X69464Y184884D01*
X69522Y184843D01*
X69563Y184833D01*
X69601Y184813D01*
X69690Y184800D01*
X69739Y184787D01*
X69760Y184790D01*
X69786Y184786D01*
X241608Y184786D01*
X243841Y182553D01*
X243841Y117802D01*
X241608Y115569D01*
X75501Y115569D01*
X75459Y115562D01*
X75417Y115564D01*
X75350Y115542D01*
X75280Y115530D01*
X75244Y115508D01*
X75203Y115495D01*
X75131Y115441D01*
X75087Y115415D01*
X75074Y115399D01*
X75053Y115383D01*
X68132Y108462D01*
X68107Y108428D01*
X68076Y108399D01*
X68044Y108336D01*
X68003Y108278D01*
X67993Y108237D01*
X67973Y108199D01*
X67960Y108110D01*
X67948Y108061D01*
X67950Y108040D01*
X67946Y108014D01*
X67946Y84173D01*
X67957Y84108D01*
X67959Y84042D01*
X67977Y83999D01*
X67985Y83952D01*
X68019Y83895D01*
X68044Y83835D01*
X68075Y83800D01*
X68100Y83759D01*
X68151Y83717D01*
X68195Y83669D01*
X68237Y83647D01*
X68274Y83618D01*
X68336Y83597D01*
X68395Y83566D01*
X68449Y83558D01*
X68486Y83546D01*
X68526Y83547D01*
X68580Y83539D01*
X76482Y83539D01*
X78729Y81292D01*
X78802Y81241D01*
X78871Y81185D01*
X78893Y81178D01*
X78913Y81164D01*
X78999Y81142D01*
X79083Y81113D01*
X79107Y81114D01*
X79130Y81108D01*
X79219Y81117D01*
G37*
G36*
X55970Y3064D02*
X55970Y3064D01*
X56061Y3071D01*
X56091Y3083D01*
X56123Y3089D01*
X56203Y3131D01*
X56287Y3167D01*
X56319Y3193D01*
X56340Y3204D01*
X56362Y3227D01*
X56418Y3272D01*
X62768Y9622D01*
X62821Y9696D01*
X62881Y9765D01*
X62893Y9795D01*
X62912Y9821D01*
X62939Y9908D01*
X62973Y9993D01*
X62977Y10034D01*
X62984Y10057D01*
X62983Y10089D01*
X62991Y10160D01*
X62991Y82550D01*
X62977Y82640D01*
X62969Y82731D01*
X62957Y82761D01*
X62952Y82793D01*
X62909Y82873D01*
X62873Y82957D01*
X62847Y82989D01*
X62836Y83010D01*
X62813Y83032D01*
X62768Y83088D01*
X55148Y90708D01*
X55074Y90761D01*
X55005Y90821D01*
X54975Y90833D01*
X54949Y90852D01*
X54862Y90879D01*
X54777Y90913D01*
X54736Y90917D01*
X54713Y90924D01*
X54681Y90923D01*
X54610Y90931D01*
X10160Y90931D01*
X10070Y90917D01*
X9979Y90909D01*
X9949Y90897D01*
X9917Y90892D01*
X9837Y90849D01*
X9753Y90813D01*
X9721Y90787D01*
X9700Y90776D01*
X9678Y90753D01*
X9622Y90708D01*
X4542Y85628D01*
X4489Y85554D01*
X4429Y85485D01*
X4417Y85455D01*
X4398Y85429D01*
X4371Y85342D01*
X4337Y85257D01*
X4333Y85216D01*
X4326Y85193D01*
X4327Y85161D01*
X4319Y85090D01*
X4319Y11430D01*
X4334Y11340D01*
X4341Y11249D01*
X4353Y11219D01*
X4359Y11187D01*
X4378Y11151D01*
X4380Y11143D01*
X4401Y11106D01*
X4437Y11023D01*
X4463Y10991D01*
X4474Y10970D01*
X4495Y10950D01*
X4506Y10932D01*
X4519Y10920D01*
X4542Y10892D01*
X12162Y3272D01*
X12236Y3219D01*
X12305Y3159D01*
X12335Y3147D01*
X12361Y3128D01*
X12448Y3101D01*
X12533Y3067D01*
X12574Y3063D01*
X12597Y3056D01*
X12629Y3057D01*
X12700Y3049D01*
X55880Y3049D01*
X55970Y3064D01*
G37*
G36*
X479697Y46795D02*
X479697Y46795D01*
X479763Y46797D01*
X479806Y46815D01*
X479853Y46823D01*
X479910Y46857D01*
X479970Y46882D01*
X480005Y46913D01*
X480046Y46938D01*
X480088Y46989D01*
X480136Y47033D01*
X480158Y47075D01*
X480187Y47112D01*
X480208Y47174D01*
X480239Y47233D01*
X480247Y47287D01*
X480259Y47324D01*
X480259Y47350D01*
X480259Y47353D01*
X480259Y47368D01*
X480266Y47418D01*
X480266Y73517D01*
X480259Y73559D01*
X480261Y73601D01*
X480239Y73668D01*
X480227Y73738D01*
X480205Y73774D01*
X480192Y73815D01*
X480138Y73887D01*
X480112Y73931D01*
X480096Y73944D01*
X480080Y73965D01*
X472952Y81093D01*
X472918Y81118D01*
X472889Y81149D01*
X472826Y81181D01*
X472768Y81222D01*
X472727Y81232D01*
X472689Y81252D01*
X472600Y81265D01*
X472551Y81278D01*
X472530Y81275D01*
X472504Y81279D01*
X463232Y81279D01*
X463217Y81296D01*
X463154Y81328D01*
X463096Y81369D01*
X463055Y81379D01*
X463017Y81399D01*
X462928Y81412D01*
X462879Y81425D01*
X462858Y81422D01*
X462832Y81426D01*
X461807Y81426D01*
X459761Y82274D01*
X458194Y83841D01*
X457346Y85887D01*
X457346Y88103D01*
X458194Y90149D01*
X459761Y91716D01*
X461807Y92564D01*
X464023Y92564D01*
X466069Y91716D01*
X467636Y90149D01*
X467991Y89292D01*
X468020Y89247D01*
X468041Y89197D01*
X468080Y89153D01*
X468112Y89103D01*
X468155Y89071D01*
X468192Y89031D01*
X468244Y89004D01*
X468291Y88969D01*
X468343Y88953D01*
X468392Y88928D01*
X468462Y88918D01*
X468507Y88905D01*
X468537Y88907D01*
X468577Y88901D01*
X475923Y88901D01*
X478341Y86483D01*
X479184Y85641D01*
X479257Y85590D01*
X479326Y85534D01*
X479348Y85526D01*
X479368Y85513D01*
X479454Y85490D01*
X479538Y85462D01*
X479562Y85463D01*
X479585Y85457D01*
X479674Y85466D01*
X479763Y85468D01*
X479785Y85477D01*
X479808Y85480D01*
X479888Y85519D01*
X479970Y85553D01*
X479988Y85569D01*
X480009Y85579D01*
X480070Y85644D01*
X480136Y85704D01*
X480147Y85725D01*
X480163Y85743D01*
X480198Y85825D01*
X480239Y85904D01*
X480242Y85930D01*
X480251Y85949D01*
X480253Y86000D01*
X480259Y86041D01*
X480259Y86042D01*
X480266Y86089D01*
X480266Y103057D01*
X480250Y103145D01*
X480241Y103234D01*
X480231Y103255D01*
X480227Y103278D01*
X480181Y103355D01*
X480142Y103435D01*
X480125Y103451D01*
X480112Y103471D01*
X480043Y103528D01*
X479979Y103589D01*
X479957Y103598D01*
X479938Y103613D01*
X479854Y103641D01*
X479772Y103676D01*
X479748Y103677D01*
X479726Y103685D01*
X479637Y103682D01*
X479548Y103686D01*
X479525Y103679D01*
X479501Y103678D01*
X479419Y103645D01*
X479334Y103617D01*
X479313Y103602D01*
X479294Y103594D01*
X479256Y103560D01*
X479184Y103506D01*
X476769Y101091D01*
X456681Y101091D01*
X454517Y103255D01*
X454482Y103280D01*
X454453Y103311D01*
X454391Y103343D01*
X454333Y103384D01*
X454292Y103394D01*
X454254Y103414D01*
X454164Y103427D01*
X454115Y103440D01*
X454095Y103437D01*
X454068Y103441D01*
X453643Y103441D01*
X453601Y103434D01*
X453559Y103436D01*
X453492Y103414D01*
X453422Y103402D01*
X453386Y103380D01*
X453345Y103367D01*
X453273Y103313D01*
X453229Y103287D01*
X453216Y103271D01*
X453195Y103255D01*
X423097Y73157D01*
X423072Y73122D01*
X423041Y73094D01*
X423009Y73031D01*
X422968Y72973D01*
X422958Y72932D01*
X422938Y72894D01*
X422925Y72805D01*
X422912Y72756D01*
X422915Y72735D01*
X422911Y72709D01*
X422911Y47418D01*
X422922Y47353D01*
X422924Y47287D01*
X422942Y47244D01*
X422950Y47197D01*
X422984Y47140D01*
X423009Y47080D01*
X423040Y47045D01*
X423065Y47004D01*
X423116Y46962D01*
X423160Y46914D01*
X423202Y46892D01*
X423239Y46863D01*
X423301Y46842D01*
X423360Y46811D01*
X423414Y46803D01*
X423451Y46791D01*
X423491Y46792D01*
X423545Y46784D01*
X479632Y46784D01*
X479697Y46795D01*
G37*
G36*
X563287Y239403D02*
X563287Y239403D01*
X563329Y239401D01*
X563396Y239423D01*
X563466Y239435D01*
X563502Y239457D01*
X563543Y239470D01*
X563616Y239524D01*
X563659Y239550D01*
X563672Y239566D01*
X563693Y239582D01*
X568013Y243902D01*
X568038Y243936D01*
X568069Y243965D01*
X568101Y244028D01*
X568142Y244086D01*
X568152Y244127D01*
X568172Y244165D01*
X568185Y244254D01*
X568198Y244303D01*
X568195Y244324D01*
X568199Y244350D01*
X568199Y268505D01*
X568188Y268570D01*
X568186Y268636D01*
X568168Y268679D01*
X568160Y268726D01*
X568126Y268783D01*
X568101Y268843D01*
X568070Y268878D01*
X568045Y268919D01*
X567994Y268961D01*
X567950Y269009D01*
X567908Y269031D01*
X567871Y269060D01*
X567809Y269081D01*
X567750Y269112D01*
X567696Y269120D01*
X567659Y269132D01*
X567619Y269131D01*
X567565Y269139D01*
X479960Y269139D01*
X479918Y269132D01*
X479876Y269134D01*
X479809Y269112D01*
X479739Y269100D01*
X479703Y269078D01*
X479662Y269065D01*
X479589Y269011D01*
X479546Y268985D01*
X479533Y268969D01*
X479512Y268953D01*
X476437Y265878D01*
X476412Y265844D01*
X476381Y265815D01*
X476349Y265752D01*
X476308Y265694D01*
X476298Y265653D01*
X476278Y265615D01*
X476265Y265526D01*
X476253Y265477D01*
X476255Y265456D01*
X476251Y265430D01*
X476251Y259715D01*
X476258Y259673D01*
X476256Y259631D01*
X476278Y259564D01*
X476290Y259494D01*
X476312Y259458D01*
X476325Y259417D01*
X476371Y259355D01*
X476372Y259353D01*
X476374Y259351D01*
X476379Y259344D01*
X476405Y259301D01*
X476421Y259288D01*
X476437Y259267D01*
X496122Y239582D01*
X496156Y239557D01*
X496185Y239526D01*
X496248Y239494D01*
X496306Y239453D01*
X496347Y239443D01*
X496385Y239423D01*
X496474Y239410D01*
X496523Y239398D01*
X496544Y239400D01*
X496570Y239396D01*
X563245Y239396D01*
X563287Y239403D01*
G37*
G36*
X104419Y3065D02*
X104419Y3065D01*
X104507Y3074D01*
X104528Y3084D01*
X104552Y3088D01*
X104628Y3134D01*
X104708Y3173D01*
X104724Y3190D01*
X104745Y3203D01*
X104801Y3272D01*
X104862Y3336D01*
X104871Y3358D01*
X104886Y3377D01*
X104915Y3461D01*
X104950Y3543D01*
X104951Y3567D01*
X104958Y3589D01*
X104956Y3678D01*
X104960Y3767D01*
X104952Y3790D01*
X104952Y3814D01*
X104918Y3896D01*
X104891Y3981D01*
X104875Y4002D01*
X104867Y4021D01*
X104833Y4059D01*
X104779Y4131D01*
X95245Y13666D01*
X95238Y13707D01*
X95236Y13773D01*
X95218Y13816D01*
X95210Y13863D01*
X95176Y13920D01*
X95151Y13980D01*
X95120Y14015D01*
X95095Y14056D01*
X95044Y14098D01*
X95000Y14146D01*
X94958Y14168D01*
X94921Y14197D01*
X94859Y14218D01*
X94800Y14249D01*
X94746Y14257D01*
X94709Y14269D01*
X94669Y14268D01*
X94615Y14276D01*
X94297Y14276D01*
X93158Y15415D01*
X93104Y15453D01*
X93057Y15498D01*
X93013Y15516D01*
X92974Y15543D01*
X92911Y15559D01*
X92850Y15585D01*
X92803Y15587D01*
X92757Y15599D01*
X92692Y15592D01*
X92626Y15595D01*
X92581Y15581D01*
X92534Y15576D01*
X92475Y15547D01*
X92412Y15526D01*
X92368Y15494D01*
X92333Y15476D01*
X92306Y15448D01*
X92261Y15415D01*
X91123Y14276D01*
X81597Y14276D01*
X79811Y16062D01*
X79811Y33838D01*
X81597Y35624D01*
X85852Y35624D01*
X85894Y35631D01*
X85936Y35629D01*
X86003Y35651D01*
X86073Y35663D01*
X86109Y35685D01*
X86150Y35698D01*
X86222Y35752D01*
X86266Y35778D01*
X86279Y35794D01*
X86300Y35810D01*
X88657Y38167D01*
X88658Y38167D01*
X91076Y40585D01*
X124990Y40585D01*
X125032Y40592D01*
X125074Y40590D01*
X125141Y40612D01*
X125211Y40624D01*
X125247Y40646D01*
X125288Y40659D01*
X125361Y40713D01*
X125404Y40739D01*
X125417Y40755D01*
X125438Y40771D01*
X130445Y45777D01*
X132335Y45777D01*
X132400Y45788D01*
X132466Y45790D01*
X132509Y45808D01*
X132556Y45816D01*
X132613Y45850D01*
X132673Y45875D01*
X132708Y45906D01*
X132749Y45931D01*
X132791Y45982D01*
X132839Y46026D01*
X132861Y46068D01*
X132890Y46105D01*
X132911Y46167D01*
X132942Y46226D01*
X132950Y46280D01*
X132962Y46317D01*
X132961Y46357D01*
X132969Y46411D01*
X132969Y50641D01*
X142875Y50641D01*
X142940Y50652D01*
X143005Y50654D01*
X143049Y50672D01*
X143096Y50680D01*
X143152Y50714D01*
X143213Y50739D01*
X143248Y50771D01*
X143289Y50795D01*
X143330Y50846D01*
X143379Y50890D01*
X143401Y50932D01*
X143430Y50969D01*
X143451Y51031D01*
X143481Y51090D01*
X143490Y51144D01*
X143502Y51181D01*
X143501Y51221D01*
X143509Y51275D01*
X143509Y51911D01*
X144145Y51911D01*
X144210Y51923D01*
X144275Y51924D01*
X144319Y51942D01*
X144366Y51951D01*
X144423Y51984D01*
X144483Y52009D01*
X144518Y52041D01*
X144559Y52065D01*
X144600Y52116D01*
X144649Y52160D01*
X144671Y52202D01*
X144700Y52239D01*
X144721Y52301D01*
X144751Y52360D01*
X144760Y52414D01*
X144772Y52451D01*
X144771Y52491D01*
X144779Y52545D01*
X144779Y59827D01*
X144768Y59892D01*
X144766Y59958D01*
X144748Y60001D01*
X144739Y60048D01*
X144706Y60105D01*
X144681Y60165D01*
X144649Y60200D01*
X144625Y60241D01*
X144574Y60283D01*
X144530Y60331D01*
X144488Y60353D01*
X144451Y60382D01*
X144389Y60403D01*
X144330Y60434D01*
X144276Y60442D01*
X144239Y60454D01*
X144199Y60453D01*
X144145Y60461D01*
X142875Y60461D01*
X142810Y60450D01*
X142745Y60448D01*
X142701Y60430D01*
X142654Y60422D01*
X142597Y60388D01*
X142537Y60363D01*
X142502Y60332D01*
X142461Y60307D01*
X142420Y60256D01*
X142371Y60212D01*
X142349Y60170D01*
X142320Y60133D01*
X142299Y60071D01*
X142268Y60012D01*
X142260Y59958D01*
X142248Y59921D01*
X142249Y59881D01*
X142241Y59827D01*
X142241Y53179D01*
X132969Y53179D01*
X132969Y58745D01*
X133142Y59391D01*
X133477Y59970D01*
X133659Y60152D01*
X133697Y60206D01*
X133742Y60254D01*
X133760Y60298D01*
X133787Y60337D01*
X133804Y60400D01*
X133829Y60461D01*
X133831Y60508D01*
X133843Y60554D01*
X133836Y60619D01*
X133839Y60685D01*
X133825Y60730D01*
X133820Y60777D01*
X133791Y60836D01*
X133771Y60899D01*
X133738Y60943D01*
X133721Y60978D01*
X133692Y61005D01*
X133659Y61049D01*
X132461Y62247D01*
X132461Y77773D01*
X134250Y79561D01*
X134288Y79616D01*
X134333Y79663D01*
X134351Y79707D01*
X134378Y79746D01*
X134394Y79809D01*
X134420Y79870D01*
X134422Y79917D01*
X134434Y79963D01*
X134427Y80028D01*
X134430Y80094D01*
X134416Y80139D01*
X134411Y80186D01*
X134382Y80245D01*
X134361Y80308D01*
X134329Y80352D01*
X134311Y80387D01*
X134283Y80414D01*
X134250Y80458D01*
X132461Y82247D01*
X132461Y90805D01*
X132450Y90870D01*
X132448Y90936D01*
X132430Y90979D01*
X132422Y91026D01*
X132388Y91083D01*
X132363Y91143D01*
X132332Y91178D01*
X132307Y91219D01*
X132256Y91261D01*
X132212Y91309D01*
X132170Y91331D01*
X132133Y91360D01*
X132071Y91381D01*
X132012Y91412D01*
X131958Y91420D01*
X131921Y91432D01*
X131881Y91431D01*
X131827Y91439D01*
X109791Y91439D01*
X109749Y91432D01*
X109707Y91434D01*
X109640Y91412D01*
X109570Y91400D01*
X109534Y91378D01*
X109493Y91365D01*
X109421Y91311D01*
X109377Y91285D01*
X109364Y91269D01*
X109343Y91254D01*
X108528Y90438D01*
X108477Y90365D01*
X108421Y90296D01*
X108413Y90274D01*
X108400Y90254D01*
X108377Y90168D01*
X108349Y90084D01*
X108350Y90060D01*
X108344Y90037D01*
X108353Y89948D01*
X108355Y89859D01*
X108364Y89837D01*
X108367Y89814D01*
X108406Y89734D01*
X108440Y89652D01*
X108456Y89634D01*
X108466Y89613D01*
X108531Y89552D01*
X108591Y89486D01*
X108612Y89475D01*
X108630Y89459D01*
X108712Y89424D01*
X108791Y89383D01*
X108817Y89380D01*
X108836Y89371D01*
X108887Y89369D01*
X108976Y89356D01*
X110491Y89356D01*
X110491Y79825D01*
X110502Y79760D01*
X110504Y79695D01*
X110522Y79651D01*
X110530Y79604D01*
X110564Y79548D01*
X110589Y79487D01*
X110621Y79452D01*
X110645Y79411D01*
X110696Y79370D01*
X110740Y79321D01*
X110782Y79299D01*
X110819Y79270D01*
X110881Y79249D01*
X110940Y79219D01*
X110994Y79210D01*
X111031Y79198D01*
X111071Y79199D01*
X111125Y79191D01*
X112395Y79191D01*
X112460Y79203D01*
X112525Y79204D01*
X112569Y79222D01*
X112616Y79231D01*
X112673Y79264D01*
X112733Y79289D01*
X112768Y79321D01*
X112809Y79345D01*
X112850Y79396D01*
X112899Y79440D01*
X112921Y79482D01*
X112950Y79519D01*
X112971Y79581D01*
X113001Y79640D01*
X113010Y79694D01*
X113022Y79731D01*
X113021Y79771D01*
X113029Y79825D01*
X113029Y89356D01*
X115595Y89356D01*
X116241Y89183D01*
X116820Y88848D01*
X117302Y88366D01*
X117356Y88328D01*
X117404Y88283D01*
X117448Y88265D01*
X117487Y88238D01*
X117550Y88221D01*
X117611Y88196D01*
X117658Y88194D01*
X117704Y88182D01*
X117769Y88189D01*
X117835Y88186D01*
X117880Y88200D01*
X117927Y88205D01*
X117986Y88234D01*
X118049Y88254D01*
X118093Y88287D01*
X118128Y88304D01*
X118155Y88333D01*
X118199Y88366D01*
X119697Y89864D01*
X129223Y89864D01*
X131009Y88078D01*
X131009Y70302D01*
X129223Y68516D01*
X123698Y68516D01*
X123656Y68509D01*
X123614Y68511D01*
X123547Y68489D01*
X123477Y68477D01*
X123441Y68455D01*
X123400Y68442D01*
X123328Y68388D01*
X123284Y68362D01*
X123271Y68346D01*
X123250Y68330D01*
X114608Y59689D01*
X75892Y59689D01*
X70215Y65365D01*
X70181Y65390D01*
X70152Y65421D01*
X70089Y65453D01*
X70031Y65494D01*
X69990Y65504D01*
X69952Y65524D01*
X69863Y65537D01*
X69814Y65550D01*
X69793Y65547D01*
X69767Y65551D01*
X68697Y65551D01*
X68674Y65559D01*
X68638Y65558D01*
X68604Y65566D01*
X68527Y65555D01*
X68449Y65553D01*
X68417Y65539D01*
X68382Y65535D01*
X68313Y65498D01*
X68242Y65468D01*
X68216Y65445D01*
X68185Y65428D01*
X68133Y65369D01*
X68076Y65317D01*
X68060Y65286D01*
X68037Y65259D01*
X68009Y65187D01*
X67973Y65117D01*
X67968Y65078D01*
X67957Y65049D01*
X67956Y65003D01*
X67946Y64932D01*
X67946Y3683D01*
X67957Y3618D01*
X67959Y3552D01*
X67977Y3509D01*
X67985Y3462D01*
X68019Y3405D01*
X68044Y3345D01*
X68075Y3310D01*
X68100Y3269D01*
X68151Y3227D01*
X68195Y3179D01*
X68237Y3157D01*
X68274Y3128D01*
X68336Y3107D01*
X68395Y3076D01*
X68449Y3068D01*
X68486Y3056D01*
X68526Y3057D01*
X68580Y3049D01*
X104331Y3049D01*
X104419Y3065D01*
G37*
G36*
X432450Y131555D02*
X432450Y131555D01*
X432516Y131557D01*
X432559Y131575D01*
X432606Y131583D01*
X432663Y131617D01*
X432723Y131642D01*
X432758Y131673D01*
X432799Y131698D01*
X432841Y131749D01*
X432889Y131793D01*
X432911Y131835D01*
X432940Y131872D01*
X432961Y131934D01*
X432992Y131993D01*
X433000Y132047D01*
X433012Y132084D01*
X433011Y132124D01*
X433019Y132178D01*
X433019Y137161D01*
X440175Y137161D01*
X440240Y137172D01*
X440305Y137174D01*
X440349Y137192D01*
X440396Y137200D01*
X440452Y137234D01*
X440513Y137259D01*
X440548Y137291D01*
X440589Y137315D01*
X440630Y137366D01*
X440679Y137410D01*
X440701Y137452D01*
X440730Y137489D01*
X440751Y137551D01*
X440781Y137610D01*
X440790Y137664D01*
X440802Y137701D01*
X440801Y137741D01*
X440809Y137795D01*
X440809Y139065D01*
X440797Y139130D01*
X440796Y139195D01*
X440778Y139239D01*
X440769Y139286D01*
X440736Y139343D01*
X440711Y139403D01*
X440679Y139438D01*
X440655Y139479D01*
X440604Y139520D01*
X440560Y139569D01*
X440518Y139591D01*
X440481Y139620D01*
X440419Y139641D01*
X440360Y139671D01*
X440306Y139680D01*
X440269Y139692D01*
X440229Y139691D01*
X440175Y139699D01*
X433019Y139699D01*
X433019Y145715D01*
X433192Y146361D01*
X433527Y146940D01*
X434000Y147413D01*
X434579Y147748D01*
X434706Y147782D01*
X434793Y147822D01*
X434880Y147858D01*
X434893Y147870D01*
X434909Y147877D01*
X434976Y147945D01*
X435046Y148009D01*
X435054Y148025D01*
X435066Y148037D01*
X435105Y148124D01*
X435149Y148209D01*
X435151Y148228D01*
X435158Y148242D01*
X435161Y148292D01*
X435176Y148394D01*
X435176Y161328D01*
X435498Y161650D01*
X435523Y161685D01*
X435554Y161714D01*
X435586Y161776D01*
X435627Y161834D01*
X435637Y161875D01*
X435657Y161913D01*
X435670Y162003D01*
X435683Y162052D01*
X435680Y162072D01*
X435684Y162099D01*
X435684Y163191D01*
X445110Y163191D01*
X445175Y163202D01*
X445240Y163204D01*
X445284Y163222D01*
X445331Y163230D01*
X445387Y163264D01*
X445448Y163289D01*
X445483Y163320D01*
X445524Y163344D01*
X445565Y163396D01*
X445600Y163427D01*
X445610Y163411D01*
X445661Y163369D01*
X445705Y163321D01*
X445747Y163299D01*
X445784Y163270D01*
X445846Y163248D01*
X445905Y163218D01*
X445959Y163210D01*
X445996Y163198D01*
X446036Y163199D01*
X446090Y163191D01*
X455516Y163191D01*
X455516Y162260D01*
X455527Y162195D01*
X455529Y162129D01*
X455547Y162086D01*
X455555Y162039D01*
X455589Y161982D01*
X455614Y161922D01*
X455645Y161887D01*
X455670Y161846D01*
X455721Y161804D01*
X455765Y161756D01*
X455807Y161734D01*
X455844Y161705D01*
X455906Y161684D01*
X455965Y161653D01*
X456019Y161645D01*
X456056Y161633D01*
X456096Y161634D01*
X456150Y161626D01*
X463523Y161626D01*
X473217Y151932D01*
X473217Y132178D01*
X473228Y132113D01*
X473230Y132047D01*
X473248Y132004D01*
X473256Y131957D01*
X473290Y131900D01*
X473315Y131840D01*
X473346Y131805D01*
X473371Y131764D01*
X473422Y131722D01*
X473466Y131674D01*
X473508Y131652D01*
X473545Y131623D01*
X473607Y131602D01*
X473666Y131571D01*
X473720Y131563D01*
X473757Y131551D01*
X473797Y131552D01*
X473851Y131544D01*
X474732Y131544D01*
X474774Y131551D01*
X474816Y131549D01*
X474883Y131571D01*
X474953Y131583D01*
X474989Y131605D01*
X475030Y131618D01*
X475102Y131672D01*
X475146Y131698D01*
X475159Y131714D01*
X475180Y131730D01*
X477393Y133943D01*
X477418Y133977D01*
X477449Y134006D01*
X477481Y134069D01*
X477522Y134127D01*
X477532Y134168D01*
X477552Y134206D01*
X477565Y134295D01*
X477578Y134344D01*
X477575Y134365D01*
X477579Y134391D01*
X477579Y144288D01*
X488417Y155126D01*
X493302Y155126D01*
X493367Y155137D01*
X493433Y155139D01*
X493476Y155157D01*
X493523Y155165D01*
X493580Y155199D01*
X493640Y155224D01*
X493675Y155255D01*
X493716Y155280D01*
X493758Y155331D01*
X493806Y155375D01*
X493828Y155417D01*
X493857Y155454D01*
X493878Y155516D01*
X493909Y155575D01*
X493917Y155629D01*
X493929Y155666D01*
X493928Y155706D01*
X493936Y155760D01*
X493936Y179370D01*
X493925Y179435D01*
X493923Y179501D01*
X493905Y179544D01*
X493897Y179591D01*
X493863Y179648D01*
X493838Y179708D01*
X493807Y179743D01*
X493782Y179784D01*
X493731Y179826D01*
X493687Y179874D01*
X493645Y179896D01*
X493608Y179925D01*
X493546Y179946D01*
X493487Y179977D01*
X493433Y179985D01*
X493396Y179997D01*
X493356Y179996D01*
X493302Y180004D01*
X465056Y180004D01*
X465014Y179997D01*
X464972Y179999D01*
X464905Y179977D01*
X464835Y179965D01*
X464799Y179943D01*
X464758Y179930D01*
X464686Y179876D01*
X464642Y179850D01*
X464629Y179834D01*
X464608Y179818D01*
X458293Y173504D01*
X456658Y173504D01*
X456593Y173493D01*
X456527Y173491D01*
X456484Y173473D01*
X456437Y173465D01*
X456380Y173431D01*
X456320Y173406D01*
X456285Y173375D01*
X456244Y173350D01*
X456202Y173299D01*
X456154Y173255D01*
X456132Y173213D01*
X456103Y173176D01*
X456082Y173114D01*
X456051Y173055D01*
X456043Y173001D01*
X456031Y172964D01*
X456032Y172924D01*
X456024Y172870D01*
X456024Y167302D01*
X455702Y166980D01*
X455677Y166945D01*
X455646Y166916D01*
X455614Y166854D01*
X455573Y166796D01*
X455563Y166755D01*
X455543Y166717D01*
X455530Y166627D01*
X455517Y166578D01*
X455520Y166558D01*
X455516Y166531D01*
X455516Y165439D01*
X446090Y165439D01*
X446025Y165428D01*
X445960Y165426D01*
X445916Y165408D01*
X445869Y165400D01*
X445813Y165366D01*
X445752Y165341D01*
X445717Y165310D01*
X445676Y165285D01*
X445635Y165234D01*
X445600Y165203D01*
X445590Y165219D01*
X445539Y165261D01*
X445495Y165309D01*
X445453Y165331D01*
X445416Y165360D01*
X445354Y165381D01*
X445295Y165412D01*
X445241Y165420D01*
X445204Y165432D01*
X445164Y165431D01*
X445110Y165439D01*
X435684Y165439D01*
X435684Y166370D01*
X435673Y166435D01*
X435671Y166501D01*
X435653Y166544D01*
X435645Y166591D01*
X435611Y166648D01*
X435586Y166708D01*
X435555Y166743D01*
X435531Y166784D01*
X435479Y166826D01*
X435435Y166874D01*
X435393Y166896D01*
X435356Y166925D01*
X435294Y166947D01*
X435235Y166977D01*
X435181Y166985D01*
X435144Y166997D01*
X435104Y166996D01*
X435050Y167004D01*
X431623Y167004D01*
X431581Y166997D01*
X431539Y166999D01*
X431472Y166977D01*
X431402Y166965D01*
X431366Y166943D01*
X431325Y166930D01*
X431253Y166876D01*
X431209Y166850D01*
X431196Y166834D01*
X431175Y166818D01*
X429945Y165588D01*
X429920Y165553D01*
X429889Y165525D01*
X429857Y165462D01*
X429816Y165404D01*
X429806Y165363D01*
X429786Y165325D01*
X429773Y165235D01*
X429760Y165187D01*
X429763Y165166D01*
X429759Y165140D01*
X429759Y132178D01*
X429770Y132113D01*
X429772Y132047D01*
X429790Y132004D01*
X429798Y131957D01*
X429832Y131900D01*
X429857Y131840D01*
X429888Y131805D01*
X429913Y131764D01*
X429964Y131722D01*
X430008Y131674D01*
X430050Y131652D01*
X430087Y131623D01*
X430149Y131602D01*
X430208Y131571D01*
X430262Y131563D01*
X430299Y131551D01*
X430339Y131552D01*
X430393Y131544D01*
X432385Y131544D01*
X432450Y131555D01*
G37*
G36*
X285378Y36905D02*
X285378Y36905D01*
X285444Y36907D01*
X285487Y36925D01*
X285534Y36933D01*
X285591Y36967D01*
X285651Y36992D01*
X285686Y37023D01*
X285727Y37048D01*
X285769Y37099D01*
X285817Y37143D01*
X285839Y37185D01*
X285868Y37222D01*
X285889Y37284D01*
X285920Y37343D01*
X285928Y37397D01*
X285940Y37434D01*
X285939Y37474D01*
X285947Y37528D01*
X285947Y37775D01*
X288173Y40001D01*
X290591Y42419D01*
X331294Y42419D01*
X331336Y42426D01*
X331378Y42424D01*
X331445Y42446D01*
X331515Y42458D01*
X331551Y42480D01*
X331592Y42493D01*
X331665Y42547D01*
X331708Y42573D01*
X331721Y42589D01*
X331742Y42605D01*
X334915Y45777D01*
X335535Y45777D01*
X335600Y45788D01*
X335666Y45790D01*
X335709Y45808D01*
X335756Y45816D01*
X335813Y45850D01*
X335873Y45875D01*
X335908Y45906D01*
X335949Y45931D01*
X335991Y45982D01*
X336039Y46026D01*
X336061Y46068D01*
X336090Y46105D01*
X336111Y46167D01*
X336142Y46226D01*
X336150Y46280D01*
X336162Y46317D01*
X336161Y46357D01*
X336169Y46411D01*
X336169Y50641D01*
X346075Y50641D01*
X346140Y50652D01*
X346205Y50654D01*
X346249Y50672D01*
X346296Y50680D01*
X346352Y50714D01*
X346413Y50739D01*
X346448Y50771D01*
X346489Y50795D01*
X346530Y50846D01*
X346579Y50890D01*
X346601Y50932D01*
X346630Y50969D01*
X346651Y51031D01*
X346681Y51090D01*
X346690Y51144D01*
X346702Y51181D01*
X346701Y51221D01*
X346709Y51275D01*
X346709Y51911D01*
X347345Y51911D01*
X347410Y51923D01*
X347475Y51924D01*
X347519Y51942D01*
X347566Y51951D01*
X347623Y51984D01*
X347683Y52009D01*
X347718Y52041D01*
X347759Y52065D01*
X347800Y52116D01*
X347849Y52160D01*
X347871Y52202D01*
X347900Y52239D01*
X347921Y52301D01*
X347951Y52360D01*
X347960Y52414D01*
X347972Y52451D01*
X347971Y52491D01*
X347979Y52545D01*
X347979Y59827D01*
X347968Y59892D01*
X347966Y59958D01*
X347948Y60001D01*
X347939Y60048D01*
X347906Y60105D01*
X347881Y60165D01*
X347849Y60200D01*
X347825Y60241D01*
X347774Y60283D01*
X347730Y60331D01*
X347688Y60353D01*
X347651Y60382D01*
X347589Y60403D01*
X347530Y60434D01*
X347476Y60442D01*
X347439Y60454D01*
X347399Y60453D01*
X347345Y60461D01*
X346075Y60461D01*
X346010Y60450D01*
X345945Y60448D01*
X345901Y60430D01*
X345854Y60422D01*
X345797Y60388D01*
X345737Y60363D01*
X345702Y60332D01*
X345661Y60307D01*
X345620Y60256D01*
X345571Y60212D01*
X345549Y60170D01*
X345520Y60133D01*
X345499Y60071D01*
X345468Y60012D01*
X345460Y59958D01*
X345448Y59921D01*
X345449Y59881D01*
X345441Y59827D01*
X345441Y53179D01*
X336169Y53179D01*
X336169Y58745D01*
X336342Y59391D01*
X336677Y59970D01*
X336859Y60152D01*
X336897Y60206D01*
X336942Y60254D01*
X336960Y60298D01*
X336987Y60336D01*
X337004Y60400D01*
X337029Y60461D01*
X337031Y60508D01*
X337043Y60554D01*
X337036Y60619D01*
X337039Y60685D01*
X337025Y60730D01*
X337020Y60777D01*
X336991Y60836D01*
X336971Y60899D01*
X336938Y60943D01*
X336921Y60978D01*
X336892Y61005D01*
X336859Y61049D01*
X335661Y62247D01*
X335661Y63311D01*
X335649Y63377D01*
X335648Y63433D01*
X335640Y63452D01*
X335636Y63487D01*
X335626Y63508D01*
X335622Y63532D01*
X335577Y63607D01*
X335563Y63641D01*
X335556Y63649D01*
X335537Y63688D01*
X335520Y63704D01*
X335507Y63725D01*
X335438Y63781D01*
X335416Y63802D01*
X335412Y63807D01*
X335410Y63807D01*
X335374Y63842D01*
X335352Y63851D01*
X335333Y63866D01*
X335249Y63895D01*
X335167Y63930D01*
X335143Y63931D01*
X335121Y63938D01*
X335034Y63936D01*
X335027Y63937D01*
X335019Y63937D01*
X335016Y63936D01*
X334943Y63940D01*
X334920Y63932D01*
X334896Y63932D01*
X334822Y63901D01*
X334798Y63897D01*
X334782Y63888D01*
X334729Y63871D01*
X334708Y63855D01*
X334689Y63847D01*
X334651Y63813D01*
X334633Y63800D01*
X334605Y63783D01*
X334596Y63772D01*
X334579Y63759D01*
X329752Y58932D01*
X327333Y56514D01*
X307667Y56514D01*
X298449Y65732D01*
X298449Y69152D01*
X298438Y69217D01*
X298436Y69283D01*
X298418Y69326D01*
X298410Y69373D01*
X298376Y69430D01*
X298351Y69490D01*
X298320Y69525D01*
X298295Y69566D01*
X298244Y69608D01*
X298200Y69656D01*
X298158Y69678D01*
X298121Y69707D01*
X298059Y69728D01*
X298000Y69759D01*
X297946Y69767D01*
X297909Y69779D01*
X297869Y69778D01*
X297815Y69786D01*
X297497Y69786D01*
X296359Y70925D01*
X296304Y70963D01*
X296257Y71008D01*
X296213Y71026D01*
X296174Y71053D01*
X296111Y71069D01*
X296050Y71095D01*
X296003Y71097D01*
X295957Y71109D01*
X295892Y71102D01*
X295826Y71105D01*
X295781Y71091D01*
X295734Y71086D01*
X295675Y71057D01*
X295612Y71036D01*
X295568Y71004D01*
X295533Y70986D01*
X295506Y70958D01*
X295462Y70925D01*
X294323Y69786D01*
X285115Y69786D01*
X285050Y69775D01*
X284984Y69773D01*
X284941Y69755D01*
X284894Y69747D01*
X284837Y69713D01*
X284777Y69688D01*
X284742Y69657D01*
X284701Y69632D01*
X284659Y69581D01*
X284611Y69537D01*
X284589Y69495D01*
X284560Y69458D01*
X284539Y69396D01*
X284508Y69337D01*
X284500Y69283D01*
X284488Y69246D01*
X284489Y69206D01*
X284481Y69152D01*
X284481Y37528D01*
X284492Y37463D01*
X284494Y37397D01*
X284512Y37354D01*
X284520Y37307D01*
X284554Y37250D01*
X284579Y37190D01*
X284610Y37155D01*
X284635Y37114D01*
X284686Y37072D01*
X284730Y37024D01*
X284772Y37002D01*
X284809Y36973D01*
X284871Y36952D01*
X284930Y36921D01*
X284984Y36913D01*
X285021Y36901D01*
X285061Y36902D01*
X285115Y36894D01*
X285313Y36894D01*
X285378Y36905D01*
G37*
G36*
X186224Y36901D02*
X186224Y36901D01*
X186266Y36899D01*
X186333Y36921D01*
X186403Y36933D01*
X186439Y36955D01*
X186480Y36968D01*
X186552Y37022D01*
X186596Y37048D01*
X186609Y37064D01*
X186630Y37080D01*
X191462Y41911D01*
X227916Y41911D01*
X227958Y41918D01*
X228000Y41916D01*
X228067Y41938D01*
X228137Y41950D01*
X228173Y41972D01*
X228214Y41985D01*
X228287Y42039D01*
X228330Y42065D01*
X228343Y42081D01*
X228364Y42097D01*
X232045Y45777D01*
X233935Y45777D01*
X234000Y45788D01*
X234066Y45790D01*
X234109Y45808D01*
X234156Y45816D01*
X234213Y45850D01*
X234273Y45875D01*
X234308Y45906D01*
X234349Y45931D01*
X234391Y45982D01*
X234439Y46026D01*
X234461Y46068D01*
X234490Y46105D01*
X234511Y46167D01*
X234542Y46226D01*
X234550Y46280D01*
X234562Y46317D01*
X234561Y46357D01*
X234569Y46411D01*
X234569Y50641D01*
X244475Y50641D01*
X244540Y50652D01*
X244605Y50654D01*
X244649Y50672D01*
X244696Y50680D01*
X244752Y50714D01*
X244813Y50739D01*
X244848Y50771D01*
X244889Y50795D01*
X244930Y50846D01*
X244979Y50890D01*
X245001Y50932D01*
X245030Y50969D01*
X245051Y51031D01*
X245081Y51090D01*
X245090Y51144D01*
X245102Y51181D01*
X245101Y51221D01*
X245109Y51275D01*
X245109Y51911D01*
X245745Y51911D01*
X245810Y51923D01*
X245875Y51924D01*
X245919Y51942D01*
X245966Y51951D01*
X246023Y51984D01*
X246083Y52009D01*
X246118Y52041D01*
X246159Y52065D01*
X246200Y52116D01*
X246249Y52160D01*
X246271Y52202D01*
X246300Y52239D01*
X246321Y52301D01*
X246351Y52360D01*
X246360Y52414D01*
X246372Y52451D01*
X246371Y52491D01*
X246379Y52545D01*
X246379Y59827D01*
X246368Y59892D01*
X246366Y59958D01*
X246348Y60001D01*
X246339Y60048D01*
X246306Y60105D01*
X246281Y60165D01*
X246249Y60200D01*
X246225Y60241D01*
X246174Y60283D01*
X246130Y60331D01*
X246088Y60353D01*
X246051Y60382D01*
X245989Y60403D01*
X245930Y60434D01*
X245876Y60442D01*
X245839Y60454D01*
X245799Y60453D01*
X245745Y60461D01*
X244475Y60461D01*
X244410Y60450D01*
X244345Y60448D01*
X244301Y60430D01*
X244254Y60422D01*
X244197Y60388D01*
X244137Y60363D01*
X244102Y60332D01*
X244061Y60307D01*
X244020Y60256D01*
X243971Y60212D01*
X243949Y60170D01*
X243920Y60133D01*
X243899Y60071D01*
X243868Y60012D01*
X243860Y59958D01*
X243848Y59921D01*
X243849Y59881D01*
X243841Y59827D01*
X243841Y53179D01*
X234569Y53179D01*
X234569Y58745D01*
X234742Y59391D01*
X235077Y59970D01*
X235259Y60152D01*
X235297Y60206D01*
X235342Y60254D01*
X235360Y60298D01*
X235387Y60337D01*
X235404Y60400D01*
X235429Y60461D01*
X235431Y60508D01*
X235443Y60554D01*
X235436Y60619D01*
X235439Y60685D01*
X235425Y60730D01*
X235420Y60777D01*
X235391Y60836D01*
X235371Y60899D01*
X235338Y60943D01*
X235321Y60978D01*
X235292Y61005D01*
X235259Y61049D01*
X234061Y62247D01*
X234061Y63311D01*
X234049Y63377D01*
X234048Y63433D01*
X234040Y63452D01*
X234036Y63487D01*
X234026Y63508D01*
X234022Y63532D01*
X233977Y63607D01*
X233963Y63641D01*
X233956Y63649D01*
X233937Y63688D01*
X233920Y63704D01*
X233907Y63725D01*
X233838Y63781D01*
X233816Y63802D01*
X233812Y63807D01*
X233810Y63807D01*
X233774Y63842D01*
X233752Y63851D01*
X233733Y63866D01*
X233649Y63895D01*
X233567Y63930D01*
X233543Y63931D01*
X233521Y63938D01*
X233434Y63936D01*
X233427Y63937D01*
X233419Y63937D01*
X233416Y63936D01*
X233343Y63940D01*
X233320Y63932D01*
X233296Y63932D01*
X233222Y63901D01*
X233198Y63897D01*
X233182Y63888D01*
X233129Y63871D01*
X233108Y63855D01*
X233089Y63847D01*
X233051Y63813D01*
X233033Y63800D01*
X233005Y63783D01*
X232996Y63772D01*
X232979Y63759D01*
X228152Y58932D01*
X225733Y56514D01*
X204162Y56514D01*
X196849Y63827D01*
X196849Y69152D01*
X196838Y69217D01*
X196836Y69283D01*
X196818Y69326D01*
X196810Y69373D01*
X196776Y69430D01*
X196751Y69490D01*
X196720Y69525D01*
X196695Y69566D01*
X196644Y69608D01*
X196600Y69656D01*
X196558Y69678D01*
X196521Y69707D01*
X196459Y69728D01*
X196400Y69759D01*
X196346Y69767D01*
X196309Y69779D01*
X196269Y69778D01*
X196215Y69786D01*
X195897Y69786D01*
X194759Y70925D01*
X194704Y70963D01*
X194657Y71008D01*
X194613Y71026D01*
X194574Y71053D01*
X194511Y71069D01*
X194450Y71095D01*
X194403Y71097D01*
X194357Y71109D01*
X194292Y71102D01*
X194226Y71105D01*
X194181Y71091D01*
X194134Y71086D01*
X194075Y71057D01*
X194012Y71036D01*
X193968Y71004D01*
X193933Y70986D01*
X193906Y70958D01*
X193862Y70925D01*
X192723Y69786D01*
X183197Y69786D01*
X181439Y71544D01*
X181366Y71595D01*
X181297Y71651D01*
X181275Y71659D01*
X181255Y71672D01*
X181169Y71694D01*
X181085Y71723D01*
X181061Y71722D01*
X181038Y71728D01*
X180949Y71719D01*
X180860Y71716D01*
X180838Y71707D01*
X180815Y71705D01*
X180735Y71665D01*
X180653Y71632D01*
X180635Y71616D01*
X180614Y71605D01*
X180553Y71541D01*
X180487Y71480D01*
X180476Y71459D01*
X180460Y71442D01*
X180425Y71360D01*
X180384Y71281D01*
X180381Y71255D01*
X180372Y71235D01*
X180370Y71185D01*
X180357Y71096D01*
X180357Y70405D01*
X180364Y70363D01*
X180362Y70321D01*
X180384Y70254D01*
X180396Y70184D01*
X180418Y70148D01*
X180431Y70107D01*
X180485Y70035D01*
X180511Y69991D01*
X180527Y69978D01*
X180543Y69957D01*
X185421Y65078D01*
X185421Y37528D01*
X185432Y37463D01*
X185434Y37397D01*
X185452Y37354D01*
X185460Y37307D01*
X185494Y37250D01*
X185519Y37190D01*
X185550Y37155D01*
X185575Y37114D01*
X185626Y37072D01*
X185670Y37024D01*
X185712Y37002D01*
X185749Y36973D01*
X185811Y36952D01*
X185870Y36921D01*
X185924Y36913D01*
X185961Y36901D01*
X186001Y36902D01*
X186055Y36894D01*
X186182Y36894D01*
X186224Y36901D01*
G37*
G36*
X451559Y244112D02*
X451559Y244112D01*
X451634Y244125D01*
X451644Y244132D01*
X451654Y244134D01*
X451683Y244158D01*
X451754Y244206D01*
X456199Y248651D01*
X456239Y248716D01*
X456283Y248778D01*
X456285Y248790D01*
X456290Y248798D01*
X456294Y248835D01*
X456310Y248920D01*
X456310Y258445D01*
X456293Y258519D01*
X456280Y258594D01*
X456273Y258604D01*
X456271Y258614D01*
X456247Y258643D01*
X456199Y258714D01*
X452389Y262524D01*
X452324Y262564D01*
X452262Y262608D01*
X452250Y262610D01*
X452242Y262615D01*
X452205Y262619D01*
X452120Y262635D01*
X422275Y262635D01*
X422201Y262618D01*
X422126Y262605D01*
X422116Y262598D01*
X422106Y262596D01*
X422077Y262572D01*
X422006Y262524D01*
X418831Y259349D01*
X418791Y259284D01*
X418747Y259222D01*
X418745Y259210D01*
X418740Y259202D01*
X418736Y259165D01*
X418720Y259080D01*
X418720Y244475D01*
X418731Y244425D01*
X418733Y244374D01*
X418751Y244342D01*
X418759Y244306D01*
X418792Y244267D01*
X418816Y244222D01*
X418846Y244201D01*
X418869Y244173D01*
X418916Y244152D01*
X418958Y244122D01*
X419000Y244114D01*
X419028Y244102D01*
X419058Y244103D01*
X419100Y244095D01*
X451485Y244095D01*
X451559Y244112D01*
G37*
G36*
X368768Y119134D02*
X368768Y119134D01*
X368811Y119132D01*
X368878Y119154D01*
X368947Y119166D01*
X368984Y119188D01*
X369024Y119201D01*
X369097Y119255D01*
X369141Y119281D01*
X369154Y119297D01*
X369175Y119313D01*
X369528Y119665D01*
X369552Y119700D01*
X369583Y119729D01*
X369615Y119791D01*
X369656Y119849D01*
X369666Y119890D01*
X369686Y119928D01*
X369699Y120018D01*
X369712Y120067D01*
X369709Y120087D01*
X369713Y120114D01*
X369713Y149235D01*
X369702Y149300D01*
X369700Y149366D01*
X369682Y149409D01*
X369674Y149456D01*
X369640Y149513D01*
X369615Y149573D01*
X369584Y149608D01*
X369560Y149649D01*
X369508Y149691D01*
X369464Y149739D01*
X369422Y149761D01*
X369385Y149790D01*
X369323Y149811D01*
X369264Y149842D01*
X369210Y149850D01*
X369173Y149862D01*
X369134Y149861D01*
X369079Y149869D01*
X363219Y149869D01*
X363219Y158275D01*
X363208Y158340D01*
X363206Y158405D01*
X363188Y158449D01*
X363179Y158496D01*
X363146Y158552D01*
X363121Y158613D01*
X363089Y158648D01*
X363065Y158689D01*
X363014Y158730D01*
X362970Y158779D01*
X362928Y158801D01*
X362891Y158830D01*
X362829Y158851D01*
X362770Y158881D01*
X362716Y158890D01*
X362679Y158902D01*
X362639Y158901D01*
X362585Y158909D01*
X361315Y158909D01*
X361250Y158897D01*
X361185Y158896D01*
X361141Y158878D01*
X361094Y158869D01*
X361037Y158836D01*
X360977Y158811D01*
X360942Y158779D01*
X360901Y158755D01*
X360860Y158704D01*
X360811Y158660D01*
X360789Y158618D01*
X360760Y158581D01*
X360739Y158519D01*
X360708Y158460D01*
X360700Y158406D01*
X360688Y158369D01*
X360689Y158329D01*
X360681Y158275D01*
X360681Y149869D01*
X353615Y149869D01*
X352969Y150042D01*
X352390Y150377D01*
X351917Y150850D01*
X351839Y150985D01*
X351800Y151031D01*
X351770Y151082D01*
X351728Y151116D01*
X351694Y151157D01*
X351642Y151186D01*
X351596Y151224D01*
X351545Y151241D01*
X351499Y151267D01*
X351440Y151276D01*
X351383Y151296D01*
X351330Y151294D01*
X351277Y151302D01*
X351218Y151291D01*
X351159Y151289D01*
X351109Y151269D01*
X351057Y151258D01*
X351006Y151227D01*
X350951Y151205D01*
X350912Y151169D01*
X350866Y151141D01*
X350829Y151094D01*
X350785Y151053D01*
X350761Y151006D01*
X350728Y150964D01*
X350710Y150907D01*
X350683Y150854D01*
X350674Y150791D01*
X350660Y150750D01*
X350662Y150715D01*
X350655Y150668D01*
X350655Y126109D01*
X350206Y125660D01*
X350182Y125625D01*
X350150Y125596D01*
X350118Y125534D01*
X350078Y125476D01*
X350067Y125435D01*
X350048Y125397D01*
X350035Y125307D01*
X350022Y125258D01*
X350024Y125238D01*
X350020Y125211D01*
X350020Y119761D01*
X350032Y119696D01*
X350034Y119630D01*
X350052Y119587D01*
X350060Y119540D01*
X350093Y119483D01*
X350118Y119423D01*
X350150Y119388D01*
X350174Y119347D01*
X350225Y119305D01*
X350269Y119257D01*
X350312Y119235D01*
X350348Y119206D01*
X350410Y119185D01*
X350469Y119154D01*
X350524Y119146D01*
X350561Y119134D01*
X350600Y119135D01*
X350654Y119127D01*
X368727Y119127D01*
X368768Y119134D01*
G37*
G36*
X417095Y78103D02*
X417095Y78103D01*
X417119Y78103D01*
X417201Y78137D01*
X417286Y78164D01*
X417307Y78180D01*
X417326Y78188D01*
X417364Y78222D01*
X417436Y78276D01*
X447805Y108645D01*
X447830Y108679D01*
X447861Y108708D01*
X447893Y108771D01*
X447934Y108829D01*
X447944Y108870D01*
X447964Y108908D01*
X447977Y108997D01*
X447990Y109046D01*
X447987Y109067D01*
X447991Y109093D01*
X447991Y110489D01*
X447984Y110531D01*
X447986Y110574D01*
X447964Y110641D01*
X447952Y110710D01*
X447930Y110747D01*
X447917Y110787D01*
X447863Y110860D01*
X447837Y110903D01*
X447821Y110917D01*
X447805Y110938D01*
X447725Y111018D01*
X447690Y111043D01*
X447661Y111074D01*
X447599Y111106D01*
X447541Y111147D01*
X447500Y111157D01*
X447462Y111177D01*
X447372Y111190D01*
X447323Y111203D01*
X447303Y111200D01*
X447276Y111204D01*
X445579Y111204D01*
X445579Y120485D01*
X445568Y120550D01*
X445566Y120615D01*
X445548Y120659D01*
X445539Y120706D01*
X445506Y120762D01*
X445481Y120823D01*
X445449Y120858D01*
X445425Y120899D01*
X445374Y120940D01*
X445330Y120989D01*
X445288Y121011D01*
X445251Y121040D01*
X445189Y121061D01*
X445130Y121091D01*
X445076Y121100D01*
X445039Y121112D01*
X444999Y121111D01*
X444945Y121119D01*
X443675Y121119D01*
X443610Y121107D01*
X443545Y121106D01*
X443501Y121088D01*
X443454Y121079D01*
X443397Y121046D01*
X443337Y121021D01*
X443302Y120989D01*
X443261Y120965D01*
X443220Y120914D01*
X443171Y120870D01*
X443149Y120828D01*
X443120Y120791D01*
X443099Y120729D01*
X443068Y120670D01*
X443060Y120616D01*
X443048Y120579D01*
X443049Y120539D01*
X443041Y120485D01*
X443041Y111204D01*
X441344Y111204D01*
X441302Y111197D01*
X441259Y111199D01*
X441192Y111177D01*
X441123Y111165D01*
X441086Y111143D01*
X441046Y111130D01*
X440973Y111076D01*
X440929Y111050D01*
X440916Y111034D01*
X440895Y111018D01*
X440573Y110696D01*
X416988Y110696D01*
X416923Y110685D01*
X416857Y110683D01*
X416814Y110665D01*
X416767Y110657D01*
X416710Y110623D01*
X416650Y110598D01*
X416615Y110567D01*
X416574Y110542D01*
X416532Y110491D01*
X416484Y110447D01*
X416462Y110405D01*
X416433Y110368D01*
X416412Y110306D01*
X416381Y110247D01*
X416373Y110193D01*
X416361Y110156D01*
X416362Y110116D01*
X416354Y110062D01*
X416354Y78724D01*
X416370Y78636D01*
X416379Y78548D01*
X416389Y78527D01*
X416393Y78503D01*
X416439Y78427D01*
X416478Y78347D01*
X416495Y78331D01*
X416508Y78310D01*
X416577Y78254D01*
X416641Y78193D01*
X416663Y78184D01*
X416682Y78169D01*
X416766Y78140D01*
X416848Y78105D01*
X416872Y78104D01*
X416894Y78097D01*
X416983Y78099D01*
X417072Y78095D01*
X417095Y78103D01*
G37*
G36*
X483100Y119806D02*
X483100Y119806D01*
X483124Y119807D01*
X483206Y119840D01*
X483291Y119868D01*
X483312Y119883D01*
X483331Y119891D01*
X483369Y119925D01*
X483441Y119979D01*
X483986Y120524D01*
X491343Y120524D01*
X491385Y120531D01*
X491428Y120529D01*
X491495Y120551D01*
X491564Y120563D01*
X491601Y120585D01*
X491641Y120598D01*
X491714Y120652D01*
X491757Y120678D01*
X491771Y120694D01*
X491792Y120710D01*
X494967Y123884D01*
X494967Y123885D01*
X510021Y138939D01*
X515020Y138939D01*
X515085Y138950D01*
X515151Y138952D01*
X515194Y138970D01*
X515241Y138978D01*
X515298Y139012D01*
X515358Y139037D01*
X515393Y139068D01*
X515434Y139093D01*
X515476Y139144D01*
X515524Y139188D01*
X515546Y139230D01*
X515575Y139267D01*
X515596Y139329D01*
X515627Y139388D01*
X515635Y139442D01*
X515647Y139479D01*
X515646Y139519D01*
X515654Y139573D01*
X515654Y142996D01*
X523876Y142996D01*
X523876Y139573D01*
X523887Y139508D01*
X523889Y139442D01*
X523907Y139399D01*
X523915Y139352D01*
X523949Y139295D01*
X523974Y139235D01*
X524006Y139200D01*
X524030Y139159D01*
X524081Y139117D01*
X524125Y139069D01*
X524167Y139047D01*
X524204Y139018D01*
X524266Y138997D01*
X524325Y138966D01*
X524379Y138958D01*
X524416Y138946D01*
X524456Y138947D01*
X524510Y138939D01*
X525780Y138939D01*
X525845Y138950D01*
X525910Y138952D01*
X525954Y138970D01*
X526001Y138978D01*
X526058Y139012D01*
X526118Y139037D01*
X526153Y139068D01*
X526194Y139093D01*
X526235Y139144D01*
X526284Y139188D01*
X526306Y139230D01*
X526335Y139267D01*
X526356Y139329D01*
X526386Y139388D01*
X526395Y139442D01*
X526407Y139479D01*
X526406Y139519D01*
X526414Y139573D01*
X526414Y143630D01*
X526403Y143695D01*
X526401Y143760D01*
X526383Y143804D01*
X526374Y143851D01*
X526341Y143907D01*
X526316Y143968D01*
X526284Y144003D01*
X526260Y144044D01*
X526209Y144085D01*
X526165Y144134D01*
X526123Y144156D01*
X526086Y144185D01*
X526024Y144206D01*
X525965Y144236D01*
X525911Y144245D01*
X525874Y144257D01*
X525834Y144256D01*
X525780Y144264D01*
X525144Y144264D01*
X525144Y144900D01*
X525132Y144965D01*
X525131Y145030D01*
X525113Y145074D01*
X525104Y145121D01*
X525071Y145178D01*
X525046Y145238D01*
X525014Y145273D01*
X524990Y145314D01*
X524939Y145355D01*
X524895Y145404D01*
X524853Y145426D01*
X524816Y145455D01*
X524754Y145476D01*
X524695Y145506D01*
X524641Y145515D01*
X524604Y145527D01*
X524564Y145526D01*
X524510Y145534D01*
X515654Y145534D01*
X515654Y147142D01*
X515638Y147229D01*
X515629Y147318D01*
X515619Y147339D01*
X515615Y147362D01*
X515569Y147439D01*
X515530Y147519D01*
X515513Y147535D01*
X515500Y147556D01*
X515431Y147612D01*
X515367Y147673D01*
X515345Y147682D01*
X515326Y147697D01*
X515242Y147725D01*
X515160Y147760D01*
X515136Y147761D01*
X515114Y147769D01*
X515025Y147766D01*
X514936Y147770D01*
X514913Y147763D01*
X514889Y147762D01*
X514807Y147729D01*
X514722Y147701D01*
X514701Y147686D01*
X514682Y147678D01*
X514644Y147644D01*
X514572Y147590D01*
X512998Y146016D01*
X495722Y146016D01*
X494420Y147318D01*
X494385Y147343D01*
X494356Y147374D01*
X494294Y147406D01*
X494236Y147447D01*
X494195Y147457D01*
X494157Y147477D01*
X494067Y147490D01*
X494018Y147503D01*
X493998Y147500D01*
X493971Y147504D01*
X491836Y147504D01*
X491794Y147497D01*
X491752Y147499D01*
X491685Y147477D01*
X491615Y147465D01*
X491579Y147443D01*
X491538Y147430D01*
X491466Y147376D01*
X491422Y147350D01*
X491409Y147334D01*
X491388Y147318D01*
X485387Y141317D01*
X485362Y141283D01*
X485331Y141254D01*
X485299Y141191D01*
X485258Y141133D01*
X485248Y141092D01*
X485228Y141054D01*
X485215Y140965D01*
X485202Y140916D01*
X485205Y140895D01*
X485201Y140869D01*
X485201Y130972D01*
X482545Y128315D01*
X482520Y128281D01*
X482489Y128252D01*
X482457Y128189D01*
X482416Y128131D01*
X482406Y128090D01*
X482386Y128052D01*
X482373Y127963D01*
X482360Y127914D01*
X482363Y127893D01*
X482359Y127867D01*
X482359Y120428D01*
X482374Y120340D01*
X482384Y120251D01*
X482394Y120230D01*
X482398Y120207D01*
X482444Y120130D01*
X482483Y120050D01*
X482500Y120034D01*
X482513Y120014D01*
X482582Y119957D01*
X482646Y119896D01*
X482668Y119887D01*
X482687Y119872D01*
X482771Y119844D01*
X482853Y119809D01*
X482877Y119808D01*
X482899Y119800D01*
X482988Y119803D01*
X483077Y119799D01*
X483100Y119806D01*
G37*
G36*
X156172Y63027D02*
X156172Y63027D01*
X156238Y63024D01*
X156283Y63038D01*
X156330Y63043D01*
X156389Y63072D01*
X156452Y63092D01*
X156496Y63125D01*
X156531Y63142D01*
X156558Y63171D01*
X156602Y63204D01*
X158487Y65089D01*
X166962Y65089D01*
X167050Y65105D01*
X167138Y65114D01*
X167159Y65124D01*
X167183Y65128D01*
X167259Y65174D01*
X167339Y65213D01*
X167355Y65230D01*
X167376Y65243D01*
X167432Y65312D01*
X167493Y65376D01*
X167502Y65398D01*
X167517Y65417D01*
X167546Y65501D01*
X167581Y65583D01*
X167582Y65607D01*
X167589Y65629D01*
X167587Y65718D01*
X167591Y65807D01*
X167583Y65830D01*
X167583Y65854D01*
X167549Y65936D01*
X167522Y66021D01*
X167506Y66042D01*
X167498Y66061D01*
X167464Y66099D01*
X167410Y66171D01*
X164675Y68907D01*
X164675Y83938D01*
X164668Y83979D01*
X164670Y84022D01*
X164648Y84089D01*
X164636Y84158D01*
X164614Y84195D01*
X164601Y84235D01*
X164547Y84308D01*
X164521Y84352D01*
X164505Y84365D01*
X164489Y84386D01*
X163765Y85111D01*
X162917Y87157D01*
X162917Y89373D01*
X163410Y90562D01*
X163427Y90638D01*
X163451Y90711D01*
X163450Y90747D01*
X163458Y90782D01*
X163447Y90858D01*
X163445Y90936D01*
X163431Y90968D01*
X163426Y91004D01*
X163389Y91072D01*
X163360Y91143D01*
X163336Y91170D01*
X163320Y91201D01*
X163261Y91252D01*
X163209Y91309D01*
X163177Y91325D01*
X163151Y91349D01*
X163078Y91376D01*
X163009Y91412D01*
X162970Y91418D01*
X162941Y91428D01*
X162894Y91429D01*
X162824Y91439D01*
X155193Y91439D01*
X155128Y91428D01*
X155062Y91426D01*
X155019Y91408D01*
X154972Y91400D01*
X154915Y91366D01*
X154855Y91341D01*
X154820Y91310D01*
X154779Y91285D01*
X154737Y91234D01*
X154689Y91190D01*
X154667Y91148D01*
X154638Y91111D01*
X154617Y91049D01*
X154586Y90990D01*
X154578Y90936D01*
X154566Y90899D01*
X154567Y90859D01*
X154559Y90805D01*
X154559Y82247D01*
X152770Y80458D01*
X152733Y80404D01*
X152687Y80357D01*
X152669Y80313D01*
X152642Y80274D01*
X152626Y80211D01*
X152600Y80150D01*
X152598Y80103D01*
X152586Y80057D01*
X152593Y79992D01*
X152590Y79926D01*
X152604Y79881D01*
X152609Y79834D01*
X152638Y79775D01*
X152659Y79712D01*
X152691Y79668D01*
X152709Y79633D01*
X152737Y79606D01*
X152770Y79561D01*
X154559Y77773D01*
X154559Y64613D01*
X154566Y64571D01*
X154564Y64529D01*
X154586Y64462D01*
X154598Y64392D01*
X154620Y64356D01*
X154633Y64315D01*
X154687Y64242D01*
X154713Y64199D01*
X154729Y64186D01*
X154744Y64165D01*
X155705Y63204D01*
X155759Y63166D01*
X155807Y63121D01*
X155851Y63103D01*
X155890Y63076D01*
X155953Y63059D01*
X156014Y63034D01*
X156061Y63032D01*
X156107Y63020D01*
X156172Y63027D01*
G37*
G36*
X372318Y70180D02*
X372318Y70180D01*
X372384Y70182D01*
X372427Y70200D01*
X372474Y70208D01*
X372531Y70242D01*
X372591Y70267D01*
X372626Y70298D01*
X372667Y70323D01*
X372709Y70374D01*
X372757Y70418D01*
X372779Y70460D01*
X372808Y70497D01*
X372829Y70559D01*
X372860Y70618D01*
X372868Y70672D01*
X372880Y70709D01*
X372879Y70749D01*
X372887Y70803D01*
X372887Y79022D01*
X372876Y79087D01*
X372874Y79153D01*
X372856Y79196D01*
X372848Y79243D01*
X372814Y79300D01*
X372789Y79360D01*
X372758Y79395D01*
X372733Y79436D01*
X372682Y79478D01*
X372638Y79526D01*
X372596Y79548D01*
X372559Y79577D01*
X372497Y79598D01*
X372438Y79629D01*
X372384Y79637D01*
X372347Y79649D01*
X372307Y79648D01*
X372253Y79656D01*
X372017Y79656D01*
X369786Y80580D01*
X368079Y82287D01*
X367155Y84518D01*
X367155Y86641D01*
X367144Y86706D01*
X367142Y86772D01*
X367124Y86816D01*
X367116Y86862D01*
X367082Y86919D01*
X367057Y86980D01*
X367026Y87015D01*
X367001Y87055D01*
X366950Y87097D01*
X366906Y87145D01*
X366864Y87167D01*
X366827Y87197D01*
X366765Y87218D01*
X366706Y87248D01*
X366652Y87256D01*
X366615Y87269D01*
X366575Y87267D01*
X366521Y87276D01*
X364328Y87276D01*
X363140Y88464D01*
X363076Y88508D01*
X363018Y88559D01*
X362985Y88572D01*
X362956Y88592D01*
X362881Y88611D01*
X362808Y88639D01*
X362773Y88639D01*
X362739Y88648D01*
X362662Y88640D01*
X362584Y88640D01*
X362551Y88628D01*
X362515Y88625D01*
X362446Y88590D01*
X362373Y88564D01*
X362346Y88541D01*
X362314Y88525D01*
X362261Y88469D01*
X362202Y88419D01*
X362181Y88384D01*
X362160Y88362D01*
X362142Y88319D01*
X362106Y88258D01*
X361591Y87016D01*
X360024Y85449D01*
X358150Y84673D01*
X358105Y84643D01*
X358055Y84623D01*
X358011Y84583D01*
X357961Y84552D01*
X357929Y84508D01*
X357889Y84472D01*
X357862Y84419D01*
X357827Y84372D01*
X357811Y84320D01*
X357786Y84272D01*
X357776Y84202D01*
X357763Y84157D01*
X357765Y84127D01*
X357759Y84087D01*
X357759Y82247D01*
X355970Y80458D01*
X355933Y80404D01*
X355887Y80357D01*
X355869Y80313D01*
X355842Y80274D01*
X355826Y80211D01*
X355800Y80150D01*
X355798Y80103D01*
X355786Y80057D01*
X355793Y79992D01*
X355790Y79926D01*
X355804Y79881D01*
X355809Y79834D01*
X355838Y79775D01*
X355859Y79712D01*
X355891Y79668D01*
X355909Y79633D01*
X355937Y79606D01*
X355970Y79561D01*
X357759Y77773D01*
X357759Y74455D01*
X357770Y74390D01*
X357772Y74324D01*
X357790Y74281D01*
X357798Y74234D01*
X357832Y74177D01*
X357857Y74117D01*
X357888Y74082D01*
X357913Y74041D01*
X357964Y73999D01*
X358008Y73951D01*
X358050Y73929D01*
X358087Y73900D01*
X358149Y73879D01*
X358208Y73848D01*
X358262Y73840D01*
X358299Y73828D01*
X358339Y73829D01*
X358393Y73821D01*
X359548Y73821D01*
X363015Y70355D01*
X363049Y70330D01*
X363078Y70299D01*
X363141Y70267D01*
X363199Y70226D01*
X363240Y70216D01*
X363278Y70196D01*
X363367Y70183D01*
X363416Y70170D01*
X363437Y70173D01*
X363463Y70169D01*
X372253Y70169D01*
X372318Y70180D01*
G37*
G36*
X267412Y65105D02*
X267412Y65105D01*
X267500Y65114D01*
X267521Y65124D01*
X267545Y65128D01*
X267622Y65174D01*
X267701Y65213D01*
X267717Y65230D01*
X267738Y65243D01*
X267794Y65312D01*
X267855Y65376D01*
X267864Y65398D01*
X267879Y65417D01*
X267908Y65501D01*
X267943Y65583D01*
X267944Y65607D01*
X267951Y65629D01*
X267949Y65718D01*
X267953Y65807D01*
X267945Y65830D01*
X267945Y65854D01*
X267911Y65936D01*
X267884Y66021D01*
X267868Y66042D01*
X267860Y66061D01*
X267826Y66099D01*
X267772Y66171D01*
X266191Y67753D01*
X266191Y82425D01*
X266184Y82467D01*
X266186Y82509D01*
X266164Y82576D01*
X266152Y82646D01*
X266130Y82682D01*
X266117Y82723D01*
X266063Y82795D01*
X266037Y82839D01*
X266021Y82852D01*
X266005Y82873D01*
X264958Y83920D01*
X263961Y86327D01*
X263961Y88933D01*
X264636Y90562D01*
X264653Y90638D01*
X264678Y90711D01*
X264677Y90747D01*
X264684Y90782D01*
X264673Y90858D01*
X264671Y90936D01*
X264658Y90968D01*
X264653Y91004D01*
X264616Y91072D01*
X264587Y91143D01*
X264563Y91170D01*
X264546Y91201D01*
X264487Y91252D01*
X264435Y91309D01*
X264404Y91325D01*
X264377Y91349D01*
X264305Y91376D01*
X264236Y91412D01*
X264196Y91418D01*
X264167Y91428D01*
X264121Y91429D01*
X264050Y91439D01*
X256793Y91439D01*
X256728Y91428D01*
X256662Y91426D01*
X256619Y91408D01*
X256572Y91400D01*
X256515Y91366D01*
X256455Y91341D01*
X256420Y91310D01*
X256379Y91285D01*
X256337Y91234D01*
X256289Y91190D01*
X256267Y91148D01*
X256238Y91111D01*
X256217Y91049D01*
X256186Y90990D01*
X256178Y90936D01*
X256166Y90899D01*
X256167Y90859D01*
X256159Y90805D01*
X256159Y82247D01*
X254370Y80458D01*
X254333Y80404D01*
X254287Y80357D01*
X254269Y80313D01*
X254242Y80274D01*
X254226Y80211D01*
X254200Y80150D01*
X254198Y80103D01*
X254186Y80057D01*
X254193Y79992D01*
X254190Y79926D01*
X254204Y79881D01*
X254209Y79834D01*
X254238Y79775D01*
X254259Y79712D01*
X254291Y79668D01*
X254309Y79633D01*
X254337Y79606D01*
X254370Y79561D01*
X256159Y77773D01*
X256159Y74455D01*
X256170Y74390D01*
X256172Y74324D01*
X256190Y74281D01*
X256198Y74234D01*
X256232Y74177D01*
X256257Y74117D01*
X256288Y74082D01*
X256313Y74041D01*
X256364Y73999D01*
X256408Y73951D01*
X256450Y73929D01*
X256487Y73900D01*
X256549Y73879D01*
X256608Y73848D01*
X256662Y73840D01*
X256699Y73828D01*
X256739Y73829D01*
X256793Y73821D01*
X258118Y73821D01*
X266665Y65275D01*
X266699Y65250D01*
X266728Y65219D01*
X266791Y65187D01*
X266849Y65146D01*
X266890Y65136D01*
X266928Y65116D01*
X267017Y65103D01*
X267066Y65090D01*
X267087Y65093D01*
X267113Y65089D01*
X267324Y65089D01*
X267412Y65105D01*
G37*
G36*
X388037Y108213D02*
X388037Y108213D01*
X388079Y108211D01*
X388146Y108233D01*
X388216Y108245D01*
X388252Y108267D01*
X388293Y108280D01*
X388366Y108334D01*
X388409Y108359D01*
X388422Y108375D01*
X388444Y108391D01*
X391024Y110972D01*
X391068Y111035D01*
X391119Y111094D01*
X391132Y111127D01*
X391152Y111156D01*
X391171Y111231D01*
X391199Y111303D01*
X391199Y111339D01*
X391208Y111373D01*
X391200Y111450D01*
X391201Y111528D01*
X391188Y111561D01*
X391185Y111596D01*
X391151Y111666D01*
X391124Y111739D01*
X391101Y111766D01*
X391085Y111797D01*
X391029Y111850D01*
X390979Y111910D01*
X390944Y111930D01*
X390922Y111951D01*
X390879Y111969D01*
X390818Y112006D01*
X390546Y112119D01*
X388979Y113686D01*
X388131Y115732D01*
X388131Y116126D01*
X388120Y116191D01*
X388118Y116257D01*
X388100Y116300D01*
X388092Y116347D01*
X388058Y116404D01*
X388033Y116465D01*
X388002Y116500D01*
X387977Y116540D01*
X387926Y116582D01*
X387882Y116630D01*
X387840Y116652D01*
X387803Y116682D01*
X387741Y116703D01*
X387682Y116733D01*
X387628Y116741D01*
X387596Y116752D01*
X386651Y117697D01*
X386625Y117715D01*
X386597Y117745D01*
X385560Y118568D01*
X385557Y118597D01*
X385555Y118602D01*
X385555Y118609D01*
X385523Y118710D01*
X385492Y118811D01*
X385489Y118816D01*
X385487Y118822D01*
X385375Y118973D01*
X385355Y118993D01*
X385355Y120317D01*
X385350Y120348D01*
X385351Y120389D01*
X385200Y121705D01*
X385218Y121727D01*
X385221Y121732D01*
X385225Y121736D01*
X385274Y121831D01*
X385324Y121925D01*
X385325Y121931D01*
X385328Y121936D01*
X385355Y122121D01*
X385355Y171597D01*
X385344Y171662D01*
X385342Y171728D01*
X385324Y171771D01*
X385316Y171818D01*
X385282Y171875D01*
X385257Y171935D01*
X385226Y171970D01*
X385201Y172011D01*
X385150Y172053D01*
X385106Y172101D01*
X385064Y172123D01*
X385027Y172152D01*
X384965Y172173D01*
X384906Y172204D01*
X384852Y172212D01*
X384815Y172224D01*
X384775Y172223D01*
X384721Y172231D01*
X384248Y172231D01*
X383783Y172424D01*
X383707Y172441D01*
X383634Y172465D01*
X383598Y172464D01*
X383564Y172472D01*
X383487Y172461D01*
X383409Y172459D01*
X383377Y172446D01*
X383341Y172441D01*
X383273Y172404D01*
X383202Y172375D01*
X383175Y172351D01*
X383144Y172334D01*
X383093Y172275D01*
X383036Y172223D01*
X383020Y172192D01*
X382996Y172165D01*
X382969Y172093D01*
X382933Y172024D01*
X382927Y171984D01*
X382917Y171955D01*
X382916Y171909D01*
X382906Y171838D01*
X382906Y113547D01*
X382913Y113506D01*
X382911Y113463D01*
X382933Y113396D01*
X382945Y113327D01*
X382967Y113290D01*
X382980Y113250D01*
X383034Y113177D01*
X383060Y113133D01*
X383076Y113120D01*
X383092Y113099D01*
X383816Y112374D01*
X384664Y110328D01*
X384664Y108840D01*
X384675Y108775D01*
X384677Y108709D01*
X384695Y108665D01*
X384703Y108619D01*
X384737Y108562D01*
X384762Y108501D01*
X384793Y108466D01*
X384818Y108426D01*
X384869Y108384D01*
X384913Y108336D01*
X384955Y108314D01*
X384992Y108284D01*
X385054Y108263D01*
X385113Y108233D01*
X385167Y108225D01*
X385204Y108212D01*
X385244Y108214D01*
X385298Y108205D01*
X387995Y108205D01*
X388037Y108213D01*
G37*
G36*
X258141Y30371D02*
X258141Y30371D01*
X258184Y30369D01*
X258251Y30391D01*
X258320Y30403D01*
X258357Y30425D01*
X258397Y30438D01*
X258470Y30492D01*
X258513Y30518D01*
X258527Y30534D01*
X258548Y30550D01*
X260087Y32089D01*
X267643Y32089D01*
X267685Y32096D01*
X267728Y32094D01*
X267795Y32116D01*
X267864Y32128D01*
X267901Y32150D01*
X267941Y32163D01*
X268014Y32217D01*
X268057Y32243D01*
X268071Y32259D01*
X268092Y32275D01*
X271101Y35284D01*
X271126Y35319D01*
X271157Y35348D01*
X271189Y35410D01*
X271230Y35468D01*
X271240Y35509D01*
X271260Y35547D01*
X271273Y35637D01*
X271286Y35686D01*
X271283Y35706D01*
X271287Y35733D01*
X271287Y48557D01*
X271276Y48622D01*
X271274Y48688D01*
X271256Y48731D01*
X271248Y48778D01*
X271214Y48835D01*
X271189Y48895D01*
X271158Y48930D01*
X271133Y48971D01*
X271082Y49013D01*
X271038Y49061D01*
X270996Y49083D01*
X270959Y49112D01*
X270897Y49133D01*
X270838Y49164D01*
X270784Y49172D01*
X270747Y49184D01*
X270707Y49183D01*
X270653Y49191D01*
X264921Y49191D01*
X264856Y49180D01*
X264790Y49178D01*
X264747Y49160D01*
X264700Y49152D01*
X264643Y49118D01*
X264583Y49093D01*
X264548Y49062D01*
X264507Y49037D01*
X264465Y48986D01*
X264417Y48942D01*
X264395Y48900D01*
X264366Y48863D01*
X264345Y48801D01*
X264314Y48742D01*
X264306Y48688D01*
X264294Y48651D01*
X264295Y48611D01*
X264287Y48557D01*
X264287Y44155D01*
X258287Y38155D01*
X256793Y38155D01*
X256728Y38144D01*
X256662Y38142D01*
X256619Y38124D01*
X256572Y38116D01*
X256515Y38082D01*
X256455Y38057D01*
X256420Y38026D01*
X256379Y38001D01*
X256337Y37950D01*
X256289Y37906D01*
X256267Y37864D01*
X256238Y37827D01*
X256217Y37765D01*
X256186Y37706D01*
X256178Y37652D01*
X256166Y37615D01*
X256167Y37575D01*
X256159Y37521D01*
X256159Y30998D01*
X256170Y30933D01*
X256172Y30867D01*
X256190Y30824D01*
X256198Y30777D01*
X256232Y30720D01*
X256257Y30660D01*
X256288Y30625D01*
X256313Y30584D01*
X256364Y30542D01*
X256408Y30494D01*
X256450Y30472D01*
X256487Y30443D01*
X256549Y30422D01*
X256608Y30391D01*
X256662Y30383D01*
X256699Y30371D01*
X256739Y30372D01*
X256793Y30364D01*
X258099Y30364D01*
X258141Y30371D01*
G37*
G36*
X359332Y31000D02*
X359332Y31000D01*
X359398Y31002D01*
X359441Y31020D01*
X359488Y31028D01*
X359545Y31062D01*
X359605Y31087D01*
X359640Y31118D01*
X359681Y31143D01*
X359723Y31194D01*
X359771Y31238D01*
X359793Y31280D01*
X359822Y31317D01*
X359843Y31379D01*
X359874Y31438D01*
X359882Y31492D01*
X359894Y31529D01*
X359893Y31569D01*
X359901Y31623D01*
X359901Y35383D01*
X361687Y37169D01*
X369411Y37169D01*
X369453Y37176D01*
X369496Y37174D01*
X369563Y37196D01*
X369632Y37208D01*
X369669Y37230D01*
X369709Y37243D01*
X369782Y37297D01*
X369825Y37323D01*
X369839Y37339D01*
X369860Y37355D01*
X372702Y40196D01*
X372726Y40231D01*
X372757Y40260D01*
X372789Y40323D01*
X372830Y40380D01*
X372840Y40422D01*
X372860Y40459D01*
X372873Y40549D01*
X372886Y40598D01*
X372883Y40619D01*
X372887Y40645D01*
X372887Y53637D01*
X372876Y53702D01*
X372874Y53768D01*
X372856Y53811D01*
X372848Y53858D01*
X372814Y53915D01*
X372789Y53975D01*
X372758Y54010D01*
X372733Y54051D01*
X372682Y54093D01*
X372638Y54141D01*
X372596Y54163D01*
X372559Y54192D01*
X372497Y54213D01*
X372438Y54244D01*
X372384Y54252D01*
X372347Y54264D01*
X372307Y54263D01*
X372253Y54271D01*
X366003Y54271D01*
X365961Y54264D01*
X365919Y54266D01*
X365852Y54244D01*
X365782Y54232D01*
X365746Y54210D01*
X365705Y54197D01*
X365633Y54143D01*
X365589Y54117D01*
X365576Y54101D01*
X365555Y54085D01*
X364803Y53333D01*
X364778Y53299D01*
X364747Y53270D01*
X364715Y53207D01*
X364674Y53149D01*
X364664Y53108D01*
X364644Y53070D01*
X364631Y52981D01*
X364618Y52932D01*
X364621Y52911D01*
X364617Y52885D01*
X364617Y44155D01*
X358617Y38155D01*
X358393Y38155D01*
X358328Y38144D01*
X358262Y38142D01*
X358219Y38124D01*
X358172Y38116D01*
X358115Y38082D01*
X358055Y38057D01*
X358020Y38026D01*
X357979Y38001D01*
X357937Y37950D01*
X357889Y37906D01*
X357867Y37864D01*
X357838Y37827D01*
X357817Y37765D01*
X357786Y37706D01*
X357778Y37652D01*
X357766Y37615D01*
X357767Y37575D01*
X357759Y37521D01*
X357759Y31623D01*
X357770Y31558D01*
X357772Y31492D01*
X357790Y31449D01*
X357798Y31402D01*
X357832Y31345D01*
X357857Y31285D01*
X357888Y31250D01*
X357913Y31209D01*
X357964Y31167D01*
X358008Y31119D01*
X358050Y31097D01*
X358087Y31068D01*
X358149Y31047D01*
X358208Y31016D01*
X358262Y31008D01*
X358299Y30996D01*
X358339Y30997D01*
X358393Y30989D01*
X359267Y30989D01*
X359332Y31000D01*
G37*
G36*
X415912Y219771D02*
X415912Y219771D01*
X415978Y219773D01*
X416021Y219791D01*
X416068Y219799D01*
X416125Y219833D01*
X416185Y219858D01*
X416220Y219889D01*
X416261Y219914D01*
X416303Y219965D01*
X416351Y220009D01*
X416373Y220051D01*
X416402Y220088D01*
X416423Y220150D01*
X416454Y220209D01*
X416462Y220263D01*
X416474Y220300D01*
X416473Y220340D01*
X416481Y220394D01*
X416481Y241981D01*
X416474Y242022D01*
X416476Y242065D01*
X416454Y242132D01*
X416442Y242202D01*
X416420Y242238D01*
X416407Y242278D01*
X416353Y242351D01*
X416327Y242395D01*
X416311Y242408D01*
X416295Y242429D01*
X415670Y243054D01*
X415670Y243332D01*
X415659Y243397D01*
X415657Y243463D01*
X415639Y243506D01*
X415631Y243553D01*
X415597Y243610D01*
X415572Y243670D01*
X415541Y243705D01*
X415516Y243746D01*
X415465Y243788D01*
X415421Y243836D01*
X415379Y243858D01*
X415342Y243887D01*
X415280Y243908D01*
X415221Y243939D01*
X415167Y243947D01*
X415130Y243959D01*
X415090Y243958D01*
X415036Y243966D01*
X411318Y243966D01*
X411253Y243955D01*
X411187Y243953D01*
X411144Y243935D01*
X411097Y243927D01*
X411040Y243893D01*
X410980Y243868D01*
X410945Y243837D01*
X410904Y243812D01*
X410862Y243761D01*
X410814Y243717D01*
X410792Y243675D01*
X410763Y243638D01*
X410742Y243576D01*
X410711Y243517D01*
X410703Y243463D01*
X410691Y243426D01*
X410692Y243386D01*
X410684Y243332D01*
X410684Y236572D01*
X409770Y235659D01*
X409716Y235580D01*
X409657Y235505D01*
X409652Y235489D01*
X409642Y235474D01*
X409618Y235382D01*
X409590Y235291D01*
X409590Y235274D01*
X409586Y235257D01*
X409596Y235162D01*
X409601Y235067D01*
X409608Y235049D01*
X409609Y235034D01*
X409631Y234989D01*
X409669Y234893D01*
X410003Y234316D01*
X410176Y233670D01*
X410176Y229354D01*
X401320Y229354D01*
X401255Y229343D01*
X401190Y229341D01*
X401146Y229323D01*
X401099Y229314D01*
X401043Y229281D01*
X400982Y229256D01*
X400947Y229224D01*
X400906Y229200D01*
X400865Y229149D01*
X400816Y229105D01*
X400794Y229063D01*
X400765Y229026D01*
X400744Y228964D01*
X400714Y228905D01*
X400705Y228851D01*
X400693Y228814D01*
X400694Y228774D01*
X400686Y228720D01*
X400686Y227450D01*
X400698Y227385D01*
X400699Y227320D01*
X400717Y227276D01*
X400726Y227229D01*
X400759Y227172D01*
X400784Y227112D01*
X400816Y227077D01*
X400840Y227036D01*
X400891Y226995D01*
X400935Y226946D01*
X400977Y226924D01*
X401014Y226895D01*
X401076Y226874D01*
X401135Y226843D01*
X401189Y226835D01*
X401226Y226823D01*
X401266Y226824D01*
X401320Y226816D01*
X410176Y226816D01*
X410176Y222500D01*
X410003Y221854D01*
X409668Y221275D01*
X409236Y220842D01*
X409185Y220769D01*
X409129Y220700D01*
X409121Y220678D01*
X409107Y220658D01*
X409085Y220572D01*
X409057Y220488D01*
X409057Y220464D01*
X409052Y220441D01*
X409061Y220352D01*
X409063Y220263D01*
X409072Y220242D01*
X409075Y220218D01*
X409114Y220138D01*
X409148Y220056D01*
X409164Y220038D01*
X409174Y220017D01*
X409239Y219956D01*
X409299Y219890D01*
X409320Y219879D01*
X409337Y219863D01*
X409420Y219828D01*
X409499Y219787D01*
X409525Y219784D01*
X409544Y219775D01*
X409594Y219773D01*
X409684Y219760D01*
X415847Y219760D01*
X415912Y219771D01*
G37*
G36*
X202895Y9161D02*
X202895Y9161D01*
X202983Y9170D01*
X203004Y9180D01*
X203028Y9184D01*
X203105Y9230D01*
X203184Y9269D01*
X203201Y9286D01*
X203221Y9299D01*
X203277Y9368D01*
X203338Y9432D01*
X203347Y9454D01*
X203362Y9473D01*
X203391Y9557D01*
X203426Y9639D01*
X203427Y9663D01*
X203434Y9685D01*
X203432Y9774D01*
X203436Y9863D01*
X203428Y9886D01*
X203428Y9910D01*
X203394Y9992D01*
X203367Y10077D01*
X203351Y10098D01*
X203343Y10117D01*
X203309Y10155D01*
X203255Y10227D01*
X198122Y15360D01*
X198088Y15385D01*
X198059Y15416D01*
X197996Y15448D01*
X197938Y15489D01*
X197897Y15499D01*
X197859Y15519D01*
X197770Y15532D01*
X197721Y15545D01*
X197700Y15542D01*
X197674Y15546D01*
X195897Y15546D01*
X194758Y16685D01*
X194704Y16723D01*
X194657Y16768D01*
X194613Y16786D01*
X194574Y16813D01*
X194511Y16829D01*
X194450Y16855D01*
X194403Y16857D01*
X194357Y16869D01*
X194292Y16862D01*
X194226Y16865D01*
X194181Y16851D01*
X194134Y16846D01*
X194075Y16817D01*
X194012Y16796D01*
X193968Y16764D01*
X193933Y16746D01*
X193906Y16718D01*
X193861Y16685D01*
X192723Y15546D01*
X183197Y15546D01*
X181255Y17489D01*
X181201Y17526D01*
X181153Y17571D01*
X181109Y17590D01*
X181071Y17617D01*
X181007Y17633D01*
X180946Y17659D01*
X180899Y17661D01*
X180853Y17673D01*
X180788Y17666D01*
X180722Y17669D01*
X180677Y17654D01*
X180630Y17649D01*
X180571Y17620D01*
X180508Y17600D01*
X180464Y17567D01*
X180429Y17550D01*
X180402Y17521D01*
X180358Y17489D01*
X175447Y12577D01*
X173097Y10227D01*
X173046Y10154D01*
X172990Y10085D01*
X172982Y10063D01*
X172969Y10043D01*
X172946Y9957D01*
X172918Y9873D01*
X172919Y9849D01*
X172913Y9826D01*
X172922Y9737D01*
X172924Y9648D01*
X172933Y9626D01*
X172936Y9603D01*
X172975Y9523D01*
X173009Y9441D01*
X173025Y9423D01*
X173035Y9402D01*
X173100Y9341D01*
X173160Y9275D01*
X173181Y9264D01*
X173199Y9248D01*
X173280Y9213D01*
X173360Y9172D01*
X173386Y9169D01*
X173405Y9160D01*
X173456Y9158D01*
X173545Y9145D01*
X202807Y9145D01*
X202895Y9161D01*
G37*
G36*
X382266Y63619D02*
X382266Y63619D01*
X382290Y63619D01*
X382372Y63653D01*
X382457Y63680D01*
X382478Y63696D01*
X382497Y63704D01*
X382535Y63738D01*
X382607Y63792D01*
X382947Y64132D01*
X395320Y76505D01*
X395345Y76539D01*
X395376Y76568D01*
X395408Y76631D01*
X395449Y76689D01*
X395459Y76730D01*
X395479Y76768D01*
X395492Y76857D01*
X395505Y76906D01*
X395502Y76927D01*
X395506Y76953D01*
X395506Y79176D01*
X395495Y79241D01*
X395493Y79307D01*
X395475Y79351D01*
X395467Y79397D01*
X395433Y79454D01*
X395408Y79515D01*
X395377Y79550D01*
X395352Y79590D01*
X395301Y79632D01*
X395257Y79680D01*
X395215Y79702D01*
X395178Y79732D01*
X395116Y79753D01*
X395057Y79783D01*
X395003Y79791D01*
X394966Y79804D01*
X394926Y79802D01*
X394872Y79811D01*
X386587Y79811D01*
X382607Y83790D01*
X382534Y83841D01*
X382465Y83897D01*
X382443Y83905D01*
X382423Y83918D01*
X382337Y83941D01*
X382253Y83969D01*
X382229Y83968D01*
X382206Y83974D01*
X382117Y83965D01*
X382028Y83963D01*
X382006Y83954D01*
X381983Y83951D01*
X381903Y83912D01*
X381821Y83878D01*
X381803Y83862D01*
X381782Y83852D01*
X381721Y83787D01*
X381655Y83727D01*
X381644Y83706D01*
X381628Y83688D01*
X381593Y83607D01*
X381552Y83527D01*
X381549Y83501D01*
X381540Y83482D01*
X381538Y83431D01*
X381525Y83342D01*
X381525Y64240D01*
X381540Y64152D01*
X381550Y64064D01*
X381560Y64043D01*
X381564Y64019D01*
X381610Y63943D01*
X381649Y63863D01*
X381666Y63847D01*
X381679Y63826D01*
X381748Y63770D01*
X381812Y63709D01*
X381834Y63700D01*
X381853Y63685D01*
X381937Y63656D01*
X382019Y63621D01*
X382043Y63620D01*
X382065Y63613D01*
X382154Y63615D01*
X382243Y63611D01*
X382266Y63619D01*
G37*
G36*
X222356Y64143D02*
X222356Y64143D01*
X222398Y64141D01*
X222465Y64163D01*
X222535Y64175D01*
X222571Y64197D01*
X222612Y64210D01*
X222684Y64264D01*
X222728Y64290D01*
X222741Y64306D01*
X222762Y64322D01*
X227144Y68704D01*
X227195Y68777D01*
X227251Y68846D01*
X227259Y68868D01*
X227272Y68888D01*
X227295Y68974D01*
X227323Y69058D01*
X227322Y69082D01*
X227328Y69105D01*
X227319Y69194D01*
X227317Y69283D01*
X227308Y69305D01*
X227305Y69328D01*
X227266Y69408D01*
X227232Y69490D01*
X227216Y69508D01*
X227206Y69529D01*
X227141Y69590D01*
X227081Y69656D01*
X227060Y69667D01*
X227042Y69683D01*
X226961Y69718D01*
X226881Y69759D01*
X226855Y69762D01*
X226836Y69771D01*
X226785Y69773D01*
X226696Y69786D01*
X221297Y69786D01*
X219799Y71284D01*
X219745Y71322D01*
X219697Y71367D01*
X219654Y71385D01*
X219615Y71412D01*
X219551Y71429D01*
X219491Y71454D01*
X219444Y71456D01*
X219398Y71468D01*
X219332Y71461D01*
X219267Y71464D01*
X219222Y71450D01*
X219175Y71445D01*
X219116Y71416D01*
X219053Y71396D01*
X219009Y71363D01*
X218974Y71346D01*
X218946Y71317D01*
X218902Y71284D01*
X218420Y70802D01*
X217841Y70467D01*
X217195Y70294D01*
X214629Y70294D01*
X214629Y79825D01*
X214618Y79890D01*
X214616Y79955D01*
X214598Y79999D01*
X214589Y80046D01*
X214556Y80102D01*
X214531Y80163D01*
X214499Y80198D01*
X214475Y80239D01*
X214424Y80280D01*
X214380Y80329D01*
X214338Y80351D01*
X214301Y80380D01*
X214239Y80401D01*
X214180Y80431D01*
X214126Y80440D01*
X214089Y80452D01*
X214049Y80451D01*
X213995Y80459D01*
X212725Y80459D01*
X212660Y80447D01*
X212595Y80446D01*
X212551Y80428D01*
X212504Y80419D01*
X212447Y80386D01*
X212387Y80361D01*
X212352Y80329D01*
X212311Y80305D01*
X212270Y80254D01*
X212221Y80210D01*
X212199Y80168D01*
X212170Y80131D01*
X212149Y80069D01*
X212118Y80010D01*
X212110Y79956D01*
X212098Y79919D01*
X212099Y79889D01*
X212098Y79887D01*
X212098Y79874D01*
X212091Y79825D01*
X212091Y70294D01*
X209525Y70294D01*
X208879Y70467D01*
X208300Y70802D01*
X207818Y71284D01*
X207764Y71322D01*
X207716Y71367D01*
X207672Y71385D01*
X207633Y71412D01*
X207570Y71429D01*
X207509Y71454D01*
X207462Y71456D01*
X207416Y71468D01*
X207351Y71461D01*
X207285Y71464D01*
X207240Y71450D01*
X207193Y71445D01*
X207134Y71416D01*
X207071Y71396D01*
X207027Y71363D01*
X206992Y71346D01*
X206965Y71317D01*
X206921Y71284D01*
X205423Y69786D01*
X205105Y69786D01*
X205040Y69775D01*
X204974Y69773D01*
X204931Y69755D01*
X204884Y69747D01*
X204827Y69713D01*
X204767Y69688D01*
X204732Y69657D01*
X204691Y69632D01*
X204649Y69581D01*
X204601Y69537D01*
X204579Y69495D01*
X204550Y69458D01*
X204529Y69396D01*
X204498Y69337D01*
X204490Y69283D01*
X204478Y69246D01*
X204479Y69206D01*
X204471Y69152D01*
X204471Y67246D01*
X204478Y67204D01*
X204476Y67162D01*
X204498Y67095D01*
X204510Y67025D01*
X204532Y66989D01*
X204545Y66948D01*
X204599Y66876D01*
X204625Y66832D01*
X204641Y66819D01*
X204657Y66798D01*
X207133Y64322D01*
X207167Y64297D01*
X207196Y64266D01*
X207259Y64234D01*
X207317Y64193D01*
X207358Y64183D01*
X207396Y64163D01*
X207485Y64150D01*
X207534Y64137D01*
X207555Y64140D01*
X207581Y64136D01*
X222314Y64136D01*
X222356Y64143D01*
G37*
G36*
X323956Y64143D02*
X323956Y64143D01*
X323998Y64141D01*
X324065Y64163D01*
X324135Y64175D01*
X324171Y64197D01*
X324212Y64210D01*
X324284Y64264D01*
X324328Y64290D01*
X324341Y64306D01*
X324362Y64322D01*
X328744Y68704D01*
X328795Y68777D01*
X328851Y68846D01*
X328859Y68868D01*
X328872Y68888D01*
X328895Y68974D01*
X328923Y69058D01*
X328922Y69082D01*
X328928Y69105D01*
X328919Y69194D01*
X328917Y69283D01*
X328908Y69305D01*
X328905Y69328D01*
X328866Y69408D01*
X328832Y69490D01*
X328816Y69508D01*
X328806Y69529D01*
X328741Y69590D01*
X328681Y69656D01*
X328660Y69667D01*
X328642Y69683D01*
X328561Y69718D01*
X328481Y69759D01*
X328455Y69762D01*
X328436Y69771D01*
X328385Y69773D01*
X328296Y69786D01*
X322897Y69786D01*
X321399Y71284D01*
X321345Y71322D01*
X321297Y71367D01*
X321254Y71385D01*
X321215Y71412D01*
X321151Y71429D01*
X321091Y71454D01*
X321044Y71456D01*
X320998Y71468D01*
X320932Y71461D01*
X320867Y71464D01*
X320822Y71450D01*
X320775Y71445D01*
X320716Y71416D01*
X320653Y71396D01*
X320609Y71363D01*
X320574Y71346D01*
X320546Y71317D01*
X320502Y71284D01*
X320020Y70802D01*
X319441Y70467D01*
X318795Y70294D01*
X316229Y70294D01*
X316229Y79825D01*
X316218Y79890D01*
X316216Y79955D01*
X316198Y79999D01*
X316189Y80046D01*
X316156Y80102D01*
X316131Y80163D01*
X316099Y80198D01*
X316075Y80239D01*
X316024Y80280D01*
X315980Y80329D01*
X315938Y80351D01*
X315901Y80380D01*
X315839Y80401D01*
X315780Y80431D01*
X315726Y80440D01*
X315689Y80452D01*
X315649Y80451D01*
X315595Y80459D01*
X314325Y80459D01*
X314260Y80447D01*
X314195Y80446D01*
X314151Y80428D01*
X314104Y80419D01*
X314047Y80386D01*
X313987Y80361D01*
X313952Y80329D01*
X313911Y80305D01*
X313870Y80254D01*
X313821Y80210D01*
X313799Y80168D01*
X313770Y80131D01*
X313749Y80069D01*
X313718Y80010D01*
X313710Y79956D01*
X313698Y79919D01*
X313699Y79889D01*
X313698Y79887D01*
X313698Y79874D01*
X313691Y79825D01*
X313691Y70294D01*
X311125Y70294D01*
X310479Y70467D01*
X309900Y70802D01*
X309418Y71284D01*
X309364Y71322D01*
X309316Y71367D01*
X309272Y71385D01*
X309234Y71412D01*
X309170Y71429D01*
X309109Y71454D01*
X309062Y71456D01*
X309016Y71468D01*
X308951Y71461D01*
X308885Y71464D01*
X308840Y71450D01*
X308793Y71445D01*
X308734Y71416D01*
X308671Y71396D01*
X308627Y71363D01*
X308592Y71346D01*
X308565Y71317D01*
X308521Y71284D01*
X307023Y69786D01*
X306705Y69786D01*
X306640Y69775D01*
X306574Y69773D01*
X306550Y69763D01*
X306529Y69760D01*
X306510Y69751D01*
X306484Y69747D01*
X306427Y69713D01*
X306367Y69688D01*
X306347Y69671D01*
X306328Y69661D01*
X306313Y69646D01*
X306291Y69632D01*
X306249Y69581D01*
X306201Y69537D01*
X306189Y69514D01*
X306174Y69498D01*
X306165Y69478D01*
X306150Y69458D01*
X306129Y69396D01*
X306098Y69337D01*
X306094Y69310D01*
X306086Y69291D01*
X306085Y69268D01*
X306078Y69246D01*
X306079Y69206D01*
X306071Y69152D01*
X306071Y69151D01*
X306078Y69109D01*
X306076Y69067D01*
X306084Y69044D01*
X306084Y69021D01*
X306102Y68978D01*
X306110Y68930D01*
X306132Y68894D01*
X306145Y68853D01*
X306162Y68831D01*
X306169Y68814D01*
X306199Y68780D01*
X306225Y68737D01*
X306241Y68724D01*
X306257Y68703D01*
X310638Y64322D01*
X310672Y64297D01*
X310701Y64266D01*
X310764Y64234D01*
X310822Y64193D01*
X310863Y64183D01*
X310901Y64163D01*
X310990Y64150D01*
X311039Y64137D01*
X311060Y64140D01*
X311086Y64136D01*
X323914Y64136D01*
X323956Y64143D01*
G37*
G36*
X156132Y29105D02*
X156132Y29105D01*
X156198Y29107D01*
X156241Y29125D01*
X156288Y29133D01*
X156345Y29167D01*
X156405Y29192D01*
X156440Y29223D01*
X156481Y29248D01*
X156523Y29299D01*
X156571Y29343D01*
X156593Y29385D01*
X156622Y29422D01*
X156643Y29484D01*
X156674Y29543D01*
X156682Y29597D01*
X156694Y29634D01*
X156693Y29674D01*
X156701Y29728D01*
X156701Y30303D01*
X158487Y32089D01*
X160655Y32089D01*
X160720Y32100D01*
X160786Y32102D01*
X160829Y32120D01*
X160876Y32128D01*
X160933Y32162D01*
X160993Y32187D01*
X161028Y32218D01*
X161069Y32243D01*
X161111Y32294D01*
X161159Y32338D01*
X161181Y32380D01*
X161210Y32417D01*
X161231Y32479D01*
X161262Y32538D01*
X161270Y32592D01*
X161282Y32629D01*
X161281Y32669D01*
X161289Y32723D01*
X161289Y37616D01*
X171279Y47606D01*
X171304Y47641D01*
X171335Y47669D01*
X171367Y47732D01*
X171408Y47790D01*
X171418Y47831D01*
X171438Y47869D01*
X171451Y47959D01*
X171458Y47986D01*
X171458Y47987D01*
X171464Y48007D01*
X171461Y48028D01*
X171465Y48054D01*
X171465Y48557D01*
X171454Y48622D01*
X171452Y48688D01*
X171434Y48731D01*
X171426Y48778D01*
X171392Y48835D01*
X171367Y48895D01*
X171336Y48930D01*
X171311Y48971D01*
X171260Y49013D01*
X171216Y49061D01*
X171174Y49083D01*
X171137Y49112D01*
X171075Y49133D01*
X171016Y49164D01*
X170962Y49172D01*
X170925Y49184D01*
X170885Y49183D01*
X170831Y49191D01*
X163321Y49191D01*
X163256Y49180D01*
X163190Y49178D01*
X163147Y49160D01*
X163100Y49152D01*
X163043Y49118D01*
X162983Y49093D01*
X162948Y49062D01*
X162907Y49037D01*
X162865Y48986D01*
X162817Y48942D01*
X162795Y48900D01*
X162766Y48863D01*
X162745Y48801D01*
X162714Y48742D01*
X162706Y48688D01*
X162694Y48651D01*
X162695Y48611D01*
X162687Y48557D01*
X162687Y44155D01*
X156687Y38155D01*
X155193Y38155D01*
X155128Y38144D01*
X155062Y38142D01*
X155019Y38124D01*
X154972Y38116D01*
X154915Y38082D01*
X154855Y38057D01*
X154820Y38026D01*
X154779Y38001D01*
X154737Y37950D01*
X154689Y37906D01*
X154667Y37864D01*
X154638Y37827D01*
X154617Y37765D01*
X154586Y37706D01*
X154578Y37652D01*
X154566Y37615D01*
X154567Y37575D01*
X154559Y37521D01*
X154559Y29728D01*
X154570Y29663D01*
X154572Y29597D01*
X154590Y29554D01*
X154598Y29507D01*
X154632Y29450D01*
X154657Y29390D01*
X154688Y29355D01*
X154713Y29314D01*
X154764Y29272D01*
X154808Y29224D01*
X154850Y29202D01*
X154887Y29173D01*
X154949Y29152D01*
X155008Y29121D01*
X155062Y29113D01*
X155099Y29101D01*
X155139Y29102D01*
X155193Y29094D01*
X156067Y29094D01*
X156132Y29105D01*
G37*
G36*
X426542Y3053D02*
X426542Y3053D01*
X426568Y3051D01*
X426651Y3073D01*
X426736Y3088D01*
X426759Y3102D01*
X426785Y3109D01*
X426855Y3159D01*
X426930Y3203D01*
X426946Y3223D01*
X426968Y3238D01*
X427017Y3310D01*
X427071Y3377D01*
X427080Y3402D01*
X427094Y3424D01*
X427115Y3508D01*
X427143Y3589D01*
X427142Y3616D01*
X427149Y3642D01*
X427139Y3727D01*
X427136Y3814D01*
X427126Y3838D01*
X427123Y3865D01*
X427084Y3942D01*
X427052Y4021D01*
X427034Y4041D01*
X427022Y4065D01*
X426927Y4158D01*
X426901Y4187D01*
X426894Y4190D01*
X426888Y4196D01*
X425552Y5167D01*
X424267Y6452D01*
X423199Y7921D01*
X422375Y9540D01*
X421813Y11268D01*
X421586Y12701D01*
X432435Y12701D01*
X432500Y12712D01*
X432565Y12714D01*
X432609Y12732D01*
X432656Y12740D01*
X432712Y12774D01*
X432773Y12799D01*
X432808Y12830D01*
X432849Y12855D01*
X432890Y12906D01*
X432939Y12950D01*
X432961Y12992D01*
X432990Y13029D01*
X433011Y13091D01*
X433041Y13150D01*
X433050Y13204D01*
X433062Y13241D01*
X433061Y13281D01*
X433069Y13335D01*
X433069Y14605D01*
X433057Y14670D01*
X433056Y14735D01*
X433038Y14779D01*
X433029Y14826D01*
X432996Y14883D01*
X432971Y14943D01*
X432939Y14978D01*
X432915Y15019D01*
X432864Y15060D01*
X432820Y15109D01*
X432778Y15131D01*
X432741Y15160D01*
X432679Y15181D01*
X432620Y15212D01*
X432566Y15220D01*
X432529Y15232D01*
X432489Y15231D01*
X432435Y15239D01*
X421586Y15239D01*
X421813Y16672D01*
X422375Y18400D01*
X423200Y20019D01*
X423609Y20582D01*
X423626Y20618D01*
X423651Y20649D01*
X423675Y20718D01*
X423707Y20784D01*
X423710Y20824D01*
X423723Y20861D01*
X423721Y20935D01*
X423728Y21008D01*
X423718Y21046D01*
X423716Y21086D01*
X423689Y21153D01*
X423670Y21224D01*
X423647Y21257D01*
X423632Y21293D01*
X423583Y21348D01*
X423540Y21407D01*
X423508Y21430D01*
X423481Y21459D01*
X423415Y21493D01*
X423355Y21534D01*
X423317Y21543D01*
X423281Y21562D01*
X423186Y21576D01*
X423137Y21588D01*
X423119Y21586D01*
X423096Y21589D01*
X419139Y21589D01*
X419097Y21582D01*
X419055Y21584D01*
X418988Y21562D01*
X418918Y21550D01*
X418882Y21528D01*
X418841Y21515D01*
X418769Y21461D01*
X418725Y21435D01*
X418712Y21419D01*
X418691Y21404D01*
X418242Y20955D01*
X418211Y20910D01*
X418173Y20872D01*
X418148Y20819D01*
X418114Y20771D01*
X418100Y20718D01*
X418077Y20669D01*
X418073Y20610D01*
X418058Y20553D01*
X418064Y20499D01*
X418059Y20446D01*
X418076Y20377D01*
X418081Y20330D01*
X418095Y20303D01*
X418105Y20264D01*
X419719Y16367D01*
X419719Y11573D01*
X417884Y7145D01*
X414871Y4131D01*
X414820Y4058D01*
X414764Y3989D01*
X414756Y3967D01*
X414743Y3947D01*
X414721Y3861D01*
X414692Y3777D01*
X414693Y3753D01*
X414687Y3730D01*
X414696Y3641D01*
X414699Y3552D01*
X414708Y3530D01*
X414710Y3507D01*
X414750Y3427D01*
X414783Y3345D01*
X414799Y3327D01*
X414810Y3306D01*
X414874Y3245D01*
X414934Y3179D01*
X414956Y3168D01*
X414973Y3152D01*
X415055Y3117D01*
X415134Y3076D01*
X415160Y3073D01*
X415179Y3064D01*
X415230Y3062D01*
X415319Y3049D01*
X426516Y3049D01*
X426542Y3053D01*
G37*
G36*
X399127Y119339D02*
X399127Y119339D01*
X399204Y119336D01*
X399238Y119347D01*
X399273Y119349D01*
X399344Y119381D01*
X399418Y119404D01*
X399450Y119428D01*
X399478Y119441D01*
X399511Y119474D01*
X399568Y119516D01*
X406269Y126217D01*
X406294Y126252D01*
X406325Y126281D01*
X406357Y126344D01*
X406398Y126401D01*
X406408Y126442D01*
X406428Y126480D01*
X406441Y126570D01*
X406454Y126619D01*
X406451Y126639D01*
X406455Y126666D01*
X406455Y129287D01*
X406444Y129352D01*
X406442Y129418D01*
X406424Y129461D01*
X406416Y129508D01*
X406382Y129565D01*
X406357Y129625D01*
X406326Y129660D01*
X406301Y129701D01*
X406250Y129743D01*
X406206Y129791D01*
X406164Y129813D01*
X406127Y129842D01*
X406065Y129863D01*
X406006Y129894D01*
X405952Y129902D01*
X405915Y129914D01*
X405875Y129913D01*
X405821Y129921D01*
X393611Y129921D01*
X393546Y129910D01*
X393480Y129908D01*
X393437Y129890D01*
X393390Y129882D01*
X393333Y129848D01*
X393273Y129823D01*
X393238Y129792D01*
X393197Y129767D01*
X393155Y129716D01*
X393107Y129672D01*
X393085Y129630D01*
X393056Y129593D01*
X393035Y129531D01*
X393004Y129472D01*
X392996Y129418D01*
X392984Y129381D01*
X392984Y129360D01*
X392984Y129358D01*
X392984Y129338D01*
X392977Y129287D01*
X392977Y123043D01*
X392988Y122978D01*
X392990Y122912D01*
X393008Y122869D01*
X393016Y122822D01*
X393050Y122765D01*
X393075Y122705D01*
X393106Y122670D01*
X393131Y122629D01*
X393182Y122587D01*
X393226Y122539D01*
X393268Y122517D01*
X393305Y122488D01*
X393367Y122467D01*
X393426Y122436D01*
X393480Y122428D01*
X393517Y122416D01*
X393557Y122417D01*
X393611Y122409D01*
X394808Y122409D01*
X396854Y121561D01*
X398421Y119994D01*
X398534Y119722D01*
X398576Y119657D01*
X398610Y119587D01*
X398636Y119563D01*
X398655Y119533D01*
X398717Y119486D01*
X398773Y119433D01*
X398806Y119419D01*
X398834Y119398D01*
X398909Y119376D01*
X398980Y119346D01*
X399015Y119344D01*
X399049Y119334D01*
X399127Y119339D01*
G37*
G36*
X304190Y12209D02*
X304190Y12209D01*
X304278Y12218D01*
X304299Y12228D01*
X304323Y12232D01*
X304399Y12278D01*
X304479Y12317D01*
X304495Y12334D01*
X304516Y12347D01*
X304572Y12416D01*
X304633Y12480D01*
X304642Y12502D01*
X304657Y12521D01*
X304686Y12605D01*
X304721Y12687D01*
X304722Y12711D01*
X304729Y12733D01*
X304727Y12822D01*
X304731Y12911D01*
X304723Y12934D01*
X304723Y12958D01*
X304689Y13040D01*
X304662Y13125D01*
X304646Y13146D01*
X304638Y13165D01*
X304604Y13203D01*
X304550Y13275D01*
X302465Y15361D01*
X302430Y15385D01*
X302402Y15416D01*
X302339Y15448D01*
X302281Y15489D01*
X302240Y15499D01*
X302202Y15519D01*
X302113Y15532D01*
X302064Y15545D01*
X302043Y15542D01*
X302017Y15546D01*
X297497Y15546D01*
X296358Y16685D01*
X296304Y16723D01*
X296257Y16768D01*
X296213Y16786D01*
X296174Y16813D01*
X296111Y16829D01*
X296050Y16855D01*
X296003Y16857D01*
X295957Y16869D01*
X295892Y16862D01*
X295826Y16865D01*
X295781Y16851D01*
X295734Y16846D01*
X295675Y16817D01*
X295612Y16796D01*
X295568Y16764D01*
X295533Y16746D01*
X295506Y16718D01*
X295461Y16685D01*
X294323Y15546D01*
X284797Y15546D01*
X283011Y17332D01*
X283011Y18281D01*
X282999Y18348D01*
X282998Y18401D01*
X282990Y18420D01*
X282986Y18457D01*
X282976Y18478D01*
X282972Y18502D01*
X282926Y18578D01*
X282924Y18583D01*
X282913Y18609D01*
X282908Y18615D01*
X282887Y18658D01*
X282870Y18674D01*
X282857Y18695D01*
X282788Y18751D01*
X282724Y18812D01*
X282702Y18821D01*
X282683Y18836D01*
X282599Y18865D01*
X282517Y18900D01*
X282493Y18901D01*
X282471Y18908D01*
X282382Y18906D01*
X282293Y18910D01*
X282270Y18902D01*
X282246Y18902D01*
X282166Y18869D01*
X282146Y18865D01*
X282135Y18859D01*
X282079Y18841D01*
X282058Y18825D01*
X282039Y18817D01*
X282001Y18783D01*
X281979Y18766D01*
X281953Y18751D01*
X281945Y18742D01*
X281929Y18729D01*
X276475Y13275D01*
X276424Y13202D01*
X276368Y13133D01*
X276360Y13111D01*
X276347Y13091D01*
X276324Y13005D01*
X276296Y12921D01*
X276297Y12897D01*
X276291Y12874D01*
X276300Y12785D01*
X276302Y12696D01*
X276311Y12674D01*
X276314Y12651D01*
X276353Y12571D01*
X276387Y12489D01*
X276403Y12471D01*
X276413Y12450D01*
X276478Y12389D01*
X276538Y12323D01*
X276559Y12312D01*
X276577Y12296D01*
X276658Y12261D01*
X276738Y12220D01*
X276764Y12217D01*
X276783Y12208D01*
X276834Y12206D01*
X276923Y12193D01*
X304102Y12193D01*
X304190Y12209D01*
G37*
G36*
X156132Y17792D02*
X156132Y17792D01*
X156198Y17794D01*
X156241Y17812D01*
X156288Y17820D01*
X156345Y17854D01*
X156405Y17879D01*
X156440Y17910D01*
X156481Y17935D01*
X156523Y17986D01*
X156571Y18030D01*
X156593Y18072D01*
X156622Y18109D01*
X156643Y18171D01*
X156674Y18230D01*
X156682Y18284D01*
X156694Y18321D01*
X156693Y18361D01*
X156701Y18415D01*
X156701Y19822D01*
X156690Y19887D01*
X156688Y19953D01*
X156670Y19996D01*
X156662Y20043D01*
X156628Y20100D01*
X156603Y20160D01*
X156572Y20195D01*
X156547Y20236D01*
X156496Y20278D01*
X156452Y20326D01*
X156410Y20348D01*
X156373Y20377D01*
X156311Y20398D01*
X156252Y20429D01*
X156198Y20437D01*
X156161Y20449D01*
X156121Y20448D01*
X156067Y20456D01*
X148856Y20456D01*
X147137Y22175D01*
X147102Y22200D01*
X147073Y22231D01*
X147011Y22263D01*
X146953Y22304D01*
X146912Y22314D01*
X146874Y22334D01*
X146784Y22347D01*
X146735Y22360D01*
X146715Y22357D01*
X146688Y22361D01*
X140332Y22361D01*
X140290Y22354D01*
X140247Y22356D01*
X140180Y22334D01*
X140111Y22322D01*
X140074Y22300D01*
X140034Y22287D01*
X139961Y22233D01*
X139918Y22207D01*
X139904Y22191D01*
X139883Y22175D01*
X138974Y21266D01*
X131643Y21266D01*
X131578Y21255D01*
X131512Y21253D01*
X131469Y21235D01*
X131422Y21227D01*
X131365Y21193D01*
X131305Y21168D01*
X131270Y21137D01*
X131229Y21112D01*
X131187Y21061D01*
X131139Y21017D01*
X131117Y20975D01*
X131088Y20938D01*
X131067Y20876D01*
X131036Y20817D01*
X131028Y20763D01*
X131016Y20726D01*
X131017Y20686D01*
X131009Y20632D01*
X131009Y18415D01*
X131020Y18350D01*
X131022Y18284D01*
X131040Y18241D01*
X131048Y18194D01*
X131082Y18137D01*
X131107Y18077D01*
X131138Y18042D01*
X131163Y18001D01*
X131214Y17959D01*
X131258Y17911D01*
X131300Y17889D01*
X131337Y17860D01*
X131399Y17839D01*
X131458Y17808D01*
X131512Y17800D01*
X131549Y17788D01*
X131589Y17789D01*
X131643Y17781D01*
X156067Y17781D01*
X156132Y17792D01*
G37*
G36*
X450908Y3065D02*
X450908Y3065D01*
X450997Y3074D01*
X451018Y3084D01*
X451041Y3088D01*
X451118Y3134D01*
X451198Y3173D01*
X451214Y3190D01*
X451235Y3203D01*
X451291Y3272D01*
X451352Y3336D01*
X451361Y3358D01*
X451376Y3377D01*
X451405Y3461D01*
X451439Y3543D01*
X451440Y3567D01*
X451448Y3589D01*
X451445Y3678D01*
X451449Y3767D01*
X451442Y3790D01*
X451441Y3814D01*
X451408Y3896D01*
X451381Y3981D01*
X451365Y4002D01*
X451357Y4021D01*
X451323Y4059D01*
X451269Y4131D01*
X448256Y7145D01*
X446421Y11573D01*
X446421Y14097D01*
X446410Y14162D01*
X446408Y14228D01*
X446390Y14271D01*
X446382Y14318D01*
X446348Y14375D01*
X446323Y14435D01*
X446292Y14470D01*
X446267Y14511D01*
X446216Y14553D01*
X446172Y14601D01*
X446130Y14623D01*
X446093Y14652D01*
X446031Y14673D01*
X445972Y14704D01*
X445918Y14712D01*
X445881Y14724D01*
X445841Y14723D01*
X445787Y14731D01*
X444658Y14731D01*
X443549Y15191D01*
X443519Y15197D01*
X443491Y15212D01*
X443374Y15229D01*
X443329Y15239D01*
X443319Y15237D01*
X443306Y15239D01*
X433705Y15239D01*
X433640Y15228D01*
X433575Y15226D01*
X433531Y15208D01*
X433484Y15200D01*
X433428Y15166D01*
X433367Y15141D01*
X433332Y15109D01*
X433291Y15085D01*
X433250Y15034D01*
X433201Y14990D01*
X433179Y14948D01*
X433150Y14911D01*
X433129Y14849D01*
X433099Y14790D01*
X433090Y14736D01*
X433078Y14699D01*
X433079Y14659D01*
X433071Y14605D01*
X433071Y13335D01*
X433083Y13270D01*
X433084Y13204D01*
X433102Y13161D01*
X433111Y13114D01*
X433144Y13057D01*
X433169Y12997D01*
X433201Y12962D01*
X433225Y12921D01*
X433276Y12880D01*
X433320Y12831D01*
X433362Y12809D01*
X433399Y12780D01*
X433461Y12759D01*
X433520Y12728D01*
X433574Y12720D01*
X433611Y12708D01*
X433651Y12709D01*
X433705Y12701D01*
X444554Y12701D01*
X444327Y11268D01*
X443765Y9540D01*
X442941Y7921D01*
X441873Y6452D01*
X440588Y5167D01*
X439252Y4196D01*
X439233Y4177D01*
X439210Y4163D01*
X439156Y4096D01*
X439096Y4034D01*
X439086Y4010D01*
X439069Y3989D01*
X439041Y3908D01*
X439007Y3828D01*
X439006Y3802D01*
X438997Y3777D01*
X439000Y3691D01*
X438995Y3604D01*
X439003Y3579D01*
X439004Y3552D01*
X439036Y3473D01*
X439062Y3390D01*
X439078Y3369D01*
X439088Y3345D01*
X439146Y3281D01*
X439199Y3213D01*
X439222Y3199D01*
X439239Y3179D01*
X439316Y3139D01*
X439389Y3094D01*
X439415Y3089D01*
X439439Y3076D01*
X439572Y3057D01*
X439609Y3049D01*
X439616Y3050D01*
X439624Y3049D01*
X450821Y3049D01*
X450908Y3065D01*
G37*
G36*
X367782Y19566D02*
X367782Y19566D01*
X367824Y19564D01*
X367891Y19586D01*
X367961Y19598D01*
X367997Y19620D01*
X368037Y19633D01*
X368110Y19687D01*
X368154Y19713D01*
X368167Y19729D01*
X368188Y19744D01*
X368632Y20189D01*
X368683Y20262D01*
X368739Y20331D01*
X368747Y20353D01*
X368760Y20373D01*
X368783Y20459D01*
X368811Y20543D01*
X368810Y20567D01*
X368816Y20590D01*
X368807Y20679D01*
X368804Y20768D01*
X368796Y20789D01*
X368793Y20813D01*
X368753Y20893D01*
X368720Y20975D01*
X368704Y20993D01*
X368694Y21014D01*
X368629Y21075D01*
X368569Y21141D01*
X368548Y21152D01*
X368530Y21168D01*
X368448Y21203D01*
X368369Y21244D01*
X368343Y21247D01*
X368324Y21256D01*
X368273Y21258D01*
X368184Y21271D01*
X361687Y21271D01*
X360793Y22165D01*
X360758Y22190D01*
X360729Y22221D01*
X360667Y22253D01*
X360609Y22294D01*
X360568Y22304D01*
X360530Y22324D01*
X360440Y22337D01*
X360391Y22350D01*
X360371Y22347D01*
X360344Y22351D01*
X349967Y22351D01*
X349935Y22360D01*
X349915Y22357D01*
X349888Y22361D01*
X337447Y22361D01*
X336848Y22960D01*
X336813Y22985D01*
X336784Y23016D01*
X336722Y23048D01*
X336664Y23089D01*
X336623Y23099D01*
X336585Y23119D01*
X336495Y23132D01*
X336446Y23145D01*
X336426Y23142D01*
X336399Y23146D01*
X334843Y23146D01*
X334778Y23135D01*
X334712Y23133D01*
X334669Y23115D01*
X334622Y23107D01*
X334565Y23073D01*
X334505Y23048D01*
X334470Y23017D01*
X334429Y22992D01*
X334387Y22941D01*
X334339Y22897D01*
X334317Y22855D01*
X334288Y22818D01*
X334267Y22756D01*
X334236Y22697D01*
X334228Y22643D01*
X334216Y22606D01*
X334217Y22566D01*
X334209Y22512D01*
X334209Y20193D01*
X334220Y20128D01*
X334222Y20062D01*
X334240Y20019D01*
X334248Y19972D01*
X334282Y19915D01*
X334307Y19855D01*
X334338Y19820D01*
X334363Y19779D01*
X334414Y19737D01*
X334458Y19689D01*
X334500Y19667D01*
X334537Y19638D01*
X334599Y19617D01*
X334658Y19586D01*
X334712Y19578D01*
X334749Y19566D01*
X334789Y19567D01*
X334843Y19559D01*
X367740Y19559D01*
X367782Y19566D01*
G37*
G36*
X257732Y19062D02*
X257732Y19062D01*
X257798Y19064D01*
X257841Y19082D01*
X257888Y19090D01*
X257945Y19124D01*
X258005Y19149D01*
X258040Y19180D01*
X258081Y19205D01*
X258123Y19256D01*
X258171Y19300D01*
X258193Y19342D01*
X258222Y19379D01*
X258243Y19441D01*
X258274Y19500D01*
X258282Y19554D01*
X258294Y19591D01*
X258293Y19631D01*
X258301Y19685D01*
X258301Y21092D01*
X258290Y21157D01*
X258288Y21223D01*
X258270Y21266D01*
X258262Y21313D01*
X258228Y21370D01*
X258203Y21430D01*
X258172Y21465D01*
X258147Y21506D01*
X258096Y21548D01*
X258052Y21596D01*
X258010Y21618D01*
X257973Y21647D01*
X257911Y21668D01*
X257852Y21699D01*
X257798Y21707D01*
X257761Y21719D01*
X257721Y21718D01*
X257667Y21726D01*
X249186Y21726D01*
X248737Y22175D01*
X248702Y22200D01*
X248673Y22231D01*
X248611Y22263D01*
X248553Y22304D01*
X248512Y22314D01*
X248474Y22334D01*
X248384Y22347D01*
X248335Y22360D01*
X248315Y22357D01*
X248288Y22361D01*
X235847Y22361D01*
X235633Y22575D01*
X235598Y22600D01*
X235569Y22631D01*
X235507Y22663D01*
X235449Y22704D01*
X235408Y22714D01*
X235370Y22734D01*
X235280Y22747D01*
X235231Y22760D01*
X235211Y22757D01*
X235184Y22761D01*
X233243Y22761D01*
X233178Y22750D01*
X233112Y22748D01*
X233069Y22730D01*
X233022Y22722D01*
X232965Y22688D01*
X232905Y22663D01*
X232870Y22632D01*
X232829Y22607D01*
X232787Y22556D01*
X232739Y22512D01*
X232717Y22470D01*
X232688Y22433D01*
X232667Y22371D01*
X232636Y22312D01*
X232628Y22258D01*
X232616Y22221D01*
X232617Y22181D01*
X232609Y22127D01*
X232609Y19685D01*
X232620Y19620D01*
X232622Y19554D01*
X232640Y19511D01*
X232648Y19464D01*
X232682Y19407D01*
X232707Y19347D01*
X232738Y19312D01*
X232763Y19271D01*
X232814Y19229D01*
X232858Y19181D01*
X232900Y19159D01*
X232937Y19130D01*
X232999Y19109D01*
X233058Y19078D01*
X233112Y19070D01*
X233149Y19058D01*
X233189Y19059D01*
X233243Y19051D01*
X257667Y19051D01*
X257732Y19062D01*
G37*
G36*
X334950Y83808D02*
X334950Y83808D01*
X334974Y83808D01*
X335056Y83842D01*
X335141Y83869D01*
X335162Y83885D01*
X335181Y83893D01*
X335219Y83927D01*
X335292Y83981D01*
X335476Y84165D01*
X335500Y84200D01*
X335531Y84228D01*
X335563Y84291D01*
X335604Y84349D01*
X335614Y84390D01*
X335634Y84428D01*
X335647Y84517D01*
X335660Y84566D01*
X335657Y84587D01*
X335661Y84613D01*
X335661Y96520D01*
X335650Y96585D01*
X335648Y96651D01*
X335630Y96694D01*
X335622Y96741D01*
X335588Y96798D01*
X335563Y96858D01*
X335532Y96893D01*
X335507Y96934D01*
X335456Y96976D01*
X335412Y97024D01*
X335370Y97046D01*
X335333Y97075D01*
X335271Y97096D01*
X335212Y97127D01*
X335158Y97135D01*
X335121Y97147D01*
X335081Y97146D01*
X335027Y97154D01*
X323786Y97154D01*
X323698Y97138D01*
X323610Y97129D01*
X323589Y97119D01*
X323565Y97115D01*
X323489Y97069D01*
X323409Y97030D01*
X323393Y97013D01*
X323372Y97000D01*
X323316Y96931D01*
X323255Y96867D01*
X323246Y96845D01*
X323231Y96826D01*
X323202Y96742D01*
X323167Y96660D01*
X323166Y96636D01*
X323159Y96614D01*
X323161Y96525D01*
X323157Y96436D01*
X323165Y96413D01*
X323165Y96389D01*
X323199Y96307D01*
X323226Y96222D01*
X323242Y96201D01*
X323250Y96182D01*
X323284Y96144D01*
X323338Y96072D01*
X328090Y91320D01*
X328124Y91295D01*
X328153Y91264D01*
X328216Y91232D01*
X328274Y91191D01*
X328315Y91181D01*
X328353Y91161D01*
X328442Y91148D01*
X328491Y91135D01*
X328512Y91138D01*
X328538Y91134D01*
X332423Y91134D01*
X334209Y89348D01*
X334209Y84429D01*
X334224Y84341D01*
X334234Y84253D01*
X334244Y84232D01*
X334248Y84208D01*
X334294Y84132D01*
X334333Y84052D01*
X334350Y84035D01*
X334363Y84015D01*
X334432Y83959D01*
X334496Y83898D01*
X334518Y83889D01*
X334537Y83874D01*
X334621Y83845D01*
X334703Y83810D01*
X334727Y83809D01*
X334749Y83802D01*
X334838Y83804D01*
X334927Y83800D01*
X334950Y83808D01*
G37*
G36*
X413692Y112800D02*
X413692Y112800D01*
X413758Y112802D01*
X413801Y112820D01*
X413848Y112828D01*
X413905Y112862D01*
X413965Y112887D01*
X414000Y112918D01*
X414041Y112943D01*
X414083Y112994D01*
X414131Y113038D01*
X414153Y113080D01*
X414182Y113117D01*
X414203Y113179D01*
X414234Y113238D01*
X414242Y113292D01*
X414254Y113329D01*
X414253Y113369D01*
X414261Y113423D01*
X414261Y121899D01*
X414245Y121987D01*
X414236Y122076D01*
X414226Y122097D01*
X414222Y122120D01*
X414176Y122197D01*
X414137Y122277D01*
X414120Y122293D01*
X414107Y122313D01*
X414038Y122370D01*
X413974Y122431D01*
X413952Y122440D01*
X413933Y122455D01*
X413849Y122483D01*
X413767Y122518D01*
X413743Y122519D01*
X413721Y122527D01*
X413632Y122524D01*
X413543Y122528D01*
X413520Y122521D01*
X413496Y122520D01*
X413414Y122487D01*
X413329Y122459D01*
X413308Y122444D01*
X413289Y122436D01*
X413251Y122402D01*
X413179Y122348D01*
X404702Y113871D01*
X404651Y113798D01*
X404595Y113729D01*
X404588Y113707D01*
X404574Y113687D01*
X404552Y113601D01*
X404523Y113517D01*
X404524Y113493D01*
X404518Y113470D01*
X404527Y113381D01*
X404530Y113292D01*
X404539Y113270D01*
X404541Y113247D01*
X404581Y113167D01*
X404614Y113085D01*
X404630Y113067D01*
X404641Y113046D01*
X404706Y112985D01*
X404766Y112919D01*
X404787Y112908D01*
X404804Y112892D01*
X404886Y112857D01*
X404965Y112816D01*
X404991Y112813D01*
X405011Y112804D01*
X405061Y112802D01*
X405151Y112789D01*
X413627Y112789D01*
X413692Y112800D01*
G37*
G36*
X362650Y158923D02*
X362650Y158923D01*
X362715Y158924D01*
X362759Y158942D01*
X362806Y158951D01*
X362863Y158984D01*
X362923Y159009D01*
X362958Y159041D01*
X362999Y159065D01*
X363040Y159116D01*
X363089Y159160D01*
X363111Y159202D01*
X363140Y159239D01*
X363161Y159301D01*
X363191Y159360D01*
X363200Y159414D01*
X363212Y159451D01*
X363211Y159491D01*
X363219Y159545D01*
X363219Y167951D01*
X369079Y167951D01*
X369144Y167962D01*
X369210Y167964D01*
X369253Y167982D01*
X369300Y167990D01*
X369357Y168024D01*
X369418Y168049D01*
X369452Y168080D01*
X369493Y168105D01*
X369535Y168156D01*
X369583Y168200D01*
X369605Y168242D01*
X369634Y168279D01*
X369656Y168341D01*
X369686Y168400D01*
X369694Y168454D01*
X369706Y168491D01*
X369706Y168494D01*
X369705Y168531D01*
X369713Y168585D01*
X369713Y168727D01*
X369702Y168792D01*
X369700Y168858D01*
X369682Y168901D01*
X369674Y168948D01*
X369640Y169005D01*
X369615Y169065D01*
X369584Y169100D01*
X369560Y169141D01*
X369508Y169183D01*
X369464Y169231D01*
X369422Y169253D01*
X369385Y169282D01*
X369323Y169303D01*
X369264Y169334D01*
X369210Y169342D01*
X369173Y169354D01*
X369134Y169353D01*
X369079Y169361D01*
X352687Y169361D01*
X351738Y170311D01*
X351704Y170334D01*
X351680Y170361D01*
X351641Y170380D01*
X351596Y170417D01*
X351573Y170425D01*
X351554Y170439D01*
X351502Y170452D01*
X351480Y170463D01*
X351445Y170468D01*
X351383Y170489D01*
X351359Y170489D01*
X351336Y170495D01*
X351297Y170490D01*
X351295Y170491D01*
X351289Y170491D01*
X351275Y170488D01*
X351248Y170485D01*
X351159Y170483D01*
X351137Y170474D01*
X351113Y170471D01*
X351074Y170452D01*
X351069Y170451D01*
X351050Y170440D01*
X351033Y170432D01*
X350951Y170398D01*
X350933Y170382D01*
X350912Y170372D01*
X350884Y170342D01*
X350875Y170337D01*
X350852Y170308D01*
X350851Y170307D01*
X350785Y170247D01*
X350775Y170226D01*
X350758Y170209D01*
X350744Y170175D01*
X350734Y170163D01*
X350718Y170117D01*
X350683Y170047D01*
X350679Y170021D01*
X350671Y170002D01*
X350669Y169972D01*
X350662Y169950D01*
X350663Y169916D01*
X350655Y169862D01*
X350655Y167152D01*
X350666Y167093D01*
X350666Y167033D01*
X350685Y166983D01*
X350695Y166931D01*
X350725Y166879D01*
X350747Y166824D01*
X350782Y166784D01*
X350809Y166738D01*
X350855Y166700D01*
X350895Y166655D01*
X350942Y166630D01*
X350983Y166596D01*
X351040Y166577D01*
X351092Y166549D01*
X351145Y166542D01*
X351196Y166524D01*
X351255Y166526D01*
X351314Y166518D01*
X351367Y166529D01*
X351420Y166531D01*
X351475Y166553D01*
X351534Y166566D01*
X351578Y166595D01*
X351628Y166615D01*
X351672Y166656D01*
X351722Y166688D01*
X351761Y166737D01*
X351794Y166767D01*
X351809Y166798D01*
X351839Y166835D01*
X351917Y166970D01*
X352390Y167443D01*
X352969Y167778D01*
X353615Y167951D01*
X360681Y167951D01*
X360681Y159545D01*
X360692Y159480D01*
X360694Y159415D01*
X360712Y159371D01*
X360720Y159324D01*
X360754Y159268D01*
X360779Y159207D01*
X360811Y159172D01*
X360835Y159131D01*
X360886Y159090D01*
X360930Y159041D01*
X360972Y159019D01*
X361009Y158990D01*
X361071Y158969D01*
X361130Y158939D01*
X361184Y158930D01*
X361221Y158918D01*
X361261Y158919D01*
X361315Y158911D01*
X362585Y158911D01*
X362650Y158923D01*
G37*
%LPC*%
G36*
X486409Y220224D02*
X486409Y220224D01*
X486409Y226746D01*
X492425Y226746D01*
X493071Y226573D01*
X493650Y226238D01*
X494123Y225765D01*
X494458Y225186D01*
X494631Y224540D01*
X494631Y220224D01*
X486409Y220224D01*
G37*
%LPD*%
%LPC*%
G36*
X547369Y217684D02*
X547369Y217684D01*
X547369Y224206D01*
X553385Y224206D01*
X554031Y224033D01*
X554610Y223698D01*
X555083Y223225D01*
X555418Y222646D01*
X555591Y222000D01*
X555591Y217684D01*
X547369Y217684D01*
G37*
%LPD*%
%LPC*%
G36*
X536609Y217684D02*
X536609Y217684D01*
X536609Y222000D01*
X536782Y222646D01*
X537117Y223225D01*
X537590Y223698D01*
X538169Y224033D01*
X538815Y224206D01*
X544831Y224206D01*
X544831Y217684D01*
X536609Y217684D01*
G37*
%LPD*%
G36*
X111231Y67318D02*
X111231Y67318D01*
X111273Y67316D01*
X111340Y67338D01*
X111410Y67350D01*
X111446Y67372D01*
X111487Y67385D01*
X111559Y67439D01*
X111603Y67465D01*
X111616Y67481D01*
X111637Y67497D01*
X112843Y68703D01*
X112868Y68737D01*
X112899Y68766D01*
X112931Y68829D01*
X112971Y68887D01*
X112982Y68928D01*
X113001Y68966D01*
X113015Y69055D01*
X113027Y69104D01*
X113025Y69125D01*
X113029Y69151D01*
X113029Y78555D01*
X113018Y78620D01*
X113016Y78685D01*
X112998Y78729D01*
X112989Y78776D01*
X112956Y78832D01*
X112931Y78893D01*
X112899Y78928D01*
X112875Y78969D01*
X112824Y79010D01*
X112780Y79059D01*
X112738Y79081D01*
X112701Y79110D01*
X112639Y79131D01*
X112580Y79161D01*
X112526Y79170D01*
X112489Y79182D01*
X112449Y79181D01*
X112395Y79189D01*
X111125Y79189D01*
X111060Y79177D01*
X110995Y79176D01*
X110951Y79158D01*
X110904Y79149D01*
X110847Y79116D01*
X110787Y79091D01*
X110752Y79059D01*
X110711Y79035D01*
X110670Y78984D01*
X110621Y78940D01*
X110599Y78898D01*
X110570Y78861D01*
X110549Y78799D01*
X110518Y78740D01*
X110510Y78686D01*
X110498Y78649D01*
X110499Y78621D01*
X110498Y78618D01*
X110498Y78604D01*
X110491Y78555D01*
X110491Y69024D01*
X107925Y69024D01*
X107279Y69197D01*
X106700Y69532D01*
X106218Y70014D01*
X106164Y70052D01*
X106116Y70097D01*
X106072Y70115D01*
X106034Y70142D01*
X105970Y70159D01*
X105909Y70184D01*
X105862Y70186D01*
X105816Y70198D01*
X105751Y70191D01*
X105685Y70194D01*
X105640Y70180D01*
X105593Y70175D01*
X105534Y70146D01*
X105471Y70126D01*
X105427Y70093D01*
X105392Y70076D01*
X105365Y70047D01*
X105321Y70014D01*
X103700Y68393D01*
X103649Y68320D01*
X103593Y68251D01*
X103585Y68229D01*
X103572Y68209D01*
X103550Y68123D01*
X103521Y68039D01*
X103522Y68015D01*
X103516Y67992D01*
X103525Y67903D01*
X103528Y67814D01*
X103537Y67792D01*
X103539Y67769D01*
X103579Y67689D01*
X103612Y67607D01*
X103628Y67589D01*
X103639Y67568D01*
X103703Y67507D01*
X103764Y67441D01*
X103785Y67430D01*
X103802Y67414D01*
X103884Y67379D01*
X103963Y67338D01*
X103989Y67335D01*
X104009Y67326D01*
X104059Y67324D01*
X104148Y67311D01*
X111189Y67311D01*
X111231Y67318D01*
G37*
G36*
X394937Y94562D02*
X394937Y94562D01*
X395003Y94564D01*
X395046Y94582D01*
X395093Y94590D01*
X395150Y94624D01*
X395210Y94649D01*
X395245Y94680D01*
X395286Y94705D01*
X395328Y94756D01*
X395376Y94800D01*
X395398Y94842D01*
X395427Y94879D01*
X395448Y94941D01*
X395479Y95000D01*
X395487Y95054D01*
X395499Y95091D01*
X395498Y95131D01*
X395506Y95185D01*
X395506Y103144D01*
X395490Y103232D01*
X395481Y103321D01*
X395471Y103342D01*
X395467Y103365D01*
X395421Y103442D01*
X395382Y103522D01*
X395365Y103538D01*
X395352Y103558D01*
X395283Y103615D01*
X395219Y103676D01*
X395197Y103685D01*
X395178Y103700D01*
X395094Y103728D01*
X395012Y103763D01*
X394988Y103764D01*
X394966Y103772D01*
X394877Y103769D01*
X394788Y103773D01*
X394765Y103766D01*
X394741Y103765D01*
X394659Y103732D01*
X394574Y103704D01*
X394553Y103689D01*
X394534Y103681D01*
X394496Y103647D01*
X394424Y103593D01*
X393833Y103002D01*
X391415Y100584D01*
X388401Y100584D01*
X388314Y100568D01*
X388225Y100559D01*
X388204Y100548D01*
X388181Y100544D01*
X388104Y100499D01*
X388024Y100460D01*
X388008Y100442D01*
X387987Y100430D01*
X387931Y100361D01*
X387870Y100296D01*
X387861Y100274D01*
X387846Y100256D01*
X387818Y100172D01*
X387783Y100090D01*
X387782Y100066D01*
X387774Y100043D01*
X387777Y99954D01*
X387773Y99865D01*
X387780Y99843D01*
X387781Y99819D01*
X387814Y99737D01*
X387841Y99652D01*
X387857Y99631D01*
X387865Y99611D01*
X387899Y99574D01*
X387953Y99501D01*
X392718Y94737D01*
X392752Y94712D01*
X392781Y94681D01*
X392844Y94649D01*
X392902Y94608D01*
X392943Y94598D01*
X392981Y94578D01*
X393070Y94565D01*
X393119Y94552D01*
X393140Y94555D01*
X393166Y94551D01*
X394872Y94551D01*
X394937Y94562D01*
G37*
G36*
X115900Y9161D02*
X115900Y9161D01*
X115988Y9170D01*
X116009Y9180D01*
X116033Y9184D01*
X116109Y9230D01*
X116189Y9269D01*
X116206Y9286D01*
X116226Y9299D01*
X116282Y9368D01*
X116343Y9432D01*
X116352Y9454D01*
X116367Y9473D01*
X116396Y9557D01*
X116431Y9639D01*
X116432Y9663D01*
X116439Y9685D01*
X116437Y9774D01*
X116441Y9863D01*
X116433Y9886D01*
X116433Y9910D01*
X116399Y9992D01*
X116372Y10077D01*
X116356Y10098D01*
X116348Y10117D01*
X116314Y10155D01*
X116260Y10227D01*
X113911Y12577D01*
X112397Y14090D01*
X112363Y14115D01*
X112334Y14146D01*
X112271Y14178D01*
X112213Y14219D01*
X112172Y14229D01*
X112134Y14249D01*
X112045Y14262D01*
X111996Y14275D01*
X111975Y14272D01*
X111949Y14276D01*
X106944Y14276D01*
X106856Y14260D01*
X106768Y14251D01*
X106747Y14241D01*
X106723Y14237D01*
X106647Y14191D01*
X106567Y14152D01*
X106551Y14135D01*
X106530Y14122D01*
X106474Y14053D01*
X106413Y13989D01*
X106404Y13967D01*
X106389Y13948D01*
X106360Y13864D01*
X106325Y13782D01*
X106324Y13758D01*
X106317Y13736D01*
X106319Y13647D01*
X106315Y13558D01*
X106323Y13535D01*
X106323Y13511D01*
X106357Y13429D01*
X106384Y13344D01*
X106400Y13323D01*
X106408Y13304D01*
X106442Y13266D01*
X106496Y13194D01*
X110359Y9331D01*
X110393Y9306D01*
X110422Y9275D01*
X110485Y9243D01*
X110543Y9202D01*
X110584Y9192D01*
X110622Y9172D01*
X110711Y9159D01*
X110760Y9146D01*
X110781Y9149D01*
X110807Y9145D01*
X115812Y9145D01*
X115900Y9161D01*
G37*
%LPC*%
G36*
X514349Y229169D02*
X514349Y229169D01*
X514349Y234691D01*
X516415Y234691D01*
X517061Y234518D01*
X517640Y234183D01*
X518113Y233710D01*
X518448Y233131D01*
X518621Y232485D01*
X518621Y229169D01*
X514349Y229169D01*
G37*
%LPD*%
%LPC*%
G36*
X507539Y229169D02*
X507539Y229169D01*
X507539Y232485D01*
X507712Y233131D01*
X508047Y233710D01*
X508520Y234183D01*
X509099Y234518D01*
X509745Y234691D01*
X511811Y234691D01*
X511811Y229169D01*
X507539Y229169D01*
G37*
%LPD*%
%LPC*%
G36*
X514349Y221109D02*
X514349Y221109D01*
X514349Y226631D01*
X518621Y226631D01*
X518621Y223315D01*
X518448Y222669D01*
X518113Y222090D01*
X517640Y221617D01*
X517061Y221282D01*
X516415Y221109D01*
X514349Y221109D01*
G37*
%LPD*%
%LPC*%
G36*
X509745Y221109D02*
X509745Y221109D01*
X509099Y221282D01*
X508520Y221617D01*
X508047Y222090D01*
X507712Y222669D01*
X507539Y223315D01*
X507539Y226631D01*
X511811Y226631D01*
X511811Y221109D01*
X509745Y221109D01*
G37*
%LPD*%
G36*
X215722Y12208D02*
X215722Y12208D01*
X215810Y12218D01*
X215831Y12228D01*
X215855Y12232D01*
X215932Y12278D01*
X216011Y12317D01*
X216028Y12334D01*
X216048Y12347D01*
X216104Y12416D01*
X216165Y12480D01*
X216174Y12502D01*
X216189Y12521D01*
X216218Y12605D01*
X216253Y12687D01*
X216254Y12711D01*
X216261Y12733D01*
X216259Y12822D01*
X216263Y12911D01*
X216255Y12934D01*
X216255Y12958D01*
X216221Y13040D01*
X216194Y13125D01*
X216178Y13146D01*
X216170Y13165D01*
X216136Y13203D01*
X216082Y13275D01*
X215511Y13847D01*
X213997Y15360D01*
X213963Y15385D01*
X213934Y15416D01*
X213871Y15448D01*
X213813Y15489D01*
X213772Y15499D01*
X213734Y15519D01*
X213645Y15532D01*
X213596Y15545D01*
X213575Y15542D01*
X213549Y15546D01*
X210246Y15546D01*
X210158Y15530D01*
X210070Y15521D01*
X210049Y15511D01*
X210025Y15507D01*
X209949Y15461D01*
X209869Y15422D01*
X209853Y15405D01*
X209832Y15392D01*
X209776Y15323D01*
X209715Y15259D01*
X209706Y15237D01*
X209691Y15218D01*
X209662Y15134D01*
X209628Y15052D01*
X209627Y15028D01*
X209619Y15006D01*
X209622Y14917D01*
X209618Y14828D01*
X209625Y14805D01*
X209626Y14781D01*
X209659Y14699D01*
X209686Y14614D01*
X209702Y14593D01*
X209710Y14574D01*
X209744Y14536D01*
X209798Y14464D01*
X211883Y12379D01*
X211918Y12354D01*
X211946Y12323D01*
X212009Y12291D01*
X212067Y12250D01*
X212108Y12240D01*
X212146Y12220D01*
X212236Y12207D01*
X212284Y12194D01*
X212305Y12197D01*
X212331Y12193D01*
X215634Y12193D01*
X215722Y12208D01*
G37*
G36*
X377440Y29165D02*
X377440Y29165D01*
X377464Y29166D01*
X377546Y29199D01*
X377631Y29226D01*
X377652Y29242D01*
X377671Y29250D01*
X377709Y29284D01*
X377781Y29338D01*
X380344Y31900D01*
X380368Y31935D01*
X380399Y31963D01*
X380431Y32026D01*
X380472Y32084D01*
X380482Y32125D01*
X380502Y32163D01*
X380515Y32253D01*
X380528Y32301D01*
X380525Y32322D01*
X380529Y32348D01*
X380529Y34278D01*
X380513Y34365D01*
X380504Y34454D01*
X380494Y34475D01*
X380490Y34498D01*
X380444Y34575D01*
X380405Y34655D01*
X380388Y34671D01*
X380375Y34692D01*
X380306Y34748D01*
X380242Y34809D01*
X380220Y34818D01*
X380201Y34833D01*
X380117Y34861D01*
X380035Y34896D01*
X380011Y34897D01*
X379989Y34905D01*
X379900Y34902D01*
X379811Y34906D01*
X379788Y34899D01*
X379764Y34898D01*
X379682Y34865D01*
X379597Y34838D01*
X379576Y34822D01*
X379557Y34814D01*
X379519Y34780D01*
X379447Y34726D01*
X376885Y32164D01*
X376860Y32129D01*
X376829Y32101D01*
X376797Y32038D01*
X376756Y31980D01*
X376746Y31939D01*
X376726Y31901D01*
X376713Y31811D01*
X376700Y31763D01*
X376703Y31742D01*
X376699Y31716D01*
X376699Y29786D01*
X376715Y29698D01*
X376724Y29610D01*
X376734Y29589D01*
X376738Y29565D01*
X376784Y29489D01*
X376823Y29409D01*
X376840Y29393D01*
X376853Y29372D01*
X376922Y29316D01*
X376986Y29255D01*
X377008Y29246D01*
X377027Y29231D01*
X377111Y29202D01*
X377193Y29168D01*
X377217Y29167D01*
X377239Y29159D01*
X377328Y29162D01*
X377417Y29158D01*
X377440Y29165D01*
G37*
%LPC*%
G36*
X513079Y227899D02*
X513079Y227899D01*
X513079Y227901D01*
X513081Y227901D01*
X513081Y227899D01*
X513079Y227899D01*
G37*
%LPD*%
D10*
X245110Y70010D03*
X245110Y90010D03*
X143510Y70010D03*
X143510Y90010D03*
D11*
X485140Y218955D03*
X485140Y203955D03*
X525145Y144265D03*
X525145Y159265D03*
D10*
X346710Y51910D03*
X346710Y31910D03*
X346710Y70010D03*
X346710Y90010D03*
X143510Y51910D03*
X143510Y31910D03*
D12*
X440810Y138430D03*
X455810Y138430D03*
D11*
X400685Y228085D03*
X400685Y243085D03*
X546100Y216415D03*
X546100Y201415D03*
D10*
X245110Y51910D03*
X245110Y31910D03*
D13*
X368300Y62220D03*
X368300Y29220D03*
X266700Y57140D03*
X266700Y24140D03*
X165100Y57140D03*
X165100Y24140D03*
D14*
X504360Y151315D03*
X504360Y157815D03*
X504360Y164315D03*
X504360Y170815D03*
X504360Y177315D03*
X504360Y183815D03*
X504360Y190315D03*
X445600Y190315D03*
X445600Y183815D03*
X445600Y177315D03*
X445600Y170815D03*
X445600Y164315D03*
X445600Y157815D03*
X445600Y151315D03*
D15*
X289560Y26220D03*
X302260Y26220D03*
X314960Y26220D03*
X327660Y26220D03*
X327660Y80460D03*
X314960Y80460D03*
X302260Y80460D03*
X289560Y80460D03*
D16*
X467030Y214870D03*
D17*
X465530Y229870D03*
D16*
X467030Y244870D03*
D18*
X438030Y229870D03*
D19*
X476310Y121120D03*
X468310Y121120D03*
X460310Y121120D03*
X452310Y121120D03*
X444310Y121120D03*
X436310Y121120D03*
X428310Y121120D03*
X420310Y121120D03*
D20*
X405930Y106740D03*
X405930Y98740D03*
X405930Y90740D03*
X405930Y82740D03*
X405930Y74740D03*
X405930Y66740D03*
X405930Y58740D03*
X405930Y50740D03*
D19*
X420310Y36360D03*
X428310Y36360D03*
X436310Y36360D03*
X444310Y36360D03*
X452310Y36360D03*
X460310Y36360D03*
X468310Y36360D03*
X476310Y36360D03*
D20*
X490690Y50740D03*
X490690Y58740D03*
X490690Y66740D03*
X490690Y74740D03*
X490690Y82740D03*
X490690Y90740D03*
X490690Y98740D03*
X490690Y106740D03*
D15*
X187960Y26220D03*
X200660Y26220D03*
X213360Y26220D03*
X226060Y26220D03*
X226060Y80460D03*
X213360Y80460D03*
X200660Y80460D03*
X187960Y80460D03*
X86360Y24950D03*
X99060Y24950D03*
X111760Y24950D03*
X124460Y24950D03*
X124460Y79190D03*
X111760Y79190D03*
X99060Y79190D03*
X86360Y79190D03*
D21*
X503480Y203900D03*
X522680Y203900D03*
X513080Y227900D03*
D22*
X510540Y60715D03*
X510540Y77715D03*
D23*
X400210Y160020D03*
X420210Y160020D03*
X420210Y199390D03*
X400210Y199390D03*
X420210Y179705D03*
X400210Y179705D03*
X420210Y140970D03*
X400210Y140970D03*
D24*
X483870Y13970D03*
D25*
X458470Y13970D03*
X433070Y13970D03*
X407670Y13970D03*
D10*
X361950Y158910D03*
X361950Y178910D03*
X361950Y217010D03*
X361950Y197010D03*
D26*
X292170Y38608D02*
X289758Y36196D01*
X289758Y26418D01*
X289560Y26220D01*
X360806Y54726D02*
X368300Y62220D01*
X360806Y54726D02*
X360806Y45733D01*
X336493Y41966D02*
X333135Y38608D01*
X357039Y41966D02*
X360806Y45733D01*
X357039Y41966D02*
X336493Y41966D01*
X333135Y38608D02*
X292170Y38608D01*
X346710Y70010D02*
X357970Y70010D01*
X365760Y62220D02*
X368300Y62220D01*
X365760Y62220D02*
X357970Y70010D01*
X398945Y74740D02*
X405930Y74740D01*
X398945Y74740D02*
X384340Y60135D01*
X320040Y15748D02*
X314960Y20828D01*
X314960Y26220D01*
X369581Y15748D02*
X384340Y30507D01*
X369581Y15748D02*
X320040Y15748D01*
X384340Y30507D02*
X384340Y60135D01*
X310515Y12700D02*
X302260Y20955D01*
X302260Y26220D01*
X310515Y12700D02*
X373383Y12700D01*
X388150Y27467D01*
X388150Y55945D01*
X398945Y66740D01*
X405930Y66740D01*
D27*
X445580Y133660D02*
X440810Y138430D01*
X445580Y133660D02*
X445580Y122390D01*
X444310Y121120D01*
D26*
X143510Y51910D02*
X132080Y63340D01*
X132080Y86360D01*
X128270Y90170D01*
X118110Y90170D01*
X111760Y83820D01*
X111760Y79190D01*
D28*
X419100Y83820D03*
X427990Y52070D03*
X452755Y68580D03*
X427990Y71120D03*
X452120Y52070D03*
X473710Y52070D03*
X288290Y66040D03*
X330200Y53340D03*
X210820Y45720D03*
X123190Y44450D03*
X80645Y40640D03*
X473075Y158115D03*
X519430Y106680D03*
X159385Y68580D03*
X73660Y10160D03*
X92710Y10160D03*
X330200Y46990D03*
X129540Y66040D03*
X78105Y55245D03*
D29*
X260350Y77470D03*
D28*
X189230Y10795D03*
X227330Y45720D03*
X187960Y44450D03*
D30*
X546100Y17780D03*
X521970Y17780D03*
D27*
X546100Y216415D02*
X534615Y227900D01*
X513080Y227900D01*
D28*
X469265Y173990D03*
X482600Y156210D03*
X420370Y106680D03*
X410845Y116205D03*
D29*
X363220Y144780D03*
D28*
X143510Y54610D03*
X245110Y54610D03*
X346710Y54610D03*
X520065Y99060D03*
X547370Y159385D03*
X547370Y170180D03*
X494665Y142240D03*
X488950Y137160D03*
X528320Y107315D03*
X507365Y120015D03*
X560705Y170180D03*
X288290Y45720D03*
D30*
X521970Y39370D03*
X546100Y40640D03*
D29*
X354330Y137160D03*
X367030Y135890D03*
X363220Y127000D03*
D28*
X525780Y142875D03*
X488315Y173990D03*
X464820Y164465D03*
X474980Y137160D03*
X517525Y170180D03*
X528320Y99060D03*
X445770Y5715D03*
X420370Y6350D03*
X309880Y45720D03*
X189230Y64770D03*
X104140Y55880D03*
X104140Y44450D03*
X426720Y95250D03*
X475615Y97155D03*
X393065Y98425D03*
X385445Y111760D03*
X384175Y169545D03*
X111125Y10160D03*
D26*
X111125Y10287D01*
X188588Y10287D01*
X189096Y10795D02*
X189230Y10795D01*
X189096Y10795D02*
X188588Y10287D01*
D28*
X133985Y19050D03*
X154940Y19050D03*
X156210Y31750D03*
X166370Y47625D03*
X336550Y20955D03*
X360045Y20955D03*
X234315Y20955D03*
X257175Y20320D03*
X257810Y33020D03*
X267970Y46990D03*
X359410Y36830D03*
X370205Y52070D03*
X378460Y31750D03*
X391795Y77470D03*
X401955Y124460D03*
X86995Y103505D03*
X154305Y107315D03*
X76200Y89535D03*
X280035Y14605D03*
X296545Y13335D03*
X212725Y13335D03*
D26*
X215197Y13335D01*
X216340Y12192D01*
X277622Y12192D01*
X280035Y14605D01*
D28*
X371475Y72390D03*
X360680Y78105D03*
X157480Y88265D03*
X333375Y92710D03*
X231140Y57150D03*
X220345Y67310D03*
X207645Y67945D03*
X323215Y67310D03*
X310515Y67310D03*
D27*
X402470Y229870D02*
X465530Y229870D01*
X402470Y229870D02*
X400685Y228085D01*
D28*
X71120Y264795D03*
X525145Y170180D03*
X520065Y173990D03*
X547370Y149860D03*
X560070Y159385D03*
X560070Y149860D03*
X527685Y120650D03*
X518160Y120650D03*
X486410Y127000D03*
X511175Y142875D03*
X498475Y133985D03*
X124460Y107315D03*
X254000Y123190D03*
X275590Y123825D03*
X275590Y174625D03*
X248285Y186690D03*
X176530Y187960D03*
X65405Y193675D03*
D27*
X65405Y190500D01*
X67945Y187960D02*
X176530Y187960D01*
X67945Y187960D02*
X65405Y190500D01*
D28*
X155575Y187325D03*
X171450Y113665D03*
X288290Y165100D03*
X200660Y113030D03*
X143510Y107315D03*
X133350Y107315D03*
X97155Y106680D03*
X115570Y107315D03*
X106680Y107315D03*
X254000Y135890D03*
X254000Y148590D03*
X254000Y161290D03*
X254000Y173990D03*
X266700Y148590D03*
X266700Y161290D03*
X266700Y135890D03*
X266700Y123190D03*
X266700Y173990D03*
X287655Y123190D03*
X133350Y187325D03*
D27*
X245110Y31910D02*
X240280Y27080D01*
X226920Y27080D01*
X226060Y26220D01*
D26*
X165100Y24140D02*
X163830Y24140D01*
D27*
X150645Y24775D02*
X143510Y31910D01*
D29*
X373380Y114935D03*
X373224Y85725D03*
D27*
X377206Y81743D02*
X377206Y38593D01*
X368300Y29687D01*
X377206Y81743D02*
X373224Y85725D01*
D26*
X125095Y25585D02*
X124460Y24950D01*
D27*
X125095Y25585D02*
X137185Y25585D01*
X143510Y31910D01*
X150645Y24775D02*
X163195Y24775D01*
X163830Y24140D01*
X485195Y203900D02*
X503480Y203900D01*
X485195Y203900D02*
X485140Y203955D01*
X275606Y64446D02*
X275606Y33681D01*
X275606Y64446D02*
X270510Y69542D01*
D31*
X270510Y87630D03*
D27*
X270510Y69542D01*
D29*
X267970Y111760D03*
D28*
X168486Y88265D03*
D26*
X165100Y36037D02*
X165100Y24140D01*
X165100Y36037D02*
X175276Y46213D01*
X168486Y70485D02*
X168486Y88265D01*
X168486Y70485D02*
X175276Y63695D01*
X175276Y46213D01*
X171648Y105128D02*
X173708Y107188D01*
D29*
X171648Y105128D03*
D26*
X173708Y107188D02*
X258587Y107188D01*
X266065Y24140D02*
X266700Y24140D01*
D27*
X267970Y26045D02*
X275606Y33681D01*
D26*
X267970Y26045D02*
X266065Y24140D01*
D27*
X368300Y29220D02*
X368300Y29687D01*
X346710Y31910D02*
X342265Y27465D01*
X328905Y27465D01*
X327660Y26220D01*
D26*
X370586Y115316D02*
X373380Y114935D01*
X370586Y115316D02*
X271526Y115316D01*
D27*
X373380Y114935D02*
X374032Y115587D01*
D26*
X271526Y115316D02*
X267970Y111760D01*
X263159Y111760D01*
X258587Y107188D01*
D27*
X374032Y115587D02*
X374032Y210202D01*
X379271Y215441D01*
X245110Y31910D02*
X250975Y26045D01*
X267970Y26045D01*
X346710Y31910D02*
X351950Y26670D01*
X368300Y26670D01*
X368300Y29220D01*
X467030Y214870D02*
X466459Y215441D01*
X379271Y215441D01*
X477945Y203955D02*
X485140Y203955D01*
X477945Y203955D02*
X467030Y214870D01*
D28*
X284480Y85090D03*
D26*
X284930Y85090D02*
X289560Y80460D01*
X284930Y85090D02*
X284480Y85090D01*
X489995Y151315D02*
X504360Y151315D01*
X489995Y151315D02*
X481390Y142710D01*
X481390Y132550D01*
X476310Y127470D01*
X476310Y121120D01*
X420210Y179705D02*
X420210Y199390D01*
X445600Y194760D02*
X445600Y190315D01*
X445600Y194760D02*
X436710Y203650D01*
X424470Y203650D01*
X420210Y199390D01*
X420210Y179705D02*
X422600Y177315D01*
X445600Y177315D01*
X463215Y183815D02*
X504360Y183815D01*
X463215Y183815D02*
X456715Y177315D01*
X445600Y177315D01*
X420210Y179705D02*
X419895Y179705D01*
X400210Y160020D01*
X460310Y127470D02*
X465390Y132550D01*
X460310Y127470D02*
X460310Y121120D01*
X465390Y132550D02*
X465390Y148020D01*
X462095Y151315D02*
X445600Y151315D01*
X462095Y151315D02*
X465390Y148020D01*
X469406Y128566D02*
X468310Y127470D01*
X468310Y121120D01*
X469406Y128566D02*
X469406Y150354D01*
X461945Y157815D02*
X445600Y157815D01*
X461945Y157815D02*
X469406Y150354D01*
X518160Y159265D02*
X525145Y159265D01*
X518160Y159265D02*
X513110Y164315D01*
X504360Y164315D01*
D29*
X532645Y198635D03*
D30*
X516890Y260985D03*
X546100Y261620D03*
X532765Y248920D03*
X487680Y261620D03*
X501650Y249555D03*
D26*
X361950Y217010D02*
X360600Y218360D01*
X360680Y218440D01*
D29*
X360680Y218440D03*
D28*
X422275Y248285D03*
X434975Y247650D03*
X447675Y248285D03*
X451485Y254635D03*
X435610Y257175D03*
X423545Y256540D03*
X441325Y252730D03*
X428625Y252730D03*
D27*
X405885Y248285D02*
X400685Y243085D01*
X405885Y248285D02*
X422275Y248285D01*
X463615Y248285D02*
X467030Y244870D01*
X463615Y248285D02*
X447675Y248285D01*
D30*
X559435Y248920D03*
D27*
X532645Y198635D02*
X532645Y164860D01*
X527050Y159265D01*
X525145Y159265D01*
X459930Y136360D02*
X452310Y128740D01*
X452310Y121120D01*
X459930Y136360D02*
X459930Y142550D01*
D26*
X455810Y138430D01*
D27*
X458470Y105410D02*
X474980Y105410D01*
X458470Y105410D02*
X452310Y111570D01*
X452310Y107760D01*
X452310Y111570D02*
X452310Y121120D01*
D26*
X400210Y139540D02*
X400210Y140970D01*
X400210Y139540D02*
X400685Y139065D01*
D29*
X400685Y139065D03*
X455930Y142240D03*
D26*
X453270Y140970D02*
X455810Y138430D01*
X453270Y140970D02*
X453270Y144780D01*
X453390Y144780D02*
X455930Y142240D01*
X453390Y144780D02*
X453270Y144780D01*
D27*
X511810Y134620D02*
X534670Y134620D01*
X539190Y139140D01*
X485775Y116205D02*
X474980Y105410D01*
X539190Y139140D02*
X539190Y194505D01*
X510540Y105410D02*
X510540Y77715D01*
D26*
X406769Y36427D02*
X406769Y14871D01*
X407670Y13970D01*
X406769Y36427D02*
X419100Y48758D01*
X419100Y74550D01*
X452310Y107760D01*
D27*
X525220Y206440D02*
X535875Y206440D01*
X525220Y206440D02*
X522680Y203900D01*
X539190Y194505D02*
X546100Y201415D01*
X511810Y134620D02*
X496570Y119380D01*
X510540Y105410D01*
X540900Y201415D02*
X535875Y206440D01*
D32*
X445770Y20320D03*
D26*
X440690Y25400D01*
X417298Y25400D02*
X406769Y14871D01*
X417298Y25400D02*
X440690Y25400D01*
D27*
X485775Y116205D02*
X493395Y116205D01*
X496570Y119380D01*
X540900Y201415D02*
X546100Y201415D01*
D26*
X476310Y36360D02*
X476310Y28635D01*
X461645Y13970D02*
X458470Y13970D01*
X461645Y13970D02*
X476310Y28635D01*
X491960Y52010D02*
X498890Y52010D01*
X491960Y52010D02*
X490690Y50740D01*
X507595Y60715D02*
X510540Y60715D01*
X507595Y60715D02*
X498890Y52010D01*
X483870Y38100D02*
X483870Y13970D01*
X490690Y44920D02*
X490690Y50740D01*
X490690Y44920D02*
X483870Y38100D01*
X213924Y26220D02*
X213924Y20823D01*
X213924Y26220D02*
X213360Y26220D01*
X213924Y20823D02*
X219507Y15240D01*
X273050Y15240D01*
X287964Y100965D02*
X356028Y100965D01*
X287964Y100965D02*
X278256Y91258D01*
X399580Y82740D02*
X405930Y82740D01*
X398699Y83621D02*
X388166Y83621D01*
X380701Y91086D01*
X365907Y91086D02*
X356028Y100965D01*
X398699Y83621D02*
X399580Y82740D01*
X380701Y91086D02*
X365907Y91086D01*
X280670Y73969D02*
X278256Y76383D01*
X278256Y91258D01*
X280670Y22860D02*
X273050Y15240D01*
X280670Y22860D02*
X280670Y73969D01*
X391325Y90740D02*
X405930Y90740D01*
X391325Y90740D02*
X381165Y100900D01*
X371540Y100900D01*
X364490Y107950D01*
X280670Y107950D01*
X272415Y99695D01*
X117907Y13970D02*
X112324Y19553D01*
X112324Y24950D01*
X111760Y24950D01*
X176546Y92294D02*
X183947Y99695D01*
X272415Y99695D01*
X181610Y24130D02*
X171450Y13970D01*
X181610Y24130D02*
X181610Y63500D01*
X176546Y68564D02*
X176546Y92294D01*
X176546Y68564D02*
X181610Y63500D01*
X171450Y13970D02*
X117907Y13970D01*
X392430Y52860D02*
X398310Y58740D01*
X405930Y58740D01*
X392430Y52860D02*
X392430Y24765D01*
X376047Y8382D01*
X200660Y18212D02*
X200660Y26220D01*
X200660Y18212D02*
X210490Y8382D01*
X376047Y8382D01*
X99060Y15240D02*
X99060Y24950D01*
X99060Y15240D02*
X108966Y5334D01*
X397040Y41850D02*
X405930Y50740D01*
X397040Y41850D02*
X397040Y22390D01*
X379984Y5334D01*
X108966Y5334D01*
D33*
X342900Y175260D03*
X330200Y175260D03*
X317500Y175260D03*
X304800Y175260D03*
D30*
X15240Y209550D03*
X44450Y209550D03*
X44450Y234950D03*
X15240Y234950D03*
X15240Y260350D03*
X44450Y260350D03*
D26*
X346710Y90010D02*
X346870Y90170D01*
X356870Y90170D01*
D28*
X356870Y90170D03*
D26*
X400210Y179705D02*
X393860Y186055D01*
X384810Y186055D01*
D28*
X384810Y186055D03*
X380365Y201295D03*
D26*
X380365Y206375D02*
X384810Y210820D01*
X380365Y206375D02*
X380365Y201295D01*
D33*
X330200Y124460D03*
X330200Y137160D03*
X330200Y149860D03*
X330200Y162560D03*
X341630Y124460D03*
X341630Y137160D03*
X341630Y149860D03*
X341630Y162560D03*
X304800Y124460D03*
X304800Y137160D03*
X304800Y149860D03*
X304800Y162560D03*
X316230Y124460D03*
X316230Y137160D03*
X316230Y149860D03*
X316230Y162560D03*
X342900Y187960D03*
X330200Y187960D03*
X317500Y187960D03*
D26*
X442595Y210820D02*
X454025Y199390D01*
X466075Y199390D02*
X475150Y190315D01*
X504360Y190315D01*
X442595Y210820D02*
X384810Y210820D01*
X454025Y199390D02*
X466075Y199390D01*
X346710Y90010D02*
X335503Y78803D01*
X335503Y70073D01*
X325755Y60325D01*
X309245Y60325D01*
X302260Y67310D01*
X302260Y80460D01*
D28*
X69850Y71120D03*
D26*
X77470Y63500D01*
X113030Y63500D01*
X124460Y74930D02*
X124460Y79190D01*
X124460Y74930D02*
X113030Y63500D01*
D30*
X11430Y175895D03*
D26*
X247810Y92710D02*
X248920Y92710D01*
X247810Y92710D02*
X245110Y90010D01*
D28*
X248920Y92710D03*
D26*
X274320Y95250D02*
X283718Y104648D01*
X251460Y95250D02*
X248920Y92710D01*
X251460Y95250D02*
X274320Y95250D01*
X283718Y104648D02*
X360465Y104648D01*
X369074Y96039D02*
X377036Y96039D01*
X369074Y96039D02*
X360465Y104648D01*
D28*
X377036Y96039D03*
X379095Y109220D03*
D33*
X232410Y167640D03*
X219710Y167640D03*
X219710Y154940D03*
X232410Y154940D03*
X232410Y142240D03*
X219710Y142240D03*
X219710Y129540D03*
X232410Y129540D03*
X207010Y167640D03*
X194310Y167640D03*
X194310Y154940D03*
X207010Y154940D03*
X207010Y142240D03*
X194310Y142240D03*
X194310Y129540D03*
X207010Y129540D03*
D26*
X399575Y198755D02*
X400210Y199390D01*
X399575Y198755D02*
X388453Y198755D01*
X388584Y198946D01*
X388620Y198854D02*
X381427Y191661D01*
X379095Y188253D01*
X379095Y109220D01*
D28*
X433705Y184150D03*
X388620Y198854D03*
D26*
X388584Y198946D01*
X435310Y183815D02*
X445600Y183815D01*
X435310Y183815D02*
X434975Y184150D01*
X433705Y184150D01*
X245110Y90010D02*
X233116Y78016D01*
X233116Y69286D01*
X224155Y60325D01*
X205740Y60325D01*
X200660Y65405D01*
X200660Y80460D01*
X99060Y79190D02*
X99060Y86360D01*
X107950Y95250D01*
X137300Y95250D01*
X143510Y90010D01*
X148750Y95250D01*
X172720Y95250D01*
D30*
X48260Y16510D03*
X19050Y16510D03*
X19050Y43180D03*
X46990Y71120D03*
X19050Y71120D03*
X48260Y43180D03*
D26*
X172720Y95250D02*
X180975Y103505D01*
X269374Y103505D01*
X278137Y112268D01*
X367023Y112268D01*
X374896Y104395D01*
X389836Y104395D01*
X420210Y162560D02*
X421560Y163910D01*
X420210Y162560D02*
X420210Y160020D01*
X421560Y162593D02*
X429782Y170815D01*
X445600Y170815D01*
X421560Y163910D02*
X421560Y162593D01*
X99060Y79190D02*
X99060Y71120D01*
X95250Y67310D01*
X82550Y67310D01*
X79728Y74904D02*
X74904Y79728D01*
X53367Y79728D01*
X79728Y70132D02*
X82550Y67310D01*
X48569Y74930D02*
X46990Y74930D01*
X79728Y74904D02*
X79728Y70132D01*
X53367Y79728D02*
X48569Y74930D01*
X417943Y160020D02*
X420210Y160020D01*
X410266Y152343D02*
X410266Y124825D01*
X410266Y152343D02*
X417943Y160020D01*
X410266Y124825D02*
X389836Y104395D01*
D28*
X302260Y95250D03*
D26*
X318770Y95250D01*
X327660Y86360D02*
X327660Y80460D01*
X327660Y86360D02*
X318770Y95250D01*
D28*
X182804Y85166D03*
D26*
X183254Y85166D02*
X187960Y80460D01*
X183254Y85166D02*
X182804Y85166D01*
X162560Y101600D02*
X161290Y100330D01*
X102870Y100330D01*
X86360Y83820D02*
X86360Y79190D01*
X86360Y83820D02*
X102870Y100330D01*
D28*
X73660Y194945D03*
D26*
X171450Y193675D02*
X172720Y194945D01*
X171450Y193675D02*
X74930Y193675D01*
X73660Y194945D01*
D28*
X172720Y194945D03*
X162560Y101600D03*
X187960Y94615D03*
D26*
X226060Y88265D02*
X226060Y80460D01*
X226060Y88265D02*
X219710Y94615D01*
X187960Y94615D01*
X187960Y33020D02*
X187960Y26220D01*
X187960Y33020D02*
X193040Y38100D01*
X245110Y70010D02*
X256540Y70010D01*
X266700Y59850D02*
X266700Y57140D01*
X266700Y59850D02*
X256540Y70010D01*
X260476Y50916D02*
X260476Y45733D01*
X233623Y41966D02*
X229757Y38100D01*
X256709Y41966D02*
X260476Y45733D01*
X256709Y41966D02*
X233623Y41966D01*
X229757Y38100D02*
X193040Y38100D01*
X260476Y50916D02*
X266700Y57140D01*
X86360Y30480D02*
X86360Y24950D01*
X86360Y30480D02*
X92654Y36774D01*
X165100Y57140D02*
X165105Y57145D01*
X165100Y57140D02*
X158876Y50916D01*
X158876Y45733D01*
X132023Y41966D02*
X126831Y36774D01*
X155109Y41966D02*
X158876Y45733D01*
X155109Y41966D02*
X132023Y41966D01*
X126831Y36774D02*
X92654Y36774D01*
X143510Y70010D02*
X156375Y57145D01*
X165105Y57145D01*
X420210Y127160D02*
X420210Y140970D01*
D28*
X420370Y127000D03*
D26*
X420210Y127160D01*
X420310Y121120D02*
X420310Y140870D01*
X420210Y140970D01*
D28*
X492125Y90805D03*
D26*
X490755Y90805D01*
X490690Y90740D01*
D28*
X504825Y93980D03*
D26*
X497905Y66740D02*
X490690Y66740D01*
X504825Y90170D02*
X504825Y93980D01*
X504825Y90170D02*
X501650Y86995D01*
X501650Y70485D01*
X497905Y66740D01*
X490690Y74740D02*
X484695Y74740D01*
X474345Y85090D01*
X464820Y85090D02*
X462915Y86995D01*
X464820Y85090D02*
X474345Y85090D01*
D28*
X462915Y86995D03*
D26*
X361950Y178910D02*
X361950Y197010D01*
X361950Y178910D02*
X361950Y174625D01*
X366395Y179070D01*
D28*
X366395Y179070D03*
X385356Y177800D03*
D26*
X389166Y173990D01*
X389166Y120571D01*
X393700Y116840D02*
X393773Y116913D01*
X389166Y120571D01*
D28*
X393700Y116840D03*
X401631Y106680D03*
D26*
X401691Y106740D02*
X405930Y106740D01*
X401691Y106740D02*
X401631Y106680D01*
M02*
