G04 EAGLE Gerber RS-274X export*
G75*
%MOMM*%
%FSLAX34Y34*%
%LPD*%
%INSilkscreen Top*%
%IPPOS*%
%AMOC8*
5,1,8,0,0,1.08239X$1,22.5*%
G01*
%ADD10C,0.508000*%
%ADD11C,0.228600*%
%ADD12C,0.254000*%
%ADD13C,0.076200*%
%ADD14C,0.200000*%
%ADD15C,0.400000*%
%ADD16C,0.127000*%
%ADD17C,0.101600*%


D10*
X69850Y208915D02*
X85090Y254635D01*
X100330Y208915D01*
X96520Y220345D02*
X73660Y220345D01*
X75565Y147955D02*
X88265Y147955D01*
X88574Y147951D01*
X88883Y147940D01*
X89192Y147921D01*
X89500Y147895D01*
X89808Y147861D01*
X90114Y147820D01*
X90420Y147771D01*
X90724Y147715D01*
X91026Y147651D01*
X91327Y147580D01*
X91627Y147502D01*
X91924Y147417D01*
X92219Y147324D01*
X92512Y147224D01*
X92802Y147117D01*
X93089Y147003D01*
X93374Y146882D01*
X93656Y146754D01*
X93934Y146620D01*
X94209Y146478D01*
X94481Y146330D01*
X94748Y146175D01*
X95012Y146014D01*
X95272Y145847D01*
X95528Y145673D01*
X95780Y145493D01*
X96027Y145307D01*
X96269Y145115D01*
X96507Y144917D01*
X96740Y144714D01*
X96968Y144504D01*
X97190Y144290D01*
X97408Y144070D01*
X97620Y143844D01*
X97826Y143614D01*
X98027Y143379D01*
X98222Y143139D01*
X98411Y142894D01*
X98594Y142645D01*
X98771Y142391D01*
X98941Y142133D01*
X99106Y141871D01*
X99264Y141605D01*
X99415Y141335D01*
X99560Y141062D01*
X99698Y140785D01*
X99829Y140505D01*
X99953Y140222D01*
X100071Y139936D01*
X100181Y139647D01*
X100285Y139356D01*
X100381Y139062D01*
X100470Y138766D01*
X100552Y138467D01*
X100627Y138167D01*
X100694Y137865D01*
X100754Y137562D01*
X100806Y137257D01*
X100851Y136951D01*
X100889Y136644D01*
X100919Y136336D01*
X100941Y136028D01*
X100957Y135719D01*
X100964Y135410D01*
X100964Y135100D01*
X100957Y134791D01*
X100941Y134482D01*
X100919Y134174D01*
X100889Y133866D01*
X100851Y133559D01*
X100806Y133253D01*
X100754Y132948D01*
X100694Y132645D01*
X100627Y132343D01*
X100552Y132043D01*
X100470Y131744D01*
X100381Y131448D01*
X100285Y131154D01*
X100181Y130863D01*
X100071Y130574D01*
X99953Y130288D01*
X99829Y130005D01*
X99698Y129725D01*
X99560Y129448D01*
X99415Y129175D01*
X99264Y128905D01*
X99106Y128639D01*
X98941Y128377D01*
X98771Y128119D01*
X98594Y127865D01*
X98411Y127616D01*
X98222Y127371D01*
X98027Y127131D01*
X97826Y126896D01*
X97620Y126666D01*
X97408Y126440D01*
X97190Y126220D01*
X96968Y126006D01*
X96740Y125796D01*
X96507Y125593D01*
X96269Y125395D01*
X96027Y125203D01*
X95780Y125017D01*
X95528Y124837D01*
X95272Y124663D01*
X95012Y124496D01*
X94748Y124335D01*
X94481Y124180D01*
X94209Y124032D01*
X93934Y123890D01*
X93656Y123756D01*
X93374Y123628D01*
X93089Y123507D01*
X92802Y123393D01*
X92512Y123286D01*
X92219Y123186D01*
X91924Y123093D01*
X91627Y123008D01*
X91327Y122930D01*
X91026Y122859D01*
X90724Y122795D01*
X90420Y122739D01*
X90114Y122690D01*
X89808Y122649D01*
X89500Y122615D01*
X89192Y122589D01*
X88883Y122570D01*
X88574Y122559D01*
X88265Y122555D01*
X75565Y122555D01*
X75565Y168275D01*
X88265Y168275D01*
X88512Y168272D01*
X88760Y168263D01*
X89007Y168248D01*
X89253Y168227D01*
X89499Y168200D01*
X89744Y168167D01*
X89989Y168128D01*
X90232Y168083D01*
X90474Y168032D01*
X90715Y167975D01*
X90954Y167913D01*
X91192Y167844D01*
X91428Y167770D01*
X91662Y167690D01*
X91894Y167605D01*
X92124Y167513D01*
X92352Y167417D01*
X92577Y167314D01*
X92800Y167207D01*
X93020Y167093D01*
X93237Y166975D01*
X93452Y166851D01*
X93663Y166722D01*
X93871Y166588D01*
X94076Y166449D01*
X94277Y166305D01*
X94475Y166157D01*
X94669Y166003D01*
X94859Y165845D01*
X95045Y165682D01*
X95227Y165515D01*
X95405Y165343D01*
X95579Y165167D01*
X95749Y164987D01*
X95914Y164802D01*
X96074Y164614D01*
X96230Y164422D01*
X96382Y164226D01*
X96528Y164027D01*
X96670Y163824D01*
X96806Y163617D01*
X96938Y163408D01*
X97064Y163195D01*
X97185Y162979D01*
X97301Y162761D01*
X97411Y162539D01*
X97516Y162315D01*
X97616Y162089D01*
X97710Y161860D01*
X97798Y161629D01*
X97881Y161395D01*
X97958Y161160D01*
X98029Y160923D01*
X98095Y160685D01*
X98154Y160445D01*
X98208Y160203D01*
X98256Y159960D01*
X98298Y159717D01*
X98334Y159472D01*
X98364Y159226D01*
X98388Y158980D01*
X98406Y158733D01*
X98418Y158486D01*
X98424Y158239D01*
X98424Y157991D01*
X98418Y157744D01*
X98406Y157497D01*
X98388Y157250D01*
X98364Y157004D01*
X98334Y156758D01*
X98298Y156513D01*
X98256Y156270D01*
X98208Y156027D01*
X98154Y155785D01*
X98095Y155545D01*
X98029Y155307D01*
X97958Y155070D01*
X97881Y154835D01*
X97798Y154601D01*
X97710Y154370D01*
X97616Y154141D01*
X97516Y153915D01*
X97411Y153691D01*
X97301Y153469D01*
X97185Y153251D01*
X97064Y153035D01*
X96938Y152822D01*
X96806Y152613D01*
X96670Y152406D01*
X96528Y152203D01*
X96382Y152004D01*
X96230Y151808D01*
X96074Y151616D01*
X95914Y151428D01*
X95749Y151243D01*
X95579Y151063D01*
X95405Y150887D01*
X95227Y150715D01*
X95045Y150548D01*
X94859Y150385D01*
X94669Y150227D01*
X94475Y150073D01*
X94277Y149925D01*
X94076Y149781D01*
X93871Y149642D01*
X93663Y149508D01*
X93452Y149379D01*
X93237Y149255D01*
X93020Y149137D01*
X92800Y149023D01*
X92577Y148916D01*
X92352Y148813D01*
X92124Y148717D01*
X91894Y148625D01*
X91662Y148540D01*
X91428Y148460D01*
X91192Y148386D01*
X90954Y148317D01*
X90715Y148255D01*
X90474Y148198D01*
X90232Y148147D01*
X89989Y148102D01*
X89744Y148063D01*
X89499Y148030D01*
X89253Y148003D01*
X89007Y147982D01*
X88760Y147967D01*
X88512Y147958D01*
X88265Y147955D01*
D11*
X73970Y32893D02*
X69624Y32893D01*
X69495Y32895D01*
X69367Y32901D01*
X69238Y32910D01*
X69110Y32924D01*
X68982Y32941D01*
X68855Y32962D01*
X68729Y32986D01*
X68603Y33015D01*
X68478Y33047D01*
X68355Y33082D01*
X68232Y33122D01*
X68111Y33165D01*
X67991Y33212D01*
X67872Y33262D01*
X67755Y33315D01*
X67639Y33373D01*
X67526Y33433D01*
X67414Y33497D01*
X67304Y33564D01*
X67196Y33634D01*
X67090Y33708D01*
X66987Y33785D01*
X66886Y33864D01*
X66787Y33947D01*
X66691Y34032D01*
X66597Y34121D01*
X66506Y34212D01*
X66417Y34306D01*
X66332Y34402D01*
X66249Y34501D01*
X66170Y34602D01*
X66093Y34705D01*
X66019Y34811D01*
X65949Y34919D01*
X65882Y35029D01*
X65818Y35141D01*
X65758Y35254D01*
X65700Y35370D01*
X65647Y35487D01*
X65597Y35606D01*
X65550Y35726D01*
X65507Y35847D01*
X65467Y35970D01*
X65432Y36093D01*
X65400Y36218D01*
X65371Y36344D01*
X65347Y36470D01*
X65326Y36597D01*
X65309Y36725D01*
X65295Y36853D01*
X65286Y36982D01*
X65280Y37110D01*
X65278Y37239D01*
X65278Y48105D01*
X65280Y48236D01*
X65286Y48367D01*
X65296Y48498D01*
X65310Y48629D01*
X65327Y48759D01*
X65349Y48888D01*
X65375Y49017D01*
X65404Y49145D01*
X65438Y49272D01*
X65475Y49398D01*
X65516Y49523D01*
X65560Y49646D01*
X65609Y49768D01*
X65661Y49889D01*
X65717Y50008D01*
X65776Y50125D01*
X65839Y50240D01*
X65905Y50353D01*
X65974Y50465D01*
X66047Y50574D01*
X66124Y50681D01*
X66203Y50785D01*
X66285Y50887D01*
X66371Y50987D01*
X66459Y51084D01*
X66551Y51178D01*
X66645Y51269D01*
X66742Y51358D01*
X66842Y51444D01*
X66944Y51526D01*
X67048Y51605D01*
X67155Y51682D01*
X67264Y51755D01*
X67376Y51824D01*
X67489Y51890D01*
X67604Y51953D01*
X67721Y52012D01*
X67840Y52068D01*
X67961Y52120D01*
X68083Y52169D01*
X68206Y52213D01*
X68331Y52254D01*
X68457Y52291D01*
X68584Y52325D01*
X68712Y52354D01*
X68841Y52380D01*
X68970Y52402D01*
X69100Y52419D01*
X69231Y52433D01*
X69362Y52443D01*
X69493Y52449D01*
X69624Y52451D01*
X73970Y52451D01*
D12*
X137795Y235585D02*
X144145Y235585D01*
X137795Y235585D02*
X137673Y235587D01*
X137551Y235593D01*
X137429Y235603D01*
X137308Y235616D01*
X137187Y235634D01*
X137067Y235655D01*
X136947Y235681D01*
X136829Y235710D01*
X136711Y235742D01*
X136594Y235779D01*
X136479Y235819D01*
X136365Y235863D01*
X136253Y235911D01*
X136142Y235962D01*
X136033Y236017D01*
X135925Y236075D01*
X135820Y236137D01*
X135717Y236202D01*
X135615Y236270D01*
X135516Y236342D01*
X135420Y236416D01*
X135325Y236494D01*
X135234Y236575D01*
X135144Y236658D01*
X135058Y236744D01*
X134975Y236834D01*
X134894Y236925D01*
X134816Y237020D01*
X134742Y237116D01*
X134670Y237215D01*
X134602Y237317D01*
X134537Y237420D01*
X134475Y237525D01*
X134417Y237633D01*
X134362Y237742D01*
X134311Y237853D01*
X134263Y237965D01*
X134219Y238079D01*
X134179Y238194D01*
X134142Y238311D01*
X134110Y238429D01*
X134081Y238547D01*
X134055Y238667D01*
X134034Y238787D01*
X134016Y238908D01*
X134003Y239029D01*
X133993Y239151D01*
X133987Y239273D01*
X133985Y239395D01*
X133985Y247015D01*
X133987Y247137D01*
X133993Y247259D01*
X134003Y247381D01*
X134016Y247502D01*
X134034Y247623D01*
X134055Y247743D01*
X134081Y247863D01*
X134110Y247981D01*
X134142Y248099D01*
X134179Y248216D01*
X134219Y248331D01*
X134263Y248445D01*
X134311Y248557D01*
X134362Y248668D01*
X134417Y248777D01*
X134475Y248885D01*
X134537Y248990D01*
X134602Y249093D01*
X134670Y249195D01*
X134742Y249294D01*
X134816Y249390D01*
X134894Y249485D01*
X134975Y249576D01*
X135058Y249666D01*
X135144Y249752D01*
X135234Y249835D01*
X135325Y249916D01*
X135420Y249994D01*
X135516Y250068D01*
X135615Y250140D01*
X135717Y250208D01*
X135820Y250273D01*
X135925Y250335D01*
X136033Y250393D01*
X136142Y250448D01*
X136253Y250499D01*
X136365Y250547D01*
X136479Y250591D01*
X136594Y250631D01*
X136711Y250668D01*
X136829Y250700D01*
X136947Y250729D01*
X137067Y250755D01*
X137187Y250776D01*
X137308Y250794D01*
X137429Y250807D01*
X137551Y250817D01*
X137673Y250823D01*
X137795Y250825D01*
X144145Y250825D01*
X144145Y231775D01*
X144143Y231653D01*
X144137Y231531D01*
X144127Y231409D01*
X144114Y231288D01*
X144096Y231167D01*
X144075Y231047D01*
X144049Y230927D01*
X144020Y230809D01*
X143988Y230691D01*
X143951Y230574D01*
X143911Y230459D01*
X143867Y230345D01*
X143819Y230233D01*
X143768Y230122D01*
X143713Y230013D01*
X143655Y229905D01*
X143593Y229800D01*
X143528Y229697D01*
X143460Y229595D01*
X143388Y229496D01*
X143314Y229400D01*
X143236Y229305D01*
X143155Y229214D01*
X143072Y229124D01*
X142986Y229038D01*
X142896Y228955D01*
X142805Y228874D01*
X142710Y228796D01*
X142614Y228722D01*
X142515Y228650D01*
X142413Y228582D01*
X142310Y228517D01*
X142205Y228455D01*
X142097Y228397D01*
X141988Y228342D01*
X141877Y228291D01*
X141765Y228243D01*
X141651Y228199D01*
X141536Y228159D01*
X141419Y228122D01*
X141301Y228090D01*
X141183Y228061D01*
X141063Y228035D01*
X140943Y228014D01*
X140822Y227996D01*
X140701Y227983D01*
X140579Y227973D01*
X140457Y227967D01*
X140335Y227965D01*
X135255Y227965D01*
X153538Y239395D02*
X153538Y250825D01*
X153538Y239395D02*
X153540Y239273D01*
X153546Y239151D01*
X153556Y239029D01*
X153569Y238908D01*
X153587Y238787D01*
X153608Y238667D01*
X153634Y238547D01*
X153663Y238429D01*
X153695Y238311D01*
X153732Y238194D01*
X153772Y238079D01*
X153816Y237965D01*
X153864Y237853D01*
X153915Y237742D01*
X153970Y237633D01*
X154028Y237525D01*
X154090Y237420D01*
X154155Y237317D01*
X154223Y237215D01*
X154295Y237116D01*
X154369Y237020D01*
X154447Y236925D01*
X154528Y236834D01*
X154611Y236744D01*
X154697Y236658D01*
X154787Y236575D01*
X154878Y236494D01*
X154973Y236416D01*
X155069Y236342D01*
X155168Y236270D01*
X155270Y236202D01*
X155373Y236137D01*
X155478Y236075D01*
X155586Y236017D01*
X155695Y235962D01*
X155806Y235911D01*
X155918Y235863D01*
X156032Y235819D01*
X156147Y235779D01*
X156264Y235742D01*
X156382Y235710D01*
X156500Y235681D01*
X156620Y235655D01*
X156740Y235634D01*
X156861Y235616D01*
X156982Y235603D01*
X157104Y235593D01*
X157226Y235587D01*
X157348Y235585D01*
X163698Y235585D01*
X163698Y250825D01*
X174234Y244475D02*
X180584Y241935D01*
X174234Y244475D02*
X174129Y244519D01*
X174025Y244567D01*
X173923Y244618D01*
X173823Y244673D01*
X173725Y244731D01*
X173629Y244793D01*
X173535Y244858D01*
X173443Y244927D01*
X173354Y244998D01*
X173267Y245073D01*
X173183Y245150D01*
X173102Y245230D01*
X173024Y245313D01*
X172948Y245399D01*
X172876Y245487D01*
X172806Y245578D01*
X172740Y245671D01*
X172677Y245767D01*
X172618Y245864D01*
X172562Y245964D01*
X172509Y246065D01*
X172460Y246168D01*
X172414Y246273D01*
X172372Y246379D01*
X172334Y246487D01*
X172300Y246596D01*
X172269Y246706D01*
X172243Y246817D01*
X172220Y246929D01*
X172201Y247041D01*
X172186Y247155D01*
X172175Y247268D01*
X172167Y247382D01*
X172164Y247497D01*
X172165Y247611D01*
X172170Y247725D01*
X172178Y247839D01*
X172191Y247952D01*
X172207Y248065D01*
X172228Y248178D01*
X172252Y248289D01*
X172280Y248400D01*
X172313Y248510D01*
X172348Y248618D01*
X172388Y248725D01*
X172431Y248831D01*
X172478Y248935D01*
X172528Y249038D01*
X172582Y249138D01*
X172640Y249237D01*
X172701Y249334D01*
X172765Y249428D01*
X172832Y249521D01*
X172903Y249611D01*
X172976Y249698D01*
X173053Y249783D01*
X173133Y249865D01*
X173215Y249944D01*
X173300Y250020D01*
X173388Y250093D01*
X173478Y250164D01*
X173570Y250231D01*
X173665Y250295D01*
X173762Y250355D01*
X173861Y250412D01*
X173962Y250466D01*
X174064Y250516D01*
X174169Y250562D01*
X174274Y250605D01*
X174382Y250644D01*
X174490Y250680D01*
X174600Y250712D01*
X174711Y250739D01*
X174823Y250763D01*
X174935Y250783D01*
X175048Y250800D01*
X175162Y250812D01*
X175276Y250820D01*
X175390Y250824D01*
X175504Y250825D01*
X175851Y250815D01*
X176197Y250798D01*
X176543Y250772D01*
X176888Y250738D01*
X177232Y250696D01*
X177575Y250645D01*
X177917Y250586D01*
X178257Y250519D01*
X178596Y250444D01*
X178932Y250361D01*
X179267Y250269D01*
X179599Y250170D01*
X179929Y250062D01*
X180256Y249947D01*
X180580Y249824D01*
X180901Y249693D01*
X181219Y249555D01*
X180584Y241935D02*
X180689Y241891D01*
X180793Y241843D01*
X180895Y241792D01*
X180995Y241737D01*
X181093Y241679D01*
X181189Y241617D01*
X181283Y241552D01*
X181375Y241483D01*
X181464Y241412D01*
X181551Y241337D01*
X181635Y241260D01*
X181716Y241180D01*
X181794Y241097D01*
X181870Y241011D01*
X181942Y240923D01*
X182012Y240832D01*
X182078Y240739D01*
X182141Y240643D01*
X182200Y240546D01*
X182256Y240446D01*
X182309Y240345D01*
X182358Y240242D01*
X182404Y240137D01*
X182446Y240031D01*
X182484Y239923D01*
X182518Y239814D01*
X182549Y239704D01*
X182575Y239593D01*
X182598Y239481D01*
X182617Y239369D01*
X182632Y239255D01*
X182643Y239142D01*
X182651Y239028D01*
X182654Y238913D01*
X182653Y238799D01*
X182648Y238685D01*
X182640Y238571D01*
X182627Y238458D01*
X182611Y238345D01*
X182590Y238232D01*
X182566Y238121D01*
X182538Y238010D01*
X182505Y237900D01*
X182470Y237792D01*
X182430Y237685D01*
X182387Y237579D01*
X182340Y237475D01*
X182290Y237372D01*
X182236Y237272D01*
X182178Y237173D01*
X182117Y237076D01*
X182053Y236982D01*
X181986Y236889D01*
X181915Y236799D01*
X181842Y236712D01*
X181765Y236627D01*
X181685Y236545D01*
X181603Y236466D01*
X181518Y236390D01*
X181430Y236317D01*
X181340Y236246D01*
X181248Y236179D01*
X181153Y236115D01*
X181056Y236055D01*
X180957Y235998D01*
X180856Y235944D01*
X180754Y235894D01*
X180649Y235848D01*
X180544Y235805D01*
X180436Y235766D01*
X180328Y235730D01*
X180218Y235698D01*
X180107Y235671D01*
X179995Y235647D01*
X179883Y235627D01*
X179770Y235610D01*
X179656Y235598D01*
X179542Y235590D01*
X179428Y235586D01*
X179314Y235585D01*
X178805Y235598D01*
X178296Y235624D01*
X177788Y235661D01*
X177281Y235711D01*
X176776Y235772D01*
X176271Y235845D01*
X175769Y235930D01*
X175269Y236027D01*
X174771Y236136D01*
X174276Y236257D01*
X173784Y236389D01*
X173296Y236533D01*
X172811Y236688D01*
X172329Y236855D01*
X194234Y235585D02*
X200584Y235585D01*
X194234Y235585D02*
X194112Y235587D01*
X193990Y235593D01*
X193868Y235603D01*
X193747Y235616D01*
X193626Y235634D01*
X193506Y235655D01*
X193386Y235681D01*
X193268Y235710D01*
X193150Y235742D01*
X193033Y235779D01*
X192918Y235819D01*
X192804Y235863D01*
X192692Y235911D01*
X192581Y235962D01*
X192472Y236017D01*
X192364Y236075D01*
X192259Y236137D01*
X192156Y236202D01*
X192054Y236270D01*
X191955Y236342D01*
X191859Y236416D01*
X191764Y236494D01*
X191673Y236575D01*
X191583Y236658D01*
X191497Y236744D01*
X191414Y236834D01*
X191333Y236925D01*
X191255Y237020D01*
X191181Y237116D01*
X191109Y237215D01*
X191041Y237317D01*
X190976Y237420D01*
X190914Y237525D01*
X190856Y237633D01*
X190801Y237742D01*
X190750Y237853D01*
X190702Y237965D01*
X190658Y238079D01*
X190618Y238194D01*
X190581Y238311D01*
X190549Y238429D01*
X190520Y238547D01*
X190494Y238667D01*
X190473Y238787D01*
X190455Y238908D01*
X190442Y239029D01*
X190432Y239151D01*
X190426Y239273D01*
X190424Y239395D01*
X190424Y245745D01*
X190426Y245886D01*
X190432Y246027D01*
X190442Y246168D01*
X190455Y246309D01*
X190473Y246449D01*
X190495Y246588D01*
X190520Y246727D01*
X190549Y246866D01*
X190582Y247003D01*
X190619Y247139D01*
X190660Y247274D01*
X190704Y247409D01*
X190752Y247541D01*
X190804Y247673D01*
X190859Y247803D01*
X190918Y247931D01*
X190981Y248058D01*
X191047Y248182D01*
X191116Y248305D01*
X191189Y248426D01*
X191265Y248545D01*
X191345Y248662D01*
X191428Y248776D01*
X191513Y248889D01*
X191602Y248998D01*
X191694Y249106D01*
X191789Y249210D01*
X191887Y249312D01*
X191988Y249411D01*
X192091Y249508D01*
X192197Y249601D01*
X192305Y249691D01*
X192416Y249779D01*
X192529Y249863D01*
X192645Y249944D01*
X192763Y250022D01*
X192883Y250097D01*
X193005Y250168D01*
X193129Y250236D01*
X193255Y250300D01*
X193382Y250361D01*
X193511Y250418D01*
X193642Y250471D01*
X193774Y250521D01*
X193907Y250568D01*
X194042Y250610D01*
X194178Y250649D01*
X194315Y250684D01*
X194452Y250715D01*
X194591Y250742D01*
X194730Y250766D01*
X194870Y250785D01*
X195010Y250801D01*
X195151Y250813D01*
X195292Y250821D01*
X195433Y250825D01*
X195575Y250825D01*
X195716Y250821D01*
X195857Y250813D01*
X195998Y250801D01*
X196138Y250785D01*
X196278Y250766D01*
X196417Y250742D01*
X196556Y250715D01*
X196693Y250684D01*
X196830Y250649D01*
X196966Y250610D01*
X197101Y250568D01*
X197234Y250521D01*
X197366Y250471D01*
X197497Y250418D01*
X197626Y250361D01*
X197753Y250300D01*
X197879Y250236D01*
X198003Y250168D01*
X198125Y250097D01*
X198245Y250022D01*
X198363Y249944D01*
X198479Y249863D01*
X198592Y249779D01*
X198703Y249691D01*
X198811Y249601D01*
X198917Y249508D01*
X199020Y249411D01*
X199121Y249312D01*
X199219Y249210D01*
X199314Y249106D01*
X199406Y248998D01*
X199495Y248889D01*
X199580Y248776D01*
X199663Y248662D01*
X199743Y248545D01*
X199819Y248426D01*
X199892Y248305D01*
X199961Y248182D01*
X200027Y248058D01*
X200090Y247931D01*
X200149Y247803D01*
X200204Y247673D01*
X200256Y247541D01*
X200304Y247409D01*
X200348Y247274D01*
X200389Y247139D01*
X200426Y247003D01*
X200459Y246866D01*
X200488Y246727D01*
X200513Y246588D01*
X200535Y246449D01*
X200553Y246309D01*
X200566Y246168D01*
X200576Y246027D01*
X200582Y245886D01*
X200584Y245745D01*
X200584Y243205D01*
X190424Y243205D01*
X209298Y235585D02*
X209298Y250825D01*
X216918Y250825D01*
X216918Y248285D01*
X230241Y258445D02*
X230391Y258443D01*
X230540Y258437D01*
X230689Y258427D01*
X230838Y258414D01*
X230987Y258396D01*
X231135Y258375D01*
X231282Y258349D01*
X231429Y258320D01*
X231575Y258287D01*
X231720Y258250D01*
X231864Y258210D01*
X232007Y258165D01*
X232149Y258117D01*
X232289Y258065D01*
X232428Y258010D01*
X232565Y257951D01*
X232701Y257888D01*
X232836Y257822D01*
X232968Y257752D01*
X233099Y257679D01*
X233227Y257603D01*
X233354Y257523D01*
X233478Y257440D01*
X233600Y257354D01*
X233720Y257264D01*
X233838Y257171D01*
X233953Y257076D01*
X234065Y256977D01*
X234175Y256876D01*
X234282Y256771D01*
X234387Y256664D01*
X234488Y256554D01*
X234587Y256442D01*
X234682Y256327D01*
X234775Y256209D01*
X234865Y256089D01*
X234951Y255967D01*
X235034Y255843D01*
X235114Y255716D01*
X235190Y255588D01*
X235263Y255457D01*
X235333Y255325D01*
X235399Y255190D01*
X235462Y255054D01*
X235521Y254917D01*
X235576Y254778D01*
X235628Y254638D01*
X235676Y254496D01*
X235721Y254353D01*
X235761Y254209D01*
X235798Y254064D01*
X235831Y253918D01*
X235860Y253771D01*
X235886Y253624D01*
X235907Y253476D01*
X235925Y253327D01*
X235938Y253178D01*
X235948Y253029D01*
X235954Y252880D01*
X235956Y252730D01*
X230241Y258445D02*
X230063Y258443D01*
X229886Y258436D01*
X229709Y258426D01*
X229532Y258411D01*
X229355Y258391D01*
X229179Y258368D01*
X229004Y258340D01*
X228829Y258308D01*
X228656Y258272D01*
X228483Y258231D01*
X228311Y258187D01*
X228140Y258138D01*
X227971Y258085D01*
X227802Y258028D01*
X227636Y257967D01*
X227470Y257902D01*
X227307Y257833D01*
X227145Y257760D01*
X226985Y257683D01*
X226827Y257603D01*
X226670Y257518D01*
X226516Y257430D01*
X226364Y257338D01*
X226215Y257243D01*
X226067Y257143D01*
X225923Y257041D01*
X225780Y256935D01*
X225641Y256825D01*
X225504Y256712D01*
X225369Y256596D01*
X225238Y256476D01*
X225109Y256354D01*
X224984Y256228D01*
X224862Y256100D01*
X224742Y255968D01*
X224626Y255834D01*
X224514Y255697D01*
X224404Y255557D01*
X224298Y255414D01*
X224196Y255269D01*
X224097Y255122D01*
X224001Y254972D01*
X223909Y254820D01*
X223821Y254666D01*
X223737Y254510D01*
X223657Y254351D01*
X223580Y254191D01*
X223507Y254029D01*
X223439Y253866D01*
X223374Y253700D01*
X223313Y253533D01*
X223256Y253365D01*
X234051Y248285D02*
X234162Y248394D01*
X234271Y248505D01*
X234376Y248619D01*
X234479Y248736D01*
X234578Y248855D01*
X234675Y248977D01*
X234768Y249101D01*
X234858Y249227D01*
X234945Y249356D01*
X235029Y249487D01*
X235109Y249620D01*
X235187Y249754D01*
X235260Y249891D01*
X235330Y250030D01*
X235397Y250170D01*
X235460Y250312D01*
X235519Y250456D01*
X235575Y250601D01*
X235627Y250747D01*
X235675Y250895D01*
X235720Y251043D01*
X235761Y251193D01*
X235797Y251344D01*
X235831Y251496D01*
X235860Y251648D01*
X235885Y251802D01*
X235907Y251955D01*
X235925Y252110D01*
X235938Y252264D01*
X235948Y252419D01*
X235954Y252575D01*
X235956Y252730D01*
X234051Y248285D02*
X223256Y235585D01*
X235956Y235585D01*
X244135Y253365D02*
X250485Y258445D01*
X250485Y235585D01*
X244135Y235585D02*
X256835Y235585D01*
X265014Y247015D02*
X265019Y247465D01*
X265035Y247914D01*
X265062Y248363D01*
X265100Y248811D01*
X265148Y249258D01*
X265207Y249704D01*
X265276Y250148D01*
X265357Y250591D01*
X265447Y251031D01*
X265548Y251470D01*
X265660Y251905D01*
X265782Y252338D01*
X265914Y252768D01*
X266056Y253195D01*
X266209Y253618D01*
X266372Y254037D01*
X266544Y254452D01*
X266727Y254863D01*
X266919Y255270D01*
X266918Y255270D02*
X266964Y255398D01*
X267013Y255524D01*
X267066Y255649D01*
X267123Y255772D01*
X267183Y255893D01*
X267247Y256013D01*
X267314Y256131D01*
X267384Y256246D01*
X267458Y256360D01*
X267535Y256472D01*
X267615Y256581D01*
X267699Y256688D01*
X267785Y256792D01*
X267875Y256894D01*
X267967Y256994D01*
X268062Y257090D01*
X268160Y257184D01*
X268260Y257275D01*
X268363Y257363D01*
X268469Y257448D01*
X268577Y257530D01*
X268687Y257609D01*
X268800Y257684D01*
X268914Y257757D01*
X269031Y257826D01*
X269150Y257891D01*
X269270Y257953D01*
X269392Y258012D01*
X269516Y258067D01*
X269642Y258118D01*
X269769Y258166D01*
X269897Y258210D01*
X270026Y258251D01*
X270157Y258288D01*
X270288Y258320D01*
X270421Y258350D01*
X270554Y258375D01*
X270688Y258396D01*
X270822Y258414D01*
X270957Y258427D01*
X271092Y258437D01*
X271227Y258443D01*
X271363Y258445D01*
X271499Y258443D01*
X271634Y258437D01*
X271769Y258427D01*
X271904Y258414D01*
X272038Y258396D01*
X272172Y258375D01*
X272305Y258350D01*
X272438Y258320D01*
X272569Y258288D01*
X272700Y258251D01*
X272829Y258210D01*
X272957Y258166D01*
X273084Y258118D01*
X273210Y258067D01*
X273334Y258012D01*
X273456Y257953D01*
X273576Y257891D01*
X273695Y257826D01*
X273812Y257757D01*
X273926Y257684D01*
X274039Y257609D01*
X274149Y257530D01*
X274257Y257448D01*
X274363Y257363D01*
X274466Y257275D01*
X274566Y257184D01*
X274664Y257090D01*
X274759Y256994D01*
X274851Y256894D01*
X274941Y256792D01*
X275027Y256688D01*
X275111Y256581D01*
X275191Y256472D01*
X275268Y256360D01*
X275342Y256246D01*
X275412Y256131D01*
X275479Y256013D01*
X275543Y255893D01*
X275603Y255772D01*
X275660Y255649D01*
X275713Y255524D01*
X275762Y255398D01*
X275808Y255270D01*
X276000Y254863D01*
X276183Y254452D01*
X276355Y254037D01*
X276518Y253618D01*
X276671Y253195D01*
X276813Y252768D01*
X276945Y252338D01*
X277067Y251905D01*
X277179Y251470D01*
X277280Y251031D01*
X277370Y250591D01*
X277451Y250148D01*
X277520Y249704D01*
X277579Y249258D01*
X277627Y248811D01*
X277665Y248363D01*
X277692Y247914D01*
X277708Y247465D01*
X277713Y247015D01*
X265014Y247015D02*
X265019Y246565D01*
X265035Y246116D01*
X265062Y245667D01*
X265100Y245219D01*
X265148Y244772D01*
X265207Y244326D01*
X265276Y243882D01*
X265357Y243439D01*
X265447Y242999D01*
X265548Y242560D01*
X265660Y242125D01*
X265782Y241692D01*
X265914Y241262D01*
X266056Y240835D01*
X266209Y240412D01*
X266372Y239993D01*
X266544Y239578D01*
X266727Y239167D01*
X266919Y238760D01*
X266918Y238760D02*
X266964Y238632D01*
X267013Y238506D01*
X267066Y238381D01*
X267123Y238258D01*
X267183Y238137D01*
X267247Y238017D01*
X267314Y237899D01*
X267384Y237784D01*
X267458Y237670D01*
X267535Y237558D01*
X267615Y237449D01*
X267699Y237342D01*
X267785Y237238D01*
X267875Y237136D01*
X267967Y237036D01*
X268062Y236940D01*
X268160Y236846D01*
X268260Y236755D01*
X268363Y236667D01*
X268469Y236582D01*
X268577Y236500D01*
X268687Y236421D01*
X268800Y236346D01*
X268914Y236273D01*
X269031Y236204D01*
X269150Y236139D01*
X269270Y236077D01*
X269392Y236018D01*
X269516Y235963D01*
X269642Y235912D01*
X269769Y235864D01*
X269897Y235820D01*
X270026Y235779D01*
X270157Y235742D01*
X270288Y235710D01*
X270421Y235680D01*
X270554Y235655D01*
X270688Y235634D01*
X270822Y235616D01*
X270957Y235603D01*
X271092Y235593D01*
X271227Y235587D01*
X271363Y235585D01*
X275808Y238760D02*
X276000Y239167D01*
X276183Y239578D01*
X276355Y239993D01*
X276518Y240412D01*
X276671Y240835D01*
X276813Y241262D01*
X276945Y241692D01*
X277067Y242125D01*
X277179Y242560D01*
X277280Y242999D01*
X277370Y243439D01*
X277451Y243882D01*
X277520Y244326D01*
X277579Y244772D01*
X277627Y245219D01*
X277665Y245667D01*
X277692Y246116D01*
X277708Y246565D01*
X277713Y247015D01*
X275808Y238760D02*
X275762Y238632D01*
X275713Y238506D01*
X275660Y238381D01*
X275603Y238258D01*
X275543Y238137D01*
X275479Y238017D01*
X275412Y237899D01*
X275342Y237784D01*
X275268Y237670D01*
X275191Y237558D01*
X275111Y237449D01*
X275027Y237342D01*
X274941Y237238D01*
X274851Y237136D01*
X274759Y237036D01*
X274664Y236940D01*
X274566Y236846D01*
X274466Y236755D01*
X274363Y236667D01*
X274257Y236582D01*
X274149Y236500D01*
X274039Y236421D01*
X273926Y236346D01*
X273812Y236273D01*
X273695Y236204D01*
X273576Y236139D01*
X273456Y236077D01*
X273334Y236018D01*
X273210Y235963D01*
X273084Y235912D01*
X272957Y235864D01*
X272829Y235820D01*
X272700Y235779D01*
X272569Y235742D01*
X272438Y235710D01*
X272305Y235680D01*
X272172Y235655D01*
X272038Y235634D01*
X271904Y235616D01*
X271769Y235603D01*
X271634Y235593D01*
X271499Y235587D01*
X271363Y235585D01*
X266283Y240665D02*
X276443Y253365D01*
X144145Y197485D02*
X133985Y197485D01*
X133985Y220345D01*
X144145Y220345D01*
X141605Y210185D02*
X133985Y210185D01*
X158276Y197485D02*
X158416Y197487D01*
X158556Y197493D01*
X158696Y197502D01*
X158835Y197516D01*
X158974Y197533D01*
X159112Y197554D01*
X159250Y197579D01*
X159387Y197608D01*
X159523Y197640D01*
X159658Y197677D01*
X159792Y197717D01*
X159925Y197760D01*
X160057Y197808D01*
X160188Y197858D01*
X160317Y197913D01*
X160444Y197971D01*
X160570Y198032D01*
X160694Y198097D01*
X160816Y198166D01*
X160936Y198237D01*
X161054Y198312D01*
X161171Y198390D01*
X161285Y198472D01*
X161396Y198556D01*
X161505Y198644D01*
X161612Y198734D01*
X161717Y198828D01*
X161818Y198924D01*
X161917Y199023D01*
X162013Y199124D01*
X162107Y199229D01*
X162197Y199336D01*
X162285Y199445D01*
X162369Y199556D01*
X162451Y199670D01*
X162529Y199787D01*
X162604Y199905D01*
X162675Y200025D01*
X162744Y200147D01*
X162809Y200271D01*
X162870Y200397D01*
X162928Y200524D01*
X162983Y200653D01*
X163033Y200784D01*
X163081Y200916D01*
X163124Y201049D01*
X163164Y201183D01*
X163201Y201318D01*
X163233Y201454D01*
X163262Y201591D01*
X163287Y201729D01*
X163308Y201867D01*
X163325Y202006D01*
X163339Y202145D01*
X163348Y202285D01*
X163354Y202425D01*
X163356Y202565D01*
X158276Y197485D02*
X158019Y197488D01*
X157763Y197497D01*
X157506Y197513D01*
X157250Y197534D01*
X156995Y197562D01*
X156741Y197595D01*
X156487Y197635D01*
X156234Y197681D01*
X155983Y197733D01*
X155733Y197791D01*
X155484Y197855D01*
X155237Y197924D01*
X154991Y198000D01*
X154748Y198081D01*
X154506Y198169D01*
X154267Y198262D01*
X154030Y198361D01*
X153795Y198465D01*
X153563Y198575D01*
X153334Y198691D01*
X153108Y198811D01*
X152884Y198938D01*
X152664Y199069D01*
X152446Y199206D01*
X152232Y199348D01*
X152022Y199496D01*
X151815Y199648D01*
X151612Y199805D01*
X151413Y199967D01*
X151217Y200133D01*
X151026Y200304D01*
X150839Y200480D01*
X150656Y200660D01*
X151291Y215265D02*
X151293Y215405D01*
X151299Y215545D01*
X151308Y215685D01*
X151322Y215824D01*
X151339Y215963D01*
X151360Y216101D01*
X151385Y216239D01*
X151414Y216376D01*
X151446Y216512D01*
X151483Y216647D01*
X151523Y216781D01*
X151566Y216914D01*
X151614Y217046D01*
X151664Y217177D01*
X151719Y217306D01*
X151777Y217433D01*
X151838Y217559D01*
X151903Y217683D01*
X151972Y217805D01*
X152043Y217925D01*
X152118Y218043D01*
X152196Y218160D01*
X152278Y218274D01*
X152362Y218385D01*
X152450Y218494D01*
X152540Y218601D01*
X152634Y218706D01*
X152730Y218807D01*
X152829Y218906D01*
X152930Y219002D01*
X153035Y219096D01*
X153142Y219186D01*
X153251Y219274D01*
X153362Y219358D01*
X153476Y219440D01*
X153593Y219518D01*
X153711Y219593D01*
X153831Y219664D01*
X153953Y219733D01*
X154077Y219798D01*
X154203Y219859D01*
X154330Y219917D01*
X154459Y219972D01*
X154590Y220022D01*
X154722Y220070D01*
X154855Y220113D01*
X154989Y220153D01*
X155124Y220190D01*
X155260Y220222D01*
X155397Y220251D01*
X155535Y220276D01*
X155673Y220297D01*
X155812Y220314D01*
X155951Y220328D01*
X156091Y220337D01*
X156231Y220343D01*
X156371Y220345D01*
X156598Y220342D01*
X156825Y220334D01*
X157051Y220321D01*
X157278Y220302D01*
X157503Y220277D01*
X157728Y220248D01*
X157953Y220213D01*
X158176Y220172D01*
X158398Y220127D01*
X158620Y220076D01*
X158840Y220020D01*
X159058Y219958D01*
X159275Y219891D01*
X159491Y219820D01*
X159704Y219743D01*
X159916Y219661D01*
X160125Y219574D01*
X160333Y219482D01*
X160538Y219385D01*
X160741Y219283D01*
X160942Y219177D01*
X161140Y219065D01*
X161335Y218949D01*
X161527Y218829D01*
X161716Y218704D01*
X161903Y218574D01*
X162086Y218440D01*
X153832Y210820D02*
X153711Y210894D01*
X153593Y210970D01*
X153477Y211050D01*
X153363Y211133D01*
X153251Y211218D01*
X153142Y211307D01*
X153035Y211399D01*
X152930Y211494D01*
X152829Y211592D01*
X152730Y211692D01*
X152633Y211795D01*
X152540Y211901D01*
X152450Y212009D01*
X152362Y212119D01*
X152278Y212232D01*
X152196Y212347D01*
X152118Y212465D01*
X152043Y212584D01*
X151972Y212705D01*
X151903Y212829D01*
X151839Y212954D01*
X151777Y213081D01*
X151719Y213209D01*
X151665Y213339D01*
X151614Y213471D01*
X151567Y213604D01*
X151523Y213738D01*
X151483Y213873D01*
X151447Y214009D01*
X151415Y214146D01*
X151386Y214284D01*
X151361Y214423D01*
X151340Y214562D01*
X151323Y214702D01*
X151309Y214843D01*
X151300Y214983D01*
X151294Y215124D01*
X151292Y215265D01*
X160816Y207010D02*
X160937Y206936D01*
X161055Y206860D01*
X161171Y206780D01*
X161285Y206697D01*
X161397Y206612D01*
X161506Y206523D01*
X161613Y206431D01*
X161718Y206336D01*
X161819Y206238D01*
X161918Y206138D01*
X162015Y206035D01*
X162108Y205929D01*
X162198Y205821D01*
X162286Y205711D01*
X162370Y205598D01*
X162452Y205483D01*
X162530Y205365D01*
X162605Y205246D01*
X162676Y205125D01*
X162745Y205001D01*
X162809Y204876D01*
X162871Y204749D01*
X162929Y204621D01*
X162983Y204491D01*
X163034Y204359D01*
X163081Y204226D01*
X163125Y204092D01*
X163165Y203957D01*
X163201Y203821D01*
X163233Y203684D01*
X163262Y203546D01*
X163287Y203407D01*
X163308Y203268D01*
X163325Y203128D01*
X163339Y202987D01*
X163348Y202847D01*
X163354Y202706D01*
X163356Y202565D01*
X160816Y207010D02*
X153831Y210820D01*
X175888Y197485D02*
X180968Y197485D01*
X175888Y197485D02*
X175748Y197487D01*
X175608Y197493D01*
X175468Y197502D01*
X175329Y197516D01*
X175190Y197533D01*
X175052Y197554D01*
X174914Y197579D01*
X174777Y197608D01*
X174641Y197640D01*
X174506Y197677D01*
X174372Y197717D01*
X174239Y197760D01*
X174107Y197808D01*
X173976Y197858D01*
X173847Y197913D01*
X173720Y197971D01*
X173594Y198032D01*
X173470Y198097D01*
X173348Y198166D01*
X173228Y198237D01*
X173110Y198312D01*
X172993Y198390D01*
X172879Y198472D01*
X172768Y198556D01*
X172659Y198644D01*
X172552Y198734D01*
X172447Y198828D01*
X172346Y198924D01*
X172247Y199023D01*
X172151Y199124D01*
X172057Y199229D01*
X171967Y199336D01*
X171879Y199445D01*
X171795Y199556D01*
X171713Y199670D01*
X171635Y199787D01*
X171560Y199905D01*
X171489Y200025D01*
X171420Y200147D01*
X171355Y200271D01*
X171294Y200397D01*
X171236Y200524D01*
X171181Y200653D01*
X171131Y200784D01*
X171083Y200916D01*
X171040Y201049D01*
X171000Y201183D01*
X170963Y201318D01*
X170931Y201454D01*
X170902Y201591D01*
X170877Y201729D01*
X170856Y201867D01*
X170839Y202006D01*
X170825Y202145D01*
X170816Y202285D01*
X170810Y202425D01*
X170808Y202565D01*
X170808Y215265D01*
X170810Y215405D01*
X170816Y215545D01*
X170825Y215685D01*
X170839Y215824D01*
X170856Y215963D01*
X170877Y216101D01*
X170902Y216239D01*
X170931Y216376D01*
X170963Y216512D01*
X171000Y216647D01*
X171040Y216781D01*
X171083Y216914D01*
X171131Y217046D01*
X171181Y217177D01*
X171236Y217306D01*
X171294Y217433D01*
X171355Y217559D01*
X171420Y217683D01*
X171489Y217805D01*
X171560Y217925D01*
X171635Y218043D01*
X171713Y218160D01*
X171795Y218274D01*
X171879Y218385D01*
X171967Y218494D01*
X172057Y218601D01*
X172151Y218706D01*
X172247Y218807D01*
X172346Y218906D01*
X172447Y219002D01*
X172552Y219096D01*
X172659Y219186D01*
X172768Y219274D01*
X172879Y219358D01*
X172993Y219440D01*
X173110Y219518D01*
X173228Y219593D01*
X173348Y219664D01*
X173470Y219733D01*
X173594Y219798D01*
X173720Y219859D01*
X173847Y219917D01*
X173976Y219972D01*
X174107Y220022D01*
X174239Y220070D01*
X174372Y220113D01*
X174506Y220153D01*
X174641Y220190D01*
X174777Y220222D01*
X174914Y220251D01*
X175052Y220276D01*
X175190Y220297D01*
X175329Y220314D01*
X175468Y220328D01*
X175608Y220337D01*
X175748Y220343D01*
X175888Y220345D01*
X180968Y220345D01*
X198103Y220345D02*
X205723Y197485D01*
X213343Y220345D01*
X220252Y215265D02*
X226602Y220345D01*
X226602Y197485D01*
X220252Y197485D02*
X232952Y197485D01*
X240582Y197485D02*
X240582Y198755D01*
X241852Y198755D01*
X241852Y197485D01*
X240582Y197485D01*
X249482Y215265D02*
X255832Y220345D01*
X255832Y197485D01*
X249482Y197485D02*
X262182Y197485D01*
D13*
X448832Y61623D02*
X448910Y61621D01*
X448988Y61616D01*
X449065Y61606D01*
X449142Y61593D01*
X449218Y61577D01*
X449293Y61557D01*
X449367Y61533D01*
X449440Y61506D01*
X449512Y61475D01*
X449582Y61441D01*
X449651Y61404D01*
X449717Y61363D01*
X449782Y61319D01*
X449844Y61273D01*
X449904Y61223D01*
X449962Y61171D01*
X450017Y61116D01*
X450069Y61058D01*
X450119Y60998D01*
X450165Y60936D01*
X450209Y60871D01*
X450250Y60805D01*
X450287Y60736D01*
X450321Y60666D01*
X450352Y60594D01*
X450379Y60521D01*
X450403Y60447D01*
X450423Y60372D01*
X450439Y60296D01*
X450452Y60219D01*
X450462Y60142D01*
X450467Y60064D01*
X450469Y59986D01*
X450467Y59872D01*
X450462Y59759D01*
X450452Y59645D01*
X450439Y59532D01*
X450422Y59420D01*
X450402Y59308D01*
X450378Y59197D01*
X450350Y59086D01*
X450319Y58977D01*
X450284Y58869D01*
X450245Y58762D01*
X450203Y58656D01*
X450158Y58552D01*
X450109Y58449D01*
X450056Y58348D01*
X450001Y58249D01*
X449942Y58151D01*
X449880Y58056D01*
X449815Y57963D01*
X449747Y57871D01*
X449676Y57783D01*
X449602Y57696D01*
X449525Y57612D01*
X449446Y57531D01*
X444740Y57736D02*
X444662Y57738D01*
X444584Y57743D01*
X444507Y57753D01*
X444430Y57766D01*
X444354Y57782D01*
X444279Y57802D01*
X444205Y57826D01*
X444132Y57853D01*
X444060Y57884D01*
X443990Y57918D01*
X443922Y57955D01*
X443855Y57996D01*
X443790Y58040D01*
X443728Y58086D01*
X443668Y58136D01*
X443610Y58188D01*
X443555Y58243D01*
X443503Y58301D01*
X443453Y58361D01*
X443407Y58423D01*
X443363Y58488D01*
X443322Y58555D01*
X443285Y58623D01*
X443251Y58693D01*
X443220Y58765D01*
X443193Y58838D01*
X443169Y58912D01*
X443149Y58987D01*
X443133Y59063D01*
X443120Y59140D01*
X443110Y59217D01*
X443105Y59295D01*
X443103Y59373D01*
X443105Y59483D01*
X443111Y59592D01*
X443121Y59702D01*
X443134Y59810D01*
X443152Y59919D01*
X443173Y60026D01*
X443199Y60133D01*
X443228Y60239D01*
X443260Y60344D01*
X443297Y60447D01*
X443337Y60549D01*
X443381Y60650D01*
X443429Y60749D01*
X443479Y60846D01*
X443534Y60941D01*
X443592Y61034D01*
X443653Y61125D01*
X443717Y61214D01*
X446172Y58554D02*
X446130Y58488D01*
X446086Y58423D01*
X446038Y58361D01*
X445988Y58301D01*
X445935Y58243D01*
X445879Y58188D01*
X445821Y58135D01*
X445760Y58086D01*
X445697Y58039D01*
X445632Y57995D01*
X445565Y57955D01*
X445496Y57918D01*
X445425Y57884D01*
X445353Y57853D01*
X445279Y57826D01*
X445204Y57802D01*
X445129Y57782D01*
X445052Y57766D01*
X444975Y57753D01*
X444897Y57743D01*
X444818Y57738D01*
X444740Y57736D01*
X447399Y60805D02*
X447441Y60872D01*
X447485Y60937D01*
X447533Y60999D01*
X447583Y61059D01*
X447636Y61117D01*
X447692Y61172D01*
X447751Y61224D01*
X447811Y61274D01*
X447875Y61321D01*
X447940Y61364D01*
X448007Y61405D01*
X448076Y61442D01*
X448147Y61476D01*
X448219Y61507D01*
X448293Y61534D01*
X448367Y61558D01*
X448443Y61578D01*
X448520Y61594D01*
X448597Y61607D01*
X448675Y61617D01*
X448754Y61622D01*
X448832Y61624D01*
X447400Y60805D02*
X446172Y58554D01*
X443103Y66161D02*
X450469Y66161D01*
X443103Y64115D02*
X443103Y68207D01*
X443103Y71265D02*
X450469Y71265D01*
X447195Y73720D02*
X443103Y71265D01*
X447195Y73720D02*
X443103Y76175D01*
X450469Y76175D01*
X450469Y79720D02*
X450469Y81767D01*
X450467Y81856D01*
X450461Y81945D01*
X450451Y82034D01*
X450438Y82122D01*
X450421Y82210D01*
X450399Y82297D01*
X450374Y82382D01*
X450346Y82467D01*
X450313Y82550D01*
X450277Y82632D01*
X450238Y82712D01*
X450195Y82790D01*
X450149Y82866D01*
X450099Y82941D01*
X450046Y83013D01*
X449990Y83082D01*
X449931Y83149D01*
X449870Y83214D01*
X449805Y83275D01*
X449738Y83334D01*
X449669Y83390D01*
X449597Y83443D01*
X449522Y83493D01*
X449446Y83539D01*
X449368Y83582D01*
X449288Y83621D01*
X449206Y83657D01*
X449123Y83690D01*
X449038Y83718D01*
X448953Y83743D01*
X448866Y83765D01*
X448778Y83782D01*
X448690Y83795D01*
X448601Y83805D01*
X448512Y83811D01*
X448423Y83813D01*
X448334Y83811D01*
X448245Y83805D01*
X448156Y83795D01*
X448068Y83782D01*
X447980Y83765D01*
X447893Y83743D01*
X447808Y83718D01*
X447723Y83690D01*
X447640Y83657D01*
X447558Y83621D01*
X447478Y83582D01*
X447400Y83539D01*
X447324Y83493D01*
X447249Y83443D01*
X447177Y83390D01*
X447108Y83334D01*
X447041Y83275D01*
X446976Y83214D01*
X446915Y83149D01*
X446856Y83082D01*
X446800Y83013D01*
X446747Y82941D01*
X446697Y82866D01*
X446651Y82790D01*
X446608Y82712D01*
X446569Y82632D01*
X446533Y82550D01*
X446500Y82467D01*
X446472Y82382D01*
X446447Y82297D01*
X446425Y82210D01*
X446408Y82122D01*
X446395Y82034D01*
X446385Y81945D01*
X446379Y81856D01*
X446377Y81767D01*
X443103Y82176D02*
X443103Y79720D01*
X443103Y82176D02*
X443105Y82255D01*
X443111Y82334D01*
X443120Y82413D01*
X443133Y82491D01*
X443151Y82568D01*
X443171Y82644D01*
X443196Y82719D01*
X443224Y82793D01*
X443255Y82866D01*
X443291Y82937D01*
X443329Y83006D01*
X443371Y83073D01*
X443416Y83138D01*
X443464Y83201D01*
X443515Y83262D01*
X443569Y83319D01*
X443625Y83375D01*
X443684Y83427D01*
X443746Y83477D01*
X443810Y83523D01*
X443876Y83567D01*
X443944Y83607D01*
X444014Y83643D01*
X444086Y83677D01*
X444160Y83707D01*
X444234Y83733D01*
X444310Y83756D01*
X444387Y83774D01*
X444464Y83790D01*
X444543Y83801D01*
X444621Y83809D01*
X444700Y83813D01*
X444780Y83813D01*
X444859Y83809D01*
X444937Y83801D01*
X445016Y83790D01*
X445093Y83774D01*
X445170Y83756D01*
X445246Y83733D01*
X445320Y83707D01*
X445394Y83677D01*
X445466Y83643D01*
X445536Y83607D01*
X445604Y83567D01*
X445670Y83523D01*
X445734Y83477D01*
X445796Y83427D01*
X445855Y83375D01*
X445911Y83319D01*
X445965Y83262D01*
X446016Y83201D01*
X446064Y83138D01*
X446109Y83073D01*
X446151Y83006D01*
X446189Y82937D01*
X446225Y82866D01*
X446256Y82793D01*
X446284Y82719D01*
X446309Y82644D01*
X446329Y82568D01*
X446347Y82491D01*
X446360Y82413D01*
X446369Y82334D01*
X446375Y82255D01*
X446377Y82176D01*
X446377Y80539D01*
X443103Y89286D02*
X443105Y89371D01*
X443111Y89456D01*
X443121Y89540D01*
X443134Y89624D01*
X443152Y89708D01*
X443173Y89790D01*
X443198Y89871D01*
X443227Y89951D01*
X443260Y90030D01*
X443296Y90107D01*
X443336Y90182D01*
X443379Y90256D01*
X443425Y90327D01*
X443475Y90396D01*
X443528Y90463D01*
X443584Y90527D01*
X443643Y90588D01*
X443704Y90647D01*
X443768Y90703D01*
X443835Y90756D01*
X443904Y90806D01*
X443975Y90852D01*
X444049Y90895D01*
X444124Y90935D01*
X444201Y90971D01*
X444280Y91004D01*
X444360Y91033D01*
X444441Y91058D01*
X444523Y91079D01*
X444607Y91097D01*
X444691Y91110D01*
X444775Y91120D01*
X444860Y91126D01*
X444945Y91128D01*
X443103Y89286D02*
X443105Y89190D01*
X443111Y89094D01*
X443121Y88999D01*
X443134Y88904D01*
X443152Y88809D01*
X443173Y88716D01*
X443198Y88623D01*
X443227Y88532D01*
X443259Y88441D01*
X443295Y88352D01*
X443335Y88265D01*
X443378Y88179D01*
X443424Y88095D01*
X443474Y88013D01*
X443528Y87933D01*
X443584Y87856D01*
X443644Y87781D01*
X443706Y87708D01*
X443772Y87638D01*
X443840Y87570D01*
X443911Y87505D01*
X443984Y87444D01*
X444060Y87385D01*
X444139Y87329D01*
X444219Y87277D01*
X444302Y87228D01*
X444386Y87182D01*
X444472Y87140D01*
X444560Y87102D01*
X444649Y87067D01*
X444740Y87035D01*
X446377Y90514D02*
X446318Y90574D01*
X446256Y90631D01*
X446192Y90686D01*
X446125Y90737D01*
X446056Y90786D01*
X445986Y90832D01*
X445913Y90875D01*
X445839Y90915D01*
X445763Y90951D01*
X445685Y90984D01*
X445606Y91014D01*
X445526Y91041D01*
X445445Y91064D01*
X445363Y91083D01*
X445281Y91099D01*
X445197Y91112D01*
X445113Y91121D01*
X445029Y91126D01*
X444945Y91128D01*
X446377Y90514D02*
X450469Y87036D01*
X450469Y91128D01*
X446377Y97459D02*
X446377Y98687D01*
X450469Y98687D01*
X450469Y96232D01*
X450467Y96154D01*
X450462Y96076D01*
X450452Y95999D01*
X450439Y95922D01*
X450423Y95846D01*
X450403Y95771D01*
X450379Y95697D01*
X450352Y95624D01*
X450321Y95552D01*
X450287Y95482D01*
X450250Y95414D01*
X450209Y95347D01*
X450165Y95282D01*
X450119Y95220D01*
X450069Y95160D01*
X450017Y95102D01*
X449962Y95047D01*
X449904Y94995D01*
X449844Y94945D01*
X449782Y94899D01*
X449717Y94855D01*
X449651Y94814D01*
X449582Y94777D01*
X449512Y94743D01*
X449440Y94712D01*
X449367Y94685D01*
X449293Y94661D01*
X449218Y94641D01*
X449142Y94625D01*
X449065Y94612D01*
X448988Y94602D01*
X448910Y94597D01*
X448832Y94595D01*
X444740Y94595D01*
X444660Y94597D01*
X444580Y94603D01*
X444500Y94613D01*
X444421Y94626D01*
X444342Y94644D01*
X444265Y94665D01*
X444189Y94691D01*
X444114Y94720D01*
X444040Y94752D01*
X443968Y94788D01*
X443898Y94828D01*
X443831Y94871D01*
X443765Y94917D01*
X443702Y94967D01*
X443641Y95019D01*
X443582Y95074D01*
X443527Y95133D01*
X443475Y95193D01*
X443425Y95257D01*
X443379Y95322D01*
X443336Y95390D01*
X443296Y95460D01*
X443260Y95532D01*
X443228Y95606D01*
X443199Y95680D01*
X443174Y95757D01*
X443152Y95834D01*
X443134Y95913D01*
X443121Y95992D01*
X443111Y96071D01*
X443105Y96152D01*
X443103Y96232D01*
X443103Y98687D01*
X444126Y102768D02*
X444265Y102702D01*
X444404Y102641D01*
X444546Y102582D01*
X444689Y102528D01*
X444833Y102477D01*
X444978Y102429D01*
X445125Y102386D01*
X445273Y102346D01*
X445421Y102309D01*
X445571Y102277D01*
X445721Y102248D01*
X445872Y102223D01*
X446023Y102202D01*
X446175Y102185D01*
X446328Y102171D01*
X446480Y102162D01*
X446633Y102156D01*
X446786Y102154D01*
X444126Y102768D02*
X444056Y102794D01*
X443986Y102824D01*
X443919Y102857D01*
X443853Y102893D01*
X443789Y102932D01*
X443727Y102975D01*
X443668Y103021D01*
X443610Y103069D01*
X443556Y103120D01*
X443503Y103174D01*
X443454Y103231D01*
X443407Y103290D01*
X443364Y103351D01*
X443323Y103414D01*
X443286Y103479D01*
X443251Y103546D01*
X443221Y103615D01*
X443193Y103685D01*
X443170Y103756D01*
X443149Y103828D01*
X443133Y103901D01*
X443120Y103975D01*
X443110Y104050D01*
X443105Y104125D01*
X443103Y104200D01*
X443105Y104275D01*
X443110Y104350D01*
X443120Y104425D01*
X443133Y104499D01*
X443149Y104572D01*
X443170Y104644D01*
X443193Y104715D01*
X443221Y104785D01*
X443251Y104854D01*
X443286Y104921D01*
X443323Y104986D01*
X443364Y105049D01*
X443407Y105110D01*
X443454Y105169D01*
X443503Y105226D01*
X443556Y105280D01*
X443610Y105331D01*
X443668Y105380D01*
X443727Y105425D01*
X443789Y105468D01*
X443853Y105507D01*
X443919Y105544D01*
X443987Y105576D01*
X444056Y105606D01*
X444126Y105632D01*
X444264Y105697D01*
X444404Y105759D01*
X444546Y105817D01*
X444689Y105872D01*
X444833Y105923D01*
X444978Y105971D01*
X445125Y106014D01*
X445272Y106054D01*
X445421Y106091D01*
X445571Y106123D01*
X445721Y106152D01*
X445872Y106177D01*
X446023Y106198D01*
X446175Y106215D01*
X446328Y106229D01*
X446480Y106238D01*
X446633Y106244D01*
X446786Y106246D01*
X446786Y102154D02*
X446939Y102156D01*
X447092Y102162D01*
X447244Y102171D01*
X447397Y102185D01*
X447549Y102202D01*
X447700Y102223D01*
X447851Y102248D01*
X448001Y102277D01*
X448151Y102309D01*
X448299Y102346D01*
X448447Y102386D01*
X448594Y102429D01*
X448739Y102477D01*
X448883Y102528D01*
X449026Y102582D01*
X449168Y102641D01*
X449307Y102702D01*
X449446Y102768D01*
X449517Y102794D01*
X449586Y102824D01*
X449653Y102857D01*
X449719Y102893D01*
X449783Y102932D01*
X449845Y102975D01*
X449904Y103021D01*
X449962Y103069D01*
X450016Y103120D01*
X450069Y103174D01*
X450118Y103231D01*
X450165Y103290D01*
X450208Y103351D01*
X450249Y103414D01*
X450286Y103479D01*
X450321Y103546D01*
X450351Y103615D01*
X450379Y103685D01*
X450402Y103756D01*
X450423Y103828D01*
X450439Y103901D01*
X450452Y103975D01*
X450462Y104050D01*
X450467Y104125D01*
X450469Y104200D01*
X449446Y105632D02*
X449308Y105697D01*
X449168Y105759D01*
X449026Y105817D01*
X448883Y105872D01*
X448739Y105923D01*
X448594Y105971D01*
X448447Y106014D01*
X448300Y106054D01*
X448151Y106091D01*
X448001Y106123D01*
X447851Y106152D01*
X447700Y106177D01*
X447549Y106198D01*
X447397Y106215D01*
X447244Y106229D01*
X447092Y106238D01*
X446939Y106244D01*
X446786Y106246D01*
X449446Y105632D02*
X449516Y105606D01*
X449586Y105576D01*
X449653Y105543D01*
X449719Y105507D01*
X449783Y105468D01*
X449845Y105425D01*
X449904Y105379D01*
X449962Y105331D01*
X450016Y105280D01*
X450069Y105226D01*
X450118Y105169D01*
X450165Y105110D01*
X450208Y105049D01*
X450249Y104986D01*
X450286Y104921D01*
X450321Y104854D01*
X450351Y104785D01*
X450379Y104715D01*
X450402Y104644D01*
X450423Y104572D01*
X450439Y104499D01*
X450452Y104425D01*
X450462Y104350D01*
X450467Y104275D01*
X450469Y104200D01*
X448832Y102563D02*
X444740Y105837D01*
X458798Y173863D02*
X458798Y181229D01*
X458798Y173863D02*
X462072Y173863D01*
X465200Y173863D02*
X465200Y181229D01*
X467656Y177137D01*
X470111Y181229D01*
X470111Y173863D01*
X473656Y173863D02*
X475702Y173863D01*
X475791Y173865D01*
X475880Y173871D01*
X475969Y173881D01*
X476057Y173894D01*
X476145Y173911D01*
X476232Y173933D01*
X476317Y173958D01*
X476402Y173986D01*
X476485Y174019D01*
X476567Y174055D01*
X476647Y174094D01*
X476725Y174137D01*
X476801Y174183D01*
X476876Y174233D01*
X476948Y174286D01*
X477017Y174342D01*
X477084Y174401D01*
X477149Y174462D01*
X477210Y174527D01*
X477269Y174594D01*
X477325Y174663D01*
X477378Y174735D01*
X477428Y174810D01*
X477474Y174886D01*
X477517Y174964D01*
X477556Y175044D01*
X477592Y175126D01*
X477625Y175209D01*
X477653Y175294D01*
X477678Y175379D01*
X477700Y175466D01*
X477717Y175554D01*
X477730Y175642D01*
X477740Y175731D01*
X477746Y175820D01*
X477748Y175909D01*
X477746Y175998D01*
X477740Y176087D01*
X477730Y176176D01*
X477717Y176264D01*
X477700Y176352D01*
X477678Y176439D01*
X477653Y176524D01*
X477625Y176609D01*
X477592Y176692D01*
X477556Y176774D01*
X477517Y176854D01*
X477474Y176932D01*
X477428Y177008D01*
X477378Y177083D01*
X477325Y177155D01*
X477269Y177224D01*
X477210Y177291D01*
X477149Y177356D01*
X477084Y177417D01*
X477017Y177476D01*
X476948Y177532D01*
X476876Y177585D01*
X476801Y177635D01*
X476725Y177681D01*
X476647Y177724D01*
X476567Y177763D01*
X476485Y177799D01*
X476402Y177832D01*
X476317Y177860D01*
X476232Y177885D01*
X476145Y177907D01*
X476057Y177924D01*
X475969Y177937D01*
X475880Y177947D01*
X475791Y177953D01*
X475702Y177955D01*
X476112Y181229D02*
X473656Y181229D01*
X476112Y181229D02*
X476191Y181227D01*
X476270Y181221D01*
X476349Y181212D01*
X476427Y181199D01*
X476504Y181181D01*
X476580Y181161D01*
X476655Y181136D01*
X476729Y181108D01*
X476802Y181077D01*
X476873Y181041D01*
X476942Y181003D01*
X477009Y180961D01*
X477074Y180916D01*
X477137Y180868D01*
X477198Y180817D01*
X477255Y180763D01*
X477311Y180707D01*
X477363Y180648D01*
X477413Y180586D01*
X477459Y180522D01*
X477503Y180456D01*
X477543Y180388D01*
X477579Y180318D01*
X477613Y180246D01*
X477643Y180172D01*
X477669Y180098D01*
X477692Y180022D01*
X477710Y179945D01*
X477726Y179868D01*
X477737Y179789D01*
X477745Y179711D01*
X477749Y179632D01*
X477749Y179552D01*
X477745Y179473D01*
X477737Y179395D01*
X477726Y179316D01*
X477710Y179239D01*
X477692Y179162D01*
X477669Y179086D01*
X477643Y179012D01*
X477613Y178938D01*
X477579Y178866D01*
X477543Y178796D01*
X477503Y178728D01*
X477459Y178662D01*
X477413Y178598D01*
X477363Y178536D01*
X477311Y178477D01*
X477255Y178421D01*
X477198Y178367D01*
X477137Y178316D01*
X477074Y178268D01*
X477009Y178223D01*
X476942Y178181D01*
X476873Y178143D01*
X476802Y178107D01*
X476729Y178076D01*
X476655Y178048D01*
X476580Y178023D01*
X476504Y178003D01*
X476427Y177985D01*
X476349Y177972D01*
X476270Y177963D01*
X476191Y177957D01*
X476112Y177955D01*
X474475Y177955D01*
X480972Y173863D02*
X483018Y173863D01*
X483107Y173865D01*
X483196Y173871D01*
X483285Y173881D01*
X483373Y173894D01*
X483461Y173911D01*
X483548Y173933D01*
X483633Y173958D01*
X483718Y173986D01*
X483801Y174019D01*
X483883Y174055D01*
X483963Y174094D01*
X484041Y174137D01*
X484117Y174183D01*
X484192Y174233D01*
X484264Y174286D01*
X484333Y174342D01*
X484400Y174401D01*
X484465Y174462D01*
X484526Y174527D01*
X484585Y174594D01*
X484641Y174663D01*
X484694Y174735D01*
X484744Y174810D01*
X484790Y174886D01*
X484833Y174964D01*
X484872Y175044D01*
X484908Y175126D01*
X484941Y175209D01*
X484969Y175294D01*
X484994Y175379D01*
X485016Y175466D01*
X485033Y175554D01*
X485046Y175642D01*
X485056Y175731D01*
X485062Y175820D01*
X485064Y175909D01*
X485062Y175998D01*
X485056Y176087D01*
X485046Y176176D01*
X485033Y176264D01*
X485016Y176352D01*
X484994Y176439D01*
X484969Y176524D01*
X484941Y176609D01*
X484908Y176692D01*
X484872Y176774D01*
X484833Y176854D01*
X484790Y176932D01*
X484744Y177008D01*
X484694Y177083D01*
X484641Y177155D01*
X484585Y177224D01*
X484526Y177291D01*
X484465Y177356D01*
X484400Y177417D01*
X484333Y177476D01*
X484264Y177532D01*
X484192Y177585D01*
X484117Y177635D01*
X484041Y177681D01*
X483963Y177724D01*
X483883Y177763D01*
X483801Y177799D01*
X483718Y177832D01*
X483633Y177860D01*
X483548Y177885D01*
X483461Y177907D01*
X483373Y177924D01*
X483285Y177937D01*
X483196Y177947D01*
X483107Y177953D01*
X483018Y177955D01*
X483427Y181229D02*
X480972Y181229D01*
X483427Y181229D02*
X483506Y181227D01*
X483585Y181221D01*
X483664Y181212D01*
X483742Y181199D01*
X483819Y181181D01*
X483895Y181161D01*
X483970Y181136D01*
X484044Y181108D01*
X484117Y181077D01*
X484188Y181041D01*
X484257Y181003D01*
X484324Y180961D01*
X484389Y180916D01*
X484452Y180868D01*
X484513Y180817D01*
X484570Y180763D01*
X484626Y180707D01*
X484678Y180648D01*
X484728Y180586D01*
X484774Y180522D01*
X484818Y180456D01*
X484858Y180388D01*
X484894Y180318D01*
X484928Y180246D01*
X484958Y180172D01*
X484984Y180098D01*
X485007Y180022D01*
X485025Y179945D01*
X485041Y179868D01*
X485052Y179789D01*
X485060Y179711D01*
X485064Y179632D01*
X485064Y179552D01*
X485060Y179473D01*
X485052Y179395D01*
X485041Y179316D01*
X485025Y179239D01*
X485007Y179162D01*
X484984Y179086D01*
X484958Y179012D01*
X484928Y178938D01*
X484894Y178866D01*
X484858Y178796D01*
X484818Y178728D01*
X484774Y178662D01*
X484728Y178598D01*
X484678Y178536D01*
X484626Y178477D01*
X484570Y178421D01*
X484513Y178367D01*
X484452Y178316D01*
X484389Y178268D01*
X484324Y178223D01*
X484257Y178181D01*
X484188Y178143D01*
X484117Y178107D01*
X484044Y178076D01*
X483970Y178048D01*
X483895Y178023D01*
X483819Y178003D01*
X483742Y177985D01*
X483664Y177972D01*
X483585Y177963D01*
X483506Y177957D01*
X483427Y177955D01*
X481790Y177955D01*
X489924Y177137D02*
X492379Y177137D01*
X489924Y177137D02*
X489846Y177139D01*
X489768Y177144D01*
X489691Y177154D01*
X489614Y177167D01*
X489538Y177183D01*
X489463Y177203D01*
X489389Y177227D01*
X489316Y177254D01*
X489244Y177285D01*
X489174Y177319D01*
X489105Y177356D01*
X489039Y177397D01*
X488974Y177441D01*
X488912Y177487D01*
X488852Y177537D01*
X488794Y177589D01*
X488739Y177644D01*
X488687Y177702D01*
X488637Y177762D01*
X488591Y177824D01*
X488547Y177889D01*
X488506Y177956D01*
X488469Y178024D01*
X488435Y178094D01*
X488404Y178166D01*
X488377Y178239D01*
X488353Y178313D01*
X488333Y178388D01*
X488317Y178464D01*
X488304Y178541D01*
X488294Y178618D01*
X488289Y178696D01*
X488287Y178774D01*
X488287Y179183D01*
X488289Y179272D01*
X488295Y179361D01*
X488305Y179450D01*
X488318Y179538D01*
X488335Y179626D01*
X488357Y179713D01*
X488382Y179798D01*
X488410Y179883D01*
X488443Y179966D01*
X488479Y180048D01*
X488518Y180128D01*
X488561Y180206D01*
X488607Y180282D01*
X488657Y180357D01*
X488710Y180429D01*
X488766Y180498D01*
X488825Y180565D01*
X488886Y180630D01*
X488951Y180691D01*
X489018Y180750D01*
X489087Y180806D01*
X489159Y180859D01*
X489234Y180909D01*
X489310Y180955D01*
X489388Y180998D01*
X489468Y181037D01*
X489550Y181073D01*
X489633Y181106D01*
X489718Y181134D01*
X489803Y181159D01*
X489890Y181181D01*
X489978Y181198D01*
X490066Y181211D01*
X490155Y181221D01*
X490244Y181227D01*
X490333Y181229D01*
X490422Y181227D01*
X490511Y181221D01*
X490600Y181211D01*
X490688Y181198D01*
X490776Y181181D01*
X490863Y181159D01*
X490948Y181134D01*
X491033Y181106D01*
X491116Y181073D01*
X491198Y181037D01*
X491278Y180998D01*
X491356Y180955D01*
X491432Y180909D01*
X491507Y180859D01*
X491579Y180806D01*
X491648Y180750D01*
X491715Y180691D01*
X491780Y180630D01*
X491841Y180565D01*
X491900Y180498D01*
X491956Y180429D01*
X492009Y180357D01*
X492059Y180282D01*
X492105Y180206D01*
X492148Y180128D01*
X492187Y180048D01*
X492223Y179966D01*
X492256Y179883D01*
X492284Y179798D01*
X492309Y179713D01*
X492331Y179626D01*
X492348Y179538D01*
X492361Y179450D01*
X492371Y179361D01*
X492377Y179272D01*
X492379Y179183D01*
X492379Y177137D01*
X492377Y177025D01*
X492371Y176914D01*
X492362Y176802D01*
X492349Y176691D01*
X492331Y176581D01*
X492311Y176471D01*
X492286Y176362D01*
X492258Y176254D01*
X492226Y176147D01*
X492190Y176041D01*
X492151Y175936D01*
X492108Y175833D01*
X492062Y175731D01*
X492012Y175631D01*
X491959Y175532D01*
X491902Y175436D01*
X491843Y175341D01*
X491780Y175249D01*
X491714Y175159D01*
X491645Y175071D01*
X491573Y174985D01*
X491498Y174902D01*
X491420Y174822D01*
X491340Y174744D01*
X491257Y174669D01*
X491171Y174597D01*
X491083Y174528D01*
X490993Y174462D01*
X490901Y174399D01*
X490806Y174340D01*
X490710Y174283D01*
X490611Y174230D01*
X490511Y174180D01*
X490409Y174134D01*
X490306Y174091D01*
X490201Y174052D01*
X490095Y174016D01*
X489988Y173984D01*
X489880Y173956D01*
X489771Y173931D01*
X489661Y173911D01*
X489551Y173893D01*
X489440Y173880D01*
X489328Y173871D01*
X489217Y173865D01*
X489105Y173863D01*
X519882Y229743D02*
X522337Y237109D01*
X524792Y229743D01*
X524178Y231585D02*
X520495Y231585D01*
X527967Y229743D02*
X527967Y237109D01*
X530014Y237109D01*
X530103Y237107D01*
X530192Y237101D01*
X530281Y237091D01*
X530369Y237078D01*
X530457Y237061D01*
X530544Y237039D01*
X530629Y237014D01*
X530714Y236986D01*
X530797Y236953D01*
X530879Y236917D01*
X530959Y236878D01*
X531037Y236835D01*
X531113Y236789D01*
X531188Y236739D01*
X531260Y236686D01*
X531329Y236630D01*
X531396Y236571D01*
X531461Y236510D01*
X531522Y236445D01*
X531581Y236378D01*
X531637Y236309D01*
X531690Y236237D01*
X531740Y236162D01*
X531786Y236086D01*
X531829Y236008D01*
X531868Y235928D01*
X531904Y235846D01*
X531937Y235763D01*
X531965Y235678D01*
X531990Y235593D01*
X532012Y235506D01*
X532029Y235418D01*
X532042Y235330D01*
X532052Y235241D01*
X532058Y235152D01*
X532060Y235063D01*
X532058Y234974D01*
X532052Y234885D01*
X532042Y234796D01*
X532029Y234708D01*
X532012Y234620D01*
X531990Y234533D01*
X531965Y234448D01*
X531937Y234363D01*
X531904Y234280D01*
X531868Y234198D01*
X531829Y234118D01*
X531786Y234040D01*
X531740Y233964D01*
X531690Y233889D01*
X531637Y233817D01*
X531581Y233748D01*
X531522Y233681D01*
X531461Y233616D01*
X531396Y233555D01*
X531329Y233496D01*
X531260Y233440D01*
X531188Y233387D01*
X531113Y233337D01*
X531037Y233291D01*
X530959Y233248D01*
X530879Y233209D01*
X530797Y233173D01*
X530714Y233140D01*
X530629Y233112D01*
X530544Y233087D01*
X530457Y233065D01*
X530369Y233048D01*
X530281Y233035D01*
X530192Y233025D01*
X530103Y233019D01*
X530014Y233017D01*
X527967Y233017D01*
X534921Y236291D02*
X534921Y237109D01*
X539013Y237109D01*
X536967Y229743D01*
X542236Y229743D02*
X544282Y229743D01*
X544371Y229745D01*
X544460Y229751D01*
X544549Y229761D01*
X544637Y229774D01*
X544725Y229791D01*
X544812Y229813D01*
X544897Y229838D01*
X544982Y229866D01*
X545065Y229899D01*
X545147Y229935D01*
X545227Y229974D01*
X545305Y230017D01*
X545381Y230063D01*
X545456Y230113D01*
X545528Y230166D01*
X545597Y230222D01*
X545664Y230281D01*
X545729Y230342D01*
X545790Y230407D01*
X545849Y230474D01*
X545905Y230543D01*
X545958Y230615D01*
X546008Y230690D01*
X546054Y230766D01*
X546097Y230844D01*
X546136Y230924D01*
X546172Y231006D01*
X546205Y231089D01*
X546233Y231174D01*
X546258Y231259D01*
X546280Y231346D01*
X546297Y231434D01*
X546310Y231522D01*
X546320Y231611D01*
X546326Y231700D01*
X546328Y231789D01*
X546326Y231878D01*
X546320Y231967D01*
X546310Y232056D01*
X546297Y232144D01*
X546280Y232232D01*
X546258Y232319D01*
X546233Y232404D01*
X546205Y232489D01*
X546172Y232572D01*
X546136Y232654D01*
X546097Y232734D01*
X546054Y232812D01*
X546008Y232888D01*
X545958Y232963D01*
X545905Y233035D01*
X545849Y233104D01*
X545790Y233171D01*
X545729Y233236D01*
X545664Y233297D01*
X545597Y233356D01*
X545528Y233412D01*
X545456Y233465D01*
X545381Y233515D01*
X545305Y233561D01*
X545227Y233604D01*
X545147Y233643D01*
X545065Y233679D01*
X544982Y233712D01*
X544897Y233740D01*
X544812Y233765D01*
X544725Y233787D01*
X544637Y233804D01*
X544549Y233817D01*
X544460Y233827D01*
X544371Y233833D01*
X544282Y233835D01*
X544692Y237109D02*
X542236Y237109D01*
X544692Y237109D02*
X544771Y237107D01*
X544850Y237101D01*
X544929Y237092D01*
X545007Y237079D01*
X545084Y237061D01*
X545160Y237041D01*
X545235Y237016D01*
X545309Y236988D01*
X545382Y236957D01*
X545453Y236921D01*
X545522Y236883D01*
X545589Y236841D01*
X545654Y236796D01*
X545717Y236748D01*
X545778Y236697D01*
X545835Y236643D01*
X545891Y236587D01*
X545943Y236528D01*
X545993Y236466D01*
X546039Y236402D01*
X546083Y236336D01*
X546123Y236268D01*
X546159Y236198D01*
X546193Y236126D01*
X546223Y236052D01*
X546249Y235978D01*
X546272Y235902D01*
X546290Y235825D01*
X546306Y235748D01*
X546317Y235669D01*
X546325Y235591D01*
X546329Y235512D01*
X546329Y235432D01*
X546325Y235353D01*
X546317Y235275D01*
X546306Y235196D01*
X546290Y235119D01*
X546272Y235042D01*
X546249Y234966D01*
X546223Y234892D01*
X546193Y234818D01*
X546159Y234746D01*
X546123Y234676D01*
X546083Y234608D01*
X546039Y234542D01*
X545993Y234478D01*
X545943Y234416D01*
X545891Y234357D01*
X545835Y234301D01*
X545778Y234247D01*
X545717Y234196D01*
X545654Y234148D01*
X545589Y234103D01*
X545522Y234061D01*
X545453Y234023D01*
X545382Y233987D01*
X545309Y233956D01*
X545235Y233928D01*
X545160Y233903D01*
X545084Y233883D01*
X545007Y233865D01*
X544929Y233852D01*
X544850Y233843D01*
X544771Y233837D01*
X544692Y233835D01*
X543055Y233835D01*
X549552Y231789D02*
X549554Y231878D01*
X549560Y231967D01*
X549570Y232056D01*
X549583Y232144D01*
X549600Y232232D01*
X549622Y232319D01*
X549647Y232404D01*
X549675Y232489D01*
X549708Y232572D01*
X549744Y232654D01*
X549783Y232734D01*
X549826Y232812D01*
X549872Y232888D01*
X549922Y232963D01*
X549975Y233035D01*
X550031Y233104D01*
X550090Y233171D01*
X550151Y233236D01*
X550216Y233297D01*
X550283Y233356D01*
X550352Y233412D01*
X550424Y233465D01*
X550499Y233515D01*
X550575Y233561D01*
X550653Y233604D01*
X550733Y233643D01*
X550815Y233679D01*
X550898Y233712D01*
X550983Y233740D01*
X551068Y233765D01*
X551155Y233787D01*
X551243Y233804D01*
X551331Y233817D01*
X551420Y233827D01*
X551509Y233833D01*
X551598Y233835D01*
X551687Y233833D01*
X551776Y233827D01*
X551865Y233817D01*
X551953Y233804D01*
X552041Y233787D01*
X552128Y233765D01*
X552213Y233740D01*
X552298Y233712D01*
X552381Y233679D01*
X552463Y233643D01*
X552543Y233604D01*
X552621Y233561D01*
X552697Y233515D01*
X552772Y233465D01*
X552844Y233412D01*
X552913Y233356D01*
X552980Y233297D01*
X553045Y233236D01*
X553106Y233171D01*
X553165Y233104D01*
X553221Y233035D01*
X553274Y232963D01*
X553324Y232888D01*
X553370Y232812D01*
X553413Y232734D01*
X553452Y232654D01*
X553488Y232572D01*
X553521Y232489D01*
X553549Y232404D01*
X553574Y232319D01*
X553596Y232232D01*
X553613Y232144D01*
X553626Y232056D01*
X553636Y231967D01*
X553642Y231878D01*
X553644Y231789D01*
X553642Y231700D01*
X553636Y231611D01*
X553626Y231522D01*
X553613Y231434D01*
X553596Y231346D01*
X553574Y231259D01*
X553549Y231174D01*
X553521Y231089D01*
X553488Y231006D01*
X553452Y230924D01*
X553413Y230844D01*
X553370Y230766D01*
X553324Y230690D01*
X553274Y230615D01*
X553221Y230543D01*
X553165Y230474D01*
X553106Y230407D01*
X553045Y230342D01*
X552980Y230281D01*
X552913Y230222D01*
X552844Y230166D01*
X552772Y230113D01*
X552697Y230063D01*
X552621Y230017D01*
X552543Y229974D01*
X552463Y229935D01*
X552381Y229899D01*
X552298Y229866D01*
X552213Y229838D01*
X552128Y229813D01*
X552041Y229791D01*
X551953Y229774D01*
X551865Y229761D01*
X551776Y229751D01*
X551687Y229745D01*
X551598Y229743D01*
X551509Y229745D01*
X551420Y229751D01*
X551331Y229761D01*
X551243Y229774D01*
X551155Y229791D01*
X551068Y229813D01*
X550983Y229838D01*
X550898Y229866D01*
X550815Y229899D01*
X550733Y229935D01*
X550653Y229974D01*
X550575Y230017D01*
X550499Y230063D01*
X550424Y230113D01*
X550352Y230166D01*
X550283Y230222D01*
X550216Y230281D01*
X550151Y230342D01*
X550090Y230407D01*
X550031Y230474D01*
X549975Y230543D01*
X549922Y230615D01*
X549872Y230690D01*
X549826Y230766D01*
X549783Y230844D01*
X549744Y230924D01*
X549708Y231006D01*
X549675Y231089D01*
X549647Y231174D01*
X549622Y231259D01*
X549600Y231346D01*
X549583Y231434D01*
X549570Y231522D01*
X549560Y231611D01*
X549554Y231700D01*
X549552Y231789D01*
X549961Y235472D02*
X549963Y235551D01*
X549969Y235630D01*
X549978Y235709D01*
X549991Y235787D01*
X550009Y235864D01*
X550029Y235940D01*
X550054Y236015D01*
X550082Y236089D01*
X550113Y236162D01*
X550149Y236233D01*
X550187Y236302D01*
X550229Y236369D01*
X550274Y236434D01*
X550322Y236497D01*
X550373Y236558D01*
X550427Y236615D01*
X550483Y236671D01*
X550542Y236723D01*
X550604Y236773D01*
X550668Y236819D01*
X550734Y236863D01*
X550802Y236903D01*
X550872Y236939D01*
X550944Y236973D01*
X551018Y237003D01*
X551092Y237029D01*
X551168Y237052D01*
X551245Y237070D01*
X551322Y237086D01*
X551401Y237097D01*
X551479Y237105D01*
X551558Y237109D01*
X551638Y237109D01*
X551717Y237105D01*
X551795Y237097D01*
X551874Y237086D01*
X551951Y237070D01*
X552028Y237052D01*
X552104Y237029D01*
X552178Y237003D01*
X552252Y236973D01*
X552324Y236939D01*
X552394Y236903D01*
X552462Y236863D01*
X552528Y236819D01*
X552592Y236773D01*
X552654Y236723D01*
X552713Y236671D01*
X552769Y236615D01*
X552823Y236558D01*
X552874Y236497D01*
X552922Y236434D01*
X552967Y236369D01*
X553009Y236302D01*
X553047Y236233D01*
X553083Y236162D01*
X553114Y236089D01*
X553142Y236015D01*
X553167Y235940D01*
X553187Y235864D01*
X553205Y235787D01*
X553218Y235709D01*
X553227Y235630D01*
X553233Y235551D01*
X553235Y235472D01*
X553233Y235393D01*
X553227Y235314D01*
X553218Y235235D01*
X553205Y235157D01*
X553187Y235080D01*
X553167Y235004D01*
X553142Y234929D01*
X553114Y234855D01*
X553083Y234782D01*
X553047Y234711D01*
X553009Y234642D01*
X552967Y234575D01*
X552922Y234510D01*
X552874Y234447D01*
X552823Y234386D01*
X552769Y234329D01*
X552713Y234273D01*
X552654Y234221D01*
X552592Y234171D01*
X552528Y234125D01*
X552462Y234081D01*
X552394Y234041D01*
X552324Y234005D01*
X552252Y233971D01*
X552178Y233941D01*
X552104Y233915D01*
X552028Y233892D01*
X551951Y233874D01*
X551874Y233858D01*
X551795Y233847D01*
X551717Y233839D01*
X551638Y233835D01*
X551558Y233835D01*
X551479Y233839D01*
X551401Y233847D01*
X551322Y233858D01*
X551245Y233874D01*
X551168Y233892D01*
X551092Y233915D01*
X551018Y233941D01*
X550944Y233971D01*
X550872Y234005D01*
X550802Y234041D01*
X550734Y234081D01*
X550668Y234125D01*
X550604Y234171D01*
X550542Y234221D01*
X550483Y234273D01*
X550427Y234329D01*
X550373Y234386D01*
X550322Y234447D01*
X550274Y234510D01*
X550229Y234575D01*
X550187Y234642D01*
X550149Y234711D01*
X550113Y234782D01*
X550082Y234855D01*
X550054Y234929D01*
X550029Y235004D01*
X550009Y235080D01*
X549991Y235157D01*
X549978Y235235D01*
X549969Y235314D01*
X549963Y235393D01*
X549961Y235472D01*
X556867Y235472D02*
X558913Y237109D01*
X558913Y229743D01*
X556867Y229743D02*
X560959Y229743D01*
X396763Y286399D02*
X396763Y291719D01*
X396763Y286399D02*
X396765Y286310D01*
X396771Y286221D01*
X396781Y286132D01*
X396794Y286044D01*
X396811Y285956D01*
X396833Y285869D01*
X396858Y285784D01*
X396886Y285699D01*
X396919Y285616D01*
X396955Y285534D01*
X396994Y285454D01*
X397037Y285376D01*
X397083Y285300D01*
X397133Y285225D01*
X397186Y285153D01*
X397242Y285084D01*
X397301Y285017D01*
X397362Y284952D01*
X397427Y284891D01*
X397494Y284832D01*
X397563Y284776D01*
X397635Y284723D01*
X397710Y284673D01*
X397786Y284627D01*
X397864Y284584D01*
X397944Y284545D01*
X398026Y284509D01*
X398109Y284476D01*
X398194Y284448D01*
X398279Y284423D01*
X398366Y284401D01*
X398454Y284384D01*
X398542Y284371D01*
X398631Y284361D01*
X398720Y284355D01*
X398809Y284353D01*
X398898Y284355D01*
X398987Y284361D01*
X399076Y284371D01*
X399164Y284384D01*
X399252Y284401D01*
X399339Y284423D01*
X399424Y284448D01*
X399509Y284476D01*
X399592Y284509D01*
X399674Y284545D01*
X399754Y284584D01*
X399832Y284627D01*
X399908Y284673D01*
X399983Y284723D01*
X400055Y284776D01*
X400124Y284832D01*
X400191Y284891D01*
X400256Y284952D01*
X400317Y285017D01*
X400376Y285084D01*
X400432Y285153D01*
X400485Y285225D01*
X400535Y285300D01*
X400581Y285376D01*
X400624Y285454D01*
X400663Y285534D01*
X400699Y285616D01*
X400732Y285699D01*
X400760Y285784D01*
X400785Y285869D01*
X400807Y285956D01*
X400824Y286044D01*
X400837Y286132D01*
X400847Y286221D01*
X400853Y286310D01*
X400855Y286399D01*
X400855Y291719D01*
X406368Y291719D02*
X403913Y284353D01*
X408823Y284353D02*
X406368Y291719D01*
X408209Y286195D02*
X404526Y286195D01*
X411637Y290901D02*
X411637Y291719D01*
X415729Y291719D01*
X413683Y284353D01*
X418952Y286399D02*
X418954Y286488D01*
X418960Y286577D01*
X418970Y286666D01*
X418983Y286754D01*
X419000Y286842D01*
X419022Y286929D01*
X419047Y287014D01*
X419075Y287099D01*
X419108Y287182D01*
X419144Y287264D01*
X419183Y287344D01*
X419226Y287422D01*
X419272Y287498D01*
X419322Y287573D01*
X419375Y287645D01*
X419431Y287714D01*
X419490Y287781D01*
X419551Y287846D01*
X419616Y287907D01*
X419683Y287966D01*
X419752Y288022D01*
X419824Y288075D01*
X419899Y288125D01*
X419975Y288171D01*
X420053Y288214D01*
X420133Y288253D01*
X420215Y288289D01*
X420298Y288322D01*
X420383Y288350D01*
X420468Y288375D01*
X420555Y288397D01*
X420643Y288414D01*
X420731Y288427D01*
X420820Y288437D01*
X420909Y288443D01*
X420998Y288445D01*
X421087Y288443D01*
X421176Y288437D01*
X421265Y288427D01*
X421353Y288414D01*
X421441Y288397D01*
X421528Y288375D01*
X421613Y288350D01*
X421698Y288322D01*
X421781Y288289D01*
X421863Y288253D01*
X421943Y288214D01*
X422021Y288171D01*
X422097Y288125D01*
X422172Y288075D01*
X422244Y288022D01*
X422313Y287966D01*
X422380Y287907D01*
X422445Y287846D01*
X422506Y287781D01*
X422565Y287714D01*
X422621Y287645D01*
X422674Y287573D01*
X422724Y287498D01*
X422770Y287422D01*
X422813Y287344D01*
X422852Y287264D01*
X422888Y287182D01*
X422921Y287099D01*
X422949Y287014D01*
X422974Y286929D01*
X422996Y286842D01*
X423013Y286754D01*
X423026Y286666D01*
X423036Y286577D01*
X423042Y286488D01*
X423044Y286399D01*
X423042Y286310D01*
X423036Y286221D01*
X423026Y286132D01*
X423013Y286044D01*
X422996Y285956D01*
X422974Y285869D01*
X422949Y285784D01*
X422921Y285699D01*
X422888Y285616D01*
X422852Y285534D01*
X422813Y285454D01*
X422770Y285376D01*
X422724Y285300D01*
X422674Y285225D01*
X422621Y285153D01*
X422565Y285084D01*
X422506Y285017D01*
X422445Y284952D01*
X422380Y284891D01*
X422313Y284832D01*
X422244Y284776D01*
X422172Y284723D01*
X422097Y284673D01*
X422021Y284627D01*
X421943Y284584D01*
X421863Y284545D01*
X421781Y284509D01*
X421698Y284476D01*
X421613Y284448D01*
X421528Y284423D01*
X421441Y284401D01*
X421353Y284384D01*
X421265Y284371D01*
X421176Y284361D01*
X421087Y284355D01*
X420998Y284353D01*
X420909Y284355D01*
X420820Y284361D01*
X420731Y284371D01*
X420643Y284384D01*
X420555Y284401D01*
X420468Y284423D01*
X420383Y284448D01*
X420298Y284476D01*
X420215Y284509D01*
X420133Y284545D01*
X420053Y284584D01*
X419975Y284627D01*
X419899Y284673D01*
X419824Y284723D01*
X419752Y284776D01*
X419683Y284832D01*
X419616Y284891D01*
X419551Y284952D01*
X419490Y285017D01*
X419431Y285084D01*
X419375Y285153D01*
X419322Y285225D01*
X419272Y285300D01*
X419226Y285376D01*
X419183Y285454D01*
X419144Y285534D01*
X419108Y285616D01*
X419075Y285699D01*
X419047Y285784D01*
X419022Y285869D01*
X419000Y285956D01*
X418983Y286044D01*
X418970Y286132D01*
X418960Y286221D01*
X418954Y286310D01*
X418952Y286399D01*
X419361Y290082D02*
X419363Y290161D01*
X419369Y290240D01*
X419378Y290319D01*
X419391Y290397D01*
X419409Y290474D01*
X419429Y290550D01*
X419454Y290625D01*
X419482Y290699D01*
X419513Y290772D01*
X419549Y290843D01*
X419587Y290912D01*
X419629Y290979D01*
X419674Y291044D01*
X419722Y291107D01*
X419773Y291168D01*
X419827Y291225D01*
X419883Y291281D01*
X419942Y291333D01*
X420004Y291383D01*
X420068Y291429D01*
X420134Y291473D01*
X420202Y291513D01*
X420272Y291549D01*
X420344Y291583D01*
X420418Y291613D01*
X420492Y291639D01*
X420568Y291662D01*
X420645Y291680D01*
X420722Y291696D01*
X420801Y291707D01*
X420879Y291715D01*
X420958Y291719D01*
X421038Y291719D01*
X421117Y291715D01*
X421195Y291707D01*
X421274Y291696D01*
X421351Y291680D01*
X421428Y291662D01*
X421504Y291639D01*
X421578Y291613D01*
X421652Y291583D01*
X421724Y291549D01*
X421794Y291513D01*
X421862Y291473D01*
X421928Y291429D01*
X421992Y291383D01*
X422054Y291333D01*
X422113Y291281D01*
X422169Y291225D01*
X422223Y291168D01*
X422274Y291107D01*
X422322Y291044D01*
X422367Y290979D01*
X422409Y290912D01*
X422447Y290843D01*
X422483Y290772D01*
X422514Y290699D01*
X422542Y290625D01*
X422567Y290550D01*
X422587Y290474D01*
X422605Y290397D01*
X422618Y290319D01*
X422627Y290240D01*
X422633Y290161D01*
X422635Y290082D01*
X422633Y290003D01*
X422627Y289924D01*
X422618Y289845D01*
X422605Y289767D01*
X422587Y289690D01*
X422567Y289614D01*
X422542Y289539D01*
X422514Y289465D01*
X422483Y289392D01*
X422447Y289321D01*
X422409Y289252D01*
X422367Y289185D01*
X422322Y289120D01*
X422274Y289057D01*
X422223Y288996D01*
X422169Y288939D01*
X422113Y288883D01*
X422054Y288831D01*
X421992Y288781D01*
X421928Y288735D01*
X421862Y288691D01*
X421794Y288651D01*
X421724Y288615D01*
X421652Y288581D01*
X421578Y288551D01*
X421504Y288525D01*
X421428Y288502D01*
X421351Y288484D01*
X421274Y288468D01*
X421195Y288457D01*
X421117Y288449D01*
X421038Y288445D01*
X420958Y288445D01*
X420879Y288449D01*
X420801Y288457D01*
X420722Y288468D01*
X420645Y288484D01*
X420568Y288502D01*
X420492Y288525D01*
X420418Y288551D01*
X420344Y288581D01*
X420272Y288615D01*
X420202Y288651D01*
X420134Y288691D01*
X420068Y288735D01*
X420004Y288781D01*
X419942Y288831D01*
X419883Y288883D01*
X419827Y288939D01*
X419773Y288996D01*
X419722Y289057D01*
X419674Y289120D01*
X419629Y289185D01*
X419587Y289252D01*
X419549Y289321D01*
X419513Y289392D01*
X419482Y289465D01*
X419454Y289539D01*
X419429Y289614D01*
X419409Y289690D01*
X419391Y289767D01*
X419378Y289845D01*
X419369Y289924D01*
X419363Y290003D01*
X419361Y290082D01*
X426527Y291719D02*
X426527Y284353D01*
X429801Y284353D01*
X432607Y290082D02*
X434653Y291719D01*
X434653Y284353D01*
X432607Y284353D02*
X436699Y284353D01*
X439923Y288036D02*
X439925Y288189D01*
X439931Y288342D01*
X439940Y288494D01*
X439954Y288647D01*
X439971Y288799D01*
X439992Y288950D01*
X440017Y289101D01*
X440046Y289251D01*
X440078Y289401D01*
X440115Y289549D01*
X440155Y289697D01*
X440198Y289844D01*
X440246Y289989D01*
X440297Y290133D01*
X440351Y290276D01*
X440410Y290418D01*
X440471Y290557D01*
X440537Y290696D01*
X440536Y290696D02*
X440562Y290766D01*
X440592Y290836D01*
X440625Y290903D01*
X440661Y290969D01*
X440700Y291033D01*
X440743Y291095D01*
X440789Y291154D01*
X440837Y291212D01*
X440888Y291266D01*
X440942Y291319D01*
X440999Y291368D01*
X441058Y291415D01*
X441119Y291458D01*
X441182Y291499D01*
X441247Y291536D01*
X441314Y291571D01*
X441383Y291601D01*
X441453Y291629D01*
X441524Y291652D01*
X441596Y291673D01*
X441669Y291689D01*
X441743Y291702D01*
X441818Y291712D01*
X441893Y291717D01*
X441968Y291719D01*
X442043Y291717D01*
X442118Y291712D01*
X442193Y291702D01*
X442267Y291689D01*
X442340Y291673D01*
X442412Y291652D01*
X442483Y291629D01*
X442553Y291601D01*
X442622Y291571D01*
X442689Y291536D01*
X442754Y291499D01*
X442817Y291458D01*
X442878Y291415D01*
X442937Y291368D01*
X442994Y291319D01*
X443048Y291266D01*
X443099Y291212D01*
X443148Y291154D01*
X443193Y291095D01*
X443236Y291033D01*
X443275Y290969D01*
X443312Y290903D01*
X443344Y290835D01*
X443374Y290766D01*
X443400Y290696D01*
X443401Y290696D02*
X443466Y290558D01*
X443528Y290418D01*
X443586Y290276D01*
X443641Y290133D01*
X443692Y289989D01*
X443740Y289844D01*
X443783Y289697D01*
X443823Y289550D01*
X443860Y289401D01*
X443892Y289251D01*
X443921Y289101D01*
X443946Y288950D01*
X443967Y288799D01*
X443984Y288647D01*
X443998Y288494D01*
X444007Y288342D01*
X444013Y288189D01*
X444015Y288036D01*
X439922Y288036D02*
X439924Y287883D01*
X439930Y287730D01*
X439939Y287577D01*
X439953Y287425D01*
X439970Y287273D01*
X439991Y287122D01*
X440016Y286971D01*
X440045Y286820D01*
X440077Y286671D01*
X440114Y286522D01*
X440154Y286375D01*
X440197Y286228D01*
X440245Y286083D01*
X440296Y285938D01*
X440351Y285796D01*
X440409Y285654D01*
X440471Y285514D01*
X440536Y285376D01*
X440562Y285305D01*
X440592Y285236D01*
X440625Y285169D01*
X440661Y285103D01*
X440700Y285039D01*
X440743Y284977D01*
X440789Y284918D01*
X440837Y284860D01*
X440888Y284806D01*
X440942Y284753D01*
X440999Y284704D01*
X441058Y284657D01*
X441119Y284614D01*
X441182Y284573D01*
X441247Y284536D01*
X441314Y284501D01*
X441383Y284471D01*
X441453Y284443D01*
X441524Y284420D01*
X441596Y284399D01*
X441669Y284383D01*
X441743Y284370D01*
X441818Y284360D01*
X441893Y284355D01*
X441968Y284353D01*
X443400Y285376D02*
X443465Y285514D01*
X443527Y285654D01*
X443585Y285796D01*
X443640Y285939D01*
X443691Y286083D01*
X443739Y286228D01*
X443782Y286375D01*
X443822Y286523D01*
X443859Y286671D01*
X443891Y286821D01*
X443920Y286971D01*
X443945Y287122D01*
X443966Y287273D01*
X443983Y287425D01*
X443997Y287578D01*
X444006Y287730D01*
X444012Y287883D01*
X444014Y288036D01*
X443400Y285376D02*
X443374Y285306D01*
X443344Y285236D01*
X443312Y285169D01*
X443275Y285103D01*
X443236Y285039D01*
X443193Y284977D01*
X443147Y284918D01*
X443099Y284860D01*
X443048Y284806D01*
X442994Y284753D01*
X442937Y284704D01*
X442878Y284657D01*
X442817Y284614D01*
X442754Y284573D01*
X442689Y284536D01*
X442622Y284501D01*
X442553Y284471D01*
X442483Y284443D01*
X442412Y284420D01*
X442340Y284399D01*
X442267Y284383D01*
X442193Y284370D01*
X442118Y284360D01*
X442043Y284355D01*
X441968Y284353D01*
X440332Y285990D02*
X443605Y290082D01*
X449284Y291719D02*
X446828Y284353D01*
X451739Y284353D02*
X449284Y291719D01*
X451125Y286195D02*
X447442Y286195D01*
X183176Y96647D02*
X180721Y89281D01*
X185632Y89281D02*
X183176Y96647D01*
X181335Y91123D02*
X185018Y91123D01*
X188689Y89281D02*
X188689Y96647D01*
X190735Y96647D01*
X190824Y96645D01*
X190913Y96639D01*
X191002Y96629D01*
X191090Y96616D01*
X191178Y96599D01*
X191265Y96577D01*
X191350Y96552D01*
X191435Y96524D01*
X191518Y96491D01*
X191600Y96455D01*
X191680Y96416D01*
X191758Y96373D01*
X191834Y96327D01*
X191909Y96277D01*
X191981Y96224D01*
X192050Y96168D01*
X192117Y96109D01*
X192182Y96048D01*
X192243Y95983D01*
X192302Y95916D01*
X192358Y95847D01*
X192411Y95775D01*
X192461Y95700D01*
X192507Y95624D01*
X192550Y95546D01*
X192589Y95466D01*
X192625Y95384D01*
X192658Y95301D01*
X192686Y95216D01*
X192711Y95131D01*
X192733Y95044D01*
X192750Y94956D01*
X192763Y94868D01*
X192773Y94779D01*
X192779Y94690D01*
X192781Y94601D01*
X192781Y91327D01*
X192779Y91238D01*
X192773Y91149D01*
X192763Y91060D01*
X192750Y90972D01*
X192733Y90884D01*
X192711Y90797D01*
X192686Y90712D01*
X192658Y90627D01*
X192625Y90544D01*
X192589Y90462D01*
X192550Y90382D01*
X192507Y90304D01*
X192461Y90228D01*
X192411Y90153D01*
X192358Y90081D01*
X192302Y90012D01*
X192243Y89945D01*
X192182Y89880D01*
X192117Y89819D01*
X192050Y89760D01*
X191981Y89704D01*
X191909Y89651D01*
X191834Y89601D01*
X191758Y89555D01*
X191680Y89512D01*
X191600Y89473D01*
X191518Y89437D01*
X191435Y89404D01*
X191350Y89376D01*
X191265Y89351D01*
X191178Y89329D01*
X191090Y89312D01*
X191002Y89299D01*
X190913Y89289D01*
X190824Y89283D01*
X190735Y89281D01*
X188689Y89281D01*
X196610Y89281D02*
X196610Y96647D01*
X198656Y96647D01*
X198745Y96645D01*
X198834Y96639D01*
X198923Y96629D01*
X199011Y96616D01*
X199099Y96599D01*
X199186Y96577D01*
X199271Y96552D01*
X199356Y96524D01*
X199439Y96491D01*
X199521Y96455D01*
X199601Y96416D01*
X199679Y96373D01*
X199755Y96327D01*
X199830Y96277D01*
X199902Y96224D01*
X199971Y96168D01*
X200038Y96109D01*
X200103Y96048D01*
X200164Y95983D01*
X200223Y95916D01*
X200279Y95847D01*
X200332Y95775D01*
X200382Y95700D01*
X200428Y95624D01*
X200471Y95546D01*
X200510Y95466D01*
X200546Y95384D01*
X200579Y95301D01*
X200607Y95216D01*
X200632Y95131D01*
X200654Y95044D01*
X200671Y94956D01*
X200684Y94868D01*
X200694Y94779D01*
X200700Y94690D01*
X200702Y94601D01*
X200700Y94512D01*
X200694Y94423D01*
X200684Y94334D01*
X200671Y94246D01*
X200654Y94158D01*
X200632Y94071D01*
X200607Y93986D01*
X200579Y93901D01*
X200546Y93818D01*
X200510Y93736D01*
X200471Y93656D01*
X200428Y93578D01*
X200382Y93502D01*
X200332Y93427D01*
X200279Y93355D01*
X200223Y93286D01*
X200164Y93219D01*
X200103Y93154D01*
X200038Y93093D01*
X199971Y93034D01*
X199902Y92978D01*
X199830Y92925D01*
X199755Y92875D01*
X199679Y92829D01*
X199601Y92786D01*
X199521Y92747D01*
X199439Y92711D01*
X199356Y92678D01*
X199271Y92650D01*
X199186Y92625D01*
X199099Y92603D01*
X199011Y92586D01*
X198923Y92573D01*
X198834Y92563D01*
X198745Y92557D01*
X198656Y92555D01*
X196610Y92555D01*
X203563Y89281D02*
X205610Y89281D01*
X205699Y89283D01*
X205788Y89289D01*
X205877Y89299D01*
X205965Y89312D01*
X206053Y89329D01*
X206140Y89351D01*
X206225Y89376D01*
X206310Y89404D01*
X206393Y89437D01*
X206475Y89473D01*
X206555Y89512D01*
X206633Y89555D01*
X206709Y89601D01*
X206784Y89651D01*
X206856Y89704D01*
X206925Y89760D01*
X206992Y89819D01*
X207057Y89880D01*
X207118Y89945D01*
X207177Y90012D01*
X207233Y90081D01*
X207286Y90153D01*
X207336Y90228D01*
X207382Y90304D01*
X207425Y90382D01*
X207464Y90462D01*
X207500Y90544D01*
X207533Y90627D01*
X207561Y90712D01*
X207586Y90797D01*
X207608Y90884D01*
X207625Y90972D01*
X207638Y91060D01*
X207648Y91149D01*
X207654Y91238D01*
X207656Y91327D01*
X207654Y91416D01*
X207648Y91505D01*
X207638Y91594D01*
X207625Y91682D01*
X207608Y91770D01*
X207586Y91857D01*
X207561Y91942D01*
X207533Y92027D01*
X207500Y92110D01*
X207464Y92192D01*
X207425Y92272D01*
X207382Y92350D01*
X207336Y92426D01*
X207286Y92501D01*
X207233Y92573D01*
X207177Y92642D01*
X207118Y92709D01*
X207057Y92774D01*
X206992Y92835D01*
X206925Y92894D01*
X206856Y92950D01*
X206784Y93003D01*
X206709Y93053D01*
X206633Y93099D01*
X206555Y93142D01*
X206475Y93181D01*
X206393Y93217D01*
X206310Y93250D01*
X206225Y93278D01*
X206140Y93303D01*
X206053Y93325D01*
X205965Y93342D01*
X205877Y93355D01*
X205788Y93365D01*
X205699Y93371D01*
X205610Y93373D01*
X206019Y96647D02*
X203563Y96647D01*
X206019Y96647D02*
X206098Y96645D01*
X206177Y96639D01*
X206256Y96630D01*
X206334Y96617D01*
X206411Y96599D01*
X206487Y96579D01*
X206562Y96554D01*
X206636Y96526D01*
X206709Y96495D01*
X206780Y96459D01*
X206849Y96421D01*
X206916Y96379D01*
X206981Y96334D01*
X207044Y96286D01*
X207105Y96235D01*
X207162Y96181D01*
X207218Y96125D01*
X207270Y96066D01*
X207320Y96004D01*
X207366Y95940D01*
X207410Y95874D01*
X207450Y95806D01*
X207486Y95736D01*
X207520Y95664D01*
X207550Y95590D01*
X207576Y95516D01*
X207599Y95440D01*
X207617Y95363D01*
X207633Y95286D01*
X207644Y95207D01*
X207652Y95129D01*
X207656Y95050D01*
X207656Y94970D01*
X207652Y94891D01*
X207644Y94813D01*
X207633Y94734D01*
X207617Y94657D01*
X207599Y94580D01*
X207576Y94504D01*
X207550Y94430D01*
X207520Y94356D01*
X207486Y94284D01*
X207450Y94214D01*
X207410Y94146D01*
X207366Y94080D01*
X207320Y94016D01*
X207270Y93954D01*
X207218Y93895D01*
X207162Y93839D01*
X207105Y93785D01*
X207044Y93734D01*
X206981Y93686D01*
X206916Y93641D01*
X206849Y93599D01*
X206780Y93561D01*
X206709Y93525D01*
X206636Y93494D01*
X206562Y93466D01*
X206487Y93441D01*
X206411Y93421D01*
X206334Y93403D01*
X206256Y93390D01*
X206177Y93381D01*
X206098Y93375D01*
X206019Y93373D01*
X204382Y93373D01*
X210879Y95010D02*
X212925Y96647D01*
X212925Y89281D01*
X210879Y89281D02*
X214971Y89281D01*
X222287Y94806D02*
X222285Y94891D01*
X222279Y94976D01*
X222269Y95060D01*
X222256Y95144D01*
X222238Y95228D01*
X222217Y95310D01*
X222192Y95391D01*
X222163Y95471D01*
X222130Y95550D01*
X222094Y95627D01*
X222054Y95702D01*
X222011Y95776D01*
X221965Y95847D01*
X221915Y95916D01*
X221862Y95983D01*
X221806Y96047D01*
X221747Y96108D01*
X221686Y96167D01*
X221622Y96223D01*
X221555Y96276D01*
X221486Y96326D01*
X221415Y96372D01*
X221341Y96415D01*
X221266Y96455D01*
X221189Y96491D01*
X221110Y96524D01*
X221030Y96553D01*
X220949Y96578D01*
X220867Y96599D01*
X220783Y96617D01*
X220699Y96630D01*
X220615Y96640D01*
X220530Y96646D01*
X220445Y96648D01*
X220445Y96647D02*
X220349Y96645D01*
X220253Y96639D01*
X220158Y96629D01*
X220063Y96616D01*
X219968Y96598D01*
X219875Y96577D01*
X219782Y96552D01*
X219691Y96523D01*
X219600Y96491D01*
X219511Y96455D01*
X219424Y96415D01*
X219338Y96372D01*
X219254Y96326D01*
X219172Y96276D01*
X219092Y96222D01*
X219015Y96166D01*
X218940Y96106D01*
X218867Y96044D01*
X218797Y95978D01*
X218729Y95910D01*
X218664Y95839D01*
X218603Y95766D01*
X218544Y95690D01*
X218488Y95611D01*
X218436Y95531D01*
X218387Y95448D01*
X218341Y95364D01*
X218299Y95278D01*
X218261Y95190D01*
X218226Y95101D01*
X218194Y95010D01*
X221672Y93374D02*
X221732Y93433D01*
X221789Y93495D01*
X221844Y93559D01*
X221895Y93626D01*
X221944Y93695D01*
X221990Y93765D01*
X222033Y93838D01*
X222073Y93912D01*
X222109Y93988D01*
X222142Y94066D01*
X222172Y94145D01*
X222199Y94225D01*
X222222Y94306D01*
X222241Y94388D01*
X222257Y94470D01*
X222270Y94554D01*
X222279Y94638D01*
X222284Y94722D01*
X222286Y94806D01*
X221672Y93373D02*
X218194Y89281D01*
X222286Y89281D01*
X225509Y92964D02*
X225511Y93117D01*
X225517Y93270D01*
X225526Y93422D01*
X225540Y93575D01*
X225557Y93727D01*
X225578Y93878D01*
X225603Y94029D01*
X225632Y94179D01*
X225664Y94329D01*
X225701Y94477D01*
X225741Y94625D01*
X225784Y94772D01*
X225832Y94917D01*
X225883Y95061D01*
X225937Y95204D01*
X225996Y95346D01*
X226057Y95485D01*
X226123Y95624D01*
X226149Y95694D01*
X226179Y95764D01*
X226212Y95831D01*
X226248Y95897D01*
X226287Y95961D01*
X226330Y96023D01*
X226376Y96082D01*
X226424Y96140D01*
X226475Y96194D01*
X226529Y96247D01*
X226586Y96296D01*
X226645Y96343D01*
X226706Y96386D01*
X226769Y96427D01*
X226834Y96464D01*
X226901Y96499D01*
X226970Y96529D01*
X227040Y96557D01*
X227111Y96580D01*
X227183Y96601D01*
X227256Y96617D01*
X227330Y96630D01*
X227405Y96640D01*
X227480Y96645D01*
X227555Y96647D01*
X227630Y96645D01*
X227705Y96640D01*
X227780Y96630D01*
X227854Y96617D01*
X227927Y96601D01*
X227999Y96580D01*
X228070Y96557D01*
X228140Y96529D01*
X228209Y96499D01*
X228276Y96464D01*
X228341Y96427D01*
X228404Y96386D01*
X228465Y96343D01*
X228524Y96296D01*
X228581Y96247D01*
X228635Y96194D01*
X228686Y96140D01*
X228735Y96082D01*
X228780Y96023D01*
X228823Y95961D01*
X228862Y95897D01*
X228899Y95831D01*
X228931Y95763D01*
X228961Y95694D01*
X228987Y95624D01*
X229052Y95486D01*
X229114Y95346D01*
X229172Y95204D01*
X229227Y95061D01*
X229278Y94917D01*
X229326Y94772D01*
X229369Y94625D01*
X229409Y94478D01*
X229446Y94329D01*
X229478Y94179D01*
X229507Y94029D01*
X229532Y93878D01*
X229553Y93727D01*
X229570Y93575D01*
X229584Y93422D01*
X229593Y93270D01*
X229599Y93117D01*
X229601Y92964D01*
X225509Y92964D02*
X225511Y92811D01*
X225517Y92658D01*
X225526Y92505D01*
X225540Y92353D01*
X225557Y92201D01*
X225578Y92050D01*
X225603Y91899D01*
X225632Y91748D01*
X225664Y91599D01*
X225701Y91450D01*
X225741Y91303D01*
X225784Y91156D01*
X225832Y91011D01*
X225883Y90866D01*
X225938Y90724D01*
X225996Y90582D01*
X226058Y90442D01*
X226123Y90304D01*
X226149Y90233D01*
X226179Y90164D01*
X226212Y90097D01*
X226248Y90031D01*
X226287Y89967D01*
X226330Y89905D01*
X226376Y89846D01*
X226424Y89788D01*
X226475Y89734D01*
X226529Y89681D01*
X226586Y89632D01*
X226645Y89585D01*
X226706Y89542D01*
X226769Y89501D01*
X226834Y89464D01*
X226901Y89429D01*
X226970Y89399D01*
X227040Y89371D01*
X227111Y89348D01*
X227183Y89327D01*
X227256Y89311D01*
X227330Y89298D01*
X227405Y89288D01*
X227480Y89283D01*
X227555Y89281D01*
X228987Y90304D02*
X229052Y90442D01*
X229114Y90582D01*
X229172Y90724D01*
X229227Y90867D01*
X229278Y91011D01*
X229326Y91156D01*
X229369Y91303D01*
X229409Y91451D01*
X229446Y91599D01*
X229478Y91749D01*
X229507Y91899D01*
X229532Y92050D01*
X229553Y92201D01*
X229570Y92353D01*
X229584Y92506D01*
X229593Y92658D01*
X229599Y92811D01*
X229601Y92964D01*
X228987Y90304D02*
X228961Y90234D01*
X228931Y90164D01*
X228899Y90097D01*
X228862Y90031D01*
X228823Y89967D01*
X228780Y89905D01*
X228734Y89846D01*
X228686Y89788D01*
X228635Y89734D01*
X228581Y89681D01*
X228524Y89632D01*
X228465Y89585D01*
X228404Y89542D01*
X228341Y89501D01*
X228276Y89464D01*
X228209Y89429D01*
X228140Y89399D01*
X228070Y89371D01*
X227999Y89348D01*
X227927Y89327D01*
X227854Y89311D01*
X227780Y89298D01*
X227705Y89288D01*
X227630Y89283D01*
X227555Y89281D01*
X225918Y90918D02*
X229192Y95010D01*
X80306Y96647D02*
X77851Y89281D01*
X82762Y89281D02*
X80306Y96647D01*
X78465Y91123D02*
X82148Y91123D01*
X85819Y89281D02*
X85819Y96647D01*
X87865Y96647D01*
X87954Y96645D01*
X88043Y96639D01*
X88132Y96629D01*
X88220Y96616D01*
X88308Y96599D01*
X88395Y96577D01*
X88480Y96552D01*
X88565Y96524D01*
X88648Y96491D01*
X88730Y96455D01*
X88810Y96416D01*
X88888Y96373D01*
X88964Y96327D01*
X89039Y96277D01*
X89111Y96224D01*
X89180Y96168D01*
X89247Y96109D01*
X89312Y96048D01*
X89373Y95983D01*
X89432Y95916D01*
X89488Y95847D01*
X89541Y95775D01*
X89591Y95700D01*
X89637Y95624D01*
X89680Y95546D01*
X89719Y95466D01*
X89755Y95384D01*
X89788Y95301D01*
X89816Y95216D01*
X89841Y95131D01*
X89863Y95044D01*
X89880Y94956D01*
X89893Y94868D01*
X89903Y94779D01*
X89909Y94690D01*
X89911Y94601D01*
X89911Y91327D01*
X89909Y91238D01*
X89903Y91149D01*
X89893Y91060D01*
X89880Y90972D01*
X89863Y90884D01*
X89841Y90797D01*
X89816Y90712D01*
X89788Y90627D01*
X89755Y90544D01*
X89719Y90462D01*
X89680Y90382D01*
X89637Y90304D01*
X89591Y90228D01*
X89541Y90153D01*
X89488Y90081D01*
X89432Y90012D01*
X89373Y89945D01*
X89312Y89880D01*
X89247Y89819D01*
X89180Y89760D01*
X89111Y89704D01*
X89039Y89651D01*
X88964Y89601D01*
X88888Y89555D01*
X88810Y89512D01*
X88730Y89473D01*
X88648Y89437D01*
X88565Y89404D01*
X88480Y89376D01*
X88395Y89351D01*
X88308Y89329D01*
X88220Y89312D01*
X88132Y89299D01*
X88043Y89289D01*
X87954Y89283D01*
X87865Y89281D01*
X85819Y89281D01*
X93740Y89281D02*
X93740Y96647D01*
X95786Y96647D01*
X95875Y96645D01*
X95964Y96639D01*
X96053Y96629D01*
X96141Y96616D01*
X96229Y96599D01*
X96316Y96577D01*
X96401Y96552D01*
X96486Y96524D01*
X96569Y96491D01*
X96651Y96455D01*
X96731Y96416D01*
X96809Y96373D01*
X96885Y96327D01*
X96960Y96277D01*
X97032Y96224D01*
X97101Y96168D01*
X97168Y96109D01*
X97233Y96048D01*
X97294Y95983D01*
X97353Y95916D01*
X97409Y95847D01*
X97462Y95775D01*
X97512Y95700D01*
X97558Y95624D01*
X97601Y95546D01*
X97640Y95466D01*
X97676Y95384D01*
X97709Y95301D01*
X97737Y95216D01*
X97762Y95131D01*
X97784Y95044D01*
X97801Y94956D01*
X97814Y94868D01*
X97824Y94779D01*
X97830Y94690D01*
X97832Y94601D01*
X97830Y94512D01*
X97824Y94423D01*
X97814Y94334D01*
X97801Y94246D01*
X97784Y94158D01*
X97762Y94071D01*
X97737Y93986D01*
X97709Y93901D01*
X97676Y93818D01*
X97640Y93736D01*
X97601Y93656D01*
X97558Y93578D01*
X97512Y93502D01*
X97462Y93427D01*
X97409Y93355D01*
X97353Y93286D01*
X97294Y93219D01*
X97233Y93154D01*
X97168Y93093D01*
X97101Y93034D01*
X97032Y92978D01*
X96960Y92925D01*
X96885Y92875D01*
X96809Y92829D01*
X96731Y92786D01*
X96651Y92747D01*
X96569Y92711D01*
X96486Y92678D01*
X96401Y92650D01*
X96316Y92625D01*
X96229Y92603D01*
X96141Y92586D01*
X96053Y92573D01*
X95964Y92563D01*
X95875Y92557D01*
X95786Y92555D01*
X93740Y92555D01*
X100693Y89281D02*
X102740Y89281D01*
X102829Y89283D01*
X102918Y89289D01*
X103007Y89299D01*
X103095Y89312D01*
X103183Y89329D01*
X103270Y89351D01*
X103355Y89376D01*
X103440Y89404D01*
X103523Y89437D01*
X103605Y89473D01*
X103685Y89512D01*
X103763Y89555D01*
X103839Y89601D01*
X103914Y89651D01*
X103986Y89704D01*
X104055Y89760D01*
X104122Y89819D01*
X104187Y89880D01*
X104248Y89945D01*
X104307Y90012D01*
X104363Y90081D01*
X104416Y90153D01*
X104466Y90228D01*
X104512Y90304D01*
X104555Y90382D01*
X104594Y90462D01*
X104630Y90544D01*
X104663Y90627D01*
X104691Y90712D01*
X104716Y90797D01*
X104738Y90884D01*
X104755Y90972D01*
X104768Y91060D01*
X104778Y91149D01*
X104784Y91238D01*
X104786Y91327D01*
X104784Y91416D01*
X104778Y91505D01*
X104768Y91594D01*
X104755Y91682D01*
X104738Y91770D01*
X104716Y91857D01*
X104691Y91942D01*
X104663Y92027D01*
X104630Y92110D01*
X104594Y92192D01*
X104555Y92272D01*
X104512Y92350D01*
X104466Y92426D01*
X104416Y92501D01*
X104363Y92573D01*
X104307Y92642D01*
X104248Y92709D01*
X104187Y92774D01*
X104122Y92835D01*
X104055Y92894D01*
X103986Y92950D01*
X103914Y93003D01*
X103839Y93053D01*
X103763Y93099D01*
X103685Y93142D01*
X103605Y93181D01*
X103523Y93217D01*
X103440Y93250D01*
X103355Y93278D01*
X103270Y93303D01*
X103183Y93325D01*
X103095Y93342D01*
X103007Y93355D01*
X102918Y93365D01*
X102829Y93371D01*
X102740Y93373D01*
X103149Y96647D02*
X100693Y96647D01*
X103149Y96647D02*
X103228Y96645D01*
X103307Y96639D01*
X103386Y96630D01*
X103464Y96617D01*
X103541Y96599D01*
X103617Y96579D01*
X103692Y96554D01*
X103766Y96526D01*
X103839Y96495D01*
X103910Y96459D01*
X103979Y96421D01*
X104046Y96379D01*
X104111Y96334D01*
X104174Y96286D01*
X104235Y96235D01*
X104292Y96181D01*
X104348Y96125D01*
X104400Y96066D01*
X104450Y96004D01*
X104496Y95940D01*
X104540Y95874D01*
X104580Y95806D01*
X104616Y95736D01*
X104650Y95664D01*
X104680Y95590D01*
X104706Y95516D01*
X104729Y95440D01*
X104747Y95363D01*
X104763Y95286D01*
X104774Y95207D01*
X104782Y95129D01*
X104786Y95050D01*
X104786Y94970D01*
X104782Y94891D01*
X104774Y94813D01*
X104763Y94734D01*
X104747Y94657D01*
X104729Y94580D01*
X104706Y94504D01*
X104680Y94430D01*
X104650Y94356D01*
X104616Y94284D01*
X104580Y94214D01*
X104540Y94146D01*
X104496Y94080D01*
X104450Y94016D01*
X104400Y93954D01*
X104348Y93895D01*
X104292Y93839D01*
X104235Y93785D01*
X104174Y93734D01*
X104111Y93686D01*
X104046Y93641D01*
X103979Y93599D01*
X103910Y93561D01*
X103839Y93525D01*
X103766Y93494D01*
X103692Y93466D01*
X103617Y93441D01*
X103541Y93421D01*
X103464Y93403D01*
X103386Y93390D01*
X103307Y93381D01*
X103228Y93375D01*
X103149Y93373D01*
X101512Y93373D01*
X108009Y95010D02*
X110055Y96647D01*
X110055Y89281D01*
X108009Y89281D02*
X112101Y89281D01*
X119417Y94806D02*
X119415Y94891D01*
X119409Y94976D01*
X119399Y95060D01*
X119386Y95144D01*
X119368Y95228D01*
X119347Y95310D01*
X119322Y95391D01*
X119293Y95471D01*
X119260Y95550D01*
X119224Y95627D01*
X119184Y95702D01*
X119141Y95776D01*
X119095Y95847D01*
X119045Y95916D01*
X118992Y95983D01*
X118936Y96047D01*
X118877Y96108D01*
X118816Y96167D01*
X118752Y96223D01*
X118685Y96276D01*
X118616Y96326D01*
X118545Y96372D01*
X118471Y96415D01*
X118396Y96455D01*
X118319Y96491D01*
X118240Y96524D01*
X118160Y96553D01*
X118079Y96578D01*
X117997Y96599D01*
X117913Y96617D01*
X117829Y96630D01*
X117745Y96640D01*
X117660Y96646D01*
X117575Y96648D01*
X117575Y96647D02*
X117479Y96645D01*
X117383Y96639D01*
X117288Y96629D01*
X117193Y96616D01*
X117098Y96598D01*
X117005Y96577D01*
X116912Y96552D01*
X116821Y96523D01*
X116730Y96491D01*
X116641Y96455D01*
X116554Y96415D01*
X116468Y96372D01*
X116384Y96326D01*
X116302Y96276D01*
X116222Y96222D01*
X116145Y96166D01*
X116070Y96106D01*
X115997Y96044D01*
X115927Y95978D01*
X115859Y95910D01*
X115794Y95839D01*
X115733Y95766D01*
X115674Y95690D01*
X115618Y95611D01*
X115566Y95531D01*
X115517Y95448D01*
X115471Y95364D01*
X115429Y95278D01*
X115391Y95190D01*
X115356Y95101D01*
X115324Y95010D01*
X118802Y93374D02*
X118862Y93433D01*
X118919Y93495D01*
X118974Y93559D01*
X119025Y93626D01*
X119074Y93695D01*
X119120Y93765D01*
X119163Y93838D01*
X119203Y93912D01*
X119239Y93988D01*
X119272Y94066D01*
X119302Y94145D01*
X119329Y94225D01*
X119352Y94306D01*
X119371Y94388D01*
X119387Y94470D01*
X119400Y94554D01*
X119409Y94638D01*
X119414Y94722D01*
X119416Y94806D01*
X118802Y93373D02*
X115324Y89281D01*
X119416Y89281D01*
X122639Y92964D02*
X122641Y93117D01*
X122647Y93270D01*
X122656Y93422D01*
X122670Y93575D01*
X122687Y93727D01*
X122708Y93878D01*
X122733Y94029D01*
X122762Y94179D01*
X122794Y94329D01*
X122831Y94477D01*
X122871Y94625D01*
X122914Y94772D01*
X122962Y94917D01*
X123013Y95061D01*
X123067Y95204D01*
X123126Y95346D01*
X123187Y95485D01*
X123253Y95624D01*
X123279Y95694D01*
X123309Y95764D01*
X123342Y95831D01*
X123378Y95897D01*
X123417Y95961D01*
X123460Y96023D01*
X123506Y96082D01*
X123554Y96140D01*
X123605Y96194D01*
X123659Y96247D01*
X123716Y96296D01*
X123775Y96343D01*
X123836Y96386D01*
X123899Y96427D01*
X123964Y96464D01*
X124031Y96499D01*
X124100Y96529D01*
X124170Y96557D01*
X124241Y96580D01*
X124313Y96601D01*
X124386Y96617D01*
X124460Y96630D01*
X124535Y96640D01*
X124610Y96645D01*
X124685Y96647D01*
X124760Y96645D01*
X124835Y96640D01*
X124910Y96630D01*
X124984Y96617D01*
X125057Y96601D01*
X125129Y96580D01*
X125200Y96557D01*
X125270Y96529D01*
X125339Y96499D01*
X125406Y96464D01*
X125471Y96427D01*
X125534Y96386D01*
X125595Y96343D01*
X125654Y96296D01*
X125711Y96247D01*
X125765Y96194D01*
X125816Y96140D01*
X125865Y96082D01*
X125910Y96023D01*
X125953Y95961D01*
X125992Y95897D01*
X126029Y95831D01*
X126061Y95763D01*
X126091Y95694D01*
X126117Y95624D01*
X126182Y95486D01*
X126244Y95346D01*
X126302Y95204D01*
X126357Y95061D01*
X126408Y94917D01*
X126456Y94772D01*
X126499Y94625D01*
X126539Y94478D01*
X126576Y94329D01*
X126608Y94179D01*
X126637Y94029D01*
X126662Y93878D01*
X126683Y93727D01*
X126700Y93575D01*
X126714Y93422D01*
X126723Y93270D01*
X126729Y93117D01*
X126731Y92964D01*
X122639Y92964D02*
X122641Y92811D01*
X122647Y92658D01*
X122656Y92505D01*
X122670Y92353D01*
X122687Y92201D01*
X122708Y92050D01*
X122733Y91899D01*
X122762Y91748D01*
X122794Y91599D01*
X122831Y91450D01*
X122871Y91303D01*
X122914Y91156D01*
X122962Y91011D01*
X123013Y90866D01*
X123068Y90724D01*
X123126Y90582D01*
X123188Y90442D01*
X123253Y90304D01*
X123279Y90233D01*
X123309Y90164D01*
X123342Y90097D01*
X123378Y90031D01*
X123417Y89967D01*
X123460Y89905D01*
X123506Y89846D01*
X123554Y89788D01*
X123605Y89734D01*
X123659Y89681D01*
X123716Y89632D01*
X123775Y89585D01*
X123836Y89542D01*
X123899Y89501D01*
X123964Y89464D01*
X124031Y89429D01*
X124100Y89399D01*
X124170Y89371D01*
X124241Y89348D01*
X124313Y89327D01*
X124386Y89311D01*
X124460Y89298D01*
X124535Y89288D01*
X124610Y89283D01*
X124685Y89281D01*
X126117Y90304D02*
X126182Y90442D01*
X126244Y90582D01*
X126302Y90724D01*
X126357Y90867D01*
X126408Y91011D01*
X126456Y91156D01*
X126499Y91303D01*
X126539Y91451D01*
X126576Y91599D01*
X126608Y91749D01*
X126637Y91899D01*
X126662Y92050D01*
X126683Y92201D01*
X126700Y92353D01*
X126714Y92506D01*
X126723Y92658D01*
X126729Y92811D01*
X126731Y92964D01*
X126117Y90304D02*
X126091Y90234D01*
X126061Y90164D01*
X126029Y90097D01*
X125992Y90031D01*
X125953Y89967D01*
X125910Y89905D01*
X125864Y89846D01*
X125816Y89788D01*
X125765Y89734D01*
X125711Y89681D01*
X125654Y89632D01*
X125595Y89585D01*
X125534Y89542D01*
X125471Y89501D01*
X125406Y89464D01*
X125339Y89429D01*
X125270Y89399D01*
X125200Y89371D01*
X125129Y89348D01*
X125057Y89327D01*
X124984Y89311D01*
X124910Y89298D01*
X124835Y89288D01*
X124760Y89283D01*
X124685Y89281D01*
X123048Y90918D02*
X126322Y95010D01*
X283591Y90551D02*
X286046Y97917D01*
X288502Y90551D01*
X287888Y92393D02*
X284205Y92393D01*
X291559Y90551D02*
X291559Y97917D01*
X293605Y97917D01*
X293694Y97915D01*
X293783Y97909D01*
X293872Y97899D01*
X293960Y97886D01*
X294048Y97869D01*
X294135Y97847D01*
X294220Y97822D01*
X294305Y97794D01*
X294388Y97761D01*
X294470Y97725D01*
X294550Y97686D01*
X294628Y97643D01*
X294704Y97597D01*
X294779Y97547D01*
X294851Y97494D01*
X294920Y97438D01*
X294987Y97379D01*
X295052Y97318D01*
X295113Y97253D01*
X295172Y97186D01*
X295228Y97117D01*
X295281Y97045D01*
X295331Y96970D01*
X295377Y96894D01*
X295420Y96816D01*
X295459Y96736D01*
X295495Y96654D01*
X295528Y96571D01*
X295556Y96486D01*
X295581Y96401D01*
X295603Y96314D01*
X295620Y96226D01*
X295633Y96138D01*
X295643Y96049D01*
X295649Y95960D01*
X295651Y95871D01*
X295651Y92597D01*
X295649Y92508D01*
X295643Y92419D01*
X295633Y92330D01*
X295620Y92242D01*
X295603Y92154D01*
X295581Y92067D01*
X295556Y91982D01*
X295528Y91897D01*
X295495Y91814D01*
X295459Y91732D01*
X295420Y91652D01*
X295377Y91574D01*
X295331Y91498D01*
X295281Y91423D01*
X295228Y91351D01*
X295172Y91282D01*
X295113Y91215D01*
X295052Y91150D01*
X294987Y91089D01*
X294920Y91030D01*
X294851Y90974D01*
X294779Y90921D01*
X294704Y90871D01*
X294628Y90825D01*
X294550Y90782D01*
X294470Y90743D01*
X294388Y90707D01*
X294305Y90674D01*
X294220Y90646D01*
X294135Y90621D01*
X294048Y90599D01*
X293960Y90582D01*
X293872Y90569D01*
X293783Y90559D01*
X293694Y90553D01*
X293605Y90551D01*
X291559Y90551D01*
X299480Y90551D02*
X299480Y97917D01*
X301526Y97917D01*
X301615Y97915D01*
X301704Y97909D01*
X301793Y97899D01*
X301881Y97886D01*
X301969Y97869D01*
X302056Y97847D01*
X302141Y97822D01*
X302226Y97794D01*
X302309Y97761D01*
X302391Y97725D01*
X302471Y97686D01*
X302549Y97643D01*
X302625Y97597D01*
X302700Y97547D01*
X302772Y97494D01*
X302841Y97438D01*
X302908Y97379D01*
X302973Y97318D01*
X303034Y97253D01*
X303093Y97186D01*
X303149Y97117D01*
X303202Y97045D01*
X303252Y96970D01*
X303298Y96894D01*
X303341Y96816D01*
X303380Y96736D01*
X303416Y96654D01*
X303449Y96571D01*
X303477Y96486D01*
X303502Y96401D01*
X303524Y96314D01*
X303541Y96226D01*
X303554Y96138D01*
X303564Y96049D01*
X303570Y95960D01*
X303572Y95871D01*
X303570Y95782D01*
X303564Y95693D01*
X303554Y95604D01*
X303541Y95516D01*
X303524Y95428D01*
X303502Y95341D01*
X303477Y95256D01*
X303449Y95171D01*
X303416Y95088D01*
X303380Y95006D01*
X303341Y94926D01*
X303298Y94848D01*
X303252Y94772D01*
X303202Y94697D01*
X303149Y94625D01*
X303093Y94556D01*
X303034Y94489D01*
X302973Y94424D01*
X302908Y94363D01*
X302841Y94304D01*
X302772Y94248D01*
X302700Y94195D01*
X302625Y94145D01*
X302549Y94099D01*
X302471Y94056D01*
X302391Y94017D01*
X302309Y93981D01*
X302226Y93948D01*
X302141Y93920D01*
X302056Y93895D01*
X301969Y93873D01*
X301881Y93856D01*
X301793Y93843D01*
X301704Y93833D01*
X301615Y93827D01*
X301526Y93825D01*
X299480Y93825D01*
X306433Y90551D02*
X308480Y90551D01*
X308569Y90553D01*
X308658Y90559D01*
X308747Y90569D01*
X308835Y90582D01*
X308923Y90599D01*
X309010Y90621D01*
X309095Y90646D01*
X309180Y90674D01*
X309263Y90707D01*
X309345Y90743D01*
X309425Y90782D01*
X309503Y90825D01*
X309579Y90871D01*
X309654Y90921D01*
X309726Y90974D01*
X309795Y91030D01*
X309862Y91089D01*
X309927Y91150D01*
X309988Y91215D01*
X310047Y91282D01*
X310103Y91351D01*
X310156Y91423D01*
X310206Y91498D01*
X310252Y91574D01*
X310295Y91652D01*
X310334Y91732D01*
X310370Y91814D01*
X310403Y91897D01*
X310431Y91982D01*
X310456Y92067D01*
X310478Y92154D01*
X310495Y92242D01*
X310508Y92330D01*
X310518Y92419D01*
X310524Y92508D01*
X310526Y92597D01*
X310524Y92686D01*
X310518Y92775D01*
X310508Y92864D01*
X310495Y92952D01*
X310478Y93040D01*
X310456Y93127D01*
X310431Y93212D01*
X310403Y93297D01*
X310370Y93380D01*
X310334Y93462D01*
X310295Y93542D01*
X310252Y93620D01*
X310206Y93696D01*
X310156Y93771D01*
X310103Y93843D01*
X310047Y93912D01*
X309988Y93979D01*
X309927Y94044D01*
X309862Y94105D01*
X309795Y94164D01*
X309726Y94220D01*
X309654Y94273D01*
X309579Y94323D01*
X309503Y94369D01*
X309425Y94412D01*
X309345Y94451D01*
X309263Y94487D01*
X309180Y94520D01*
X309095Y94548D01*
X309010Y94573D01*
X308923Y94595D01*
X308835Y94612D01*
X308747Y94625D01*
X308658Y94635D01*
X308569Y94641D01*
X308480Y94643D01*
X308889Y97917D02*
X306433Y97917D01*
X308889Y97917D02*
X308968Y97915D01*
X309047Y97909D01*
X309126Y97900D01*
X309204Y97887D01*
X309281Y97869D01*
X309357Y97849D01*
X309432Y97824D01*
X309506Y97796D01*
X309579Y97765D01*
X309650Y97729D01*
X309719Y97691D01*
X309786Y97649D01*
X309851Y97604D01*
X309914Y97556D01*
X309975Y97505D01*
X310032Y97451D01*
X310088Y97395D01*
X310140Y97336D01*
X310190Y97274D01*
X310236Y97210D01*
X310280Y97144D01*
X310320Y97076D01*
X310356Y97006D01*
X310390Y96934D01*
X310420Y96860D01*
X310446Y96786D01*
X310469Y96710D01*
X310487Y96633D01*
X310503Y96556D01*
X310514Y96477D01*
X310522Y96399D01*
X310526Y96320D01*
X310526Y96240D01*
X310522Y96161D01*
X310514Y96083D01*
X310503Y96004D01*
X310487Y95927D01*
X310469Y95850D01*
X310446Y95774D01*
X310420Y95700D01*
X310390Y95626D01*
X310356Y95554D01*
X310320Y95484D01*
X310280Y95416D01*
X310236Y95350D01*
X310190Y95286D01*
X310140Y95224D01*
X310088Y95165D01*
X310032Y95109D01*
X309975Y95055D01*
X309914Y95004D01*
X309851Y94956D01*
X309786Y94911D01*
X309719Y94869D01*
X309650Y94831D01*
X309579Y94795D01*
X309506Y94764D01*
X309432Y94736D01*
X309357Y94711D01*
X309281Y94691D01*
X309204Y94673D01*
X309126Y94660D01*
X309047Y94651D01*
X308968Y94645D01*
X308889Y94643D01*
X307252Y94643D01*
X313749Y96280D02*
X315795Y97917D01*
X315795Y90551D01*
X313749Y90551D02*
X317841Y90551D01*
X325157Y96076D02*
X325155Y96161D01*
X325149Y96246D01*
X325139Y96330D01*
X325126Y96414D01*
X325108Y96498D01*
X325087Y96580D01*
X325062Y96661D01*
X325033Y96741D01*
X325000Y96820D01*
X324964Y96897D01*
X324924Y96972D01*
X324881Y97046D01*
X324835Y97117D01*
X324785Y97186D01*
X324732Y97253D01*
X324676Y97317D01*
X324617Y97378D01*
X324556Y97437D01*
X324492Y97493D01*
X324425Y97546D01*
X324356Y97596D01*
X324285Y97642D01*
X324211Y97685D01*
X324136Y97725D01*
X324059Y97761D01*
X323980Y97794D01*
X323900Y97823D01*
X323819Y97848D01*
X323737Y97869D01*
X323653Y97887D01*
X323569Y97900D01*
X323485Y97910D01*
X323400Y97916D01*
X323315Y97918D01*
X323315Y97917D02*
X323219Y97915D01*
X323123Y97909D01*
X323028Y97899D01*
X322933Y97886D01*
X322838Y97868D01*
X322745Y97847D01*
X322652Y97822D01*
X322561Y97793D01*
X322470Y97761D01*
X322381Y97725D01*
X322294Y97685D01*
X322208Y97642D01*
X322124Y97596D01*
X322042Y97546D01*
X321962Y97492D01*
X321885Y97436D01*
X321810Y97376D01*
X321737Y97314D01*
X321667Y97248D01*
X321599Y97180D01*
X321534Y97109D01*
X321473Y97036D01*
X321414Y96960D01*
X321358Y96881D01*
X321306Y96801D01*
X321257Y96718D01*
X321211Y96634D01*
X321169Y96548D01*
X321131Y96460D01*
X321096Y96371D01*
X321064Y96280D01*
X324542Y94644D02*
X324602Y94703D01*
X324659Y94765D01*
X324714Y94829D01*
X324765Y94896D01*
X324814Y94965D01*
X324860Y95035D01*
X324903Y95108D01*
X324943Y95182D01*
X324979Y95258D01*
X325012Y95336D01*
X325042Y95415D01*
X325069Y95495D01*
X325092Y95576D01*
X325111Y95658D01*
X325127Y95740D01*
X325140Y95824D01*
X325149Y95908D01*
X325154Y95992D01*
X325156Y96076D01*
X324542Y94643D02*
X321064Y90551D01*
X325156Y90551D01*
X328379Y94234D02*
X328381Y94387D01*
X328387Y94540D01*
X328396Y94692D01*
X328410Y94845D01*
X328427Y94997D01*
X328448Y95148D01*
X328473Y95299D01*
X328502Y95449D01*
X328534Y95599D01*
X328571Y95747D01*
X328611Y95895D01*
X328654Y96042D01*
X328702Y96187D01*
X328753Y96331D01*
X328807Y96474D01*
X328866Y96616D01*
X328927Y96755D01*
X328993Y96894D01*
X329019Y96964D01*
X329049Y97034D01*
X329082Y97101D01*
X329118Y97167D01*
X329157Y97231D01*
X329200Y97293D01*
X329246Y97352D01*
X329294Y97410D01*
X329345Y97464D01*
X329399Y97517D01*
X329456Y97566D01*
X329515Y97613D01*
X329576Y97656D01*
X329639Y97697D01*
X329704Y97734D01*
X329771Y97769D01*
X329840Y97799D01*
X329910Y97827D01*
X329981Y97850D01*
X330053Y97871D01*
X330126Y97887D01*
X330200Y97900D01*
X330275Y97910D01*
X330350Y97915D01*
X330425Y97917D01*
X330500Y97915D01*
X330575Y97910D01*
X330650Y97900D01*
X330724Y97887D01*
X330797Y97871D01*
X330869Y97850D01*
X330940Y97827D01*
X331010Y97799D01*
X331079Y97769D01*
X331146Y97734D01*
X331211Y97697D01*
X331274Y97656D01*
X331335Y97613D01*
X331394Y97566D01*
X331451Y97517D01*
X331505Y97464D01*
X331556Y97410D01*
X331605Y97352D01*
X331650Y97293D01*
X331693Y97231D01*
X331732Y97167D01*
X331769Y97101D01*
X331801Y97033D01*
X331831Y96964D01*
X331857Y96894D01*
X331922Y96756D01*
X331984Y96616D01*
X332042Y96474D01*
X332097Y96331D01*
X332148Y96187D01*
X332196Y96042D01*
X332239Y95895D01*
X332279Y95748D01*
X332316Y95599D01*
X332348Y95449D01*
X332377Y95299D01*
X332402Y95148D01*
X332423Y94997D01*
X332440Y94845D01*
X332454Y94692D01*
X332463Y94540D01*
X332469Y94387D01*
X332471Y94234D01*
X328379Y94234D02*
X328381Y94081D01*
X328387Y93928D01*
X328396Y93775D01*
X328410Y93623D01*
X328427Y93471D01*
X328448Y93320D01*
X328473Y93169D01*
X328502Y93018D01*
X328534Y92869D01*
X328571Y92720D01*
X328611Y92573D01*
X328654Y92426D01*
X328702Y92281D01*
X328753Y92136D01*
X328808Y91994D01*
X328866Y91852D01*
X328928Y91712D01*
X328993Y91574D01*
X329019Y91503D01*
X329049Y91434D01*
X329082Y91367D01*
X329118Y91301D01*
X329157Y91237D01*
X329200Y91175D01*
X329246Y91116D01*
X329294Y91058D01*
X329345Y91004D01*
X329399Y90951D01*
X329456Y90902D01*
X329515Y90855D01*
X329576Y90812D01*
X329639Y90771D01*
X329704Y90734D01*
X329771Y90699D01*
X329840Y90669D01*
X329910Y90641D01*
X329981Y90618D01*
X330053Y90597D01*
X330126Y90581D01*
X330200Y90568D01*
X330275Y90558D01*
X330350Y90553D01*
X330425Y90551D01*
X331857Y91574D02*
X331922Y91712D01*
X331984Y91852D01*
X332042Y91994D01*
X332097Y92137D01*
X332148Y92281D01*
X332196Y92426D01*
X332239Y92573D01*
X332279Y92721D01*
X332316Y92869D01*
X332348Y93019D01*
X332377Y93169D01*
X332402Y93320D01*
X332423Y93471D01*
X332440Y93623D01*
X332454Y93776D01*
X332463Y93928D01*
X332469Y94081D01*
X332471Y94234D01*
X331857Y91574D02*
X331831Y91504D01*
X331801Y91434D01*
X331769Y91367D01*
X331732Y91301D01*
X331693Y91237D01*
X331650Y91175D01*
X331604Y91116D01*
X331556Y91058D01*
X331505Y91004D01*
X331451Y90951D01*
X331394Y90902D01*
X331335Y90855D01*
X331274Y90812D01*
X331211Y90771D01*
X331146Y90734D01*
X331079Y90699D01*
X331010Y90669D01*
X330940Y90641D01*
X330869Y90618D01*
X330797Y90597D01*
X330724Y90581D01*
X330650Y90568D01*
X330575Y90558D01*
X330500Y90553D01*
X330425Y90551D01*
X328788Y92188D02*
X332062Y96280D01*
X519938Y66562D02*
X521575Y64516D01*
X519938Y66562D02*
X527304Y66562D01*
X527304Y64516D02*
X527304Y68608D01*
X527304Y72193D02*
X519938Y72193D01*
X519938Y76285D02*
X524439Y72193D01*
X522803Y73830D02*
X527304Y76285D01*
X375011Y143764D02*
X372965Y142127D01*
X375011Y143764D02*
X375011Y136398D01*
X372965Y136398D02*
X377057Y136398D01*
X380280Y140081D02*
X380282Y140234D01*
X380288Y140387D01*
X380297Y140539D01*
X380311Y140692D01*
X380328Y140844D01*
X380349Y140995D01*
X380374Y141146D01*
X380403Y141296D01*
X380435Y141446D01*
X380472Y141594D01*
X380512Y141742D01*
X380555Y141889D01*
X380603Y142034D01*
X380654Y142178D01*
X380708Y142321D01*
X380767Y142463D01*
X380828Y142602D01*
X380894Y142741D01*
X380920Y142811D01*
X380950Y142881D01*
X380983Y142948D01*
X381019Y143014D01*
X381058Y143078D01*
X381101Y143140D01*
X381147Y143199D01*
X381195Y143257D01*
X381246Y143311D01*
X381300Y143364D01*
X381357Y143413D01*
X381416Y143460D01*
X381477Y143503D01*
X381540Y143544D01*
X381605Y143581D01*
X381672Y143616D01*
X381741Y143646D01*
X381811Y143674D01*
X381882Y143697D01*
X381954Y143718D01*
X382027Y143734D01*
X382101Y143747D01*
X382176Y143757D01*
X382251Y143762D01*
X382326Y143764D01*
X382401Y143762D01*
X382476Y143757D01*
X382551Y143747D01*
X382625Y143734D01*
X382698Y143718D01*
X382770Y143697D01*
X382841Y143674D01*
X382911Y143646D01*
X382980Y143616D01*
X383047Y143581D01*
X383112Y143544D01*
X383175Y143503D01*
X383236Y143460D01*
X383295Y143413D01*
X383352Y143364D01*
X383406Y143311D01*
X383457Y143257D01*
X383506Y143199D01*
X383551Y143140D01*
X383594Y143078D01*
X383633Y143014D01*
X383670Y142948D01*
X383702Y142880D01*
X383732Y142811D01*
X383758Y142741D01*
X383823Y142603D01*
X383885Y142463D01*
X383943Y142321D01*
X383998Y142178D01*
X384049Y142034D01*
X384097Y141889D01*
X384140Y141742D01*
X384180Y141595D01*
X384217Y141446D01*
X384249Y141296D01*
X384278Y141146D01*
X384303Y140995D01*
X384324Y140844D01*
X384341Y140692D01*
X384355Y140539D01*
X384364Y140387D01*
X384370Y140234D01*
X384372Y140081D01*
X380280Y140081D02*
X380282Y139928D01*
X380288Y139775D01*
X380297Y139622D01*
X380311Y139470D01*
X380328Y139318D01*
X380349Y139167D01*
X380374Y139016D01*
X380403Y138865D01*
X380435Y138716D01*
X380472Y138567D01*
X380512Y138420D01*
X380555Y138273D01*
X380603Y138128D01*
X380654Y137983D01*
X380709Y137841D01*
X380767Y137699D01*
X380829Y137559D01*
X380894Y137421D01*
X380920Y137350D01*
X380950Y137281D01*
X380983Y137214D01*
X381019Y137148D01*
X381058Y137084D01*
X381101Y137022D01*
X381147Y136963D01*
X381195Y136905D01*
X381246Y136851D01*
X381300Y136798D01*
X381357Y136749D01*
X381416Y136702D01*
X381477Y136659D01*
X381540Y136618D01*
X381605Y136581D01*
X381672Y136546D01*
X381741Y136516D01*
X381811Y136488D01*
X381882Y136465D01*
X381954Y136444D01*
X382027Y136428D01*
X382101Y136415D01*
X382176Y136405D01*
X382251Y136400D01*
X382326Y136398D01*
X383758Y137421D02*
X383823Y137559D01*
X383885Y137699D01*
X383943Y137841D01*
X383998Y137984D01*
X384049Y138128D01*
X384097Y138273D01*
X384140Y138420D01*
X384180Y138568D01*
X384217Y138716D01*
X384249Y138866D01*
X384278Y139016D01*
X384303Y139167D01*
X384324Y139318D01*
X384341Y139470D01*
X384355Y139623D01*
X384364Y139775D01*
X384370Y139928D01*
X384372Y140081D01*
X383758Y137421D02*
X383732Y137351D01*
X383702Y137281D01*
X383670Y137214D01*
X383633Y137148D01*
X383594Y137084D01*
X383551Y137022D01*
X383505Y136963D01*
X383457Y136905D01*
X383406Y136851D01*
X383352Y136798D01*
X383295Y136749D01*
X383236Y136702D01*
X383175Y136659D01*
X383112Y136618D01*
X383047Y136581D01*
X382980Y136546D01*
X382911Y136516D01*
X382841Y136488D01*
X382770Y136465D01*
X382698Y136444D01*
X382625Y136428D01*
X382551Y136415D01*
X382476Y136405D01*
X382401Y136400D01*
X382326Y136398D01*
X380689Y138035D02*
X383963Y142127D01*
X387957Y143764D02*
X387957Y136398D01*
X387957Y139263D02*
X392049Y143764D01*
X389594Y140899D02*
X392049Y136398D01*
X385685Y151511D02*
X384048Y153557D01*
X391414Y153557D01*
X391414Y151511D02*
X391414Y155603D01*
X387731Y158827D02*
X387578Y158829D01*
X387425Y158835D01*
X387273Y158844D01*
X387120Y158858D01*
X386968Y158875D01*
X386817Y158896D01*
X386666Y158921D01*
X386516Y158950D01*
X386366Y158982D01*
X386218Y159019D01*
X386070Y159059D01*
X385923Y159102D01*
X385778Y159150D01*
X385634Y159201D01*
X385491Y159255D01*
X385349Y159314D01*
X385210Y159375D01*
X385071Y159441D01*
X385071Y159440D02*
X385001Y159466D01*
X384931Y159496D01*
X384864Y159529D01*
X384798Y159565D01*
X384734Y159604D01*
X384672Y159647D01*
X384613Y159693D01*
X384555Y159741D01*
X384501Y159792D01*
X384448Y159846D01*
X384399Y159903D01*
X384352Y159962D01*
X384309Y160023D01*
X384268Y160086D01*
X384231Y160151D01*
X384196Y160218D01*
X384166Y160287D01*
X384138Y160357D01*
X384115Y160428D01*
X384094Y160500D01*
X384078Y160573D01*
X384065Y160647D01*
X384055Y160722D01*
X384050Y160797D01*
X384048Y160872D01*
X384050Y160947D01*
X384055Y161022D01*
X384065Y161097D01*
X384078Y161171D01*
X384094Y161244D01*
X384115Y161316D01*
X384138Y161387D01*
X384166Y161457D01*
X384196Y161526D01*
X384231Y161593D01*
X384268Y161658D01*
X384309Y161721D01*
X384352Y161782D01*
X384399Y161841D01*
X384448Y161898D01*
X384501Y161952D01*
X384555Y162003D01*
X384613Y162052D01*
X384672Y162097D01*
X384734Y162140D01*
X384798Y162179D01*
X384864Y162216D01*
X384932Y162248D01*
X385001Y162278D01*
X385071Y162304D01*
X385209Y162369D01*
X385349Y162431D01*
X385491Y162489D01*
X385634Y162544D01*
X385778Y162595D01*
X385923Y162643D01*
X386070Y162686D01*
X386217Y162726D01*
X386366Y162763D01*
X386516Y162795D01*
X386666Y162824D01*
X386817Y162849D01*
X386968Y162870D01*
X387120Y162887D01*
X387273Y162901D01*
X387425Y162910D01*
X387578Y162916D01*
X387731Y162918D01*
X387731Y158827D02*
X387884Y158829D01*
X388037Y158835D01*
X388189Y158844D01*
X388342Y158858D01*
X388494Y158875D01*
X388645Y158896D01*
X388796Y158921D01*
X388946Y158950D01*
X389096Y158982D01*
X389244Y159019D01*
X389392Y159059D01*
X389539Y159102D01*
X389684Y159150D01*
X389828Y159201D01*
X389971Y159255D01*
X390113Y159314D01*
X390252Y159375D01*
X390391Y159441D01*
X390391Y159440D02*
X390462Y159466D01*
X390531Y159496D01*
X390598Y159529D01*
X390664Y159565D01*
X390728Y159604D01*
X390790Y159647D01*
X390849Y159693D01*
X390907Y159741D01*
X390961Y159792D01*
X391014Y159846D01*
X391063Y159903D01*
X391110Y159962D01*
X391153Y160023D01*
X391194Y160086D01*
X391231Y160151D01*
X391266Y160218D01*
X391296Y160287D01*
X391324Y160357D01*
X391347Y160428D01*
X391368Y160500D01*
X391384Y160573D01*
X391397Y160647D01*
X391407Y160722D01*
X391412Y160797D01*
X391414Y160872D01*
X390391Y162304D02*
X390253Y162369D01*
X390113Y162431D01*
X389971Y162489D01*
X389828Y162544D01*
X389684Y162595D01*
X389539Y162643D01*
X389392Y162686D01*
X389245Y162726D01*
X389096Y162763D01*
X388946Y162795D01*
X388796Y162824D01*
X388645Y162849D01*
X388494Y162870D01*
X388342Y162887D01*
X388189Y162901D01*
X388037Y162910D01*
X387884Y162916D01*
X387731Y162918D01*
X390391Y162304D02*
X390461Y162278D01*
X390531Y162248D01*
X390598Y162215D01*
X390664Y162179D01*
X390728Y162140D01*
X390790Y162097D01*
X390849Y162051D01*
X390907Y162003D01*
X390961Y161952D01*
X391014Y161898D01*
X391063Y161841D01*
X391110Y161782D01*
X391153Y161721D01*
X391194Y161658D01*
X391231Y161593D01*
X391266Y161526D01*
X391296Y161457D01*
X391324Y161387D01*
X391347Y161316D01*
X391368Y161244D01*
X391384Y161171D01*
X391397Y161097D01*
X391407Y161022D01*
X391412Y160947D01*
X391414Y160872D01*
X389777Y159235D02*
X385685Y162509D01*
X384048Y166503D02*
X391414Y166503D01*
X388549Y166503D02*
X384048Y170595D01*
X386913Y168140D02*
X391414Y170595D01*
X429133Y173242D02*
X430770Y171196D01*
X429133Y173242D02*
X436499Y173242D01*
X436499Y171196D02*
X436499Y175288D01*
X432816Y178512D02*
X432663Y178514D01*
X432510Y178520D01*
X432358Y178529D01*
X432205Y178543D01*
X432053Y178560D01*
X431902Y178581D01*
X431751Y178606D01*
X431601Y178635D01*
X431451Y178667D01*
X431303Y178704D01*
X431155Y178744D01*
X431008Y178787D01*
X430863Y178835D01*
X430719Y178886D01*
X430576Y178940D01*
X430434Y178999D01*
X430295Y179060D01*
X430156Y179126D01*
X430156Y179125D02*
X430086Y179151D01*
X430016Y179181D01*
X429949Y179214D01*
X429883Y179250D01*
X429819Y179289D01*
X429757Y179332D01*
X429698Y179378D01*
X429640Y179426D01*
X429586Y179477D01*
X429533Y179531D01*
X429484Y179588D01*
X429437Y179647D01*
X429394Y179708D01*
X429353Y179771D01*
X429316Y179836D01*
X429281Y179903D01*
X429251Y179972D01*
X429223Y180042D01*
X429200Y180113D01*
X429179Y180185D01*
X429163Y180258D01*
X429150Y180332D01*
X429140Y180407D01*
X429135Y180482D01*
X429133Y180557D01*
X429135Y180632D01*
X429140Y180707D01*
X429150Y180782D01*
X429163Y180856D01*
X429179Y180929D01*
X429200Y181001D01*
X429223Y181072D01*
X429251Y181142D01*
X429281Y181211D01*
X429316Y181278D01*
X429353Y181343D01*
X429394Y181406D01*
X429437Y181467D01*
X429484Y181526D01*
X429533Y181583D01*
X429586Y181637D01*
X429640Y181688D01*
X429698Y181737D01*
X429757Y181782D01*
X429819Y181825D01*
X429883Y181864D01*
X429949Y181901D01*
X430017Y181933D01*
X430086Y181963D01*
X430156Y181989D01*
X430294Y182054D01*
X430434Y182116D01*
X430576Y182174D01*
X430719Y182229D01*
X430863Y182280D01*
X431008Y182328D01*
X431155Y182371D01*
X431302Y182411D01*
X431451Y182448D01*
X431601Y182480D01*
X431751Y182509D01*
X431902Y182534D01*
X432053Y182555D01*
X432205Y182572D01*
X432358Y182586D01*
X432510Y182595D01*
X432663Y182601D01*
X432816Y182603D01*
X432816Y178512D02*
X432969Y178514D01*
X433122Y178520D01*
X433274Y178529D01*
X433427Y178543D01*
X433579Y178560D01*
X433730Y178581D01*
X433881Y178606D01*
X434031Y178635D01*
X434181Y178667D01*
X434329Y178704D01*
X434477Y178744D01*
X434624Y178787D01*
X434769Y178835D01*
X434913Y178886D01*
X435056Y178940D01*
X435198Y178999D01*
X435337Y179060D01*
X435476Y179126D01*
X435476Y179125D02*
X435547Y179151D01*
X435616Y179181D01*
X435683Y179214D01*
X435749Y179250D01*
X435813Y179289D01*
X435875Y179332D01*
X435934Y179378D01*
X435992Y179426D01*
X436046Y179477D01*
X436099Y179531D01*
X436148Y179588D01*
X436195Y179647D01*
X436238Y179708D01*
X436279Y179771D01*
X436316Y179836D01*
X436351Y179903D01*
X436381Y179972D01*
X436409Y180042D01*
X436432Y180113D01*
X436453Y180185D01*
X436469Y180258D01*
X436482Y180332D01*
X436492Y180407D01*
X436497Y180482D01*
X436499Y180557D01*
X435476Y181989D02*
X435338Y182054D01*
X435198Y182116D01*
X435056Y182174D01*
X434913Y182229D01*
X434769Y182280D01*
X434624Y182328D01*
X434477Y182371D01*
X434330Y182411D01*
X434181Y182448D01*
X434031Y182480D01*
X433881Y182509D01*
X433730Y182534D01*
X433579Y182555D01*
X433427Y182572D01*
X433274Y182586D01*
X433122Y182595D01*
X432969Y182601D01*
X432816Y182603D01*
X435476Y181989D02*
X435546Y181963D01*
X435616Y181933D01*
X435683Y181900D01*
X435749Y181864D01*
X435813Y181825D01*
X435875Y181782D01*
X435934Y181736D01*
X435992Y181688D01*
X436046Y181637D01*
X436099Y181583D01*
X436148Y181526D01*
X436195Y181467D01*
X436238Y181406D01*
X436279Y181343D01*
X436316Y181278D01*
X436351Y181211D01*
X436381Y181142D01*
X436409Y181072D01*
X436432Y181001D01*
X436453Y180929D01*
X436469Y180856D01*
X436482Y180782D01*
X436492Y180707D01*
X436497Y180632D01*
X436499Y180557D01*
X434862Y178920D02*
X430770Y182194D01*
X429133Y186188D02*
X436499Y186188D01*
X433634Y186188D02*
X429133Y190280D01*
X431998Y187825D02*
X436499Y190280D01*
X403586Y216789D02*
X401540Y215152D01*
X403586Y216789D02*
X403586Y209423D01*
X401540Y209423D02*
X405632Y209423D01*
X408855Y213106D02*
X408857Y213259D01*
X408863Y213412D01*
X408872Y213564D01*
X408886Y213717D01*
X408903Y213869D01*
X408924Y214020D01*
X408949Y214171D01*
X408978Y214321D01*
X409010Y214471D01*
X409047Y214619D01*
X409087Y214767D01*
X409130Y214914D01*
X409178Y215059D01*
X409229Y215203D01*
X409283Y215346D01*
X409342Y215488D01*
X409403Y215627D01*
X409469Y215766D01*
X409495Y215836D01*
X409525Y215906D01*
X409558Y215973D01*
X409594Y216039D01*
X409633Y216103D01*
X409676Y216165D01*
X409722Y216224D01*
X409770Y216282D01*
X409821Y216336D01*
X409875Y216389D01*
X409932Y216438D01*
X409991Y216485D01*
X410052Y216528D01*
X410115Y216569D01*
X410180Y216606D01*
X410247Y216641D01*
X410316Y216671D01*
X410386Y216699D01*
X410457Y216722D01*
X410529Y216743D01*
X410602Y216759D01*
X410676Y216772D01*
X410751Y216782D01*
X410826Y216787D01*
X410901Y216789D01*
X410976Y216787D01*
X411051Y216782D01*
X411126Y216772D01*
X411200Y216759D01*
X411273Y216743D01*
X411345Y216722D01*
X411416Y216699D01*
X411486Y216671D01*
X411555Y216641D01*
X411622Y216606D01*
X411687Y216569D01*
X411750Y216528D01*
X411811Y216485D01*
X411870Y216438D01*
X411927Y216389D01*
X411981Y216336D01*
X412032Y216282D01*
X412081Y216224D01*
X412126Y216165D01*
X412169Y216103D01*
X412208Y216039D01*
X412245Y215973D01*
X412277Y215905D01*
X412307Y215836D01*
X412333Y215766D01*
X412398Y215628D01*
X412460Y215488D01*
X412518Y215346D01*
X412573Y215203D01*
X412624Y215059D01*
X412672Y214914D01*
X412715Y214767D01*
X412755Y214620D01*
X412792Y214471D01*
X412824Y214321D01*
X412853Y214171D01*
X412878Y214020D01*
X412899Y213869D01*
X412916Y213717D01*
X412930Y213564D01*
X412939Y213412D01*
X412945Y213259D01*
X412947Y213106D01*
X408855Y213106D02*
X408857Y212953D01*
X408863Y212800D01*
X408872Y212647D01*
X408886Y212495D01*
X408903Y212343D01*
X408924Y212192D01*
X408949Y212041D01*
X408978Y211890D01*
X409010Y211741D01*
X409047Y211592D01*
X409087Y211445D01*
X409130Y211298D01*
X409178Y211153D01*
X409229Y211008D01*
X409284Y210866D01*
X409342Y210724D01*
X409404Y210584D01*
X409469Y210446D01*
X409495Y210375D01*
X409525Y210306D01*
X409558Y210239D01*
X409594Y210173D01*
X409633Y210109D01*
X409676Y210047D01*
X409722Y209988D01*
X409770Y209930D01*
X409821Y209876D01*
X409875Y209823D01*
X409932Y209774D01*
X409991Y209727D01*
X410052Y209684D01*
X410115Y209643D01*
X410180Y209606D01*
X410247Y209571D01*
X410316Y209541D01*
X410386Y209513D01*
X410457Y209490D01*
X410529Y209469D01*
X410602Y209453D01*
X410676Y209440D01*
X410751Y209430D01*
X410826Y209425D01*
X410901Y209423D01*
X412333Y210446D02*
X412398Y210584D01*
X412460Y210724D01*
X412518Y210866D01*
X412573Y211009D01*
X412624Y211153D01*
X412672Y211298D01*
X412715Y211445D01*
X412755Y211593D01*
X412792Y211741D01*
X412824Y211891D01*
X412853Y212041D01*
X412878Y212192D01*
X412899Y212343D01*
X412916Y212495D01*
X412930Y212648D01*
X412939Y212800D01*
X412945Y212953D01*
X412947Y213106D01*
X412333Y210446D02*
X412307Y210376D01*
X412277Y210306D01*
X412245Y210239D01*
X412208Y210173D01*
X412169Y210109D01*
X412126Y210047D01*
X412080Y209988D01*
X412032Y209930D01*
X411981Y209876D01*
X411927Y209823D01*
X411870Y209774D01*
X411811Y209727D01*
X411750Y209684D01*
X411687Y209643D01*
X411622Y209606D01*
X411555Y209571D01*
X411486Y209541D01*
X411416Y209513D01*
X411345Y209490D01*
X411273Y209469D01*
X411200Y209453D01*
X411126Y209440D01*
X411051Y209430D01*
X410976Y209425D01*
X410901Y209423D01*
X409264Y211060D02*
X412538Y215152D01*
X416532Y216789D02*
X416532Y209423D01*
X416532Y212288D02*
X420624Y216789D01*
X418169Y213924D02*
X420624Y209423D01*
X460305Y136172D02*
X460305Y135763D01*
X460305Y136172D02*
X460714Y136172D01*
X460714Y135763D01*
X460305Y135763D01*
X463584Y141492D02*
X465630Y143129D01*
X465630Y135763D01*
X463584Y135763D02*
X467677Y135763D01*
X471065Y136991D02*
X471065Y140674D01*
X471065Y136991D02*
X471067Y136922D01*
X471073Y136854D01*
X471082Y136785D01*
X471096Y136718D01*
X471113Y136651D01*
X471134Y136585D01*
X471158Y136521D01*
X471187Y136458D01*
X471218Y136397D01*
X471253Y136338D01*
X471291Y136280D01*
X471333Y136225D01*
X471377Y136173D01*
X471425Y136123D01*
X471475Y136075D01*
X471527Y136031D01*
X471582Y135989D01*
X471640Y135951D01*
X471699Y135916D01*
X471760Y135885D01*
X471823Y135856D01*
X471887Y135832D01*
X471953Y135811D01*
X472020Y135794D01*
X472087Y135780D01*
X472156Y135771D01*
X472224Y135765D01*
X472293Y135763D01*
X474339Y135763D01*
X474339Y140674D01*
X478042Y141901D02*
X478042Y135763D01*
X478042Y141901D02*
X478044Y141970D01*
X478050Y142038D01*
X478059Y142107D01*
X478073Y142174D01*
X478090Y142241D01*
X478111Y142307D01*
X478135Y142371D01*
X478164Y142434D01*
X478195Y142495D01*
X478230Y142554D01*
X478268Y142612D01*
X478310Y142667D01*
X478354Y142719D01*
X478402Y142769D01*
X478452Y142817D01*
X478504Y142861D01*
X478559Y142902D01*
X478617Y142941D01*
X478676Y142976D01*
X478737Y143007D01*
X478800Y143036D01*
X478864Y143060D01*
X478930Y143081D01*
X478997Y143098D01*
X479064Y143112D01*
X479132Y143121D01*
X479201Y143127D01*
X479270Y143129D01*
X479679Y143129D01*
X479679Y140674D02*
X477224Y140674D01*
X542643Y139630D02*
X543052Y139630D01*
X542643Y139630D02*
X542643Y140039D01*
X543052Y140039D01*
X543052Y139630D01*
X537323Y142909D02*
X535686Y144955D01*
X543052Y144955D01*
X543052Y142909D02*
X543052Y147002D01*
X541824Y150390D02*
X538141Y150390D01*
X541824Y150390D02*
X541893Y150392D01*
X541961Y150398D01*
X542030Y150407D01*
X542097Y150421D01*
X542164Y150438D01*
X542230Y150459D01*
X542294Y150483D01*
X542357Y150512D01*
X542418Y150543D01*
X542477Y150578D01*
X542535Y150616D01*
X542590Y150658D01*
X542642Y150702D01*
X542692Y150750D01*
X542740Y150800D01*
X542784Y150852D01*
X542826Y150907D01*
X542864Y150965D01*
X542899Y151024D01*
X542930Y151085D01*
X542959Y151148D01*
X542983Y151212D01*
X543004Y151278D01*
X543021Y151345D01*
X543035Y151412D01*
X543044Y151481D01*
X543050Y151549D01*
X543052Y151618D01*
X543052Y153664D01*
X538141Y153664D01*
X536914Y157367D02*
X543052Y157367D01*
X536914Y157367D02*
X536845Y157369D01*
X536777Y157375D01*
X536708Y157384D01*
X536641Y157398D01*
X536574Y157415D01*
X536508Y157436D01*
X536444Y157460D01*
X536381Y157489D01*
X536320Y157520D01*
X536261Y157555D01*
X536203Y157593D01*
X536148Y157635D01*
X536096Y157679D01*
X536046Y157727D01*
X535998Y157777D01*
X535954Y157829D01*
X535913Y157884D01*
X535874Y157942D01*
X535839Y158001D01*
X535808Y158062D01*
X535779Y158125D01*
X535755Y158189D01*
X535734Y158255D01*
X535717Y158322D01*
X535703Y158389D01*
X535694Y158457D01*
X535688Y158526D01*
X535686Y158595D01*
X535686Y159004D01*
X538141Y159004D02*
X538141Y156549D01*
X385572Y228530D02*
X385163Y228530D01*
X385163Y228939D01*
X385572Y228939D01*
X385572Y228530D01*
X379843Y231809D02*
X378206Y233855D01*
X385572Y233855D01*
X385572Y231809D02*
X385572Y235902D01*
X384344Y239290D02*
X380661Y239290D01*
X384344Y239290D02*
X384413Y239292D01*
X384481Y239298D01*
X384550Y239307D01*
X384617Y239321D01*
X384684Y239338D01*
X384750Y239359D01*
X384814Y239383D01*
X384877Y239412D01*
X384938Y239443D01*
X384997Y239478D01*
X385055Y239516D01*
X385110Y239558D01*
X385162Y239602D01*
X385212Y239650D01*
X385260Y239700D01*
X385304Y239752D01*
X385346Y239807D01*
X385384Y239865D01*
X385419Y239924D01*
X385450Y239985D01*
X385479Y240048D01*
X385503Y240112D01*
X385524Y240178D01*
X385541Y240245D01*
X385555Y240312D01*
X385564Y240381D01*
X385570Y240449D01*
X385572Y240518D01*
X385572Y242564D01*
X380661Y242564D01*
X379434Y246267D02*
X385572Y246267D01*
X379434Y246267D02*
X379365Y246269D01*
X379297Y246275D01*
X379228Y246284D01*
X379161Y246298D01*
X379094Y246315D01*
X379028Y246336D01*
X378964Y246360D01*
X378901Y246389D01*
X378840Y246420D01*
X378781Y246455D01*
X378723Y246493D01*
X378668Y246535D01*
X378616Y246579D01*
X378566Y246627D01*
X378518Y246677D01*
X378474Y246729D01*
X378433Y246784D01*
X378394Y246842D01*
X378359Y246901D01*
X378328Y246962D01*
X378299Y247025D01*
X378275Y247089D01*
X378254Y247155D01*
X378237Y247222D01*
X378223Y247289D01*
X378214Y247357D01*
X378208Y247426D01*
X378206Y247495D01*
X378206Y247904D01*
X380661Y247904D02*
X380661Y245449D01*
X444373Y229962D02*
X444375Y230047D01*
X444381Y230132D01*
X444391Y230216D01*
X444404Y230300D01*
X444422Y230384D01*
X444443Y230466D01*
X444468Y230547D01*
X444497Y230627D01*
X444530Y230706D01*
X444566Y230783D01*
X444606Y230858D01*
X444649Y230932D01*
X444695Y231003D01*
X444745Y231072D01*
X444798Y231139D01*
X444854Y231203D01*
X444913Y231264D01*
X444974Y231323D01*
X445038Y231379D01*
X445105Y231432D01*
X445174Y231482D01*
X445245Y231528D01*
X445319Y231571D01*
X445394Y231611D01*
X445471Y231647D01*
X445550Y231680D01*
X445630Y231709D01*
X445711Y231734D01*
X445793Y231755D01*
X445877Y231773D01*
X445961Y231786D01*
X446045Y231796D01*
X446130Y231802D01*
X446215Y231804D01*
X444373Y229962D02*
X444375Y229866D01*
X444381Y229770D01*
X444391Y229675D01*
X444404Y229580D01*
X444422Y229485D01*
X444443Y229392D01*
X444468Y229299D01*
X444497Y229208D01*
X444529Y229117D01*
X444565Y229028D01*
X444605Y228941D01*
X444648Y228855D01*
X444694Y228771D01*
X444744Y228689D01*
X444798Y228609D01*
X444854Y228532D01*
X444914Y228457D01*
X444976Y228384D01*
X445042Y228314D01*
X445110Y228246D01*
X445181Y228181D01*
X445254Y228120D01*
X445330Y228061D01*
X445409Y228005D01*
X445489Y227953D01*
X445572Y227904D01*
X445656Y227858D01*
X445742Y227816D01*
X445830Y227778D01*
X445919Y227743D01*
X446010Y227711D01*
X447647Y231189D02*
X447588Y231249D01*
X447526Y231306D01*
X447462Y231361D01*
X447395Y231412D01*
X447326Y231461D01*
X447256Y231507D01*
X447183Y231550D01*
X447109Y231590D01*
X447033Y231626D01*
X446955Y231659D01*
X446876Y231689D01*
X446796Y231716D01*
X446715Y231739D01*
X446633Y231758D01*
X446551Y231774D01*
X446467Y231787D01*
X446383Y231796D01*
X446299Y231801D01*
X446215Y231803D01*
X447647Y231189D02*
X451739Y227711D01*
X451739Y231803D01*
X451739Y234673D02*
X451330Y234673D01*
X451330Y235082D01*
X451739Y235082D01*
X451739Y234673D01*
X444373Y240203D02*
X444375Y240288D01*
X444381Y240373D01*
X444391Y240457D01*
X444404Y240541D01*
X444422Y240625D01*
X444443Y240707D01*
X444468Y240788D01*
X444497Y240868D01*
X444530Y240947D01*
X444566Y241024D01*
X444606Y241099D01*
X444649Y241173D01*
X444695Y241244D01*
X444745Y241313D01*
X444798Y241380D01*
X444854Y241444D01*
X444913Y241505D01*
X444974Y241564D01*
X445038Y241620D01*
X445105Y241673D01*
X445174Y241723D01*
X445245Y241769D01*
X445319Y241812D01*
X445394Y241852D01*
X445471Y241888D01*
X445550Y241921D01*
X445630Y241950D01*
X445711Y241975D01*
X445793Y241996D01*
X445877Y242014D01*
X445961Y242027D01*
X446045Y242037D01*
X446130Y242043D01*
X446215Y242045D01*
X444373Y240203D02*
X444375Y240107D01*
X444381Y240011D01*
X444391Y239916D01*
X444404Y239821D01*
X444422Y239726D01*
X444443Y239633D01*
X444468Y239540D01*
X444497Y239449D01*
X444529Y239358D01*
X444565Y239269D01*
X444605Y239182D01*
X444648Y239096D01*
X444694Y239012D01*
X444744Y238930D01*
X444798Y238850D01*
X444854Y238773D01*
X444914Y238698D01*
X444976Y238625D01*
X445042Y238555D01*
X445110Y238487D01*
X445181Y238422D01*
X445254Y238361D01*
X445330Y238302D01*
X445409Y238246D01*
X445489Y238194D01*
X445572Y238145D01*
X445656Y238099D01*
X445742Y238057D01*
X445830Y238019D01*
X445919Y237984D01*
X446010Y237952D01*
X447647Y241431D02*
X447588Y241491D01*
X447526Y241548D01*
X447462Y241603D01*
X447395Y241654D01*
X447326Y241703D01*
X447256Y241749D01*
X447183Y241792D01*
X447109Y241832D01*
X447033Y241868D01*
X446955Y241901D01*
X446876Y241931D01*
X446796Y241958D01*
X446715Y241981D01*
X446633Y242000D01*
X446551Y242016D01*
X446467Y242029D01*
X446383Y242038D01*
X446299Y242043D01*
X446215Y242045D01*
X447647Y241431D02*
X451739Y237952D01*
X451739Y242044D01*
X450511Y245433D02*
X446828Y245433D01*
X450511Y245432D02*
X450580Y245434D01*
X450648Y245440D01*
X450717Y245449D01*
X450784Y245463D01*
X450851Y245480D01*
X450917Y245501D01*
X450981Y245525D01*
X451044Y245554D01*
X451105Y245585D01*
X451164Y245620D01*
X451222Y245658D01*
X451277Y245700D01*
X451329Y245744D01*
X451379Y245792D01*
X451427Y245842D01*
X451471Y245894D01*
X451513Y245949D01*
X451551Y246007D01*
X451586Y246066D01*
X451617Y246127D01*
X451646Y246190D01*
X451670Y246254D01*
X451691Y246320D01*
X451708Y246387D01*
X451722Y246454D01*
X451731Y246523D01*
X451737Y246591D01*
X451739Y246660D01*
X451739Y246661D02*
X451739Y248707D01*
X446828Y248707D01*
X445601Y252410D02*
X451739Y252410D01*
X445601Y252410D02*
X445532Y252412D01*
X445464Y252418D01*
X445395Y252427D01*
X445328Y252441D01*
X445261Y252458D01*
X445195Y252479D01*
X445131Y252503D01*
X445068Y252532D01*
X445007Y252563D01*
X444948Y252598D01*
X444890Y252636D01*
X444835Y252678D01*
X444783Y252722D01*
X444733Y252770D01*
X444685Y252820D01*
X444641Y252872D01*
X444600Y252927D01*
X444561Y252985D01*
X444526Y253044D01*
X444495Y253105D01*
X444466Y253168D01*
X444442Y253232D01*
X444421Y253298D01*
X444404Y253365D01*
X444390Y253432D01*
X444381Y253500D01*
X444375Y253569D01*
X444373Y253638D01*
X444373Y254047D01*
X446828Y254047D02*
X446828Y251592D01*
X480994Y235840D02*
X481079Y235838D01*
X481164Y235832D01*
X481248Y235822D01*
X481332Y235809D01*
X481416Y235791D01*
X481498Y235770D01*
X481579Y235745D01*
X481659Y235716D01*
X481738Y235683D01*
X481815Y235647D01*
X481890Y235607D01*
X481964Y235564D01*
X482035Y235518D01*
X482104Y235468D01*
X482171Y235415D01*
X482235Y235359D01*
X482296Y235300D01*
X482355Y235239D01*
X482411Y235175D01*
X482464Y235108D01*
X482514Y235039D01*
X482560Y234968D01*
X482603Y234894D01*
X482643Y234819D01*
X482679Y234742D01*
X482712Y234663D01*
X482741Y234583D01*
X482766Y234502D01*
X482787Y234420D01*
X482805Y234336D01*
X482818Y234252D01*
X482828Y234168D01*
X482834Y234083D01*
X482836Y233998D01*
X480994Y235839D02*
X480898Y235837D01*
X480802Y235831D01*
X480707Y235821D01*
X480612Y235808D01*
X480517Y235790D01*
X480424Y235769D01*
X480331Y235744D01*
X480240Y235715D01*
X480149Y235683D01*
X480060Y235647D01*
X479973Y235607D01*
X479887Y235564D01*
X479803Y235518D01*
X479721Y235468D01*
X479641Y235414D01*
X479564Y235358D01*
X479489Y235298D01*
X479416Y235236D01*
X479346Y235170D01*
X479278Y235102D01*
X479213Y235031D01*
X479152Y234958D01*
X479093Y234882D01*
X479037Y234803D01*
X478985Y234723D01*
X478936Y234640D01*
X478890Y234556D01*
X478848Y234470D01*
X478810Y234382D01*
X478775Y234293D01*
X478743Y234202D01*
X482221Y232566D02*
X482281Y232625D01*
X482338Y232687D01*
X482393Y232751D01*
X482444Y232818D01*
X482493Y232887D01*
X482539Y232957D01*
X482582Y233030D01*
X482622Y233104D01*
X482658Y233180D01*
X482691Y233258D01*
X482721Y233337D01*
X482748Y233417D01*
X482771Y233498D01*
X482790Y233580D01*
X482806Y233662D01*
X482819Y233746D01*
X482828Y233830D01*
X482833Y233914D01*
X482835Y233998D01*
X482222Y232565D02*
X478743Y228473D01*
X482835Y228473D01*
X485705Y228473D02*
X485705Y228882D01*
X486114Y228882D01*
X486114Y228473D01*
X485705Y228473D01*
X491235Y235840D02*
X491320Y235838D01*
X491405Y235832D01*
X491489Y235822D01*
X491573Y235809D01*
X491657Y235791D01*
X491739Y235770D01*
X491820Y235745D01*
X491900Y235716D01*
X491979Y235683D01*
X492056Y235647D01*
X492131Y235607D01*
X492205Y235564D01*
X492276Y235518D01*
X492345Y235468D01*
X492412Y235415D01*
X492476Y235359D01*
X492537Y235300D01*
X492596Y235239D01*
X492652Y235175D01*
X492705Y235108D01*
X492755Y235039D01*
X492801Y234968D01*
X492844Y234894D01*
X492884Y234819D01*
X492920Y234742D01*
X492953Y234663D01*
X492982Y234583D01*
X493007Y234502D01*
X493028Y234420D01*
X493046Y234336D01*
X493059Y234252D01*
X493069Y234168D01*
X493075Y234083D01*
X493077Y233998D01*
X491235Y235839D02*
X491139Y235837D01*
X491043Y235831D01*
X490948Y235821D01*
X490853Y235808D01*
X490758Y235790D01*
X490665Y235769D01*
X490572Y235744D01*
X490481Y235715D01*
X490390Y235683D01*
X490301Y235647D01*
X490214Y235607D01*
X490128Y235564D01*
X490044Y235518D01*
X489962Y235468D01*
X489882Y235414D01*
X489805Y235358D01*
X489730Y235298D01*
X489657Y235236D01*
X489587Y235170D01*
X489519Y235102D01*
X489454Y235031D01*
X489393Y234958D01*
X489334Y234882D01*
X489278Y234803D01*
X489226Y234723D01*
X489177Y234640D01*
X489131Y234556D01*
X489089Y234470D01*
X489051Y234382D01*
X489016Y234293D01*
X488984Y234202D01*
X492463Y232566D02*
X492523Y232625D01*
X492580Y232687D01*
X492635Y232751D01*
X492686Y232818D01*
X492735Y232887D01*
X492781Y232957D01*
X492824Y233030D01*
X492864Y233104D01*
X492900Y233180D01*
X492933Y233258D01*
X492963Y233337D01*
X492990Y233417D01*
X493013Y233498D01*
X493032Y233580D01*
X493048Y233662D01*
X493061Y233746D01*
X493070Y233830D01*
X493075Y233914D01*
X493077Y233998D01*
X492463Y232565D02*
X488984Y228473D01*
X493077Y228473D01*
X496465Y229701D02*
X496465Y233384D01*
X496465Y229701D02*
X496467Y229632D01*
X496473Y229564D01*
X496482Y229495D01*
X496496Y229428D01*
X496513Y229361D01*
X496534Y229295D01*
X496558Y229231D01*
X496587Y229168D01*
X496618Y229107D01*
X496653Y229048D01*
X496691Y228990D01*
X496733Y228935D01*
X496777Y228883D01*
X496825Y228833D01*
X496875Y228785D01*
X496927Y228741D01*
X496982Y228699D01*
X497040Y228661D01*
X497099Y228626D01*
X497160Y228595D01*
X497223Y228566D01*
X497287Y228542D01*
X497353Y228521D01*
X497420Y228504D01*
X497487Y228490D01*
X497556Y228481D01*
X497624Y228475D01*
X497693Y228473D01*
X499739Y228473D01*
X499739Y233384D01*
X503442Y234611D02*
X503442Y228473D01*
X503442Y234611D02*
X503444Y234680D01*
X503450Y234748D01*
X503459Y234817D01*
X503473Y234884D01*
X503490Y234951D01*
X503511Y235017D01*
X503535Y235081D01*
X503564Y235144D01*
X503595Y235205D01*
X503630Y235264D01*
X503668Y235322D01*
X503710Y235377D01*
X503754Y235429D01*
X503802Y235479D01*
X503852Y235527D01*
X503904Y235571D01*
X503959Y235612D01*
X504017Y235651D01*
X504076Y235686D01*
X504137Y235717D01*
X504200Y235746D01*
X504264Y235770D01*
X504330Y235791D01*
X504397Y235808D01*
X504464Y235822D01*
X504532Y235831D01*
X504601Y235837D01*
X504670Y235839D01*
X505079Y235839D01*
X505079Y233384D02*
X502624Y233384D01*
X555498Y198212D02*
X555500Y198297D01*
X555506Y198382D01*
X555516Y198466D01*
X555529Y198550D01*
X555547Y198634D01*
X555568Y198716D01*
X555593Y198797D01*
X555622Y198877D01*
X555655Y198956D01*
X555691Y199033D01*
X555731Y199108D01*
X555774Y199182D01*
X555820Y199253D01*
X555870Y199322D01*
X555923Y199389D01*
X555979Y199453D01*
X556038Y199514D01*
X556099Y199573D01*
X556163Y199629D01*
X556230Y199682D01*
X556299Y199732D01*
X556370Y199778D01*
X556444Y199821D01*
X556519Y199861D01*
X556596Y199897D01*
X556675Y199930D01*
X556755Y199959D01*
X556836Y199984D01*
X556918Y200005D01*
X557002Y200023D01*
X557086Y200036D01*
X557170Y200046D01*
X557255Y200052D01*
X557340Y200054D01*
X555498Y198212D02*
X555500Y198116D01*
X555506Y198020D01*
X555516Y197925D01*
X555529Y197830D01*
X555547Y197735D01*
X555568Y197642D01*
X555593Y197549D01*
X555622Y197458D01*
X555654Y197367D01*
X555690Y197278D01*
X555730Y197191D01*
X555773Y197105D01*
X555819Y197021D01*
X555869Y196939D01*
X555923Y196859D01*
X555979Y196782D01*
X556039Y196707D01*
X556101Y196634D01*
X556167Y196564D01*
X556235Y196496D01*
X556306Y196431D01*
X556379Y196370D01*
X556455Y196311D01*
X556534Y196255D01*
X556614Y196203D01*
X556697Y196154D01*
X556781Y196108D01*
X556867Y196066D01*
X556955Y196028D01*
X557044Y195993D01*
X557135Y195961D01*
X558772Y199439D02*
X558713Y199499D01*
X558651Y199556D01*
X558587Y199611D01*
X558520Y199662D01*
X558451Y199711D01*
X558381Y199757D01*
X558308Y199800D01*
X558234Y199840D01*
X558158Y199876D01*
X558080Y199909D01*
X558001Y199939D01*
X557921Y199966D01*
X557840Y199989D01*
X557758Y200008D01*
X557676Y200024D01*
X557592Y200037D01*
X557508Y200046D01*
X557424Y200051D01*
X557340Y200053D01*
X558772Y199439D02*
X562864Y195961D01*
X562864Y200053D01*
X562864Y202923D02*
X562455Y202923D01*
X562455Y203332D01*
X562864Y203332D01*
X562864Y202923D01*
X555498Y208453D02*
X555500Y208538D01*
X555506Y208623D01*
X555516Y208707D01*
X555529Y208791D01*
X555547Y208875D01*
X555568Y208957D01*
X555593Y209038D01*
X555622Y209118D01*
X555655Y209197D01*
X555691Y209274D01*
X555731Y209349D01*
X555774Y209423D01*
X555820Y209494D01*
X555870Y209563D01*
X555923Y209630D01*
X555979Y209694D01*
X556038Y209755D01*
X556099Y209814D01*
X556163Y209870D01*
X556230Y209923D01*
X556299Y209973D01*
X556370Y210019D01*
X556444Y210062D01*
X556519Y210102D01*
X556596Y210138D01*
X556675Y210171D01*
X556755Y210200D01*
X556836Y210225D01*
X556918Y210246D01*
X557002Y210264D01*
X557086Y210277D01*
X557170Y210287D01*
X557255Y210293D01*
X557340Y210295D01*
X555498Y208453D02*
X555500Y208357D01*
X555506Y208261D01*
X555516Y208166D01*
X555529Y208071D01*
X555547Y207976D01*
X555568Y207883D01*
X555593Y207790D01*
X555622Y207699D01*
X555654Y207608D01*
X555690Y207519D01*
X555730Y207432D01*
X555773Y207346D01*
X555819Y207262D01*
X555869Y207180D01*
X555923Y207100D01*
X555979Y207023D01*
X556039Y206948D01*
X556101Y206875D01*
X556167Y206805D01*
X556235Y206737D01*
X556306Y206672D01*
X556379Y206611D01*
X556455Y206552D01*
X556534Y206496D01*
X556614Y206444D01*
X556697Y206395D01*
X556781Y206349D01*
X556867Y206307D01*
X556955Y206269D01*
X557044Y206234D01*
X557135Y206202D01*
X558772Y209681D02*
X558713Y209741D01*
X558651Y209798D01*
X558587Y209853D01*
X558520Y209904D01*
X558451Y209953D01*
X558381Y209999D01*
X558308Y210042D01*
X558234Y210082D01*
X558158Y210118D01*
X558080Y210151D01*
X558001Y210181D01*
X557921Y210208D01*
X557840Y210231D01*
X557758Y210250D01*
X557676Y210266D01*
X557592Y210279D01*
X557508Y210288D01*
X557424Y210293D01*
X557340Y210295D01*
X558772Y209681D02*
X562864Y206202D01*
X562864Y210294D01*
X561636Y213683D02*
X557953Y213683D01*
X561636Y213682D02*
X561705Y213684D01*
X561773Y213690D01*
X561842Y213699D01*
X561909Y213713D01*
X561976Y213730D01*
X562042Y213751D01*
X562106Y213775D01*
X562169Y213804D01*
X562230Y213835D01*
X562289Y213870D01*
X562347Y213908D01*
X562402Y213950D01*
X562454Y213994D01*
X562504Y214042D01*
X562552Y214092D01*
X562596Y214144D01*
X562638Y214199D01*
X562676Y214257D01*
X562711Y214316D01*
X562742Y214377D01*
X562771Y214440D01*
X562795Y214504D01*
X562816Y214570D01*
X562833Y214637D01*
X562847Y214704D01*
X562856Y214773D01*
X562862Y214841D01*
X562864Y214910D01*
X562864Y214911D02*
X562864Y216957D01*
X557953Y216957D01*
X556726Y220660D02*
X562864Y220660D01*
X556726Y220660D02*
X556657Y220662D01*
X556589Y220668D01*
X556520Y220677D01*
X556453Y220691D01*
X556386Y220708D01*
X556320Y220729D01*
X556256Y220753D01*
X556193Y220782D01*
X556132Y220813D01*
X556073Y220848D01*
X556015Y220886D01*
X555960Y220928D01*
X555908Y220972D01*
X555858Y221020D01*
X555810Y221070D01*
X555766Y221122D01*
X555725Y221177D01*
X555686Y221235D01*
X555651Y221294D01*
X555620Y221355D01*
X555591Y221418D01*
X555567Y221482D01*
X555546Y221548D01*
X555529Y221615D01*
X555515Y221682D01*
X555506Y221750D01*
X555500Y221819D01*
X555498Y221888D01*
X555498Y222297D01*
X557953Y222297D02*
X557953Y219842D01*
X128506Y105728D02*
X128504Y105813D01*
X128498Y105898D01*
X128488Y105982D01*
X128475Y106066D01*
X128457Y106150D01*
X128436Y106232D01*
X128411Y106313D01*
X128382Y106393D01*
X128349Y106472D01*
X128313Y106549D01*
X128273Y106624D01*
X128230Y106698D01*
X128184Y106769D01*
X128134Y106838D01*
X128081Y106905D01*
X128025Y106969D01*
X127966Y107030D01*
X127905Y107089D01*
X127841Y107145D01*
X127774Y107198D01*
X127705Y107248D01*
X127634Y107294D01*
X127560Y107337D01*
X127485Y107377D01*
X127408Y107413D01*
X127329Y107446D01*
X127249Y107475D01*
X127168Y107500D01*
X127086Y107521D01*
X127002Y107539D01*
X126918Y107552D01*
X126834Y107562D01*
X126749Y107568D01*
X126664Y107570D01*
X126664Y107569D02*
X126568Y107567D01*
X126472Y107561D01*
X126377Y107551D01*
X126282Y107538D01*
X126187Y107520D01*
X126094Y107499D01*
X126001Y107474D01*
X125910Y107445D01*
X125819Y107413D01*
X125730Y107377D01*
X125643Y107337D01*
X125557Y107294D01*
X125473Y107248D01*
X125391Y107198D01*
X125311Y107144D01*
X125234Y107088D01*
X125159Y107028D01*
X125086Y106966D01*
X125016Y106900D01*
X124948Y106832D01*
X124883Y106761D01*
X124822Y106688D01*
X124763Y106612D01*
X124707Y106533D01*
X124655Y106453D01*
X124606Y106370D01*
X124560Y106286D01*
X124518Y106200D01*
X124480Y106112D01*
X124445Y106023D01*
X124413Y105932D01*
X127891Y104296D02*
X127951Y104355D01*
X128008Y104417D01*
X128063Y104481D01*
X128114Y104548D01*
X128163Y104617D01*
X128209Y104687D01*
X128252Y104760D01*
X128292Y104834D01*
X128328Y104910D01*
X128361Y104988D01*
X128391Y105067D01*
X128418Y105147D01*
X128441Y105228D01*
X128460Y105310D01*
X128476Y105392D01*
X128489Y105476D01*
X128498Y105560D01*
X128503Y105644D01*
X128505Y105728D01*
X127892Y104295D02*
X124413Y100203D01*
X128505Y100203D01*
X131375Y100203D02*
X131375Y100612D01*
X131784Y100612D01*
X131784Y100203D01*
X131375Y100203D01*
X136905Y107570D02*
X136990Y107568D01*
X137075Y107562D01*
X137159Y107552D01*
X137243Y107539D01*
X137327Y107521D01*
X137409Y107500D01*
X137490Y107475D01*
X137570Y107446D01*
X137649Y107413D01*
X137726Y107377D01*
X137801Y107337D01*
X137875Y107294D01*
X137946Y107248D01*
X138015Y107198D01*
X138082Y107145D01*
X138146Y107089D01*
X138207Y107030D01*
X138266Y106969D01*
X138322Y106905D01*
X138375Y106838D01*
X138425Y106769D01*
X138471Y106698D01*
X138514Y106624D01*
X138554Y106549D01*
X138590Y106472D01*
X138623Y106393D01*
X138652Y106313D01*
X138677Y106232D01*
X138698Y106150D01*
X138716Y106066D01*
X138729Y105982D01*
X138739Y105898D01*
X138745Y105813D01*
X138747Y105728D01*
X136905Y107569D02*
X136809Y107567D01*
X136713Y107561D01*
X136618Y107551D01*
X136523Y107538D01*
X136428Y107520D01*
X136335Y107499D01*
X136242Y107474D01*
X136151Y107445D01*
X136060Y107413D01*
X135971Y107377D01*
X135884Y107337D01*
X135798Y107294D01*
X135714Y107248D01*
X135632Y107198D01*
X135552Y107144D01*
X135475Y107088D01*
X135400Y107028D01*
X135327Y106966D01*
X135257Y106900D01*
X135189Y106832D01*
X135124Y106761D01*
X135063Y106688D01*
X135004Y106612D01*
X134948Y106533D01*
X134896Y106453D01*
X134847Y106370D01*
X134801Y106286D01*
X134759Y106200D01*
X134721Y106112D01*
X134686Y106023D01*
X134654Y105932D01*
X138133Y104296D02*
X138193Y104355D01*
X138250Y104417D01*
X138305Y104481D01*
X138356Y104548D01*
X138405Y104617D01*
X138451Y104687D01*
X138494Y104760D01*
X138534Y104834D01*
X138570Y104910D01*
X138603Y104988D01*
X138633Y105067D01*
X138660Y105147D01*
X138683Y105228D01*
X138702Y105310D01*
X138718Y105392D01*
X138731Y105476D01*
X138740Y105560D01*
X138745Y105644D01*
X138747Y105728D01*
X138133Y104295D02*
X134654Y100203D01*
X138747Y100203D01*
X142135Y101431D02*
X142135Y105114D01*
X142135Y101431D02*
X142137Y101362D01*
X142143Y101294D01*
X142152Y101225D01*
X142166Y101158D01*
X142183Y101091D01*
X142204Y101025D01*
X142228Y100961D01*
X142257Y100898D01*
X142288Y100837D01*
X142323Y100778D01*
X142361Y100720D01*
X142403Y100665D01*
X142447Y100613D01*
X142495Y100563D01*
X142545Y100515D01*
X142597Y100471D01*
X142652Y100429D01*
X142710Y100391D01*
X142769Y100356D01*
X142830Y100325D01*
X142893Y100296D01*
X142957Y100272D01*
X143023Y100251D01*
X143090Y100234D01*
X143157Y100220D01*
X143226Y100211D01*
X143294Y100205D01*
X143363Y100203D01*
X145409Y100203D01*
X145409Y105114D01*
X149112Y106341D02*
X149112Y100203D01*
X149112Y106341D02*
X149114Y106410D01*
X149120Y106478D01*
X149129Y106547D01*
X149143Y106614D01*
X149160Y106681D01*
X149181Y106747D01*
X149205Y106811D01*
X149234Y106874D01*
X149265Y106935D01*
X149300Y106994D01*
X149338Y107052D01*
X149380Y107107D01*
X149424Y107159D01*
X149472Y107209D01*
X149522Y107257D01*
X149574Y107301D01*
X149629Y107342D01*
X149687Y107381D01*
X149746Y107416D01*
X149807Y107447D01*
X149870Y107476D01*
X149934Y107500D01*
X150000Y107521D01*
X150067Y107538D01*
X150134Y107552D01*
X150202Y107561D01*
X150271Y107567D01*
X150340Y107569D01*
X150749Y107569D01*
X150749Y105114D02*
X148294Y105114D01*
X228264Y107570D02*
X228349Y107568D01*
X228434Y107562D01*
X228518Y107552D01*
X228602Y107539D01*
X228686Y107521D01*
X228768Y107500D01*
X228849Y107475D01*
X228929Y107446D01*
X229008Y107413D01*
X229085Y107377D01*
X229160Y107337D01*
X229234Y107294D01*
X229305Y107248D01*
X229374Y107198D01*
X229441Y107145D01*
X229505Y107089D01*
X229566Y107030D01*
X229625Y106969D01*
X229681Y106905D01*
X229734Y106838D01*
X229784Y106769D01*
X229830Y106698D01*
X229873Y106624D01*
X229913Y106549D01*
X229949Y106472D01*
X229982Y106393D01*
X230011Y106313D01*
X230036Y106232D01*
X230057Y106150D01*
X230075Y106066D01*
X230088Y105982D01*
X230098Y105898D01*
X230104Y105813D01*
X230106Y105728D01*
X228264Y107569D02*
X228168Y107567D01*
X228072Y107561D01*
X227977Y107551D01*
X227882Y107538D01*
X227787Y107520D01*
X227694Y107499D01*
X227601Y107474D01*
X227510Y107445D01*
X227419Y107413D01*
X227330Y107377D01*
X227243Y107337D01*
X227157Y107294D01*
X227073Y107248D01*
X226991Y107198D01*
X226911Y107144D01*
X226834Y107088D01*
X226759Y107028D01*
X226686Y106966D01*
X226616Y106900D01*
X226548Y106832D01*
X226483Y106761D01*
X226422Y106688D01*
X226363Y106612D01*
X226307Y106533D01*
X226255Y106453D01*
X226206Y106370D01*
X226160Y106286D01*
X226118Y106200D01*
X226080Y106112D01*
X226045Y106023D01*
X226013Y105932D01*
X229491Y104296D02*
X229551Y104355D01*
X229608Y104417D01*
X229663Y104481D01*
X229714Y104548D01*
X229763Y104617D01*
X229809Y104687D01*
X229852Y104760D01*
X229892Y104834D01*
X229928Y104910D01*
X229961Y104988D01*
X229991Y105067D01*
X230018Y105147D01*
X230041Y105228D01*
X230060Y105310D01*
X230076Y105392D01*
X230089Y105476D01*
X230098Y105560D01*
X230103Y105644D01*
X230105Y105728D01*
X229492Y104295D02*
X226013Y100203D01*
X230105Y100203D01*
X232975Y100203D02*
X232975Y100612D01*
X233384Y100612D01*
X233384Y100203D01*
X232975Y100203D01*
X238505Y107570D02*
X238590Y107568D01*
X238675Y107562D01*
X238759Y107552D01*
X238843Y107539D01*
X238927Y107521D01*
X239009Y107500D01*
X239090Y107475D01*
X239170Y107446D01*
X239249Y107413D01*
X239326Y107377D01*
X239401Y107337D01*
X239475Y107294D01*
X239546Y107248D01*
X239615Y107198D01*
X239682Y107145D01*
X239746Y107089D01*
X239807Y107030D01*
X239866Y106969D01*
X239922Y106905D01*
X239975Y106838D01*
X240025Y106769D01*
X240071Y106698D01*
X240114Y106624D01*
X240154Y106549D01*
X240190Y106472D01*
X240223Y106393D01*
X240252Y106313D01*
X240277Y106232D01*
X240298Y106150D01*
X240316Y106066D01*
X240329Y105982D01*
X240339Y105898D01*
X240345Y105813D01*
X240347Y105728D01*
X238505Y107569D02*
X238409Y107567D01*
X238313Y107561D01*
X238218Y107551D01*
X238123Y107538D01*
X238028Y107520D01*
X237935Y107499D01*
X237842Y107474D01*
X237751Y107445D01*
X237660Y107413D01*
X237571Y107377D01*
X237484Y107337D01*
X237398Y107294D01*
X237314Y107248D01*
X237232Y107198D01*
X237152Y107144D01*
X237075Y107088D01*
X237000Y107028D01*
X236927Y106966D01*
X236857Y106900D01*
X236789Y106832D01*
X236724Y106761D01*
X236663Y106688D01*
X236604Y106612D01*
X236548Y106533D01*
X236496Y106453D01*
X236447Y106370D01*
X236401Y106286D01*
X236359Y106200D01*
X236321Y106112D01*
X236286Y106023D01*
X236254Y105932D01*
X239733Y104296D02*
X239793Y104355D01*
X239850Y104417D01*
X239905Y104481D01*
X239956Y104548D01*
X240005Y104617D01*
X240051Y104687D01*
X240094Y104760D01*
X240134Y104834D01*
X240170Y104910D01*
X240203Y104988D01*
X240233Y105067D01*
X240260Y105147D01*
X240283Y105228D01*
X240302Y105310D01*
X240318Y105392D01*
X240331Y105476D01*
X240340Y105560D01*
X240345Y105644D01*
X240347Y105728D01*
X239733Y104295D02*
X236254Y100203D01*
X240347Y100203D01*
X243735Y101431D02*
X243735Y105114D01*
X243735Y101431D02*
X243737Y101362D01*
X243743Y101294D01*
X243752Y101225D01*
X243766Y101158D01*
X243783Y101091D01*
X243804Y101025D01*
X243828Y100961D01*
X243857Y100898D01*
X243888Y100837D01*
X243923Y100778D01*
X243961Y100720D01*
X244003Y100665D01*
X244047Y100613D01*
X244095Y100563D01*
X244145Y100515D01*
X244197Y100471D01*
X244252Y100429D01*
X244310Y100391D01*
X244369Y100356D01*
X244430Y100325D01*
X244493Y100296D01*
X244557Y100272D01*
X244623Y100251D01*
X244690Y100234D01*
X244757Y100220D01*
X244826Y100211D01*
X244894Y100205D01*
X244963Y100203D01*
X247009Y100203D01*
X247009Y105114D01*
X250712Y106341D02*
X250712Y100203D01*
X250712Y106341D02*
X250714Y106410D01*
X250720Y106478D01*
X250729Y106547D01*
X250743Y106614D01*
X250760Y106681D01*
X250781Y106747D01*
X250805Y106811D01*
X250834Y106874D01*
X250865Y106935D01*
X250900Y106994D01*
X250938Y107052D01*
X250980Y107107D01*
X251024Y107159D01*
X251072Y107209D01*
X251122Y107257D01*
X251174Y107301D01*
X251229Y107342D01*
X251287Y107381D01*
X251346Y107416D01*
X251407Y107447D01*
X251470Y107476D01*
X251534Y107500D01*
X251600Y107521D01*
X251667Y107538D01*
X251734Y107552D01*
X251802Y107561D01*
X251871Y107567D01*
X251940Y107569D01*
X252349Y107569D01*
X252349Y105114D02*
X249894Y105114D01*
X331134Y106300D02*
X331219Y106298D01*
X331304Y106292D01*
X331388Y106282D01*
X331472Y106269D01*
X331556Y106251D01*
X331638Y106230D01*
X331719Y106205D01*
X331799Y106176D01*
X331878Y106143D01*
X331955Y106107D01*
X332030Y106067D01*
X332104Y106024D01*
X332175Y105978D01*
X332244Y105928D01*
X332311Y105875D01*
X332375Y105819D01*
X332436Y105760D01*
X332495Y105699D01*
X332551Y105635D01*
X332604Y105568D01*
X332654Y105499D01*
X332700Y105428D01*
X332743Y105354D01*
X332783Y105279D01*
X332819Y105202D01*
X332852Y105123D01*
X332881Y105043D01*
X332906Y104962D01*
X332927Y104880D01*
X332945Y104796D01*
X332958Y104712D01*
X332968Y104628D01*
X332974Y104543D01*
X332976Y104458D01*
X331134Y106299D02*
X331038Y106297D01*
X330942Y106291D01*
X330847Y106281D01*
X330752Y106268D01*
X330657Y106250D01*
X330564Y106229D01*
X330471Y106204D01*
X330380Y106175D01*
X330289Y106143D01*
X330200Y106107D01*
X330113Y106067D01*
X330027Y106024D01*
X329943Y105978D01*
X329861Y105928D01*
X329781Y105874D01*
X329704Y105818D01*
X329629Y105758D01*
X329556Y105696D01*
X329486Y105630D01*
X329418Y105562D01*
X329353Y105491D01*
X329292Y105418D01*
X329233Y105342D01*
X329177Y105263D01*
X329125Y105183D01*
X329076Y105100D01*
X329030Y105016D01*
X328988Y104930D01*
X328950Y104842D01*
X328915Y104753D01*
X328883Y104662D01*
X332361Y103026D02*
X332421Y103085D01*
X332478Y103147D01*
X332533Y103211D01*
X332584Y103278D01*
X332633Y103347D01*
X332679Y103417D01*
X332722Y103490D01*
X332762Y103564D01*
X332798Y103640D01*
X332831Y103718D01*
X332861Y103797D01*
X332888Y103877D01*
X332911Y103958D01*
X332930Y104040D01*
X332946Y104122D01*
X332959Y104206D01*
X332968Y104290D01*
X332973Y104374D01*
X332975Y104458D01*
X332362Y103025D02*
X328883Y98933D01*
X332975Y98933D01*
X335845Y98933D02*
X335845Y99342D01*
X336254Y99342D01*
X336254Y98933D01*
X335845Y98933D01*
X341375Y106300D02*
X341460Y106298D01*
X341545Y106292D01*
X341629Y106282D01*
X341713Y106269D01*
X341797Y106251D01*
X341879Y106230D01*
X341960Y106205D01*
X342040Y106176D01*
X342119Y106143D01*
X342196Y106107D01*
X342271Y106067D01*
X342345Y106024D01*
X342416Y105978D01*
X342485Y105928D01*
X342552Y105875D01*
X342616Y105819D01*
X342677Y105760D01*
X342736Y105699D01*
X342792Y105635D01*
X342845Y105568D01*
X342895Y105499D01*
X342941Y105428D01*
X342984Y105354D01*
X343024Y105279D01*
X343060Y105202D01*
X343093Y105123D01*
X343122Y105043D01*
X343147Y104962D01*
X343168Y104880D01*
X343186Y104796D01*
X343199Y104712D01*
X343209Y104628D01*
X343215Y104543D01*
X343217Y104458D01*
X341375Y106299D02*
X341279Y106297D01*
X341183Y106291D01*
X341088Y106281D01*
X340993Y106268D01*
X340898Y106250D01*
X340805Y106229D01*
X340712Y106204D01*
X340621Y106175D01*
X340530Y106143D01*
X340441Y106107D01*
X340354Y106067D01*
X340268Y106024D01*
X340184Y105978D01*
X340102Y105928D01*
X340022Y105874D01*
X339945Y105818D01*
X339870Y105758D01*
X339797Y105696D01*
X339727Y105630D01*
X339659Y105562D01*
X339594Y105491D01*
X339533Y105418D01*
X339474Y105342D01*
X339418Y105263D01*
X339366Y105183D01*
X339317Y105100D01*
X339271Y105016D01*
X339229Y104930D01*
X339191Y104842D01*
X339156Y104753D01*
X339124Y104662D01*
X342603Y103026D02*
X342663Y103085D01*
X342720Y103147D01*
X342775Y103211D01*
X342826Y103278D01*
X342875Y103347D01*
X342921Y103417D01*
X342964Y103490D01*
X343004Y103564D01*
X343040Y103640D01*
X343073Y103718D01*
X343103Y103797D01*
X343130Y103877D01*
X343153Y103958D01*
X343172Y104040D01*
X343188Y104122D01*
X343201Y104206D01*
X343210Y104290D01*
X343215Y104374D01*
X343217Y104458D01*
X342603Y103025D02*
X339124Y98933D01*
X343217Y98933D01*
X346605Y100161D02*
X346605Y103844D01*
X346605Y100161D02*
X346607Y100092D01*
X346613Y100024D01*
X346622Y99955D01*
X346636Y99888D01*
X346653Y99821D01*
X346674Y99755D01*
X346698Y99691D01*
X346727Y99628D01*
X346758Y99567D01*
X346793Y99508D01*
X346831Y99450D01*
X346873Y99395D01*
X346917Y99343D01*
X346965Y99293D01*
X347015Y99245D01*
X347067Y99201D01*
X347122Y99159D01*
X347180Y99121D01*
X347239Y99086D01*
X347300Y99055D01*
X347363Y99026D01*
X347427Y99002D01*
X347493Y98981D01*
X347560Y98964D01*
X347627Y98950D01*
X347696Y98941D01*
X347764Y98935D01*
X347833Y98933D01*
X349879Y98933D01*
X349879Y103844D01*
X353582Y105071D02*
X353582Y98933D01*
X353582Y105071D02*
X353584Y105140D01*
X353590Y105208D01*
X353599Y105277D01*
X353613Y105344D01*
X353630Y105411D01*
X353651Y105477D01*
X353675Y105541D01*
X353704Y105604D01*
X353735Y105665D01*
X353770Y105724D01*
X353808Y105782D01*
X353850Y105837D01*
X353894Y105889D01*
X353942Y105939D01*
X353992Y105987D01*
X354044Y106031D01*
X354099Y106072D01*
X354157Y106111D01*
X354216Y106146D01*
X354277Y106177D01*
X354340Y106206D01*
X354404Y106230D01*
X354470Y106251D01*
X354537Y106268D01*
X354604Y106282D01*
X354672Y106291D01*
X354741Y106297D01*
X354810Y106299D01*
X355219Y106299D01*
X355219Y103844D02*
X352764Y103844D01*
X338201Y14760D02*
X338201Y14351D01*
X338201Y14760D02*
X338610Y14760D01*
X338610Y14351D01*
X338201Y14351D01*
X341480Y20080D02*
X343526Y21717D01*
X343526Y14351D01*
X341480Y14351D02*
X345572Y14351D01*
X348961Y15579D02*
X348961Y19262D01*
X348960Y15579D02*
X348962Y15510D01*
X348968Y15442D01*
X348977Y15373D01*
X348991Y15306D01*
X349008Y15239D01*
X349029Y15173D01*
X349053Y15109D01*
X349082Y15046D01*
X349113Y14985D01*
X349148Y14926D01*
X349186Y14868D01*
X349228Y14813D01*
X349272Y14761D01*
X349320Y14711D01*
X349370Y14663D01*
X349422Y14619D01*
X349477Y14577D01*
X349535Y14539D01*
X349594Y14504D01*
X349655Y14473D01*
X349718Y14444D01*
X349782Y14420D01*
X349848Y14399D01*
X349915Y14382D01*
X349982Y14368D01*
X350051Y14359D01*
X350119Y14353D01*
X350188Y14351D01*
X352234Y14351D01*
X352234Y19262D01*
X355938Y20489D02*
X355938Y14351D01*
X355938Y20489D02*
X355940Y20558D01*
X355946Y20626D01*
X355955Y20695D01*
X355969Y20762D01*
X355986Y20829D01*
X356007Y20895D01*
X356031Y20959D01*
X356060Y21022D01*
X356091Y21083D01*
X356126Y21142D01*
X356164Y21200D01*
X356206Y21255D01*
X356250Y21307D01*
X356298Y21357D01*
X356348Y21405D01*
X356400Y21449D01*
X356455Y21490D01*
X356513Y21529D01*
X356572Y21564D01*
X356633Y21595D01*
X356696Y21624D01*
X356760Y21648D01*
X356826Y21669D01*
X356893Y21686D01*
X356960Y21700D01*
X357028Y21709D01*
X357097Y21715D01*
X357166Y21717D01*
X357575Y21717D01*
X357575Y19262D02*
X355119Y19262D01*
X235331Y13490D02*
X235331Y13081D01*
X235331Y13490D02*
X235740Y13490D01*
X235740Y13081D01*
X235331Y13081D01*
X238610Y18810D02*
X240656Y20447D01*
X240656Y13081D01*
X238610Y13081D02*
X242702Y13081D01*
X246091Y14309D02*
X246091Y17992D01*
X246090Y14309D02*
X246092Y14240D01*
X246098Y14172D01*
X246107Y14103D01*
X246121Y14036D01*
X246138Y13969D01*
X246159Y13903D01*
X246183Y13839D01*
X246212Y13776D01*
X246243Y13715D01*
X246278Y13656D01*
X246316Y13598D01*
X246358Y13543D01*
X246402Y13491D01*
X246450Y13441D01*
X246500Y13393D01*
X246552Y13349D01*
X246607Y13307D01*
X246665Y13269D01*
X246724Y13234D01*
X246785Y13203D01*
X246848Y13174D01*
X246912Y13150D01*
X246978Y13129D01*
X247045Y13112D01*
X247112Y13098D01*
X247181Y13089D01*
X247249Y13083D01*
X247318Y13081D01*
X249364Y13081D01*
X249364Y17992D01*
X253068Y19219D02*
X253068Y13081D01*
X253068Y19219D02*
X253070Y19288D01*
X253076Y19356D01*
X253085Y19425D01*
X253099Y19492D01*
X253116Y19559D01*
X253137Y19625D01*
X253161Y19689D01*
X253190Y19752D01*
X253221Y19813D01*
X253256Y19872D01*
X253294Y19930D01*
X253336Y19985D01*
X253380Y20037D01*
X253428Y20087D01*
X253478Y20135D01*
X253530Y20179D01*
X253585Y20220D01*
X253643Y20259D01*
X253702Y20294D01*
X253763Y20325D01*
X253826Y20354D01*
X253890Y20378D01*
X253956Y20399D01*
X254023Y20416D01*
X254090Y20430D01*
X254158Y20439D01*
X254227Y20445D01*
X254296Y20447D01*
X254705Y20447D01*
X254705Y17992D02*
X252249Y17992D01*
X131191Y13490D02*
X131191Y13081D01*
X131191Y13490D02*
X131600Y13490D01*
X131600Y13081D01*
X131191Y13081D01*
X134470Y18810D02*
X136516Y20447D01*
X136516Y13081D01*
X134470Y13081D02*
X138562Y13081D01*
X141951Y14309D02*
X141951Y17992D01*
X141950Y14309D02*
X141952Y14240D01*
X141958Y14172D01*
X141967Y14103D01*
X141981Y14036D01*
X141998Y13969D01*
X142019Y13903D01*
X142043Y13839D01*
X142072Y13776D01*
X142103Y13715D01*
X142138Y13656D01*
X142176Y13598D01*
X142218Y13543D01*
X142262Y13491D01*
X142310Y13441D01*
X142360Y13393D01*
X142412Y13349D01*
X142467Y13307D01*
X142525Y13269D01*
X142584Y13234D01*
X142645Y13203D01*
X142708Y13174D01*
X142772Y13150D01*
X142838Y13129D01*
X142905Y13112D01*
X142972Y13098D01*
X143041Y13089D01*
X143109Y13083D01*
X143178Y13081D01*
X145224Y13081D01*
X145224Y17992D01*
X148928Y19219D02*
X148928Y13081D01*
X148928Y19219D02*
X148930Y19288D01*
X148936Y19356D01*
X148945Y19425D01*
X148959Y19492D01*
X148976Y19559D01*
X148997Y19625D01*
X149021Y19689D01*
X149050Y19752D01*
X149081Y19813D01*
X149116Y19872D01*
X149154Y19930D01*
X149196Y19985D01*
X149240Y20037D01*
X149288Y20087D01*
X149338Y20135D01*
X149390Y20179D01*
X149445Y20220D01*
X149503Y20259D01*
X149562Y20294D01*
X149623Y20325D01*
X149686Y20354D01*
X149750Y20378D01*
X149816Y20399D01*
X149883Y20416D01*
X149950Y20430D01*
X150018Y20439D01*
X150087Y20445D01*
X150156Y20447D01*
X150565Y20447D01*
X150565Y17992D02*
X148109Y17992D01*
X168783Y65151D02*
X176149Y65151D01*
X168783Y65151D02*
X168783Y67197D01*
X168785Y67286D01*
X168791Y67375D01*
X168801Y67464D01*
X168814Y67552D01*
X168831Y67640D01*
X168853Y67727D01*
X168878Y67812D01*
X168906Y67897D01*
X168939Y67980D01*
X168975Y68062D01*
X169014Y68142D01*
X169057Y68220D01*
X169103Y68296D01*
X169153Y68371D01*
X169206Y68443D01*
X169262Y68512D01*
X169321Y68579D01*
X169382Y68644D01*
X169447Y68705D01*
X169514Y68764D01*
X169583Y68820D01*
X169655Y68873D01*
X169730Y68923D01*
X169806Y68969D01*
X169884Y69012D01*
X169964Y69051D01*
X170046Y69087D01*
X170129Y69120D01*
X170214Y69148D01*
X170299Y69173D01*
X170386Y69195D01*
X170474Y69212D01*
X170562Y69225D01*
X170651Y69235D01*
X170740Y69241D01*
X170829Y69243D01*
X174103Y69243D01*
X174192Y69241D01*
X174281Y69235D01*
X174370Y69225D01*
X174458Y69212D01*
X174546Y69195D01*
X174633Y69173D01*
X174718Y69148D01*
X174803Y69120D01*
X174886Y69087D01*
X174968Y69051D01*
X175048Y69012D01*
X175126Y68969D01*
X175202Y68923D01*
X175277Y68873D01*
X175349Y68820D01*
X175418Y68764D01*
X175485Y68705D01*
X175550Y68644D01*
X175611Y68579D01*
X175670Y68512D01*
X175726Y68443D01*
X175779Y68371D01*
X175829Y68296D01*
X175875Y68220D01*
X175918Y68142D01*
X175957Y68062D01*
X175993Y67980D01*
X176026Y67897D01*
X176054Y67812D01*
X176079Y67727D01*
X176101Y67640D01*
X176118Y67552D01*
X176131Y67464D01*
X176141Y67375D01*
X176147Y67286D01*
X176149Y67197D01*
X176149Y65151D01*
X176149Y72562D02*
X171238Y72562D01*
X169192Y72357D02*
X168783Y72357D01*
X168783Y72766D01*
X169192Y72766D01*
X169192Y72357D01*
X172875Y75558D02*
X174512Y75558D01*
X172875Y75557D02*
X172796Y75559D01*
X172717Y75565D01*
X172638Y75574D01*
X172560Y75587D01*
X172483Y75605D01*
X172407Y75625D01*
X172332Y75650D01*
X172258Y75678D01*
X172185Y75709D01*
X172114Y75745D01*
X172045Y75783D01*
X171978Y75825D01*
X171913Y75870D01*
X171850Y75918D01*
X171789Y75969D01*
X171732Y76023D01*
X171676Y76079D01*
X171624Y76138D01*
X171574Y76200D01*
X171528Y76264D01*
X171484Y76330D01*
X171444Y76398D01*
X171408Y76468D01*
X171374Y76540D01*
X171344Y76614D01*
X171318Y76688D01*
X171295Y76764D01*
X171277Y76841D01*
X171261Y76918D01*
X171250Y76997D01*
X171242Y77075D01*
X171238Y77154D01*
X171238Y77234D01*
X171242Y77313D01*
X171250Y77391D01*
X171261Y77470D01*
X171277Y77547D01*
X171295Y77624D01*
X171318Y77700D01*
X171344Y77774D01*
X171374Y77848D01*
X171408Y77920D01*
X171444Y77990D01*
X171484Y78058D01*
X171528Y78124D01*
X171574Y78188D01*
X171624Y78250D01*
X171676Y78309D01*
X171732Y78365D01*
X171789Y78419D01*
X171850Y78470D01*
X171913Y78518D01*
X171978Y78563D01*
X172045Y78605D01*
X172114Y78643D01*
X172185Y78679D01*
X172258Y78710D01*
X172332Y78738D01*
X172407Y78763D01*
X172483Y78783D01*
X172560Y78801D01*
X172638Y78814D01*
X172717Y78823D01*
X172796Y78829D01*
X172875Y78831D01*
X174512Y78831D01*
X174591Y78829D01*
X174670Y78823D01*
X174749Y78814D01*
X174827Y78801D01*
X174904Y78783D01*
X174980Y78763D01*
X175055Y78738D01*
X175129Y78710D01*
X175202Y78679D01*
X175273Y78643D01*
X175342Y78605D01*
X175409Y78563D01*
X175474Y78518D01*
X175537Y78470D01*
X175598Y78419D01*
X175655Y78365D01*
X175711Y78309D01*
X175763Y78250D01*
X175813Y78188D01*
X175859Y78124D01*
X175903Y78058D01*
X175943Y77990D01*
X175979Y77920D01*
X176013Y77848D01*
X176043Y77774D01*
X176069Y77700D01*
X176092Y77624D01*
X176110Y77547D01*
X176126Y77470D01*
X176137Y77391D01*
X176145Y77313D01*
X176149Y77234D01*
X176149Y77154D01*
X176145Y77075D01*
X176137Y76997D01*
X176126Y76918D01*
X176110Y76841D01*
X176092Y76764D01*
X176069Y76688D01*
X176043Y76614D01*
X176013Y76540D01*
X175979Y76468D01*
X175943Y76398D01*
X175903Y76330D01*
X175859Y76264D01*
X175813Y76200D01*
X175763Y76138D01*
X175711Y76079D01*
X175655Y76023D01*
X175598Y75969D01*
X175537Y75918D01*
X175474Y75870D01*
X175409Y75825D01*
X175342Y75783D01*
X175273Y75745D01*
X175202Y75709D01*
X175129Y75678D01*
X175055Y75650D01*
X174980Y75625D01*
X174904Y75605D01*
X174827Y75587D01*
X174749Y75574D01*
X174670Y75565D01*
X174591Y75559D01*
X174512Y75557D01*
X176149Y85130D02*
X168783Y85130D01*
X176149Y85130D02*
X176149Y83084D01*
X176147Y83015D01*
X176141Y82947D01*
X176132Y82878D01*
X176118Y82811D01*
X176101Y82744D01*
X176080Y82678D01*
X176056Y82614D01*
X176027Y82551D01*
X175996Y82490D01*
X175961Y82431D01*
X175923Y82373D01*
X175881Y82318D01*
X175837Y82266D01*
X175789Y82216D01*
X175739Y82168D01*
X175687Y82124D01*
X175632Y82083D01*
X175574Y82044D01*
X175515Y82009D01*
X175454Y81978D01*
X175391Y81949D01*
X175327Y81925D01*
X175261Y81904D01*
X175194Y81887D01*
X175127Y81873D01*
X175059Y81864D01*
X174990Y81858D01*
X174921Y81856D01*
X172466Y81856D01*
X172397Y81858D01*
X172329Y81864D01*
X172260Y81873D01*
X172193Y81887D01*
X172126Y81904D01*
X172060Y81925D01*
X171996Y81949D01*
X171933Y81978D01*
X171872Y82009D01*
X171813Y82044D01*
X171755Y82082D01*
X171700Y82124D01*
X171648Y82168D01*
X171598Y82216D01*
X171550Y82266D01*
X171506Y82318D01*
X171464Y82373D01*
X171426Y82431D01*
X171391Y82490D01*
X171360Y82551D01*
X171331Y82614D01*
X171307Y82678D01*
X171286Y82744D01*
X171269Y82811D01*
X171255Y82878D01*
X171246Y82947D01*
X171240Y83015D01*
X171238Y83084D01*
X171238Y85130D01*
X176149Y89709D02*
X176149Y91755D01*
X176149Y89709D02*
X176147Y89640D01*
X176141Y89572D01*
X176132Y89503D01*
X176118Y89436D01*
X176101Y89369D01*
X176080Y89303D01*
X176056Y89239D01*
X176027Y89176D01*
X175996Y89115D01*
X175961Y89056D01*
X175923Y88998D01*
X175881Y88943D01*
X175837Y88891D01*
X175789Y88841D01*
X175739Y88793D01*
X175687Y88749D01*
X175632Y88708D01*
X175574Y88669D01*
X175515Y88634D01*
X175454Y88603D01*
X175391Y88574D01*
X175327Y88550D01*
X175261Y88529D01*
X175194Y88512D01*
X175127Y88498D01*
X175059Y88489D01*
X174990Y88483D01*
X174921Y88481D01*
X172875Y88481D01*
X172796Y88483D01*
X172717Y88489D01*
X172638Y88498D01*
X172560Y88511D01*
X172483Y88529D01*
X172407Y88549D01*
X172332Y88574D01*
X172258Y88602D01*
X172185Y88633D01*
X172114Y88669D01*
X172045Y88707D01*
X171978Y88749D01*
X171913Y88794D01*
X171850Y88842D01*
X171789Y88893D01*
X171732Y88947D01*
X171676Y89003D01*
X171624Y89062D01*
X171574Y89124D01*
X171528Y89188D01*
X171484Y89254D01*
X171444Y89322D01*
X171408Y89392D01*
X171374Y89464D01*
X171344Y89538D01*
X171318Y89612D01*
X171295Y89688D01*
X171277Y89765D01*
X171261Y89842D01*
X171250Y89921D01*
X171242Y89999D01*
X171238Y90078D01*
X171238Y90158D01*
X171242Y90237D01*
X171250Y90315D01*
X171261Y90394D01*
X171277Y90471D01*
X171295Y90548D01*
X171318Y90624D01*
X171344Y90698D01*
X171374Y90772D01*
X171408Y90844D01*
X171444Y90914D01*
X171484Y90982D01*
X171528Y91048D01*
X171574Y91112D01*
X171624Y91174D01*
X171676Y91233D01*
X171732Y91289D01*
X171789Y91343D01*
X171850Y91394D01*
X171913Y91442D01*
X171978Y91487D01*
X172045Y91529D01*
X172114Y91567D01*
X172185Y91603D01*
X172258Y91634D01*
X172332Y91662D01*
X172407Y91687D01*
X172483Y91707D01*
X172560Y91725D01*
X172638Y91738D01*
X172717Y91747D01*
X172796Y91753D01*
X172875Y91755D01*
X173694Y91755D01*
X173694Y88481D01*
X270383Y65151D02*
X277749Y65151D01*
X270383Y65151D02*
X270383Y67197D01*
X270385Y67286D01*
X270391Y67375D01*
X270401Y67464D01*
X270414Y67552D01*
X270431Y67640D01*
X270453Y67727D01*
X270478Y67812D01*
X270506Y67897D01*
X270539Y67980D01*
X270575Y68062D01*
X270614Y68142D01*
X270657Y68220D01*
X270703Y68296D01*
X270753Y68371D01*
X270806Y68443D01*
X270862Y68512D01*
X270921Y68579D01*
X270982Y68644D01*
X271047Y68705D01*
X271114Y68764D01*
X271183Y68820D01*
X271255Y68873D01*
X271330Y68923D01*
X271406Y68969D01*
X271484Y69012D01*
X271564Y69051D01*
X271646Y69087D01*
X271729Y69120D01*
X271814Y69148D01*
X271899Y69173D01*
X271986Y69195D01*
X272074Y69212D01*
X272162Y69225D01*
X272251Y69235D01*
X272340Y69241D01*
X272429Y69243D01*
X275703Y69243D01*
X275792Y69241D01*
X275881Y69235D01*
X275970Y69225D01*
X276058Y69212D01*
X276146Y69195D01*
X276233Y69173D01*
X276318Y69148D01*
X276403Y69120D01*
X276486Y69087D01*
X276568Y69051D01*
X276648Y69012D01*
X276726Y68969D01*
X276802Y68923D01*
X276877Y68873D01*
X276949Y68820D01*
X277018Y68764D01*
X277085Y68705D01*
X277150Y68644D01*
X277211Y68579D01*
X277270Y68512D01*
X277326Y68443D01*
X277379Y68371D01*
X277429Y68296D01*
X277475Y68220D01*
X277518Y68142D01*
X277557Y68062D01*
X277593Y67980D01*
X277626Y67897D01*
X277654Y67812D01*
X277679Y67727D01*
X277701Y67640D01*
X277718Y67552D01*
X277731Y67464D01*
X277741Y67375D01*
X277747Y67286D01*
X277749Y67197D01*
X277749Y65151D01*
X277749Y72562D02*
X272838Y72562D01*
X270792Y72357D02*
X270383Y72357D01*
X270383Y72766D01*
X270792Y72766D01*
X270792Y72357D01*
X274475Y75558D02*
X276112Y75558D01*
X274475Y75557D02*
X274396Y75559D01*
X274317Y75565D01*
X274238Y75574D01*
X274160Y75587D01*
X274083Y75605D01*
X274007Y75625D01*
X273932Y75650D01*
X273858Y75678D01*
X273785Y75709D01*
X273714Y75745D01*
X273645Y75783D01*
X273578Y75825D01*
X273513Y75870D01*
X273450Y75918D01*
X273389Y75969D01*
X273332Y76023D01*
X273276Y76079D01*
X273224Y76138D01*
X273174Y76200D01*
X273128Y76264D01*
X273084Y76330D01*
X273044Y76398D01*
X273008Y76468D01*
X272974Y76540D01*
X272944Y76614D01*
X272918Y76688D01*
X272895Y76764D01*
X272877Y76841D01*
X272861Y76918D01*
X272850Y76997D01*
X272842Y77075D01*
X272838Y77154D01*
X272838Y77234D01*
X272842Y77313D01*
X272850Y77391D01*
X272861Y77470D01*
X272877Y77547D01*
X272895Y77624D01*
X272918Y77700D01*
X272944Y77774D01*
X272974Y77848D01*
X273008Y77920D01*
X273044Y77990D01*
X273084Y78058D01*
X273128Y78124D01*
X273174Y78188D01*
X273224Y78250D01*
X273276Y78309D01*
X273332Y78365D01*
X273389Y78419D01*
X273450Y78470D01*
X273513Y78518D01*
X273578Y78563D01*
X273645Y78605D01*
X273714Y78643D01*
X273785Y78679D01*
X273858Y78710D01*
X273932Y78738D01*
X274007Y78763D01*
X274083Y78783D01*
X274160Y78801D01*
X274238Y78814D01*
X274317Y78823D01*
X274396Y78829D01*
X274475Y78831D01*
X276112Y78831D01*
X276191Y78829D01*
X276270Y78823D01*
X276349Y78814D01*
X276427Y78801D01*
X276504Y78783D01*
X276580Y78763D01*
X276655Y78738D01*
X276729Y78710D01*
X276802Y78679D01*
X276873Y78643D01*
X276942Y78605D01*
X277009Y78563D01*
X277074Y78518D01*
X277137Y78470D01*
X277198Y78419D01*
X277255Y78365D01*
X277311Y78309D01*
X277363Y78250D01*
X277413Y78188D01*
X277459Y78124D01*
X277503Y78058D01*
X277543Y77990D01*
X277579Y77920D01*
X277613Y77848D01*
X277643Y77774D01*
X277669Y77700D01*
X277692Y77624D01*
X277710Y77547D01*
X277726Y77470D01*
X277737Y77391D01*
X277745Y77313D01*
X277749Y77234D01*
X277749Y77154D01*
X277745Y77075D01*
X277737Y76997D01*
X277726Y76918D01*
X277710Y76841D01*
X277692Y76764D01*
X277669Y76688D01*
X277643Y76614D01*
X277613Y76540D01*
X277579Y76468D01*
X277543Y76398D01*
X277503Y76330D01*
X277459Y76264D01*
X277413Y76200D01*
X277363Y76138D01*
X277311Y76079D01*
X277255Y76023D01*
X277198Y75969D01*
X277137Y75918D01*
X277074Y75870D01*
X277009Y75825D01*
X276942Y75783D01*
X276873Y75745D01*
X276802Y75709D01*
X276729Y75678D01*
X276655Y75650D01*
X276580Y75625D01*
X276504Y75605D01*
X276427Y75587D01*
X276349Y75574D01*
X276270Y75565D01*
X276191Y75559D01*
X276112Y75557D01*
X277749Y85130D02*
X270383Y85130D01*
X277749Y85130D02*
X277749Y83084D01*
X277747Y83015D01*
X277741Y82947D01*
X277732Y82878D01*
X277718Y82811D01*
X277701Y82744D01*
X277680Y82678D01*
X277656Y82614D01*
X277627Y82551D01*
X277596Y82490D01*
X277561Y82431D01*
X277523Y82373D01*
X277481Y82318D01*
X277437Y82266D01*
X277389Y82216D01*
X277339Y82168D01*
X277287Y82124D01*
X277232Y82083D01*
X277174Y82044D01*
X277115Y82009D01*
X277054Y81978D01*
X276991Y81949D01*
X276927Y81925D01*
X276861Y81904D01*
X276794Y81887D01*
X276727Y81873D01*
X276659Y81864D01*
X276590Y81858D01*
X276521Y81856D01*
X274066Y81856D01*
X273997Y81858D01*
X273929Y81864D01*
X273860Y81873D01*
X273793Y81887D01*
X273726Y81904D01*
X273660Y81925D01*
X273596Y81949D01*
X273533Y81978D01*
X273472Y82009D01*
X273413Y82044D01*
X273355Y82082D01*
X273300Y82124D01*
X273248Y82168D01*
X273198Y82216D01*
X273150Y82266D01*
X273106Y82318D01*
X273064Y82373D01*
X273026Y82431D01*
X272991Y82490D01*
X272960Y82551D01*
X272931Y82614D01*
X272907Y82678D01*
X272886Y82744D01*
X272869Y82811D01*
X272855Y82878D01*
X272846Y82947D01*
X272840Y83015D01*
X272838Y83084D01*
X272838Y85130D01*
X277749Y89709D02*
X277749Y91755D01*
X277749Y89709D02*
X277747Y89640D01*
X277741Y89572D01*
X277732Y89503D01*
X277718Y89436D01*
X277701Y89369D01*
X277680Y89303D01*
X277656Y89239D01*
X277627Y89176D01*
X277596Y89115D01*
X277561Y89056D01*
X277523Y88998D01*
X277481Y88943D01*
X277437Y88891D01*
X277389Y88841D01*
X277339Y88793D01*
X277287Y88749D01*
X277232Y88708D01*
X277174Y88669D01*
X277115Y88634D01*
X277054Y88603D01*
X276991Y88574D01*
X276927Y88550D01*
X276861Y88529D01*
X276794Y88512D01*
X276727Y88498D01*
X276659Y88489D01*
X276590Y88483D01*
X276521Y88481D01*
X274475Y88481D01*
X274396Y88483D01*
X274317Y88489D01*
X274238Y88498D01*
X274160Y88511D01*
X274083Y88529D01*
X274007Y88549D01*
X273932Y88574D01*
X273858Y88602D01*
X273785Y88633D01*
X273714Y88669D01*
X273645Y88707D01*
X273578Y88749D01*
X273513Y88794D01*
X273450Y88842D01*
X273389Y88893D01*
X273332Y88947D01*
X273276Y89003D01*
X273224Y89062D01*
X273174Y89124D01*
X273128Y89188D01*
X273084Y89254D01*
X273044Y89322D01*
X273008Y89392D01*
X272974Y89464D01*
X272944Y89538D01*
X272918Y89612D01*
X272895Y89688D01*
X272877Y89765D01*
X272861Y89842D01*
X272850Y89921D01*
X272842Y89999D01*
X272838Y90078D01*
X272838Y90158D01*
X272842Y90237D01*
X272850Y90315D01*
X272861Y90394D01*
X272877Y90471D01*
X272895Y90548D01*
X272918Y90624D01*
X272944Y90698D01*
X272974Y90772D01*
X273008Y90844D01*
X273044Y90914D01*
X273084Y90982D01*
X273128Y91048D01*
X273174Y91112D01*
X273224Y91174D01*
X273276Y91233D01*
X273332Y91289D01*
X273389Y91343D01*
X273450Y91394D01*
X273513Y91442D01*
X273578Y91487D01*
X273645Y91529D01*
X273714Y91567D01*
X273785Y91603D01*
X273858Y91634D01*
X273932Y91662D01*
X274007Y91687D01*
X274083Y91707D01*
X274160Y91725D01*
X274238Y91738D01*
X274317Y91747D01*
X274396Y91753D01*
X274475Y91755D01*
X275294Y91755D01*
X275294Y88481D01*
X379603Y34671D02*
X386969Y34671D01*
X379603Y34671D02*
X379603Y36717D01*
X379605Y36806D01*
X379611Y36895D01*
X379621Y36984D01*
X379634Y37072D01*
X379651Y37160D01*
X379673Y37247D01*
X379698Y37332D01*
X379726Y37417D01*
X379759Y37500D01*
X379795Y37582D01*
X379834Y37662D01*
X379877Y37740D01*
X379923Y37816D01*
X379973Y37891D01*
X380026Y37963D01*
X380082Y38032D01*
X380141Y38099D01*
X380202Y38164D01*
X380267Y38225D01*
X380334Y38284D01*
X380403Y38340D01*
X380475Y38393D01*
X380550Y38443D01*
X380626Y38489D01*
X380704Y38532D01*
X380784Y38571D01*
X380866Y38607D01*
X380949Y38640D01*
X381034Y38668D01*
X381119Y38693D01*
X381206Y38715D01*
X381294Y38732D01*
X381382Y38745D01*
X381471Y38755D01*
X381560Y38761D01*
X381649Y38763D01*
X384923Y38763D01*
X385012Y38761D01*
X385101Y38755D01*
X385190Y38745D01*
X385278Y38732D01*
X385366Y38715D01*
X385453Y38693D01*
X385538Y38668D01*
X385623Y38640D01*
X385706Y38607D01*
X385788Y38571D01*
X385868Y38532D01*
X385946Y38489D01*
X386022Y38443D01*
X386097Y38393D01*
X386169Y38340D01*
X386238Y38284D01*
X386305Y38225D01*
X386370Y38164D01*
X386431Y38099D01*
X386490Y38032D01*
X386546Y37963D01*
X386599Y37891D01*
X386649Y37816D01*
X386695Y37740D01*
X386738Y37662D01*
X386777Y37582D01*
X386813Y37500D01*
X386846Y37417D01*
X386874Y37332D01*
X386899Y37247D01*
X386921Y37160D01*
X386938Y37072D01*
X386951Y36984D01*
X386961Y36895D01*
X386967Y36806D01*
X386969Y36717D01*
X386969Y34671D01*
X386969Y42082D02*
X382058Y42082D01*
X380012Y41877D02*
X379603Y41877D01*
X379603Y42286D01*
X380012Y42286D01*
X380012Y41877D01*
X383695Y45078D02*
X385332Y45078D01*
X383695Y45077D02*
X383616Y45079D01*
X383537Y45085D01*
X383458Y45094D01*
X383380Y45107D01*
X383303Y45125D01*
X383227Y45145D01*
X383152Y45170D01*
X383078Y45198D01*
X383005Y45229D01*
X382934Y45265D01*
X382865Y45303D01*
X382798Y45345D01*
X382733Y45390D01*
X382670Y45438D01*
X382609Y45489D01*
X382552Y45543D01*
X382496Y45599D01*
X382444Y45658D01*
X382394Y45720D01*
X382348Y45784D01*
X382304Y45850D01*
X382264Y45918D01*
X382228Y45988D01*
X382194Y46060D01*
X382164Y46134D01*
X382138Y46208D01*
X382115Y46284D01*
X382097Y46361D01*
X382081Y46438D01*
X382070Y46517D01*
X382062Y46595D01*
X382058Y46674D01*
X382058Y46754D01*
X382062Y46833D01*
X382070Y46911D01*
X382081Y46990D01*
X382097Y47067D01*
X382115Y47144D01*
X382138Y47220D01*
X382164Y47294D01*
X382194Y47368D01*
X382228Y47440D01*
X382264Y47510D01*
X382304Y47578D01*
X382348Y47644D01*
X382394Y47708D01*
X382444Y47770D01*
X382496Y47829D01*
X382552Y47885D01*
X382609Y47939D01*
X382670Y47990D01*
X382733Y48038D01*
X382798Y48083D01*
X382865Y48125D01*
X382934Y48163D01*
X383005Y48199D01*
X383078Y48230D01*
X383152Y48258D01*
X383227Y48283D01*
X383303Y48303D01*
X383380Y48321D01*
X383458Y48334D01*
X383537Y48343D01*
X383616Y48349D01*
X383695Y48351D01*
X385332Y48351D01*
X385411Y48349D01*
X385490Y48343D01*
X385569Y48334D01*
X385647Y48321D01*
X385724Y48303D01*
X385800Y48283D01*
X385875Y48258D01*
X385949Y48230D01*
X386022Y48199D01*
X386093Y48163D01*
X386162Y48125D01*
X386229Y48083D01*
X386294Y48038D01*
X386357Y47990D01*
X386418Y47939D01*
X386475Y47885D01*
X386531Y47829D01*
X386583Y47770D01*
X386633Y47708D01*
X386679Y47644D01*
X386723Y47578D01*
X386763Y47510D01*
X386799Y47440D01*
X386833Y47368D01*
X386863Y47294D01*
X386889Y47220D01*
X386912Y47144D01*
X386930Y47067D01*
X386946Y46990D01*
X386957Y46911D01*
X386965Y46833D01*
X386969Y46754D01*
X386969Y46674D01*
X386965Y46595D01*
X386957Y46517D01*
X386946Y46438D01*
X386930Y46361D01*
X386912Y46284D01*
X386889Y46208D01*
X386863Y46134D01*
X386833Y46060D01*
X386799Y45988D01*
X386763Y45918D01*
X386723Y45850D01*
X386679Y45784D01*
X386633Y45720D01*
X386583Y45658D01*
X386531Y45599D01*
X386475Y45543D01*
X386418Y45489D01*
X386357Y45438D01*
X386294Y45390D01*
X386229Y45345D01*
X386162Y45303D01*
X386093Y45265D01*
X386022Y45229D01*
X385949Y45198D01*
X385875Y45170D01*
X385800Y45145D01*
X385724Y45125D01*
X385647Y45107D01*
X385569Y45094D01*
X385490Y45085D01*
X385411Y45079D01*
X385332Y45077D01*
X386969Y54650D02*
X379603Y54650D01*
X386969Y54650D02*
X386969Y52604D01*
X386967Y52535D01*
X386961Y52467D01*
X386952Y52398D01*
X386938Y52331D01*
X386921Y52264D01*
X386900Y52198D01*
X386876Y52134D01*
X386847Y52071D01*
X386816Y52010D01*
X386781Y51951D01*
X386743Y51893D01*
X386701Y51838D01*
X386657Y51786D01*
X386609Y51736D01*
X386559Y51688D01*
X386507Y51644D01*
X386452Y51603D01*
X386394Y51564D01*
X386335Y51529D01*
X386274Y51498D01*
X386211Y51469D01*
X386147Y51445D01*
X386081Y51424D01*
X386014Y51407D01*
X385947Y51393D01*
X385879Y51384D01*
X385810Y51378D01*
X385741Y51376D01*
X383286Y51376D01*
X383217Y51378D01*
X383149Y51384D01*
X383080Y51393D01*
X383013Y51407D01*
X382946Y51424D01*
X382880Y51445D01*
X382816Y51469D01*
X382753Y51498D01*
X382692Y51529D01*
X382633Y51564D01*
X382575Y51602D01*
X382520Y51644D01*
X382468Y51688D01*
X382418Y51736D01*
X382370Y51786D01*
X382326Y51838D01*
X382284Y51893D01*
X382246Y51951D01*
X382211Y52010D01*
X382180Y52071D01*
X382151Y52134D01*
X382127Y52198D01*
X382106Y52264D01*
X382089Y52331D01*
X382075Y52398D01*
X382066Y52467D01*
X382060Y52535D01*
X382058Y52604D01*
X382058Y54650D01*
X386969Y59229D02*
X386969Y61275D01*
X386969Y59229D02*
X386967Y59160D01*
X386961Y59092D01*
X386952Y59023D01*
X386938Y58956D01*
X386921Y58889D01*
X386900Y58823D01*
X386876Y58759D01*
X386847Y58696D01*
X386816Y58635D01*
X386781Y58576D01*
X386743Y58518D01*
X386701Y58463D01*
X386657Y58411D01*
X386609Y58361D01*
X386559Y58313D01*
X386507Y58269D01*
X386452Y58228D01*
X386394Y58189D01*
X386335Y58154D01*
X386274Y58123D01*
X386211Y58094D01*
X386147Y58070D01*
X386081Y58049D01*
X386014Y58032D01*
X385947Y58018D01*
X385879Y58009D01*
X385810Y58003D01*
X385741Y58001D01*
X383695Y58001D01*
X383616Y58003D01*
X383537Y58009D01*
X383458Y58018D01*
X383380Y58031D01*
X383303Y58049D01*
X383227Y58069D01*
X383152Y58094D01*
X383078Y58122D01*
X383005Y58153D01*
X382934Y58189D01*
X382865Y58227D01*
X382798Y58269D01*
X382733Y58314D01*
X382670Y58362D01*
X382609Y58413D01*
X382552Y58467D01*
X382496Y58523D01*
X382444Y58582D01*
X382394Y58644D01*
X382348Y58708D01*
X382304Y58774D01*
X382264Y58842D01*
X382228Y58912D01*
X382194Y58984D01*
X382164Y59058D01*
X382138Y59132D01*
X382115Y59208D01*
X382097Y59285D01*
X382081Y59362D01*
X382070Y59441D01*
X382062Y59519D01*
X382058Y59598D01*
X382058Y59678D01*
X382062Y59757D01*
X382070Y59835D01*
X382081Y59914D01*
X382097Y59991D01*
X382115Y60068D01*
X382138Y60144D01*
X382164Y60218D01*
X382194Y60292D01*
X382228Y60364D01*
X382264Y60434D01*
X382304Y60502D01*
X382348Y60568D01*
X382394Y60632D01*
X382444Y60694D01*
X382496Y60753D01*
X382552Y60809D01*
X382609Y60863D01*
X382670Y60914D01*
X382733Y60962D01*
X382798Y61007D01*
X382865Y61049D01*
X382934Y61087D01*
X383005Y61123D01*
X383078Y61154D01*
X383152Y61182D01*
X383227Y61207D01*
X383303Y61227D01*
X383380Y61245D01*
X383458Y61258D01*
X383537Y61267D01*
X383616Y61273D01*
X383695Y61275D01*
X384514Y61275D01*
X384514Y58001D01*
D14*
X376550Y67120D02*
X376550Y31600D01*
X360050Y31600D02*
X360050Y59840D01*
X274950Y62040D02*
X274950Y26520D01*
X258450Y26520D02*
X258450Y54760D01*
X173350Y62040D02*
X173350Y26520D01*
X156850Y26520D02*
X156850Y54760D01*
X456480Y145815D02*
X493480Y145815D01*
X456480Y145815D02*
X456480Y195815D01*
X493480Y195815D01*
X493480Y145815D01*
X496980Y145565D02*
X511730Y145565D01*
X284110Y69340D02*
X284110Y37340D01*
X284110Y69340D02*
X333110Y69340D01*
X333110Y37340D01*
X284110Y37340D01*
X282560Y33840D02*
X282560Y18590D01*
X430530Y207370D02*
X455530Y207370D01*
X455530Y252370D02*
X430530Y252370D01*
X477026Y214770D02*
X477028Y214812D01*
X477034Y214853D01*
X477043Y214893D01*
X477057Y214933D01*
X477074Y214971D01*
X477094Y215007D01*
X477118Y215041D01*
X477145Y215073D01*
X477175Y215102D01*
X477207Y215128D01*
X477242Y215151D01*
X477279Y215171D01*
X477317Y215187D01*
X477357Y215199D01*
X477397Y215208D01*
X477439Y215213D01*
X477480Y215214D01*
X477522Y215211D01*
X477563Y215204D01*
X477603Y215194D01*
X477642Y215179D01*
X477680Y215161D01*
X477716Y215140D01*
X477749Y215115D01*
X477780Y215088D01*
X477809Y215057D01*
X477834Y215024D01*
X477856Y214989D01*
X477875Y214952D01*
X477890Y214913D01*
X477902Y214873D01*
X477910Y214832D01*
X477914Y214791D01*
X477914Y214749D01*
X477910Y214708D01*
X477902Y214667D01*
X477890Y214627D01*
X477875Y214588D01*
X477856Y214551D01*
X477834Y214516D01*
X477809Y214483D01*
X477780Y214452D01*
X477749Y214425D01*
X477716Y214400D01*
X477680Y214379D01*
X477642Y214361D01*
X477603Y214346D01*
X477563Y214336D01*
X477522Y214329D01*
X477480Y214326D01*
X477439Y214327D01*
X477397Y214332D01*
X477357Y214341D01*
X477317Y214353D01*
X477279Y214369D01*
X477242Y214389D01*
X477207Y214412D01*
X477175Y214438D01*
X477145Y214467D01*
X477118Y214499D01*
X477094Y214533D01*
X477074Y214569D01*
X477057Y214607D01*
X477043Y214647D01*
X477034Y214687D01*
X477028Y214728D01*
X477026Y214770D01*
X479810Y110240D02*
X479810Y47240D01*
X416810Y47240D01*
X416810Y110240D01*
X479810Y110240D01*
D15*
X486310Y124490D02*
X486312Y124579D01*
X486318Y124668D01*
X486328Y124757D01*
X486342Y124845D01*
X486359Y124932D01*
X486381Y125018D01*
X486407Y125104D01*
X486436Y125188D01*
X486469Y125271D01*
X486505Y125352D01*
X486546Y125432D01*
X486589Y125509D01*
X486636Y125585D01*
X486687Y125658D01*
X486740Y125729D01*
X486797Y125798D01*
X486857Y125864D01*
X486920Y125928D01*
X486985Y125988D01*
X487053Y126046D01*
X487124Y126100D01*
X487197Y126151D01*
X487272Y126199D01*
X487349Y126244D01*
X487428Y126285D01*
X487509Y126322D01*
X487591Y126356D01*
X487675Y126387D01*
X487760Y126413D01*
X487846Y126436D01*
X487933Y126454D01*
X488021Y126469D01*
X488110Y126480D01*
X488199Y126487D01*
X488288Y126490D01*
X488377Y126489D01*
X488466Y126484D01*
X488554Y126475D01*
X488643Y126462D01*
X488730Y126445D01*
X488817Y126425D01*
X488903Y126400D01*
X488987Y126372D01*
X489070Y126340D01*
X489152Y126304D01*
X489232Y126265D01*
X489310Y126222D01*
X489386Y126176D01*
X489460Y126126D01*
X489532Y126073D01*
X489601Y126017D01*
X489668Y125958D01*
X489732Y125896D01*
X489793Y125832D01*
X489852Y125764D01*
X489907Y125694D01*
X489959Y125622D01*
X490008Y125547D01*
X490053Y125471D01*
X490095Y125392D01*
X490133Y125312D01*
X490168Y125230D01*
X490199Y125146D01*
X490227Y125061D01*
X490250Y124975D01*
X490270Y124888D01*
X490286Y124801D01*
X490298Y124712D01*
X490306Y124624D01*
X490310Y124535D01*
X490310Y124445D01*
X490306Y124356D01*
X490298Y124268D01*
X490286Y124179D01*
X490270Y124092D01*
X490250Y124005D01*
X490227Y123919D01*
X490199Y123834D01*
X490168Y123750D01*
X490133Y123668D01*
X490095Y123588D01*
X490053Y123509D01*
X490008Y123433D01*
X489959Y123358D01*
X489907Y123286D01*
X489852Y123216D01*
X489793Y123148D01*
X489732Y123084D01*
X489668Y123022D01*
X489601Y122963D01*
X489532Y122907D01*
X489460Y122854D01*
X489386Y122804D01*
X489310Y122758D01*
X489232Y122715D01*
X489152Y122676D01*
X489070Y122640D01*
X488987Y122608D01*
X488903Y122580D01*
X488817Y122555D01*
X488730Y122535D01*
X488643Y122518D01*
X488554Y122505D01*
X488466Y122496D01*
X488377Y122491D01*
X488288Y122490D01*
X488199Y122493D01*
X488110Y122500D01*
X488021Y122511D01*
X487933Y122526D01*
X487846Y122544D01*
X487760Y122567D01*
X487675Y122593D01*
X487591Y122624D01*
X487509Y122658D01*
X487428Y122695D01*
X487349Y122736D01*
X487272Y122781D01*
X487197Y122829D01*
X487124Y122880D01*
X487053Y122934D01*
X486985Y122992D01*
X486920Y123052D01*
X486857Y123116D01*
X486797Y123182D01*
X486740Y123251D01*
X486687Y123322D01*
X486636Y123395D01*
X486589Y123471D01*
X486546Y123548D01*
X486505Y123628D01*
X486469Y123709D01*
X486436Y123792D01*
X486407Y123876D01*
X486381Y123962D01*
X486359Y124048D01*
X486342Y124135D01*
X486328Y124223D01*
X486318Y124312D01*
X486312Y124401D01*
X486310Y124490D01*
D14*
X182510Y69340D02*
X182510Y37340D01*
X182510Y69340D02*
X231510Y69340D01*
X231510Y37340D01*
X182510Y37340D01*
X180960Y33840D02*
X180960Y18590D01*
X80910Y36070D02*
X80910Y68070D01*
X129910Y68070D01*
X129910Y36070D01*
X80910Y36070D01*
X79360Y32570D02*
X79360Y17320D01*
X498580Y211650D02*
X498580Y220150D01*
X527580Y220150D01*
X527580Y211650D01*
X498580Y211650D01*
X497980Y208150D02*
X497980Y199650D01*
D16*
X518160Y222250D02*
X518160Y234950D01*
X508000Y234950D01*
X508000Y222250D01*
X518160Y222250D01*
X516890Y210820D02*
X516890Y198120D01*
X516890Y210820D02*
X528320Y210820D01*
X528320Y198120D01*
X516890Y198120D01*
X509270Y196850D02*
X500380Y196850D01*
X509270Y196850D02*
X509270Y210820D01*
X500380Y210820D01*
D14*
X483870Y26470D02*
X389470Y26470D01*
X389470Y470D01*
X498570Y470D01*
X498570Y13970D01*
D17*
X479935Y10724D02*
X479935Y19812D01*
X479935Y10724D02*
X479933Y10625D01*
X479927Y10525D01*
X479918Y10426D01*
X479905Y10328D01*
X479888Y10230D01*
X479867Y10132D01*
X479842Y10036D01*
X479814Y9941D01*
X479782Y9847D01*
X479747Y9754D01*
X479708Y9662D01*
X479665Y9572D01*
X479620Y9484D01*
X479570Y9397D01*
X479518Y9313D01*
X479462Y9230D01*
X479404Y9150D01*
X479342Y9072D01*
X479277Y8997D01*
X479209Y8924D01*
X479139Y8854D01*
X479066Y8786D01*
X478991Y8721D01*
X478913Y8659D01*
X478833Y8601D01*
X478750Y8545D01*
X478666Y8493D01*
X478579Y8443D01*
X478491Y8398D01*
X478401Y8355D01*
X478309Y8316D01*
X478216Y8281D01*
X478122Y8249D01*
X478027Y8221D01*
X477931Y8196D01*
X477833Y8175D01*
X477735Y8158D01*
X477637Y8145D01*
X477538Y8136D01*
X477438Y8130D01*
X477339Y8128D01*
X476040Y8128D01*
X488779Y19812D02*
X488886Y19810D01*
X488992Y19804D01*
X489098Y19794D01*
X489204Y19781D01*
X489310Y19763D01*
X489414Y19742D01*
X489518Y19717D01*
X489621Y19688D01*
X489722Y19656D01*
X489822Y19619D01*
X489921Y19579D01*
X490019Y19536D01*
X490115Y19489D01*
X490209Y19438D01*
X490301Y19384D01*
X490391Y19327D01*
X490479Y19267D01*
X490564Y19203D01*
X490647Y19136D01*
X490728Y19066D01*
X490806Y18994D01*
X490882Y18918D01*
X490954Y18840D01*
X491024Y18759D01*
X491091Y18676D01*
X491155Y18591D01*
X491215Y18503D01*
X491272Y18413D01*
X491326Y18321D01*
X491377Y18227D01*
X491424Y18131D01*
X491467Y18033D01*
X491507Y17934D01*
X491544Y17834D01*
X491576Y17733D01*
X491605Y17630D01*
X491630Y17526D01*
X491651Y17422D01*
X491669Y17316D01*
X491682Y17210D01*
X491692Y17104D01*
X491698Y16998D01*
X491700Y16891D01*
X488779Y19812D02*
X488658Y19810D01*
X488537Y19804D01*
X488417Y19794D01*
X488296Y19781D01*
X488177Y19763D01*
X488057Y19742D01*
X487939Y19717D01*
X487822Y19688D01*
X487705Y19655D01*
X487590Y19619D01*
X487476Y19578D01*
X487363Y19535D01*
X487251Y19487D01*
X487142Y19436D01*
X487034Y19381D01*
X486927Y19323D01*
X486823Y19262D01*
X486721Y19197D01*
X486621Y19129D01*
X486523Y19058D01*
X486427Y18984D01*
X486334Y18907D01*
X486244Y18826D01*
X486156Y18743D01*
X486071Y18657D01*
X485988Y18568D01*
X485909Y18477D01*
X485832Y18383D01*
X485759Y18287D01*
X485689Y18189D01*
X485622Y18088D01*
X485558Y17985D01*
X485498Y17880D01*
X485441Y17773D01*
X485387Y17665D01*
X485337Y17555D01*
X485291Y17443D01*
X485248Y17330D01*
X485209Y17215D01*
X490726Y14619D02*
X490805Y14696D01*
X490881Y14777D01*
X490954Y14860D01*
X491024Y14945D01*
X491091Y15033D01*
X491155Y15123D01*
X491215Y15215D01*
X491272Y15310D01*
X491326Y15406D01*
X491377Y15504D01*
X491424Y15604D01*
X491468Y15706D01*
X491508Y15809D01*
X491544Y15913D01*
X491576Y16019D01*
X491605Y16125D01*
X491630Y16233D01*
X491652Y16341D01*
X491669Y16451D01*
X491683Y16560D01*
X491692Y16670D01*
X491698Y16781D01*
X491700Y16891D01*
X490726Y14619D02*
X485208Y8128D01*
X491700Y8128D01*
D13*
X371220Y151671D02*
X369583Y153717D01*
X376949Y153717D01*
X376949Y151671D02*
X376949Y155763D01*
X373266Y158987D02*
X373113Y158989D01*
X372960Y158995D01*
X372808Y159004D01*
X372655Y159018D01*
X372503Y159035D01*
X372352Y159056D01*
X372201Y159081D01*
X372051Y159110D01*
X371901Y159142D01*
X371753Y159179D01*
X371605Y159219D01*
X371458Y159262D01*
X371313Y159310D01*
X371169Y159361D01*
X371026Y159415D01*
X370884Y159474D01*
X370745Y159535D01*
X370606Y159601D01*
X370606Y159600D02*
X370536Y159626D01*
X370466Y159656D01*
X370399Y159689D01*
X370333Y159725D01*
X370269Y159764D01*
X370207Y159807D01*
X370148Y159853D01*
X370090Y159901D01*
X370036Y159952D01*
X369983Y160006D01*
X369934Y160063D01*
X369887Y160122D01*
X369844Y160183D01*
X369803Y160246D01*
X369766Y160311D01*
X369731Y160378D01*
X369701Y160447D01*
X369673Y160517D01*
X369650Y160588D01*
X369629Y160660D01*
X369613Y160733D01*
X369600Y160807D01*
X369590Y160882D01*
X369585Y160957D01*
X369583Y161032D01*
X369585Y161107D01*
X369590Y161182D01*
X369600Y161257D01*
X369613Y161331D01*
X369629Y161404D01*
X369650Y161476D01*
X369673Y161547D01*
X369701Y161617D01*
X369731Y161686D01*
X369766Y161753D01*
X369803Y161818D01*
X369844Y161881D01*
X369887Y161942D01*
X369934Y162001D01*
X369983Y162058D01*
X370036Y162112D01*
X370090Y162163D01*
X370148Y162212D01*
X370207Y162257D01*
X370269Y162300D01*
X370333Y162339D01*
X370399Y162376D01*
X370467Y162408D01*
X370536Y162438D01*
X370606Y162464D01*
X370744Y162529D01*
X370884Y162591D01*
X371026Y162649D01*
X371169Y162704D01*
X371313Y162755D01*
X371458Y162803D01*
X371605Y162846D01*
X371752Y162886D01*
X371901Y162923D01*
X372051Y162955D01*
X372201Y162984D01*
X372352Y163009D01*
X372503Y163030D01*
X372655Y163047D01*
X372808Y163061D01*
X372960Y163070D01*
X373113Y163076D01*
X373266Y163078D01*
X373266Y158987D02*
X373419Y158989D01*
X373572Y158995D01*
X373724Y159004D01*
X373877Y159018D01*
X374029Y159035D01*
X374180Y159056D01*
X374331Y159081D01*
X374481Y159110D01*
X374631Y159142D01*
X374779Y159179D01*
X374927Y159219D01*
X375074Y159262D01*
X375219Y159310D01*
X375363Y159361D01*
X375506Y159415D01*
X375648Y159474D01*
X375787Y159535D01*
X375926Y159601D01*
X375926Y159600D02*
X375997Y159626D01*
X376066Y159656D01*
X376133Y159689D01*
X376199Y159725D01*
X376263Y159764D01*
X376325Y159807D01*
X376384Y159853D01*
X376442Y159901D01*
X376496Y159952D01*
X376549Y160006D01*
X376598Y160063D01*
X376645Y160122D01*
X376688Y160183D01*
X376729Y160246D01*
X376766Y160311D01*
X376801Y160378D01*
X376831Y160447D01*
X376859Y160517D01*
X376882Y160588D01*
X376903Y160660D01*
X376919Y160733D01*
X376932Y160807D01*
X376942Y160882D01*
X376947Y160957D01*
X376949Y161032D01*
X375926Y162464D02*
X375788Y162529D01*
X375648Y162591D01*
X375506Y162649D01*
X375363Y162704D01*
X375219Y162755D01*
X375074Y162803D01*
X374927Y162846D01*
X374780Y162886D01*
X374631Y162923D01*
X374481Y162955D01*
X374331Y162984D01*
X374180Y163009D01*
X374029Y163030D01*
X373877Y163047D01*
X373724Y163061D01*
X373572Y163070D01*
X373419Y163076D01*
X373266Y163078D01*
X375926Y162464D02*
X375996Y162438D01*
X376066Y162408D01*
X376133Y162375D01*
X376199Y162339D01*
X376263Y162300D01*
X376325Y162257D01*
X376384Y162211D01*
X376442Y162163D01*
X376496Y162112D01*
X376549Y162058D01*
X376598Y162001D01*
X376645Y161942D01*
X376688Y161881D01*
X376729Y161818D01*
X376766Y161753D01*
X376801Y161686D01*
X376831Y161617D01*
X376859Y161547D01*
X376882Y161476D01*
X376903Y161404D01*
X376919Y161331D01*
X376932Y161257D01*
X376942Y161182D01*
X376947Y161107D01*
X376949Y161032D01*
X375312Y159395D02*
X371220Y162669D01*
X369583Y166663D02*
X376949Y166663D01*
X374084Y166663D02*
X369583Y170755D01*
X372448Y168300D02*
X376949Y170755D01*
X374623Y192135D02*
X372986Y194181D01*
X380352Y194181D01*
X380352Y192135D02*
X380352Y196227D01*
X376669Y199450D02*
X376516Y199452D01*
X376363Y199458D01*
X376211Y199467D01*
X376058Y199481D01*
X375906Y199498D01*
X375755Y199519D01*
X375604Y199544D01*
X375454Y199573D01*
X375304Y199605D01*
X375156Y199642D01*
X375008Y199682D01*
X374861Y199725D01*
X374716Y199773D01*
X374572Y199824D01*
X374429Y199878D01*
X374287Y199937D01*
X374148Y199998D01*
X374009Y200064D01*
X373939Y200090D01*
X373869Y200120D01*
X373802Y200153D01*
X373736Y200189D01*
X373672Y200228D01*
X373610Y200271D01*
X373551Y200317D01*
X373493Y200365D01*
X373439Y200416D01*
X373386Y200470D01*
X373337Y200527D01*
X373290Y200586D01*
X373247Y200647D01*
X373206Y200710D01*
X373169Y200775D01*
X373134Y200842D01*
X373104Y200911D01*
X373076Y200981D01*
X373053Y201052D01*
X373032Y201124D01*
X373016Y201197D01*
X373003Y201271D01*
X372993Y201346D01*
X372988Y201421D01*
X372986Y201496D01*
X372988Y201571D01*
X372993Y201646D01*
X373003Y201721D01*
X373016Y201795D01*
X373032Y201868D01*
X373053Y201940D01*
X373076Y202011D01*
X373104Y202081D01*
X373134Y202150D01*
X373169Y202217D01*
X373206Y202282D01*
X373247Y202345D01*
X373290Y202406D01*
X373337Y202465D01*
X373386Y202522D01*
X373439Y202576D01*
X373493Y202627D01*
X373551Y202676D01*
X373610Y202721D01*
X373672Y202764D01*
X373736Y202803D01*
X373802Y202840D01*
X373870Y202872D01*
X373939Y202902D01*
X374009Y202928D01*
X374147Y202993D01*
X374287Y203055D01*
X374429Y203113D01*
X374572Y203168D01*
X374716Y203219D01*
X374861Y203267D01*
X375008Y203310D01*
X375155Y203350D01*
X375304Y203387D01*
X375454Y203419D01*
X375604Y203448D01*
X375755Y203473D01*
X375906Y203494D01*
X376058Y203511D01*
X376211Y203525D01*
X376363Y203534D01*
X376516Y203540D01*
X376669Y203542D01*
X376669Y199450D02*
X376822Y199452D01*
X376975Y199458D01*
X377127Y199467D01*
X377280Y199481D01*
X377432Y199498D01*
X377583Y199519D01*
X377734Y199544D01*
X377884Y199573D01*
X378034Y199605D01*
X378182Y199642D01*
X378330Y199682D01*
X378477Y199725D01*
X378622Y199773D01*
X378766Y199824D01*
X378909Y199878D01*
X379051Y199937D01*
X379190Y199998D01*
X379329Y200064D01*
X379400Y200090D01*
X379469Y200120D01*
X379536Y200153D01*
X379602Y200189D01*
X379666Y200228D01*
X379728Y200271D01*
X379787Y200317D01*
X379845Y200365D01*
X379899Y200416D01*
X379952Y200470D01*
X380001Y200527D01*
X380048Y200586D01*
X380091Y200647D01*
X380132Y200710D01*
X380169Y200775D01*
X380204Y200842D01*
X380234Y200911D01*
X380262Y200981D01*
X380285Y201052D01*
X380306Y201124D01*
X380322Y201197D01*
X380335Y201271D01*
X380345Y201346D01*
X380350Y201421D01*
X380352Y201496D01*
X379329Y202928D02*
X379191Y202993D01*
X379051Y203055D01*
X378909Y203113D01*
X378766Y203168D01*
X378622Y203219D01*
X378477Y203267D01*
X378330Y203310D01*
X378183Y203350D01*
X378034Y203387D01*
X377884Y203419D01*
X377734Y203448D01*
X377583Y203473D01*
X377432Y203494D01*
X377280Y203511D01*
X377127Y203525D01*
X376975Y203534D01*
X376822Y203540D01*
X376669Y203542D01*
X379329Y202928D02*
X379399Y202902D01*
X379469Y202872D01*
X379536Y202839D01*
X379602Y202803D01*
X379666Y202764D01*
X379728Y202721D01*
X379787Y202675D01*
X379845Y202627D01*
X379899Y202576D01*
X379952Y202522D01*
X380001Y202465D01*
X380048Y202406D01*
X380091Y202345D01*
X380132Y202282D01*
X380169Y202217D01*
X380204Y202150D01*
X380234Y202081D01*
X380262Y202011D01*
X380285Y201940D01*
X380306Y201868D01*
X380322Y201795D01*
X380335Y201721D01*
X380345Y201646D01*
X380350Y201571D01*
X380352Y201496D01*
X378715Y199859D02*
X374623Y203133D01*
X376669Y206765D02*
X376516Y206767D01*
X376363Y206773D01*
X376211Y206782D01*
X376058Y206796D01*
X375906Y206813D01*
X375755Y206834D01*
X375604Y206859D01*
X375454Y206888D01*
X375304Y206920D01*
X375156Y206957D01*
X375008Y206997D01*
X374861Y207040D01*
X374716Y207088D01*
X374572Y207139D01*
X374429Y207193D01*
X374287Y207252D01*
X374148Y207313D01*
X374009Y207379D01*
X373939Y207405D01*
X373869Y207435D01*
X373802Y207468D01*
X373736Y207504D01*
X373672Y207543D01*
X373610Y207586D01*
X373551Y207632D01*
X373493Y207680D01*
X373439Y207731D01*
X373386Y207785D01*
X373337Y207842D01*
X373290Y207901D01*
X373247Y207962D01*
X373206Y208025D01*
X373169Y208090D01*
X373134Y208157D01*
X373104Y208226D01*
X373076Y208296D01*
X373053Y208367D01*
X373032Y208439D01*
X373016Y208512D01*
X373003Y208586D01*
X372993Y208661D01*
X372988Y208736D01*
X372986Y208811D01*
X372988Y208886D01*
X372993Y208961D01*
X373003Y209036D01*
X373016Y209110D01*
X373032Y209183D01*
X373053Y209255D01*
X373076Y209326D01*
X373104Y209396D01*
X373134Y209465D01*
X373169Y209532D01*
X373206Y209597D01*
X373247Y209660D01*
X373290Y209721D01*
X373337Y209780D01*
X373386Y209837D01*
X373439Y209891D01*
X373493Y209942D01*
X373551Y209991D01*
X373610Y210036D01*
X373672Y210079D01*
X373736Y210118D01*
X373802Y210155D01*
X373870Y210187D01*
X373939Y210217D01*
X374009Y210243D01*
X374147Y210308D01*
X374287Y210370D01*
X374429Y210428D01*
X374572Y210483D01*
X374716Y210534D01*
X374861Y210582D01*
X375008Y210625D01*
X375155Y210665D01*
X375304Y210702D01*
X375454Y210734D01*
X375604Y210763D01*
X375755Y210788D01*
X375906Y210809D01*
X376058Y210826D01*
X376211Y210840D01*
X376363Y210849D01*
X376516Y210855D01*
X376669Y210857D01*
X376669Y206765D02*
X376822Y206767D01*
X376975Y206773D01*
X377127Y206782D01*
X377280Y206796D01*
X377432Y206813D01*
X377583Y206834D01*
X377734Y206859D01*
X377884Y206888D01*
X378034Y206920D01*
X378182Y206957D01*
X378330Y206997D01*
X378477Y207040D01*
X378622Y207088D01*
X378766Y207139D01*
X378909Y207193D01*
X379051Y207252D01*
X379190Y207313D01*
X379329Y207379D01*
X379400Y207405D01*
X379469Y207435D01*
X379536Y207468D01*
X379602Y207504D01*
X379666Y207543D01*
X379728Y207586D01*
X379787Y207632D01*
X379845Y207680D01*
X379899Y207731D01*
X379952Y207785D01*
X380001Y207842D01*
X380048Y207901D01*
X380091Y207962D01*
X380132Y208025D01*
X380169Y208090D01*
X380204Y208157D01*
X380234Y208226D01*
X380262Y208296D01*
X380285Y208367D01*
X380306Y208439D01*
X380322Y208512D01*
X380335Y208586D01*
X380345Y208661D01*
X380350Y208736D01*
X380352Y208811D01*
X379329Y210243D02*
X379191Y210308D01*
X379051Y210370D01*
X378909Y210428D01*
X378766Y210483D01*
X378622Y210534D01*
X378477Y210582D01*
X378330Y210625D01*
X378183Y210665D01*
X378034Y210702D01*
X377884Y210734D01*
X377734Y210763D01*
X377583Y210788D01*
X377432Y210809D01*
X377280Y210826D01*
X377127Y210840D01*
X376975Y210849D01*
X376822Y210855D01*
X376669Y210857D01*
X379329Y210243D02*
X379399Y210217D01*
X379469Y210187D01*
X379536Y210154D01*
X379602Y210118D01*
X379666Y210079D01*
X379728Y210036D01*
X379787Y209990D01*
X379845Y209942D01*
X379899Y209891D01*
X379952Y209837D01*
X380001Y209780D01*
X380048Y209721D01*
X380091Y209660D01*
X380132Y209597D01*
X380169Y209532D01*
X380204Y209465D01*
X380234Y209396D01*
X380262Y209326D01*
X380285Y209255D01*
X380306Y209183D01*
X380322Y209110D01*
X380335Y209036D01*
X380345Y208961D01*
X380350Y208886D01*
X380352Y208811D01*
X378715Y207174D02*
X374623Y210448D01*
X372986Y214442D02*
X380352Y214442D01*
X377487Y214442D02*
X372986Y218534D01*
X375851Y216079D02*
X380352Y218534D01*
M02*
