G04 EAGLE Gerber RS-274X export*
G75*
%MOMM*%
%FSLAX34Y34*%
%LPD*%
%INSoldermask Top*%
%IPPOS*%
%AMOC8*
5,1,8,0,0,1.08239X$1,22.5*%
G01*
%ADD10R,1.600000X1.300000*%
%ADD11R,1.390000X1.050000*%
%ADD12R,1.050000X1.390000*%
%ADD13R,1.070000X0.980000*%
%ADD14R,1.475000X0.450000*%
%ADD15R,0.700000X1.525000*%
%ADD16R,1.500000X1.000000*%
%ADD17R,1.800000X1.000000*%
%ADD18R,3.700000X2.200000*%
%ADD19R,0.600000X1.475000*%
%ADD20R,1.475000X0.600000*%
%ADD21R,0.600000X0.850000*%
%ADD22R,1.100000X1.000000*%
%ADD23R,1.300000X1.600000*%
%ADD24R,1.800000X1.800000*%
%ADD25C,1.800000*%
%ADD26C,1.500000*%
%ADD27C,0.825000*%

G36*
X55883Y2415D02*
X55883Y2415D01*
X55886Y2414D01*
X55969Y2451D01*
X63589Y10071D01*
X63590Y10073D01*
X63592Y10074D01*
X63609Y10118D01*
X63626Y10162D01*
X63625Y10164D01*
X63626Y10166D01*
X63589Y10249D01*
X62356Y11482D01*
X62356Y83820D01*
X62355Y83823D01*
X62356Y83826D01*
X62319Y83909D01*
X54699Y91529D01*
X54696Y91531D01*
X54695Y91533D01*
X54610Y91566D01*
X10795Y91566D01*
X10792Y91565D01*
X10789Y91566D01*
X10706Y91529D01*
X3721Y84544D01*
X3720Y84541D01*
X3717Y84540D01*
X3684Y84455D01*
X3684Y2540D01*
X3685Y2538D01*
X3684Y2536D01*
X3704Y2493D01*
X3722Y2449D01*
X3724Y2449D01*
X3725Y2447D01*
X3810Y2414D01*
X55880Y2414D01*
X55883Y2415D01*
G37*
G36*
X54613Y102745D02*
X54613Y102745D01*
X54616Y102744D01*
X54699Y102781D01*
X57239Y105321D01*
X57241Y105324D01*
X57243Y105325D01*
X57276Y105410D01*
X57276Y182880D01*
X57275Y182882D01*
X57276Y182884D01*
X57256Y182927D01*
X57238Y182971D01*
X57236Y182971D01*
X57235Y182973D01*
X57150Y183006D01*
X8255Y183006D01*
X8252Y183005D01*
X8249Y183006D01*
X8166Y182969D01*
X3721Y178524D01*
X3720Y178521D01*
X3717Y178520D01*
X3684Y178435D01*
X3684Y105410D01*
X3685Y105407D01*
X3684Y105404D01*
X3721Y105321D01*
X6261Y102781D01*
X6264Y102780D01*
X6265Y102777D01*
X6350Y102744D01*
X54610Y102744D01*
X54613Y102745D01*
G37*
G36*
X41913Y192915D02*
X41913Y192915D01*
X41916Y192914D01*
X41999Y192951D01*
X58509Y209461D01*
X58511Y209464D01*
X58513Y209465D01*
X58546Y209550D01*
X58546Y267335D01*
X58545Y267338D01*
X58546Y267341D01*
X58509Y267424D01*
X55334Y270599D01*
X55331Y270601D01*
X55330Y270603D01*
X55245Y270636D01*
X8255Y270636D01*
X8252Y270635D01*
X8249Y270636D01*
X8166Y270599D01*
X5626Y268059D01*
X5625Y268056D01*
X5622Y268055D01*
X5589Y267970D01*
X5589Y195580D01*
X5590Y195577D01*
X5589Y195574D01*
X5626Y195491D01*
X8166Y192951D01*
X8169Y192950D01*
X8170Y192947D01*
X8255Y192914D01*
X41910Y192914D01*
X41913Y192915D01*
G37*
D10*
X245110Y70010D03*
X245110Y90010D03*
X143510Y70010D03*
X143510Y90010D03*
D11*
X485140Y218955D03*
X485140Y203955D03*
X525145Y144265D03*
X525145Y159265D03*
D10*
X346710Y51910D03*
X346710Y31910D03*
X346710Y70010D03*
X346710Y90010D03*
X143510Y51910D03*
X143510Y31910D03*
D12*
X440810Y138430D03*
X455810Y138430D03*
D11*
X400685Y228085D03*
X400685Y243085D03*
X546100Y216415D03*
X546100Y201415D03*
D10*
X245110Y51910D03*
X245110Y31910D03*
D13*
X368300Y62220D03*
X368300Y29220D03*
X266700Y57140D03*
X266700Y24140D03*
X165100Y57140D03*
X165100Y24140D03*
D14*
X504360Y151315D03*
X504360Y157815D03*
X504360Y164315D03*
X504360Y170815D03*
X504360Y177315D03*
X504360Y183815D03*
X504360Y190315D03*
X445600Y190315D03*
X445600Y183815D03*
X445600Y177315D03*
X445600Y170815D03*
X445600Y164315D03*
X445600Y157815D03*
X445600Y151315D03*
D15*
X289560Y26220D03*
X302260Y26220D03*
X314960Y26220D03*
X327660Y26220D03*
X327660Y80460D03*
X314960Y80460D03*
X302260Y80460D03*
X289560Y80460D03*
D16*
X467030Y214870D03*
D17*
X465530Y229870D03*
D16*
X467030Y244870D03*
D18*
X438030Y229870D03*
D19*
X476310Y121120D03*
X468310Y121120D03*
X460310Y121120D03*
X452310Y121120D03*
X444310Y121120D03*
X436310Y121120D03*
X428310Y121120D03*
X420310Y121120D03*
D20*
X405930Y106740D03*
X405930Y98740D03*
X405930Y90740D03*
X405930Y82740D03*
X405930Y74740D03*
X405930Y66740D03*
X405930Y58740D03*
X405930Y50740D03*
D19*
X420310Y36360D03*
X428310Y36360D03*
X436310Y36360D03*
X444310Y36360D03*
X452310Y36360D03*
X460310Y36360D03*
X468310Y36360D03*
X476310Y36360D03*
D20*
X490690Y50740D03*
X490690Y58740D03*
X490690Y66740D03*
X490690Y74740D03*
X490690Y82740D03*
X490690Y90740D03*
X490690Y98740D03*
X490690Y106740D03*
D15*
X187960Y26220D03*
X200660Y26220D03*
X213360Y26220D03*
X226060Y26220D03*
X226060Y80460D03*
X213360Y80460D03*
X200660Y80460D03*
X187960Y80460D03*
X86360Y24950D03*
X99060Y24950D03*
X111760Y24950D03*
X124460Y24950D03*
X124460Y79190D03*
X111760Y79190D03*
X99060Y79190D03*
X86360Y79190D03*
D21*
X503480Y203900D03*
X522680Y203900D03*
X513080Y227900D03*
D22*
X510540Y60715D03*
X510540Y77715D03*
D23*
X400210Y160020D03*
X420210Y160020D03*
X420210Y199390D03*
X400210Y199390D03*
X420210Y179705D03*
X400210Y179705D03*
X420210Y140970D03*
X400210Y140970D03*
D24*
X483870Y13970D03*
D25*
X458470Y13970D03*
X433070Y13970D03*
X407670Y13970D03*
D10*
X361950Y158910D03*
X361950Y178910D03*
X361950Y217010D03*
X361950Y197010D03*
D26*
X546100Y17780D03*
X521970Y17780D03*
X521970Y39370D03*
X546100Y40640D03*
X516890Y260985D03*
X546100Y261620D03*
X532765Y248920D03*
X487680Y261620D03*
X501650Y249555D03*
X559435Y248920D03*
D27*
X342900Y175260D03*
X330200Y175260D03*
X317500Y175260D03*
X304800Y175260D03*
D26*
X15240Y209550D03*
X44450Y209550D03*
X44450Y234950D03*
X15240Y234950D03*
X15240Y260350D03*
X44450Y260350D03*
D27*
X330200Y124460D03*
X330200Y137160D03*
X330200Y149860D03*
X330200Y162560D03*
X341630Y124460D03*
X341630Y137160D03*
X341630Y149860D03*
X341630Y162560D03*
X304800Y124460D03*
X304800Y137160D03*
X304800Y149860D03*
X304800Y162560D03*
X316230Y124460D03*
X316230Y137160D03*
X316230Y149860D03*
X316230Y162560D03*
X342900Y187960D03*
X330200Y187960D03*
X317500Y187960D03*
D26*
X11430Y175895D03*
D27*
X232410Y167640D03*
X219710Y167640D03*
X219710Y154940D03*
X232410Y154940D03*
X232410Y142240D03*
X219710Y142240D03*
X219710Y129540D03*
X232410Y129540D03*
X207010Y167640D03*
X194310Y167640D03*
X194310Y154940D03*
X207010Y154940D03*
X207010Y142240D03*
X194310Y142240D03*
X194310Y129540D03*
X207010Y129540D03*
D26*
X48260Y16510D03*
X19050Y16510D03*
X19050Y43180D03*
X46990Y71120D03*
X19050Y71120D03*
X48260Y43180D03*
M02*
