G04 EAGLE Gerber RS-274X export*
G75*
%MOMM*%
%FSLAX34Y34*%
%LPD*%
%INSolderpaste Top*%
%IPPOS*%
%AMOC8*
5,1,8,0,0,1.08239X$1,22.5*%
G01*
%ADD10R,1.600000X1.300000*%
%ADD11R,1.390000X1.050000*%
%ADD12R,1.050000X1.390000*%
%ADD13R,1.070000X0.980000*%
%ADD14R,1.475000X0.450000*%
%ADD15R,0.700000X1.525000*%
%ADD16R,1.500000X1.000000*%
%ADD17R,1.800000X1.000000*%
%ADD18R,3.700000X2.200000*%
%ADD19R,0.600000X1.475000*%
%ADD20R,1.475000X0.600000*%
%ADD21R,0.600000X0.850000*%
%ADD22R,1.100000X1.000000*%
%ADD23R,1.300000X1.600000*%


D10*
X245110Y70010D03*
X245110Y90010D03*
X143510Y70010D03*
X143510Y90010D03*
D11*
X485140Y218955D03*
X485140Y203955D03*
X525145Y144265D03*
X525145Y159265D03*
D10*
X346710Y51910D03*
X346710Y31910D03*
X346710Y70010D03*
X346710Y90010D03*
X143510Y51910D03*
X143510Y31910D03*
D12*
X440810Y138430D03*
X455810Y138430D03*
D11*
X400685Y228085D03*
X400685Y243085D03*
X546100Y216415D03*
X546100Y201415D03*
D10*
X245110Y51910D03*
X245110Y31910D03*
D13*
X368300Y62220D03*
X368300Y29220D03*
X266700Y57140D03*
X266700Y24140D03*
X165100Y57140D03*
X165100Y24140D03*
D14*
X504360Y151315D03*
X504360Y157815D03*
X504360Y164315D03*
X504360Y170815D03*
X504360Y177315D03*
X504360Y183815D03*
X504360Y190315D03*
X445600Y190315D03*
X445600Y183815D03*
X445600Y177315D03*
X445600Y170815D03*
X445600Y164315D03*
X445600Y157815D03*
X445600Y151315D03*
D15*
X289560Y26220D03*
X302260Y26220D03*
X314960Y26220D03*
X327660Y26220D03*
X327660Y80460D03*
X314960Y80460D03*
X302260Y80460D03*
X289560Y80460D03*
D16*
X467030Y214870D03*
D17*
X465530Y229870D03*
D16*
X467030Y244870D03*
D18*
X438030Y229870D03*
D19*
X476310Y121120D03*
X468310Y121120D03*
X460310Y121120D03*
X452310Y121120D03*
X444310Y121120D03*
X436310Y121120D03*
X428310Y121120D03*
X420310Y121120D03*
D20*
X405930Y106740D03*
X405930Y98740D03*
X405930Y90740D03*
X405930Y82740D03*
X405930Y74740D03*
X405930Y66740D03*
X405930Y58740D03*
X405930Y50740D03*
D19*
X420310Y36360D03*
X428310Y36360D03*
X436310Y36360D03*
X444310Y36360D03*
X452310Y36360D03*
X460310Y36360D03*
X468310Y36360D03*
X476310Y36360D03*
D20*
X490690Y50740D03*
X490690Y58740D03*
X490690Y66740D03*
X490690Y74740D03*
X490690Y82740D03*
X490690Y90740D03*
X490690Y98740D03*
X490690Y106740D03*
D15*
X187960Y26220D03*
X200660Y26220D03*
X213360Y26220D03*
X226060Y26220D03*
X226060Y80460D03*
X213360Y80460D03*
X200660Y80460D03*
X187960Y80460D03*
X86360Y24950D03*
X99060Y24950D03*
X111760Y24950D03*
X124460Y24950D03*
X124460Y79190D03*
X111760Y79190D03*
X99060Y79190D03*
X86360Y79190D03*
D21*
X503480Y203900D03*
X522680Y203900D03*
X513080Y227900D03*
D22*
X510540Y60715D03*
X510540Y77715D03*
D23*
X400210Y160020D03*
X420210Y160020D03*
X420210Y199390D03*
X400210Y199390D03*
X420210Y179705D03*
X400210Y179705D03*
X420210Y140970D03*
X400210Y140970D03*
D10*
X361950Y158910D03*
X361950Y178910D03*
X361950Y217010D03*
X361950Y197010D03*
M02*
