G04 EAGLE Gerber RS-274X export*
G75*
%MOMM*%
%FSLAX34Y34*%
%LPD*%
%INSolderpaste Bottom*%
%IPPOS*%
%AMOC8*
5,1,8,0,0,1.08239X$1,22.5*%
G01*
%ADD10R,0.610000X1.270000*%
%ADD11R,0.610000X1.020000*%
%ADD12R,3.910000X3.810000*%
%ADD13R,1.000000X1.100000*%
%ADD14R,2.000000X1.500000*%
%ADD15R,3.000000X3.000000*%
%ADD16R,1.300000X1.600000*%
%ADD17R,1.200000X1.200000*%
%ADD18R,1.000000X0.700000*%


D10*
X340360Y191740D03*
X327660Y191740D03*
X314960Y191740D03*
X302260Y191740D03*
D11*
X302260Y246390D03*
X314960Y246390D03*
X327660Y246390D03*
X340360Y246390D03*
D12*
X321310Y225340D03*
D10*
X340360Y102840D03*
X327660Y102840D03*
X314960Y102840D03*
X302260Y102840D03*
D11*
X302260Y157490D03*
X314960Y157490D03*
X327660Y157490D03*
X340360Y157490D03*
D12*
X321310Y136440D03*
D10*
X226060Y191740D03*
X213360Y191740D03*
X200660Y191740D03*
X187960Y191740D03*
D11*
X187960Y246390D03*
X200660Y246390D03*
X213360Y246390D03*
X226060Y246390D03*
D12*
X207010Y225340D03*
D10*
X226060Y102840D03*
X213360Y102840D03*
X200660Y102840D03*
X187960Y102840D03*
D11*
X187960Y157490D03*
X200660Y157490D03*
X213360Y157490D03*
X226060Y157490D03*
D12*
X207010Y136440D03*
D10*
X111760Y191740D03*
X99060Y191740D03*
X86360Y191740D03*
X73660Y191740D03*
D11*
X73660Y246390D03*
X86360Y246390D03*
X99060Y246390D03*
X111760Y246390D03*
D12*
X92710Y225340D03*
D10*
X111760Y102840D03*
X99060Y102840D03*
X86360Y102840D03*
X73660Y102840D03*
D11*
X73660Y157490D03*
X86360Y157490D03*
X99060Y157490D03*
X111760Y157490D03*
D12*
X92710Y136440D03*
D13*
X461255Y30480D03*
X444255Y30480D03*
D14*
X276860Y219470D03*
X276860Y189470D03*
X253365Y219470D03*
X253365Y189470D03*
X516890Y199150D03*
X516890Y169150D03*
X488950Y199150D03*
X488950Y169150D03*
X461010Y199150D03*
X461010Y169150D03*
X433070Y199150D03*
X433070Y169150D03*
X405130Y199150D03*
X405130Y169150D03*
D15*
X549910Y91440D03*
X549910Y127000D03*
X550545Y162560D03*
D16*
X439580Y84455D03*
X459580Y84455D03*
D17*
X461350Y102235D03*
X440350Y102235D03*
D18*
X482120Y153120D03*
X422120Y153120D03*
X482120Y116120D03*
X422120Y116120D03*
D14*
X132715Y219470D03*
X132715Y189470D03*
X156210Y219470D03*
X156210Y189470D03*
M02*
