M48
;GenerationSoftware,Autodesk,EAGLE,9.6.2*%
;CreationDate,2022-06-29T21:21:11Z*%
FMAT,2
ICI,OFF
METRIC,TZ,000.000
T6C0.250
T5C0.254
T4C0.350
T3C0.550
T2C1.000
T1C1.200
%
G90
M71
T1
X43307Y1397
X45847Y1397
X48387Y1397
X40767Y1397
T2
X50165Y24955
X1524Y23495
X1524Y26035
X4445Y26035
X1524Y20955
X54610Y1778
X52197Y1778
X52197Y3937
X54610Y4064
X4445Y20955
X4826Y4318
X1905Y7112
X4699Y7112
X51689Y26098
X54610Y26162
X53276Y24892
X48768Y26162
X1905Y4318
X1905Y1651
X55943Y24892
X4826Y1651
X1143Y17590
X4445Y23495
T3
X19431Y14224
X19431Y12954
X34163Y16256
X20701Y14224
X34163Y12446
X34290Y17526
X33020Y17526
X31750Y17526
X30480Y17526
X33020Y12446
X33020Y13716
X33020Y14986
X33020Y16256
X20701Y12954
X34163Y13716
X34163Y14986
X30480Y12446
X30480Y13716
X30480Y14986
X30480Y16256
X31623Y12446
X31623Y13716
X31623Y14986
X31623Y16256
X34290Y18796
X33020Y18796
X31750Y18796
X23241Y16764
X21971Y16764
X21971Y15494
X23241Y15494
X23241Y14224
X21971Y14224
X21971Y12954
X23241Y12954
X20701Y16764
X19431Y16764
X19431Y15494
X20701Y15494
T4
X26035Y7747
X35433Y13716
X36703Y13589
X45593Y14224
X36322Y14478
X40069Y13906
X36068Y21844
X37338Y11493
X53264Y19864
X17165Y10513
X26797Y11176
X27051Y8763
X37322Y8573
X36322Y12700
T5
X44577Y2032
T6
X15430Y10732
X7620Y8954
X28003Y1460
X29654Y1334
X21273Y1334
X37148Y7239
X36068Y7810
X15748Y8827
X33338Y9271
X23114Y5715
X22034Y6731
X20765Y6794
X32321Y6731
X31051Y6731
X7112Y26479
X52514Y17018
X52006Y17399
X54737Y14986
X56007Y15938
X56007Y14986
X52768Y12065
X51816Y12065
X48641Y12700
X51117Y14287
X49847Y13398
X12446Y10732
X25400Y12319
X27559Y12382
X27559Y17463
X24828Y18669
X17653Y18796
X6540Y19368
X15557Y18733
X17145Y11366
X28829Y16510
X20066Y11303
X14351Y10732
X13335Y10732
X41910Y8382
X11557Y10732
X10668Y10732
X25400Y13589
X25400Y14859
X25400Y16129
X25400Y17399
X26670Y14859
X26670Y16129
X26670Y13589
X26670Y12319
X26670Y17399
X28765Y12319
X13335Y18733
X42799Y5207
X45275Y6858
X42799Y7112
X45212Y5207
X16849Y8827
X47371Y5207
X28448Y8509
X28829Y6604
X33020Y5334
X21082Y4572
X12319Y4445
X8064Y4064
X47307Y15811
X51943Y10668
X42228Y24828
X43498Y24765
X44767Y24828
X45148Y25463
X43561Y25717
X42355Y25654
X44132Y25273
X42863Y25273
X15938Y6858
X7366Y1016
X9271Y1016
X33020Y4699
X12954Y6604
X7810Y5524
X18923Y1080
X22733Y4572
X18796Y4445
X46926Y17399
X48260Y15621
X42037Y10668
X41085Y11620
X14351Y5461
X35687Y9017
X38481Y18606
X38037Y20130
X24511Y5461
X34671Y5461
X52006Y9906
X54737Y15938
X54737Y17018
X49466Y14224
X48895Y13716
X52832Y10732
X50736Y12001
X56070Y17018
X28829Y4572
X52578Y14287
X48831Y17399
X46482Y16447
X47498Y13716
X51752Y17018
X52832Y9906
X44577Y572
X42037Y635
X6985Y7112
X30988Y4572
X24892Y9271
X37704Y9604
X37910Y10922
X18923Y6477
X10414Y5588
X10414Y4445
X42672Y9525
X47561Y9716
X39307Y9843
X38545Y11176
X38418Y16955
X11112Y1016
X13398Y1905
X15494Y1905
X15621Y3175
X9716Y10668
X16637Y4763
X33655Y2096
X36005Y2096
X43371Y18415
X38862Y19885
X23431Y2096
X25717Y2032
X25781Y3302
X26797Y4699
X35941Y3683
X37021Y5207
X30226Y9525
X18280Y8517
X7366Y19495
X17272Y19495
X16256Y10160
X18796Y9462
X42037Y12700
X49212Y9081
X50482Y9398
X46291Y8700
X36640Y17907
X38536Y17780
X39370Y11684
X40163Y10668
X37846Y3175
X39180Y7747
X40196Y12446
X8700Y10351
M30